<svg xmlns="http://www.w3.org/2000/svg" xmlns:xlink="http://www.w3.org/1999/xlink" style="background:0 0" width="128" height="128" class="ldi-23tqnq" preserveAspectRatio="xMidYMid" viewBox="0 0 100 100"><svg xmlns="http://www.w3.org/2000/svg" xmlns:xlink="http://www.w3.org/1999/xlink" style="transform-origin:50px 50px 0" id="Layer_1" x="0" y="0" version="1.1" viewBox="0 0 100 100" xml:space="preserve"><g style="transform-origin:50px 50px 0"><g style="transform-origin:50px 50px 0;transform:scale(1)"><g class="ld ld-heartbeat" style="transform-origin:50px 50px 0;animation-duration:10s;animation-delay:-10s;animation-direction:normal"><g><g style="transform-origin:50px 50px 0;animation-duration:1s;animation-delay:-1s;animation-direction:normal"><circle cx="50" cy="50" r="40" fill="#F5E169" style="fill:#f5e169"/></g><g style="transform-origin:50px 50px 0;animation-duration:1s;animation-delay:-.947368s;animation-direction:normal"><circle cx="50" cy="50" r="30" stroke="#F7B26A" style="fill:none;stroke:#f7b26a;stroke-width:6;stroke-linecap:round;stroke-linejoin:round;stroke-miterlimit:10"/></g><g style="transform-origin:50px 50px 0;animation-duration:1s;animation-delay:-.894737s;animation-direction:normal"><path fill="#000" d="M21.716,78.284C28.954,85.523,38.954,90,50,90c22.091,0,40-17.909,40-40 c0-11.046-4.477-21.046-11.716-28.284L21.716,78.284z" style="opacity:.1;fill:#000"/></g><g style="transform-origin:50px 50px 0;animation-duration:1s;animation-delay:-.684211s;animation-direction:normal"><path fill="#FFF" d="M42.395,19.487l-3.801-0.271c-2.94-0.21-5.27-2.564-5.45-5.506l-0.267-4.38 c-0.017-0.27-0.241-0.481-0.512-0.481H32.25c-0.271,0-0.495,0.211-0.512,0.481l-0.267,4.38c-0.18,2.942-2.51,5.296-5.45,5.506 l-3.801,0.271c-0.24,0.017-0.456,0.186-0.496,0.424c-0.052,0.307,0.171,0.579,0.469,0.601l3.829,0.273 c2.94,0.21,5.27,2.564,5.45,5.506l0.267,4.38c0.017,0.27,0.241,0.481,0.512,0.481h0.115c0.271,0,0.495-0.211,0.512-0.481l0.267-4.38 c0.18-2.942,2.51-5.296,5.45-5.506l3.828-0.273c0.298-0.021,0.521-0.293,0.469-0.601C42.85,19.673,42.635,19.504,42.395,19.487z" style="fill:#fff"/></g><g style="transform-origin:50px 50px 0;animation-duration:1s;animation-delay:-.631579s;animation-direction:normal"><path fill="#FFF" d="M26.138,59.809l-2.313-0.165c-1.789-0.128-3.207-1.56-3.316-3.35l-0.163-2.665 c-0.01-0.165-0.146-0.293-0.311-0.293h-0.07c-0.165,0-0.301,0.128-0.311,0.293l-0.163,2.665c-0.109,1.79-1.527,3.223-3.316,3.35 l-2.313,0.165c-0.146,0.01-0.277,0.113-0.302,0.258c-0.032,0.187,0.104,0.353,0.285,0.365l2.329,0.166 c1.789,0.128,3.207,1.56,3.316,3.35l0.163,2.665c0.01,0.165,0.146,0.293,0.311,0.293h0.07c0.165,0,0.301-0.128,0.311-0.293 l0.163-2.665c0.109-1.79,1.527-3.223,3.316-3.35l2.329-0.166c0.181-0.013,0.317-0.179,0.285-0.365 C26.415,59.923,26.284,59.82,26.138,59.809z" style="fill:#fff"/></g><g style="transform-origin:50px 50px 0;animation-duration:1s;animation-delay:-.578947s;animation-direction:normal"><path fill="#FFF" d="M93.406,37.919l-4.485-0.32c-3.469-0.247-6.218-3.025-6.43-6.496l-0.316-5.168 c-0.019-0.319-0.284-0.568-0.604-0.568h-0.135c-0.32,0-0.584,0.249-0.604,0.568l-0.316,5.168c-0.212,3.471-2.962,6.249-6.43,6.496 l-4.485,0.32c-0.283,0.02-0.537,0.22-0.585,0.5c-0.062,0.362,0.202,0.684,0.553,0.709l4.517,0.322 c3.469,0.247,6.218,3.025,6.43,6.496l0.316,5.168c0.019,0.319,0.284,0.568,0.604,0.568h0.135c0.32,0,0.584-0.249,0.604-0.568 l0.316-5.168c0.212-3.471,2.962-6.249,6.43-6.496l4.517-0.322c0.351-0.025,0.614-0.346,0.553-0.709 C93.943,38.139,93.689,37.939,93.406,37.919z" style="fill:#fff"/></g><metadata xmlns:d="https://loading.io/stock/" style="transform-origin:50px 50px 0;animation-duration:1s;animation-delay:-.526316s;animation-direction:normal"><d:name style="transform-origin:50px 50px 0;animation-duration:1s;animation-delay:-.473684s;animation-direction:normal">money</d:name><d:tags style="transform-origin:50px 50px 0;animation-duration:1s;animation-delay:-.421053s;animation-direction:normal">money,price,revenue,profit,evaluation,value,dollar,bucks,cent,coin,credit,currency,coin,credit</d:tags><d:license style="transform-origin:50px 50px 0;animation-duration:1s;animation-delay:-.368421s;animation-direction:normal">cc-by</d:license><d:slug style="transform-origin:50px 50px 0;animation-duration:1s;animation-delay:-.315789s;animation-direction:normal">23tqnq</d:slug></metadata></g></g></g></g><style style="transform-origin:50px 50px 0px;animation-duration:1s;animation-delay:-0.263158s;animation-direction:normal" type="text/css">@keyframes ld-heartbeat{0%,60%{-webkit-transform:scale(1.05);transform:scale(1.05)}5%{-webkit-transform:scale(1.25);transform:scale(1.25)}39%{-webkit-transform:scale(.9);transform:scale(.9)}45%{-webkit-transform:scale(1.15);transform:scale(1.15)}}@-webkit-keyframes ld-heartbeat{0%,60%{-webkit-transform:scale(1.05);transform:scale(1.05)}5%{-webkit-transform:scale(1.25);transform:scale(1.25)}39%{-webkit-transform:scale(.9);transform:scale(.9)}45%{-webkit-transform:scale(1.15);transform:scale(1.15)}}.ld.ld-heartbeat{-webkit-animation:ld-heartbeat .8s infinite cubic-bezier(.215,.61,.355,1);animation:ld-heartbeat .8s infinite cubic-bezier(.215,.61,.355,1)}</style></svg></svg>