<svg id="Layer_3" enable-background="new 0 0 64 64" height="512" viewBox="0 0 64 64" width="512" xmlns="http://www.w3.org/2000/svg"><path d="m4 2h56v36h-56z" fill="#cb9e78"/><path d="m48 32h4v6h-4z" fill="#dc6068"/><path d="m56 32h4v6h-4z" fill="#71b38e"/><path d="m40 30h4v8h-4z" fill="#71b38e"/><path d="m44 30h4v8h-4z" fill="#f8cf6a"/><path d="m52 30h4v8h-4z" fill="#f8cf6a"/><path d="m28 24h6v4h-6z" fill="#5b6673"/><path d="m22 32h12v6h-12z" fill="#444d56"/><path d="m22 32h9v6h-9z" fill="#5b6673"/><circle cx="12" cy="27" fill="#f8cf6a" r="3"/><path d="m16 38h-8v-4c0-2.209 1.791-4 4-4 2.209 0 4 1.791 4 4z" fill="#ba9b50"/><path d="m10.5 30.297c-1.465.594-2.5 2.025-2.5 3.703v4h5v-4c0-1.678-1.035-3.109-2.5-3.703z" fill="#f8cf6a"/><path d="m8 6h48v10h-48z" fill="#f1f1f1"/><path d="m24 12h4v4h-4z" fill="#71b38e"/><path d="m36 12h4v4h-4z" fill="#f8cf6a"/><path d="m48 12h4v4h-4z" fill="#dc6068"/><path d="m52 12h4v4h-4z" fill="#f8cf6a"/><path d="m8 10h4v6h-4z" fill="#dc6068"/><path d="m12 10h4v6h-4z" fill="#f8cf6a"/><path d="m16 10h4v6h-4z" fill="#dc6068"/><path d="m20 10h4v6h-4z" fill="#f8cf6a"/><path d="m28 10h4v6h-4z" fill="#f8cf6a"/><path d="m32 10h4v6h-4z" fill="#71b38e"/><path d="m40 10h4v6h-4z" fill="#71b38e"/><path d="m44 10h4v6h-4z" fill="#f8cf6a"/><path d="m4 42h56v20h-56z" fill="#725944"/><path d="m4 42h53v20h-53z" fill="#98775a"/><path d="m21 48h22v8h-22z" fill="#e3e3e3"/><path d="m21 48h19v8h-19z" fill="#f1f1f1"/><path d="m2 38h60v4h-60z" fill="#98775a"/><path d="m2 38h57v4h-57z" fill="#cb9e78"/><g fill="#b5b5b5"><path d="m30 28h2v4h-2z"/><path d="m24 51h16v2h-16z"/></g></svg>