<?xml version="1.0" encoding="UTF-8"?>
<!DOCTYPE svg PUBLIC "-//W3C//DTD SVG 1.0//EN" "http://www.w3.org/TR/2001/REC-SVG-20010904/DTD/svg10.dtd">
<!-- Creator: CorelDRAW 2019 (64-Bit) -->
<svg xmlns="http://www.w3.org/2000/svg" xml:space="preserve" width="190px" height="48px" version="1.0" style="shape-rendering:geometricPrecision; text-rendering:geometricPrecision; image-rendering:optimizeQuality; fill-rule:evenodd; clip-rule:evenodd"
viewBox="0 0 190 48"
 xmlns:xlink="http://www.w3.org/1999/xlink">
 <defs>
  <style type="text/css">
   <![CDATA[
    .fil0 {fill:#FEFEFE}
    .fil1 {fill:#FEFEFE;fill-rule:nonzero}
    .fil3 {fill:#FEFEFE;fill-rule:nonzero}
    .fil2 {fill:#E3E3E3;fill-rule:nonzero}
   ]]>
  </style>
 </defs>
 <g id="Layer_x0020_1">
  <metadata id="CorelCorpID_0Corel-Layer"/>
  <g id="_2621600620640">
   <path class="fil0" d="M31.76 0l11.79 6 11.8 6 0 12 0 12 -11.8 6 -11.79 6 -11.8 -6 -11.8 -6 0 -12 0 -12 11.8 -6 11.8 -6zm-16.73 15.18l0 17.64c0.12,0.08 0.35,0.19 0.49,0.25 0.43,0.2 1.02,0.53 1.47,0.75 0.33,0.16 0.67,0.33 0.99,0.5 0.95,0.5 2.01,1 2.97,1.5 0.67,0.35 1.32,0.67 1.98,1.01 2.65,1.34 5.25,2.66 7.93,4.01 0.16,0.08 0.32,0.16 0.48,0.25 0.52,0.28 0.33,0.23 1.02,-0.11l5.45 -2.76c0.33,-0.16 0.66,-0.35 0.99,-0.5 0.54,-0.24 1.4,-0.71 1.98,-1 0.32,-0.16 0.67,-0.33 0.99,-0.5 0.94,-0.5 2.04,-1.01 2.97,-1.51l1.48 -0.75c0.15,-0.07 0.36,-0.16 0.5,-0.25 -0.01,-0.11 -1.18,-2.49 -1.26,-2.64 -0.08,-0.16 -1.22,-2.56 -1.29,-2.63 -0.22,0.1 -0.48,0.25 -0.72,0.36l-2.19 1.11c-0.47,0.24 -0.99,0.48 -1.46,0.74 -0.46,0.26 -1,0.49 -1.46,0.74 -0.49,0.26 -0.97,0.5 -1.46,0.74 -0.48,0.24 -0.99,0.49 -1.47,0.74 -0.47,0.26 -1,0.49 -1.46,0.74l-2.19 1.1c-0.08,0.01 -10.24,-5.16 -10.24,-5.16 -0.22,-0.11 -0.54,-0.25 -0.73,-0.38l0 -10.34 1.44 -0.74c0.5,-0.25 0.98,-0.5 1.47,-0.74 0.95,-0.48 1.92,-0.98 2.91,-1.48 1,-0.5 1.92,-0.96 2.91,-1.47l2.19 -1.1c0.1,-0.04 0.28,0.1 0.37,0.14 1.59,0.76 3.18,1.65 4.73,2.4 0.5,0.23 0.98,0.5 1.47,0.74 0.93,0.45 1.96,0.99 2.91,1.47 0.49,0.24 0.97,0.51 1.46,0.74 0.22,0.1 1.33,0.7 1.5,0.74 0.06,-0.2 0.21,-0.45 0.3,-0.65l0.64 -1.32c0.16,-0.33 1.57,-3.2 1.58,-3.29l-5.92 -3c-0.6,-0.28 -1.36,-0.69 -1.98,-1.01 -0.67,-0.33 -1.31,-0.67 -1.97,-0.99 -0.65,-0.33 -1.31,-0.68 -1.98,-1l-1.22 -0.62c-0.55,-0.28 -1.26,-0.62 -1.75,-0.89 -0.14,-0.08 -0.18,-0.01 -0.5,0.16 -1.08,0.57 -2.35,1.18 -3.46,1.74 -0.34,0.17 -0.66,0.36 -0.99,0.51 -0.66,0.3 -1.32,0.68 -1.98,1 -0.32,0.15 -0.67,0.33 -0.99,0.5 -0.33,0.17 -0.66,0.33 -0.99,0.5 -0.65,0.34 -1.32,0.66 -1.97,0.99l-5.94 3.02z"/>
   <path class="fil1" d="M69.75 30.28c-2.43,0 -4.46,-0.82 -6.1,-2.45 -1.62,-1.64 -2.43,-3.68 -2.43,-6.12 0,-2.44 0.81,-4.48 2.43,-6.09 1.62,-1.65 3.65,-2.48 6.1,-2.48 2.47,0 4.48,0.9 6.02,2.68l-1.51 1.47c-1.18,-1.42 -2.68,-2.13 -4.51,-2.13 -1.82,0 -3.34,0.61 -4.56,1.83 -1.21,1.21 -1.81,2.78 -1.81,4.72 0,1.94 0.6,3.51 1.81,4.72 1.22,1.22 2.74,1.83 4.56,1.83 1.9,0 3.56,-0.8 4.97,-2.4l1.53 1.48c-0.78,0.94 -1.73,1.66 -2.86,2.17 -1.13,0.51 -2.35,0.77 -3.64,0.77zm7.97 -5.98c0,-1.73 0.54,-3.16 1.62,-4.29 1.1,-1.13 2.49,-1.69 4.15,-1.69 1.67,0 3.04,0.56 4.12,1.69 1.1,1.13 1.65,2.56 1.65,4.29 0,1.74 -0.55,3.17 -1.65,4.28 -1.08,1.13 -2.45,1.7 -4.12,1.7 -1.66,0 -3.05,-0.57 -4.15,-1.7 -1.08,-1.13 -1.62,-2.56 -1.62,-4.28zm2.11 0c0,1.2 0.35,2.18 1.05,2.93 0.7,0.75 1.57,1.12 2.61,1.12 1.04,0 1.91,-0.37 2.61,-1.12 0.7,-0.75 1.06,-1.73 1.06,-2.93 0,-1.19 -0.36,-2.16 -1.06,-2.91 -0.72,-0.77 -1.59,-1.15 -2.61,-1.15 -1.02,0 -1.89,0.38 -2.61,1.15 -0.7,0.75 -1.05,1.72 -1.05,2.91zm16.4 4.05c1.04,0 1.88,-0.37 2.54,-1.12 0.69,-0.75 1.03,-1.73 1.03,-2.93 0,-1.18 -0.34,-2.15 -1.03,-2.91 -0.67,-0.77 -1.52,-1.15 -2.54,-1.15 -1.01,0 -1.86,0.38 -2.54,1.15 -0.69,0.76 -1.04,1.73 -1.04,2.91 0,1.19 0.35,2.16 1.04,2.91 0.68,0.76 1.53,1.14 2.54,1.14zm-0.35 1.93c-1.46,0 -2.72,-0.58 -3.78,-1.74 -1.03,-1.18 -1.55,-2.59 -1.55,-4.24 0,-1.65 0.52,-3.06 1.55,-4.24 1.06,-1.16 2.32,-1.74 3.78,-1.74 0.83,0 1.58,0.17 2.26,0.53 0.68,0.35 1.2,0.81 1.57,1.39l0.09 0 -0.09 -1.55 0 -5.18 2.11 0 0 16.4 -2.02 0 0 -1.56 -0.09 0c-0.37,0.58 -0.89,1.05 -1.57,1.4 -0.68,0.35 -1.43,0.53 -2.26,0.53zm13.54 0c-1.65,0 -3.01,-0.57 -4.07,-1.7 -1.07,-1.13 -1.61,-2.56 -1.61,-4.28 0,-1.71 0.52,-3.14 1.56,-4.27 1.04,-1.14 2.37,-1.71 3.99,-1.71 1.66,0 2.99,0.54 3.97,1.61 0.99,1.08 1.48,2.59 1.48,4.53l-0.02 0.23 -8.82 0c0.03,1.1 0.39,1.98 1.1,2.65 0.7,0.68 1.54,1.01 2.51,1.01 1.35,0 2.4,-0.67 3.17,-2.01l1.88 0.91c-0.51,0.95 -1.21,1.69 -2.1,2.23 -0.89,0.53 -1.91,0.8 -3.04,0.8zm-3.36 -7.33l6.43 0c-0.06,-0.78 -0.37,-1.43 -0.95,-1.94 -0.57,-0.51 -1.34,-0.77 -2.3,-0.77 -0.79,0 -1.48,0.25 -2.05,0.74 -0.57,0.48 -0.95,1.14 -1.13,1.97zm16.05 6.96l-2.1 0 -4.54 -11.22 2.29 0 3.3 8.7 0.05 0 3.34 -8.7 2.25 0 -4.59 11.22zm8.69 -15.1c0,0.42 -0.15,0.77 -0.44,1.06 -0.29,0.29 -0.64,0.43 -1.05,0.43 -0.41,0 -0.77,-0.14 -1.06,-0.43 -0.29,-0.29 -0.43,-0.64 -0.43,-1.06 0,-0.41 0.14,-0.76 0.43,-1.05 0.29,-0.29 0.65,-0.44 1.06,-0.44 0.41,0 0.76,0.15 1.05,0.44 0.29,0.29 0.44,0.64 0.44,1.05zm-0.44 3.88l0 11.22 -2.11 0 0 -11.22 2.11 0zm7.79 9.66c1.04,0 1.89,-0.37 2.54,-1.12 0.69,-0.75 1.03,-1.73 1.03,-2.93 0,-1.18 -0.34,-2.15 -1.03,-2.91 -0.67,-0.77 -1.52,-1.15 -2.54,-1.15 -1.01,0 -1.85,0.38 -2.54,1.15 -0.69,0.76 -1.03,1.73 -1.03,2.91 0,1.19 0.34,2.16 1.03,2.91 0.69,0.76 1.53,1.14 2.54,1.14zm-0.34 1.93c-1.47,0 -2.73,-0.58 -3.78,-1.74 -1.04,-1.18 -1.56,-2.59 -1.56,-4.24 0,-1.65 0.52,-3.06 1.56,-4.24 1.05,-1.16 2.31,-1.74 3.78,-1.74 0.82,0 1.57,0.17 2.25,0.53 0.68,0.35 1.21,0.81 1.57,1.39l0.09 0 -0.09 -1.55 0 -5.18 2.11 0 0 16.4 -2.02 0 0 -1.56 -0.09 0c-0.36,0.58 -0.89,1.05 -1.57,1.4 -0.68,0.35 -1.43,0.53 -2.25,0.53zm8.5 -16.77l2.1 0 0 5.18 -0.09 1.55 0.09 0c0.33,-0.55 0.82,-1 1.48,-1.37 0.67,-0.37 1.36,-0.55 2.07,-0.55 1.38,0 2.44,0.39 3.18,1.18 0.74,0.79 1.11,1.9 1.11,3.35l0 7.06 -2.11 0 0 -6.64c0,-2.02 -0.89,-3.03 -2.68,-3.03 -0.85,0 -1.58,0.36 -2.16,1.07 -0.59,0.71 -0.89,1.54 -0.89,2.48l0 6.12 -2.1 0 0 -16.4zm22.45 5.18l-7.04 16.17 -2.17 0 2.61 -5.66 -4.63 -10.51 2.29 0 3.35 8.06 0.04 0 3.26 -8.06 2.29 0zm2.91 7.78c0,0.55 0.23,1.01 0.7,1.38 0.46,0.37 1.01,0.55 1.63,0.55 0.89,0 1.68,-0.33 2.37,-0.99 0.7,-0.65 1.05,-1.42 1.05,-2.31 -0.66,-0.52 -1.58,-0.78 -2.75,-0.78 -0.86,0 -1.57,0.21 -2.14,0.62 -0.58,0.41 -0.86,0.92 -0.86,1.53zm2.72 -8.15c1.56,0 2.79,0.41 3.69,1.25 0.9,0.83 1.35,1.97 1.35,3.42l0 6.92 -2.01 0 0 -1.56 -0.09 0c-0.87,1.29 -2.04,1.93 -3.49,1.93 -1.23,0 -2.27,-0.37 -3.1,-1.1 -0.83,-0.74 -1.25,-1.65 -1.25,-2.75 0,-1.16 0.44,-2.09 1.32,-2.77 0.88,-0.69 2.05,-1.03 3.51,-1.03 1.26,0 2.29,0.22 3.1,0.68l0 -0.48c0,-0.73 -0.29,-1.35 -0.87,-1.87 -0.58,-0.51 -1.26,-0.76 -2.04,-0.76 -1.18,0 -2.11,0.49 -2.8,1.49l-1.85 -1.17c1.02,-1.47 2.53,-2.2 4.53,-2.2z"/>
   <path class="fil2" d="M69.8 35.5l0 0.5 -0.48 0 0 4.01 0.48 0 0 0.5 -1.56 0 0 -0.5 0.49 0 0 -4.01 -0.49 0 0 -0.5 1.56 0zm3.73 5.01l-0.58 0 0 -2.04c0,-0.77 -0.28,-1.15 -0.83,-1.15 -0.29,0 -0.52,0.11 -0.71,0.33 -0.19,0.21 -0.28,0.49 -0.28,0.82l0 2.04 -0.58 0 0 -3.58 0.58 0 0 0.59 0.01 0c0.27,-0.45 0.66,-0.68 1.18,-0.68 0.39,0 0.69,0.13 0.89,0.38 0.21,0.26 0.32,0.62 0.32,1.1l0 2.19zm0.86 -0.13l0 -0.62c0.31,0.24 0.66,0.35 1.03,0.35 0.5,0 0.75,-0.16 0.75,-0.5 0,-0.1 -0.02,-0.18 -0.06,-0.25 -0.04,-0.06 -0.1,-0.12 -0.18,-0.17 -0.07,-0.05 -0.15,-0.1 -0.25,-0.14 -0.1,-0.04 -0.21,-0.08 -0.32,-0.13 -0.16,-0.06 -0.3,-0.13 -0.42,-0.19 -0.12,-0.06 -0.22,-0.13 -0.3,-0.22 -0.08,-0.08 -0.14,-0.17 -0.18,-0.27 -0.04,-0.1 -0.06,-0.22 -0.06,-0.36 0,-0.17 0.04,-0.32 0.11,-0.45 0.08,-0.13 0.18,-0.23 0.31,-0.32 0.13,-0.09 0.27,-0.16 0.44,-0.2 0.16,-0.04 0.33,-0.07 0.51,-0.07 0.3,0 0.58,0.06 0.83,0.16l0 0.58c-0.27,-0.17 -0.57,-0.26 -0.91,-0.26 -0.11,0 -0.2,0.01 -0.29,0.04 -0.09,0.02 -0.16,0.06 -0.22,0.1 -0.06,0.05 -0.11,0.1 -0.14,0.16 -0.04,0.07 -0.06,0.14 -0.06,0.21 0,0.09 0.02,0.17 0.06,0.23 0.03,0.07 0.08,0.12 0.14,0.17 0.07,0.05 0.15,0.1 0.24,0.14 0.09,0.03 0.2,0.08 0.32,0.12 0.16,0.06 0.3,0.13 0.42,0.19 0.13,0.07 0.24,0.14 0.32,0.22 0.09,0.08 0.16,0.17 0.21,0.28 0.05,0.1 0.07,0.23 0.07,0.37 0,0.18 -0.04,0.33 -0.12,0.46 -0.07,0.13 -0.18,0.24 -0.31,0.33 -0.13,0.08 -0.28,0.15 -0.45,0.19 -0.17,0.04 -0.35,0.06 -0.53,0.06 -0.37,0 -0.69,-0.07 -0.96,-0.21zm3.84 -0.39l-0.01 0 0 2.16 -0.58 0 0 -5.22 0.58 0 0 0.62 0.01 0c0.28,-0.47 0.69,-0.71 1.24,-0.71 0.46,0 0.82,0.16 1.08,0.48 0.26,0.33 0.39,0.75 0.39,1.29 0,0.6 -0.15,1.08 -0.44,1.44 -0.29,0.36 -0.69,0.54 -1.2,0.54 -0.46,0 -0.82,-0.19 -1.07,-0.6zm-0.01 -1.44l0 0.5c0,0.3 0.09,0.55 0.28,0.75 0.2,0.21 0.44,0.31 0.74,0.31 0.34,0 0.62,-0.13 0.81,-0.4 0.2,-0.26 0.3,-0.63 0.3,-1.11 0,-0.4 -0.09,-0.71 -0.28,-0.94 -0.18,-0.22 -0.43,-0.34 -0.75,-0.34 -0.33,0 -0.6,0.12 -0.8,0.35 -0.2,0.23 -0.3,0.53 -0.3,0.88zm3.92 -2.53c-0.1,0 -0.19,-0.03 -0.26,-0.1 -0.07,-0.07 -0.11,-0.16 -0.11,-0.27 0,-0.11 0.04,-0.2 0.11,-0.27 0.07,-0.07 0.16,-0.1 0.26,-0.1 0.11,0 0.2,0.03 0.27,0.1 0.08,0.07 0.11,0.16 0.11,0.27 0,0.1 -0.03,0.19 -0.11,0.26 -0.07,0.07 -0.16,0.11 -0.27,0.11zm0.28 4.49l-0.57 0 0 -3.58 0.57 0 0 3.58zm3.03 -3c-0.1,-0.08 -0.24,-0.11 -0.43,-0.11 -0.25,0 -0.45,0.11 -0.62,0.34 -0.16,0.23 -0.24,0.55 -0.24,0.94l0 1.83 -0.58 0 0 -3.58 0.58 0 0 0.74 0.01 0c0.08,-0.25 0.21,-0.45 0.38,-0.59 0.16,-0.14 0.35,-0.22 0.56,-0.22 0.15,0 0.26,0.02 0.34,0.05l0 0.6zm0.92 -1.49c-0.11,0 -0.19,-0.03 -0.27,-0.1 -0.07,-0.07 -0.11,-0.16 -0.11,-0.27 0,-0.11 0.04,-0.2 0.11,-0.27 0.08,-0.07 0.16,-0.1 0.27,-0.1 0.1,0 0.19,0.03 0.26,0.1 0.08,0.07 0.12,0.16 0.12,0.27 0,0.1 -0.04,0.19 -0.12,0.26 -0.07,0.07 -0.16,0.11 -0.26,0.11zm0.28 4.49l-0.58 0 0 -3.58 0.58 0 0 3.58zm4.13 0l-0.58 0 0 -2.04c0,-0.77 -0.27,-1.15 -0.83,-1.15 -0.28,0 -0.52,0.11 -0.71,0.33 -0.19,0.21 -0.28,0.49 -0.28,0.82l0 2.04 -0.57 0 0 -3.58 0.57 0 0 0.59 0.01 0c0.27,-0.45 0.66,-0.68 1.18,-0.68 0.39,0 0.69,0.13 0.9,0.38 0.2,0.26 0.31,0.62 0.31,1.1l0 2.19zm4.13 -0.29c0,1.31 -0.63,1.97 -1.88,1.97 -0.45,0 -0.83,-0.08 -1.17,-0.25l0 -0.57c0.41,0.22 0.79,0.33 1.16,0.33 0.88,0 1.32,-0.46 1.32,-1.4l0 -0.39 -0.01 0c-0.27,0.46 -0.68,0.68 -1.23,0.68 -0.45,0 -0.81,-0.15 -1.08,-0.47 -0.27,-0.32 -0.41,-0.75 -0.41,-1.29 0,-0.6 0.15,-1.09 0.44,-1.45 0.3,-0.36 0.7,-0.54 1.2,-0.54 0.49,0 0.84,0.19 1.08,0.58l0.01 0 0 -0.49 0.57 0 0 3.29zm-0.57 -1.33l0 -0.53c0,-0.28 -0.09,-0.53 -0.29,-0.73 -0.19,-0.21 -0.43,-0.31 -0.72,-0.31 -0.35,0 -0.63,0.13 -0.83,0.39 -0.2,0.26 -0.3,0.62 -0.3,1.09 0,0.4 0.1,0.72 0.29,0.95 0.19,0.24 0.45,0.36 0.76,0.36 0.33,0 0.59,-0.11 0.79,-0.34 0.2,-0.23 0.3,-0.52 0.3,-0.88zm6.43 1.62l-2.66 0 0 -5.01 2.54 0 0 0.53 -1.95 0 0 1.67 1.81 0 0 0.53 -1.81 0 0 1.75 2.07 0 0 0.53zm3.94 0l-0.57 0 0 -0.61 -0.02 0c-0.26,0.46 -0.67,0.69 -1.23,0.69 -0.45,0 -0.81,-0.16 -1.08,-0.48 -0.26,-0.32 -0.4,-0.75 -0.4,-1.31 0,-0.59 0.15,-1.06 0.45,-1.42 0.3,-0.36 0.69,-0.54 1.19,-0.54 0.49,0 0.85,0.19 1.07,0.58l0.02 0 0 -2.21 0.57 0 0 5.3zm-0.57 -1.62l0 -0.53c0,-0.29 -0.1,-0.54 -0.29,-0.74 -0.19,-0.2 -0.43,-0.3 -0.73,-0.3 -0.35,0 -0.62,0.13 -0.82,0.39 -0.2,0.26 -0.3,0.61 -0.3,1.06 0,0.42 0.09,0.75 0.29,0.98 0.19,0.24 0.45,0.36 0.77,0.36 0.32,0 0.58,-0.11 0.78,-0.34 0.2,-0.23 0.3,-0.53 0.3,-0.88zm4.62 1.62l-0.57 0 0 -0.57 -0.02 0c-0.23,0.44 -0.6,0.65 -1.1,0.65 -0.85,0 -1.28,-0.5 -1.28,-1.52l0 -2.14 0.57 0 0 2.05c0,0.76 0.29,1.13 0.87,1.13 0.28,0 0.51,-0.1 0.69,-0.31 0.18,-0.2 0.27,-0.47 0.27,-0.81l0 -2.06 0.57 0 0 3.58zm3.6 -0.16c-0.27,0.16 -0.6,0.24 -0.98,0.24 -0.51,0 -0.92,-0.16 -1.23,-0.49 -0.32,-0.34 -0.47,-0.77 -0.47,-1.3 0,-0.59 0.17,-1.06 0.5,-1.42 0.34,-0.36 0.79,-0.54 1.36,-0.54 0.31,0 0.59,0.06 0.83,0.18l0 0.58c-0.27,-0.18 -0.55,-0.28 -0.85,-0.28 -0.37,0 -0.67,0.13 -0.91,0.4 -0.23,0.26 -0.35,0.61 -0.35,1.03 0,0.42 0.11,0.76 0.33,1 0.22,0.24 0.52,0.36 0.89,0.36 0.31,0 0.61,-0.1 0.88,-0.31l0 0.55zm3.43 0.16l-0.57 0 0 -0.56 -0.02 0c-0.25,0.43 -0.61,0.64 -1.1,0.64 -0.36,0 -0.63,-0.09 -0.84,-0.28 -0.2,-0.19 -0.3,-0.44 -0.3,-0.75 0,-0.67 0.4,-1.06 1.18,-1.17l1.08 -0.15c0,-0.61 -0.25,-0.92 -0.74,-0.92 -0.43,0 -0.82,0.15 -1.17,0.45l0 -0.59c0.35,-0.22 0.76,-0.34 1.22,-0.34 0.84,0 1.26,0.45 1.26,1.34l0 2.33zm-0.57 -1.81l-0.87 0.12c-0.26,0.03 -0.46,0.1 -0.6,0.19 -0.13,0.1 -0.2,0.27 -0.2,0.51 0,0.17 0.06,0.32 0.19,0.43 0.12,0.11 0.29,0.16 0.49,0.16 0.29,0 0.52,-0.1 0.71,-0.29 0.18,-0.21 0.28,-0.46 0.28,-0.76l0 -0.36zm3.31 1.78c-0.14,0.07 -0.31,0.11 -0.54,0.11 -0.62,0 -0.94,-0.35 -0.94,-1.05l0 -2.12 -0.61 0 0 -0.49 0.61 0 0 -0.88 0.58 -0.18 0 1.06 0.9 0 0 0.49 -0.9 0 0 2.02c0,0.24 0.04,0.41 0.12,0.51 0.08,0.11 0.22,0.16 0.41,0.16 0.14,0 0.26,-0.04 0.37,-0.12l0 0.49zm1.06 -4.46c-0.11,0 -0.19,-0.03 -0.27,-0.1 -0.07,-0.07 -0.1,-0.16 -0.1,-0.27 0,-0.11 0.03,-0.2 0.1,-0.27 0.08,-0.07 0.16,-0.1 0.27,-0.1 0.1,0 0.19,0.03 0.27,0.1 0.07,0.07 0.11,0.16 0.11,0.27 0,0.1 -0.04,0.19 -0.11,0.26 -0.08,0.07 -0.17,0.11 -0.27,0.11zm0.28 4.49l-0.58 0 0 -3.58 0.58 0 0 3.58zm2.65 0.08c-0.53,0 -0.95,-0.16 -1.26,-0.5 -0.32,-0.33 -0.48,-0.78 -0.48,-1.33 0,-0.6 0.17,-1.07 0.5,-1.41 0.32,-0.34 0.77,-0.51 1.33,-0.51 0.53,0 0.95,0.17 1.25,0.5 0.3,0.33 0.45,0.78 0.45,1.36 0,0.58 -0.17,1.03 -0.49,1.38 -0.32,0.34 -0.75,0.51 -1.3,0.51zm0.05 -3.27c-0.37,0 -0.66,0.13 -0.88,0.38 -0.21,0.25 -0.32,0.6 -0.32,1.04 0,0.42 0.11,0.76 0.33,1.01 0.21,0.24 0.5,0.36 0.87,0.36 0.37,0 0.65,-0.12 0.85,-0.36 0.2,-0.24 0.3,-0.58 0.3,-1.02 0,-0.45 -0.1,-0.8 -0.3,-1.04 -0.2,-0.25 -0.48,-0.37 -0.85,-0.37zm5.62 3.19l-0.57 0 0 -2.04c0,-0.77 -0.28,-1.15 -0.83,-1.15 -0.29,0 -0.53,0.11 -0.71,0.33 -0.19,0.21 -0.29,0.49 -0.29,0.82l0 2.04 -0.57 0 0 -3.58 0.57 0 0 0.59 0.02 0c0.27,-0.45 0.66,-0.68 1.17,-0.68 0.39,0 0.69,0.13 0.9,0.38 0.21,0.26 0.31,0.62 0.31,1.1l0 2.19z"/>
   <path class="fil3" d="M181.62 13.67c0.46,0 0.9,0.11 1.33,0.34 0.43,0.24 0.76,0.57 1.01,1 0.24,0.43 0.36,0.88 0.36,1.35 0,0.47 -0.12,0.91 -0.36,1.34 -0.24,0.43 -0.57,0.76 -1,1 -0.42,0.24 -0.87,0.35 -1.34,0.35 -0.46,0 -0.91,-0.11 -1.34,-0.35 -0.43,-0.24 -0.76,-0.57 -1,-1 -0.23,-0.43 -0.35,-0.87 -0.35,-1.34 0,-0.47 0.12,-0.92 0.36,-1.35 0.24,-0.43 0.58,-0.76 1.01,-1 0.43,-0.23 0.87,-0.34 1.32,-0.34zm0 0.44c-0.38,0 -0.75,0.1 -1.1,0.29 -0.36,0.2 -0.64,0.47 -0.84,0.83 -0.21,0.37 -0.31,0.74 -0.31,1.13 0,0.39 0.1,0.76 0.3,1.12 0.2,0.35 0.48,0.63 0.84,0.83 0.35,0.2 0.73,0.3 1.11,0.3 0.39,0 0.76,-0.1 1.12,-0.3 0.36,-0.2 0.64,-0.48 0.83,-0.83 0.2,-0.36 0.3,-0.73 0.3,-1.12 0,-0.39 -0.1,-0.76 -0.3,-1.13 -0.2,-0.36 -0.48,-0.63 -0.84,-0.83 -0.36,-0.19 -0.73,-0.29 -1.11,-0.29zm-1.18 3.74l0 -2.9 1 0c0.34,0 0.58,0.03 0.74,0.08 0.15,0.06 0.27,0.15 0.36,0.28 0.09,0.14 0.14,0.28 0.14,0.43 0,0.21 -0.08,0.39 -0.23,0.55 -0.15,0.16 -0.35,0.24 -0.6,0.26 0.1,0.05 0.18,0.1 0.24,0.16 0.12,0.11 0.26,0.3 0.43,0.57l0.36 0.57 -0.57 0 -0.26 -0.46c-0.2,-0.36 -0.37,-0.58 -0.49,-0.67 -0.09,-0.07 -0.21,-0.1 -0.38,-0.1l-0.27 0 0 1.23 -0.47 0zm0.47 -1.63l0.57 0c0.27,0 0.45,-0.04 0.55,-0.12 0.1,-0.08 0.15,-0.19 0.15,-0.32 0,-0.09 -0.02,-0.16 -0.07,-0.23 -0.05,-0.07 -0.11,-0.12 -0.2,-0.15 -0.08,-0.03 -0.24,-0.05 -0.47,-0.05l-0.53 0 0 0.87z"/>
  </g>
 </g>
</svg>
