<svg height="512" viewBox="0 0 64 64" width="512" xmlns="http://www.w3.org/2000/svg"><path d="m52 21v12a2 2 0 0 0 4 0v-12z" fill="#c6c5ca"/><path d="m51.77 17h-.77-5v4h5 .77.23v-4z" fill="#c6c5ca"/><path d="m8 21v12a2 2 0 0 0 4 0v-12z" fill="#c6c5ca"/><path d="m13 17h-.77-.23v4h.23.77 5v-4z" fill="#c6c5ca"/><path d="m45 45v11h-26v-11a2.006 2.006 0 0 1 2-2h22a2.006 2.006 0 0 1 2 2z" fill="#898890"/><path d="m46 17v16h-28v-16a14 14 0 0 1 28 0z" fill="#acabb1"/><path d="m12.23 17a2.982 2.982 0 0 1 0 4 2.5 2.5 0 0 1 -.23.23 3 3 0 0 1 -5-2.23 3 3 0 0 1 3-3 2.94 2.94 0 0 1 2.23 1z" fill="#acabb1"/><path d="m54 16a3 3 0 0 1 3 3 3 3 0 0 1 -5 2.23 2.5 2.5 0 0 1 -.23-.23 3 3 0 0 1 2.23-5z" fill="#acabb1"/><path d="m55 61v-16h4a2.006 2.006 0 0 1 2 2v12a2.006 2.006 0 0 1 -2 2z" fill="#898890"/><path d="m49 53v3h-4v-6h4z" fill="#898890"/><path d="m55 45v16h-4a2.006 2.006 0 0 1 -2-2v-12a2.006 2.006 0 0 1 2-2z" fill="#787680"/><path d="m15 57v2a2.006 2.006 0 0 1 -2 2h-4v-16h4a2.006 2.006 0 0 1 2 2z" fill="#787680"/><path d="m9 45v16h-4a2.006 2.006 0 0 1 -2-2v-12a2.006 2.006 0 0 1 2-2z" fill="#898890"/><path d="m19 50v6h-4v-3-3z" fill="#898890"/><path d="m42 17v4h-20v-4a10 10 0 0 1 20 0z" fill="#e6e7e8"/><circle cx="32" cy="14" fill="#ff9811" r="3"/><path d="m22 39h20v4h-20z" fill="#acabb1"/><path d="m24 27h16v6h-16z" fill="#e6e7e8"/><path d="m46 33v6h-4-20-4v-6h6 16z" fill="#c6c5ca"/><rect fill="#787680" height="6" rx="2" width="14" x="25" y="46"/><path d="m45 50h2v6h-2z" fill="#787680"/><path d="m17 50h2v6h-2z" fill="#787680"/><path d="m22 39h20v2h-20z" fill="#898890"/><g fill="#57565c"><path d="m12 48h3v2h-3z"/><path d="m3 48h3v2h-3z"/><path d="m12 52h3v2h-3z"/><path d="m12 56h3v2h-3z"/><path d="m3 56h3v2h-3z"/><path d="m3 52h3v2h-3z"/><path d="m49 48h3v2h-3z"/><path d="m58 48h3v2h-3z"/><path d="m49 52h3v2h-3z"/><path d="m49 56h3v2h-3z"/><path d="m58 56h3v2h-3z"/><path d="m58 52h3v2h-3z"/><path d="m8 45h2v16h-2z"/><path d="m54 45h2v16h-2z"/></g><path d="m59 39h-2a3 3 0 0 0 -6 0h-2a5 5 0 0 1 10 0z" fill="#acabb1"/><path d="m15 39h-2a3 3 0 0 0 -6 0h-2a5 5 0 0 1 10 0z" fill="#acabb1"/></svg>