<svg xmlns="http://www.w3.org/2000/svg" xmlns:xlink="http://www.w3.org/1999/xlink" style="enable-background:new 0 0 256 256" id="Layer_1" width="512" height="512" x="0" y="0" version="1.1" viewBox="0 0 256 256" xml:space="preserve"><style type="text/css">.st0{fill:#3a312a}.st1{fill:#d7e057}.st2{fill:#f16c7a}.st3{fill:#fce8cb}.st4{fill:#87796f}.st5{fill:#8ac6dd}.st8{fill:#b9c239}.st9{fill:#decaad}.st13{fill:#68a8bc}</style><g><g><g><path d="M54.207,26.192c-0.974,11.563-13.024,13.39-13.024,13.39c10.346,0.487,12.925,14.059,12.925,14.059 c0.221-9.677,13.321-14.202,13.321-14.202C57.615,38.852,54.207,26.192,54.207,26.192z" class="st1"/></g></g><g><g><path d="M67.518,37.941c-8.604-0.515-11.832-12.024-11.863-12.141c-0.191-0.702-0.858-1.163-1.583-1.102 c-0.725,0.066-1.298,0.642-1.359,1.367c-0.86,10.215-11.314,11.964-11.755,12.032c-0.763,0.116-1.313,0.791-1.273,1.561 c0.04,0.771,0.657,1.385,1.427,1.421c9.028,0.426,11.499,12.718,11.523,12.843c0.137,0.711,0.759,1.217,1.472,1.217 c0.041,0,0.084-0.002,0.126-0.005c0.764-0.064,1.357-0.693,1.375-1.46c0.195-8.509,12.192-12.777,12.313-12.819 c0.675-0.234,1.092-0.914,0.994-1.622C68.816,38.524,68.232,37.983,67.518,37.941z M53.952,48.287 c-1.356-3.13-3.709-6.907-7.587-8.876c2.931-1.405,6.409-3.914,8.202-8.273c1.551,3.071,4.199,6.88,8.334,8.723 C59.894,41.5,55.979,44.266,53.952,48.287z" class="st0"/></g></g><g><g><path d="M32.508,43.173c-0.689,8.179-9.212,9.471-9.212,9.471c7.318,0.344,9.142,9.944,9.142,9.944 c0.156-6.845,9.422-10.046,9.422-10.046C34.919,52.127,32.508,43.173,32.508,43.173z" class="st1"/></g></g><g><g><path d="M41.949,51.045c-5.766-0.345-7.972-8.186-7.994-8.265c-0.19-0.702-0.853-1.161-1.582-1.102 c-0.726,0.065-1.299,0.643-1.36,1.368c-0.579,6.871-7.647,8.066-7.942,8.113c-0.763,0.116-1.313,0.791-1.273,1.561 c0.04,0.771,0.657,1.385,1.427,1.421c6.036,0.284,7.724,8.645,7.739,8.727c0.135,0.712,0.759,1.22,1.472,1.22 c0.042,0,0.083-0.002,0.125-0.005c0.765-0.063,1.358-0.693,1.376-1.461c0.131-5.709,8.332-8.634,8.413-8.662 c0.677-0.234,1.094-0.913,0.996-1.622C43.249,51.629,42.664,51.087,41.949,51.045z M32.365,57.84 c-0.924-1.885-2.34-3.947-4.447-5.279c1.855-1.041,3.697-2.63,4.871-4.917c1.057,1.874,2.654,3.955,4.941,5.224 C35.88,53.968,33.741,55.607,32.365,57.84z" class="st0"/></g></g><g><g><path d="M32.508,16.516c-0.689,8.179-9.212,9.47-9.212,9.47c7.318,0.344,9.142,9.944,9.142,9.944 c0.156-6.845,9.422-10.045,9.422-10.045C34.919,25.469,32.508,16.516,32.508,16.516z" class="st1"/></g></g><g><g><path d="M41.949,24.388c-5.766-0.345-7.972-8.186-7.994-8.265c-0.19-0.701-0.853-1.17-1.582-1.102 c-0.726,0.065-1.299,0.643-1.36,1.368c-0.579,6.87-7.647,8.066-7.942,8.113c-0.763,0.116-1.313,0.791-1.273,1.561 c0.04,0.771,0.657,1.385,1.428,1.421c6.035,0.284,7.723,8.644,7.739,8.726c0.135,0.712,0.759,1.22,1.472,1.22 c0.042,0,0.083-0.002,0.125-0.005c0.765-0.063,1.358-0.693,1.376-1.461c0.131-5.708,8.332-8.633,8.413-8.661 c0.677-0.234,1.094-0.913,0.996-1.622C43.249,24.972,42.664,24.43,41.949,24.388z M32.365,31.183 c-0.924-1.886-2.339-3.947-4.447-5.28c1.855-1.041,3.697-2.629,4.87-4.916c1.057,1.874,2.654,3.955,4.941,5.224 C35.88,27.311,33.741,28.95,32.365,31.183z" class="st0"/></g></g><g><g><path d="M194.302,54.807h-119c-3.314,0-6,2.686-6,6c0,3.313,2.686,6,6,6h119c3.314,0,6-2.687,6-6 C200.302,57.493,197.616,54.807,194.302,54.807z" class="st4"/></g></g><g><g><path d="M194.302,53.307h-119c-4.136,0-7.5,3.364-7.5,7.5s3.364,7.5,7.5,7.5h119c4.136,0,7.5-3.364,7.5-7.5 S198.438,53.307,194.302,53.307z M194.302,65.307h-119c-2.481,0-4.5-2.019-4.5-4.5s2.019-4.5,4.5-4.5h119 c2.482,0,4.5,2.019,4.5,4.5S196.784,65.307,194.302,65.307z" class="st0"/></g></g><g><g><path d="M63.402,116.807c0.01,0.21,0.02,0.41,0.02,0.62v17.38h142.76v-17.38c0-0.21,0.01-0.41,0.02-0.62H63.402z" class="st4"/></g></g><g><g><path d="M207.289,115.772c-0.283-0.298-0.676-0.466-1.087-0.466h-142.8c-0.411,0-0.803,0.168-1.086,0.466 c-0.283,0.297-0.432,0.697-0.412,1.107c0.009,0.186,0.018,0.361,0.018,0.547v17.38c0,0.828,0.671,1.5,1.5,1.5h142.76 c0.829,0,1.5-0.672,1.5-1.5v-17.38c0-0.186,0.009-0.361,0.018-0.547C207.721,116.47,207.572,116.069,207.289,115.772z M204.683,133.307H64.922v-15h139.76V133.307z" class="st0"/></g></g><g><g><ellipse cx="134.802" cy="60.572" class="st2" rx="54.75" ry="44.266"/></g></g><g><g><path d="M134.802,14.807c-31.017,0-56.25,20.53-56.25,45.766s25.233,45.767,56.25,45.767 c31.017,0,56.25-20.531,56.25-45.767S165.819,14.807,134.802,14.807z M134.802,103.339c-29.362,0-53.25-19.185-53.25-42.767 c0-23.581,23.888-42.766,53.25-42.766c29.362,0,53.25,19.185,53.25,42.766C188.052,84.154,164.165,103.339,134.802,103.339z" class="st0"/></g></g><g><g><ellipse cx="134.802" cy="60.572" class="st3" rx="39.862" ry="32.229"/></g></g><g><g><path d="M134.802,26.844c-22.807,0-41.362,15.131-41.362,33.729s18.555,33.729,41.362,33.729 c22.807,0,41.362-15.131,41.362-33.729S157.609,26.844,134.802,26.844z M134.802,91.301c-21.153,0-38.362-13.785-38.362-30.729 s17.209-30.729,38.362-30.729c21.153,0,38.362,13.785,38.362,30.729S155.955,91.301,134.802,91.301z" class="st0"/></g></g><g><g><path d="M184.514,104.807H85.091c-7.477,0-13.538,6.061-13.538,13.538v72.923c0,7.477,6.061,13.539,13.538,13.539 h99.423c7.477,0,13.538-6.062,13.538-13.539v-72.923C198.052,110.868,191.991,104.807,184.514,104.807z" class="st5"/></g></g><g><g><path d="M184.514,103.307H85.091c-8.292,0-15.039,6.746-15.039,15.038v72.924c0,8.292,6.746,15.038,15.039,15.038 h99.423c8.292,0,15.038-6.746,15.038-15.038v-72.924C199.552,110.053,192.806,103.307,184.514,103.307z M196.552,191.269 c0,6.638-5.4,12.038-12.038,12.038H85.091c-6.638,0-12.039-5.4-12.039-12.038v-72.924c0-6.638,5.4-12.038,12.039-12.038h99.423 c6.638,0,12.038,5.4,12.038,12.038V191.269z" class="st0"/></g></g><g><g><path d="M173.185,131.807H96.42c-3.931,0-7.117,3.187-7.117,7.117v32.766c0,3.931,3.186,7.117,7.117,7.117h76.766 c3.931,0,7.117-3.187,7.117-7.117v-32.766C180.302,134.993,177.116,131.807,173.185,131.807z" class="st3"/></g></g><g><g><path d="M173.185,130.307H96.419c-4.751,0-8.617,3.865-8.617,8.617v32.766c0,4.752,3.866,8.617,8.617,8.617h32.074 c0.829,0,1.5-0.672,1.5-1.5s-0.671-1.5-1.5-1.5H96.419c-3.097,0-5.617-2.52-5.617-5.617v-32.766c0-3.098,2.52-5.617,5.617-5.617 h76.766c3.097,0,5.617,2.52,5.617,5.617v32.766c0,3.098-2.52,5.617-5.617,5.617h-29.574c-0.829,0-1.5,0.672-1.5,1.5 s0.671,1.5,1.5,1.5h29.574c4.751,0,8.617-3.865,8.617-8.617v-32.766C181.802,134.172,177.937,130.307,173.185,130.307z" class="st0"/></g></g><g><g><rect width="42.75" height="35" x="86.427" y="204.807" class="st1"/></g></g><g><g><path d="M129.177,203.307h-42.75c-0.829,0-1.5,0.672-1.5,1.5v35c0,0.828,0.671,1.5,1.5,1.5h42.75 c0.829,0,1.5-0.672,1.5-1.5v-35C130.677,203.979,130.006,203.307,129.177,203.307z M127.677,238.307h-39.75v-32h39.75V238.307z" class="st0"/></g></g><g><g><rect width="42.75" height="35" x="140.427" y="204.807" class="st1"/></g></g><g><g><path d="M183.177,203.307h-42.75c-0.829,0-1.5,0.672-1.5,1.5v35c0,0.828,0.671,1.5,1.5,1.5h42.75 c0.829,0,1.5-0.672,1.5-1.5v-35C184.677,203.979,184.006,203.307,183.177,203.307z M181.677,238.307h-39.75v-32h39.75V238.307z" class="st0"/></g></g><g><g><path d="M50.802,104.807c-6.973,0-12.625,5.652-12.625,12.625v74.75c0,6.973,5.652,12.625,12.625,12.625 s12.625-5.652,12.625-12.625v-74.75C63.427,110.459,57.775,104.807,50.802,104.807z" class="st1"/></g></g><g><g><path d="M50.802,103.307c-7.788,0-14.125,6.337-14.125,14.125v12.041c0,0.828,0.671,1.5,1.5,1.5 c0.829,0,1.5-0.672,1.5-1.5v-12.041c0-6.135,4.991-11.125,11.125-11.125c6.134,0,11.125,4.99,11.125,11.125v74.75 c0,6.135-4.991,11.125-11.125,11.125c-6.134,0-11.125-4.99-11.125-11.125V145.14c0-0.828-0.671-1.5-1.5-1.5 c-0.829,0-1.5,0.672-1.5,1.5v47.042c0,7.788,6.337,14.125,14.125,14.125c7.789,0,14.125-6.337,14.125-14.125v-74.75 C64.927,109.644,58.591,103.307,50.802,103.307z" class="st0"/></g></g><g><g><path d="M218.802,104.807c-6.973,0-12.625,5.652-12.625,12.625v74.75c0,6.973,5.652,12.625,12.625,12.625 c6.973,0,12.625-5.652,12.625-12.625v-74.75C231.427,110.459,225.775,104.807,218.802,104.807z" class="st1"/></g></g><g><g><path d="M218.802,103.307c-7.789,0-14.125,6.337-14.125,14.125v74.75c0,7.788,6.336,14.125,14.125,14.125 c7.789,0,14.125-6.337,14.125-14.125v-74.75C232.927,109.644,226.591,103.307,218.802,103.307z M229.927,192.182 c0,6.135-4.991,11.125-11.125,11.125c-6.134,0-11.125-4.99-11.125-11.125v-74.75c0-6.135,4.991-11.125,11.125-11.125 c6.134,0,11.125,4.99,11.125,11.125V192.182z" class="st0"/></g></g><g><g><polygon points="94.593 141.568 94.593 148.112 102.944 148.112 102.944 168.067 111.133 168.067 111.133 148.112 119.483 148.112 119.483 141.568" class="st0"/></g></g><g><g><polygon points="140.337 154.402 148.585 141.568 139.655 141.568 135.091 149.721 130.401 141.568 121.381 141.568 129.69 154.258 120.549 168.067 129.695 168.067 134.928 159.554 140.162 168.067 149.362 168.067" class="st0"/></g></g><g><g><polygon points="150.122 141.568 150.122 148.112 158.472 148.112 158.472 168.067 166.661 168.067 166.661 148.112 175.011 148.112 175.011 141.568" class="st0"/></g></g><g><g><ellipse cx="116.802" cy="60.307" class="st4" rx="4.5" ry="4.5" transform="matrix(0.3827 -0.9239 0.9239 0.3827 16.3881 145.1397)"/></g></g><g><g><path d="M116.802,54.307c-3.309,0-6,2.691-6,6s2.691,6,6,6s6-2.691,6-6S120.111,54.307,116.802,54.307z M116.802,63.307c-1.654,0-3-1.346-3-3s1.346-3,3-3s3,1.346,3,3S118.457,63.307,116.802,63.307z" class="st0"/></g></g><g><g><circle cx="153.802" cy="60.307" r="4.5" class="st4"/></g></g><g><g><path d="M153.802,54.307c-3.308,0-6,2.691-6,6s2.692,6,6,6c3.309,0,6-2.691,6-6S157.111,54.307,153.802,54.307z M153.802,63.307c-1.654,0-3-1.346-3-3s1.346-3,3-3s3,1.346,3,3S155.456,63.307,153.802,63.307z" class="st0"/></g></g><g><g><path d="M141.552,73.307h-13.5c-0.829,0-1.5,0.672-1.5,1.5s0.671,1.5,1.5,1.5h13.5c0.829,0,1.5-0.672,1.5-1.5 S142.381,73.307,141.552,73.307z" class="st0"/></g></g><g><g><path d="M134.802,29.847c-2.57,0-5.08,0.2-7.5,0.59c15.63,2.49,27.87,12.61,30.38,25.3c1.3,1.1,2.12,2.74,2.12,4.57 c0,1.77-0.77,3.37-2,4.46c-2.22,12.98-14.6,23.41-30.5,25.95c2.42,0.39,4.93,0.59,7.5,0.59c21.15,0,38.36-13.79,38.36-30.73 C173.162,43.626,155.952,29.847,134.802,29.847z" class="st9"/></g></g><g><g><path d="M184.512,106.307h-15c6.64,0,12.04,5.4,12.04,12.04v18.52c0.16,0.66,0.25,1.35,0.25,2.06v32.76 c0,0.71-0.09,1.4-0.25,2.06v17.52c0,6.64-5.4,12.04-12.04,12.04h15c6.64,0,12.04-5.4,12.04-12.04v-72.92 C196.552,111.707,191.152,106.307,184.512,106.307z" class="st13"/></g></g><g><g><rect width="15" height="32" x="166.682" y="206.307" class="st8"/></g></g></g></svg>