<?xml version="1.0" encoding="UTF-8" standalone="no"?>
<!-- Generator: Adobe Illustrator 19.0.0, SVG Export Plug-In . SVG Version: 6.00 Build 0)  -->

<svg
   xmlns:dc="http://purl.org/dc/elements/1.1/"
   xmlns:cc="http://creativecommons.org/ns#"
   xmlns:rdf="http://www.w3.org/1999/02/22-rdf-syntax-ns#"
   xmlns:svg="http://www.w3.org/2000/svg"
   xmlns="http://www.w3.org/2000/svg"
   xmlns:sodipodi="http://sodipodi.sourceforge.net/DTD/sodipodi-0.dtd"
   xmlns:inkscape="http://www.inkscape.org/namespaces/inkscape"
   version="1.1"
   id="Capa_1"
   x="0px"
   y="0px"
   viewBox="0 0 58 58"
   style="enable-background:new 0 0 58 58;"
   xml:space="preserve"
   sodipodi:docname="user.svg"
   inkscape:version="0.92.4 (5da689c313, 2019-01-14)"><metadata
   id="metadata49"><rdf:RDF><cc:Work
       rdf:about=""><dc:format>image/svg+xml</dc:format><dc:type
         rdf:resource="http://purl.org/dc/dcmitype/StillImage" /></cc:Work></rdf:RDF></metadata><defs
   id="defs47" /><sodipodi:namedview
   pagecolor="#ffffff"
   bordercolor="#666666"
   borderopacity="1"
   objecttolerance="10"
   gridtolerance="10"
   guidetolerance="10"
   inkscape:pageopacity="0"
   inkscape:pageshadow="2"
   inkscape:window-width="1366"
   inkscape:window-height="715"
   id="namedview45"
   showgrid="false"
   inkscape:zoom="4.0689655"
   inkscape:cx="29"
   inkscape:cy="29"
   inkscape:window-x="-8"
   inkscape:window-y="-8"
   inkscape:window-maximized="1"
   inkscape:current-layer="Capa_1" />

<path
   style="fill:#FBCE9D;"
   d="M52.932,45.376C52.275,38.985,46.876,34,40.311,34h-5.946C33.611,34,33,33.389,33,32.635V31.99  c0-0.583,0.379-1.082,0.925-1.287c5.804-2.182,9.778-11.704,8.971-18.433C42.134,5.919,36.97,0.801,30.614,0.09  c-0.517-0.058-1.029-0.086-1.535-0.088c-0.016,0-0.032-0.001-0.048-0.001C21.285-0.016,15,6.258,15,14  c0,6.024,3.807,14.755,9.145,16.729C24.668,30.922,25,31.442,25,32v0.635C25,33.389,24.389,34,23.635,34h-5.946  c-6.565,0-11.964,4.985-12.621,11.376C10.293,52.998,19.061,58,29,58S47.707,52.998,52.932,45.376z"
   id="path4" />
<path
   style="fill:#6B5B4B;"
   d="M33.492,6.61c3.715,1.021,7.213,3.306,9.453,6.322c-0.016-0.221-0.023-0.447-0.049-0.663  C42.134,5.919,36.97,0.801,30.614,0.09c-0.517-0.058-1.029-0.086-1.535-0.088c-0.016,0-0.032-0.001-0.048-0.001  c-6.92-0.015-12.66,4.995-13.808,11.583l0.005,0c0.179,0.252,0.354,0.507,0.545,0.75c0.07-0.087,0.141-0.173,0.213-0.258  c2-2.38,5.341-2.931,8.183-1.671C25.034,10.787,25.992,11,27,11C29.942,11,32.456,9.182,33.492,6.61z"
   id="path6" />
<path
   style="fill:#556080;"
   d="M52.932,45.376C52.275,38.985,46.876,34,40.311,34H37l-8,8l-8-8h-3.311  c-6.565,0-11.964,4.985-12.621,11.376C10.293,52.998,19.061,58,29,58S47.707,52.998,52.932,45.376z"
   id="path8" />
<path
   style="fill:#424A60;"
   d="M43,54.392c0.685-0.379,1.35-0.789,2-1.22V47h-2V54.392z"
   id="path10" />
<path
   style="fill:#424A60;"
   d="M15,54.392V47h-2v6.172C13.65,53.603,14.315,54.013,15,54.392z"
   id="path12" />
<g
   id="g14">
</g>
<g
   id="g16">
</g>
<g
   id="g18">
</g>
<g
   id="g20">
</g>
<g
   id="g22">
</g>
<g
   id="g24">
</g>
<g
   id="g26">
</g>
<g
   id="g28">
</g>
<g
   id="g30">
</g>
<g
   id="g32">
</g>
<g
   id="g34">
</g>
<g
   id="g36">
</g>
<g
   id="g38">
</g>
<g
   id="g40">
</g>
<g
   id="g42">
</g>
</svg>