<svg id="Layer_35" enable-background="new 0 0 64 64" height="512" viewBox="0 0 64 64" width="512" xmlns="http://www.w3.org/2000/svg"><path d="m39 44.23 9.74 3.98h.01c5.59 2.3 9.25 7.74 9.25 13.79h-10-9v-17z" fill="#ff826e"/><path d="m16 62h-10c0-3.02.92-5.9 2.53-8.3 1.61-2.41 3.93-4.34 6.73-5.49l9.74-3.98v.77 17z" fill="#ff826e"/><path d="m39 45v17h-14v-17c0 3.31 3.13 6 7 6s7-2.69 7-6z" fill="#ffeaa7"/><path d="m20.39 18h-.39v6 .35c0 3.77 1.21 7.34 3.31 10.26 1.27 1.75 2.85 3.27 4.69 4.46v1.24c0 1.63-.98 3.09-2.49 3.71l-.51.21-9.74 3.98c-2.49-1.44-4.26-3.21-4.26-3.21 1.58-1.26 2.83-2.86 3.68-4.63.86-1.78 1.32-3.75 1.32-5.77v-16.6c0-8.84 7.16-16 16-16 4.42 0 8.42 1.79 11.32 4.68 2.89 2.9 4.68 6.9 4.68 11.32v16.6c0 4.04 1.84 7.87 5 10.4 0 0-.44.44-1.19 1.06s-1.81 1.42-3.05 2.13l-.01.02h-.01l-9.74-3.98-.51-.21c-1.51-.62-2.49-2.08-2.49-3.71v-1.24c4.91-3.18 8-8.68 8-14.72v-.35-6h-.39c-1.13 0-2.22-.28-3.18-.8-.97-.52-1.81-1.26-2.43-2.2h-12c-1.25 1.87-3.35 3-5.61 3z" fill="#656d78"/><path d="m38.49 44.02.51.21v.77c0 3.31-3.13 6-7 6s-7-2.69-7-6v-.77l.51-.21c1.51-.62 2.49-2.08 2.49-3.71v-1.24c1.23.8 2.57 1.45 4 1.93 1.43-.48 2.77-1.13 4-1.93v1.24c0 1.63.98 3.09 2.49 3.71z" fill="#f0d0b4"/><path d="m43.61 18c-1.13 0-2.22-.28-3.18-.8-.97-.52-1.81-1.26-2.43-2.2h-12c-1.25 1.87-3.35 3-5.61 3h-.39v6 .35c0 3.77 1.21 7.34 3.31 10.26 1.27 1.75 2.85 3.27 4.69 4.46 1.23.8 2.57 1.45 4 1.93 1.43-.48 2.77-1.13 4-1.93 4.91-3.18 8-8.68 8-14.72v-.35-6z" fill="#f0d0b4"/><path d="m30 23v1c0 1.66-1.34 3-3 3h-2c-1.66 0-3-1.34-3-3v-1c0-1.1.9-2 2-2h4c1.1 0 2 .9 2 2z" fill="#69d6f4"/><path d="m42 23v1c0 1.66-1.34 3-3 3h-2c-1.66 0-3-1.34-3-3v-1c0-1.1.9-2 2-2h4c1.1 0 2 .9 2 2z" fill="#69d6f4"/><path d="m32 36c2.206 0 4-1.794 4-4h-2c0 1.103-.897 2-2 2s-2-.897-2-2h-2c0 2.206 1.794 4 4 4z"/><path d="m50.778 48.09c1.728-1.198 2.869-2.323 2.929-2.383l.79-.79-.873-.698c-2.938-2.351-4.624-5.859-4.624-9.622v-16.597c0-9.374-7.626-17-17-17s-17 7.626-17 17v16.597c0 3.764-1.686 7.271-4.625 9.622l-.873.698.79.79c.06.06 1.201 1.185 2.929 2.383-5.044 2.773-8.221 8.048-8.221 13.91v1h54v-1c0-5.862-3.177-11.137-8.222-13.91zm-33.778-13.493v-16.597c0-8.271 6.729-15 15-15s15 6.729 15 15v16.597c0 3.983 1.625 7.72 4.495 10.42-.647.555-1.658 1.344-2.853 2.075l-9.778-4c-1.132-.464-1.864-1.554-1.864-2.778v-.718c4.921-3.401 8-9.039 8-15.246v-7.35h-1.395c-1.922 0-3.707-.955-4.773-2.555l-.297-.445h-13.07l-.297.445c-1.066 1.6-2.851 2.555-4.773 2.555h-1.395v7.351c0 6.206 3.079 11.845 8 15.246v.718c0 1.224-.732 2.313-1.864 2.776l-9.778 4.001c-1.195-.731-2.205-1.519-2.852-2.075 2.869-2.701 4.494-6.437 4.494-10.42zm23-14.597h-4c-1.302 0-2.402.839-2.816 2h-2.369c-.414-1.161-1.514-2-2.816-2h-4c-1.654 0-3 1.346-3 3v-4.023c2.177-.17 4.175-1.248 5.512-2.977h10.976c1.337 1.729 3.335 2.807 5.512 2.977v4.023c.001-1.654-1.345-3-2.999-3zm1 3v1c0 1.103-.897 2-2 2h-2c-1.103 0-2-.897-2-2v-1c0-.552.449-1 1-1h4c.551 0 1 .448 1 1zm-12 0v1c0 1.103-.897 2-2 2h-2c-1.103 0-2-.897-2-2v-1c0-.552.449-1 1-1h4c.551 0 1 .448 1 1zm-4 5h2c2.206 0 4-1.794 4-4h2c0 2.206 1.794 4 4 4h2c2.206 0 4-1.794 4-4v.351c0 7.023-4.406 13.247-11 15.592-6.594-2.345-11-8.568-11-15.592v-.351c0 2.206 1.794 4 4 4zm3.964 12.796c.864.45 1.772.837 2.719 1.152l.317.106.316-.105c.947-.316 1.855-.702 2.719-1.152.172 1.799 1.289 3.361 2.964 4.093v.11c0 2.757-2.691 5-6 5s-6-2.243-6-5v-.111c1.676-.732 2.793-2.294 2.965-4.093zm-2.964 8.818c1.467 1.459 3.61 2.386 6 2.386s4.533-.927 6-2.386v11.386h-12zm-10.366-.474 8.366-3.423v15.283h-7v-6h-2v6h-7.965c.373-5.255 3.665-9.842 8.599-11.86zm33.366 11.86v-6h-2v6h-7v-15.283l8.366 3.423c4.934 2.019 8.226 6.605 8.599 11.86z"/><path d="m32 7v-2c-4.17 0-8.119 2.028-10.562 5.427l1.624 1.168c2.068-2.877 5.41-4.595 8.938-4.595z"/><path d="m22.003 13.413-1.816-.838c-.322.699-.583 1.431-.775 2.175l1.937.5c.161-.628.381-1.246.654-1.837z"/></svg>