<svg xmlns="http://www.w3.org/2000/svg" xmlns:svg="http://www.w3.org/2000/svg" xmlns:xlink="http://www.w3.org/1999/xlink" id="Layer_1" x="0" y="0" version="1.1" viewBox="0 0 400 240" xml:space="preserve" style="enable-background:new 0 0 400 240"><metadata id="metadata111"/><defs id="defs109"><clipPath id="SVGID_2_-4"><use style="overflow:visible" id="use9" xlink:href="#SVGID_1_"/></clipPath><clipPath id="SVGID_10_"><use style="overflow:visible" id="use119" width="100%" height="100%" x="0" y="0" xlink:href="#SVGID_9_"/></clipPath></defs><g id="g104"><path style="fill:#9553f1" id="rect2" d="M 0,0 H 400 V 240 H 0 Z"/><g id="g46"><defs id="defs5"><rect id="SVGID_1_" width="400" height="240"/></defs><clipPath id="SVGID_2_"><use style="overflow:visible" id="use7" xlink:href="#SVGID_1_"/></clipPath><g style="clip-path:url(#SVGID_2_)" id="g18" clip-path="url(#SVGID_2_)"><path style="fill:#6d3acf" id="polygon10" d="m 277.748,-6.175 62.248,60.578 19.701,-18.571 -59.784,-58.997 z"/><path style="fill:#8147e0" id="path12" d="M323.304,44.528c-1.929,2.23-1.294,3.623,0.811,5.791c2.105,2.169,80.738,83.194,80.738,83.194 l28.089-36.137c0,0-78.388-74.442-81.449-77.349s-4.297-1.568-6.076,0C337.294,27.188,325.233,42.298,323.304,44.528z"/><path style="fill:#aa75f4" id="path14" d="M332.457,47.266c-0.678-3.278,2.936-5.742,5.919-4.188c2.982,1.553,2.825,4.663,0.768,6.365 C337.009,51.211,333.234,51.02,332.457,47.266z"/><path style="fill:#aa75f4" id="path16" d="M345.999,32.752c-0.673,4.211,7.154,6.173,8.181,1.402 C355.206,29.383,346.958,26.752,345.999,32.752z"/></g><g style="clip-path:url(#SVGID_2_)" id="g32" clip-path="url(#SVGID_2_)"><path style="fill:#8147e0" id="path20" d="M127.767,42.602c4.274-0.225,5.207,1.777,5.256,4.798c0.049,3.021,1.276,67.112,1.252,71.601 c-0.024,4.489-0.628,5.834-4.181,6.07c-28.797,1.914-95.287,1.935-100.441,1.914s-6.429-1.394-6.76-5.292 c-0.331-3.898-3.906-36.363-5.779-68.066c-0.233-3.95,0.98-5.238,6.326-5.52C44.387,47.001,96.245,44.265,127.767,42.602z"/><path style="fill:#6d3acf" id="path22" d="M22.963,52.056c-1.866,0.624-2.45,3.511-0.993,4.445c1.457,0.934,3.773,1.073,4.353-0.842 C26.902,53.744,24.681,51.481,22.963,52.056z"/><path style="fill:#6d3acf" id="path24" d="M128.303,48.765c-1.119-1.619-4.055-1.376-4.546,0.283c-0.491,1.659,0.02,3.923,2.021,3.946 C127.779,53.018,129.334,50.256,128.303,48.765z"/><path style="fill:#aa75f4" id="path26" d="M24.631,52.329L70.604,18.88l53.963,29.167c0,0,1.012,0.724,0.458,1.599 c-0.433,0.686-1.436,0.432-1.436,0.432L70.475,23.414L26.25,54.113c0,0-1.076,0.916-2.026,0.168 C23.344,53.587,24.631,52.329,24.631,52.329z"/><path style="fill:#aa75f4" id="polygon28" d="m 68.185,0.529 1.09,17.018 h 3.102 V 0.08 Z"/><path style="fill:#6d3acf" id="path30" d="M67.627,16.086c1.391-1.077,2.865-1.949,4.691-0.651c1.826,1.298,8.458,6.01,9.282,6.596 c0.825,0.586,0.293,1.205-0.403,2.016c-0.696,0.81-3.465,4.149-4.371,5.09c-0.906,0.94-1.165,1.303-2.564,1.251 c-1.399-0.052-5.698-0.042-6.838,0.005c-1.14,0.047-1.994-1.119-2.746-1.87c-0.751-0.751-2.825-2.825-3.485-3.485 c-0.659-0.659-1.268-1.397-0.176-2.468C62.11,21.499,66.506,16.954,67.627,16.086z"/></g><path style="fill:#6d3acf" id="polygon34" d="m 337.099,63.699 2.607,2.687 28.99,-30.02 -2.552,-2.423 z" clip-path="url(#SVGID_2_)"/></g></g><path style="fill:#000;fill-opacity:.16744187" id="path22-0" d="m 189.924,76.375 c -4.498,8.27 -9.95,17.86 -11.506,20.745 -1.569,2.91 -0.537,4.262 1.009,5.224 4.031,2.509 10.542,-2.12 16.584,1.947 5.509,3.708 7.925,10.283 3.393,17.355 -3.674,5.733 -11.351,5.72 -16.294,2.545 -6.956,-4.468 -6.416,-10.407 -9.282,-12.244 -1.329,-0.852 -4.043,-0.318 -4.773,0.822 -2.601,4.068 -8.159,13.378 -11.885,19.683 -1.352,2.289 -3.924,4.74 -7.276,2.71 -11.566,-7.004 -23.438,-14.453 -24.222,-14.899 -1.537,-0.874 -2.76,-2.452 -1.806,-3.928 1.588,-2.459 7.716,-0.968 11.201,-5.344 3.842,-4.824 3.973,-12.207 -2.044,-16.55 -6.499,-4.692 -13.78,-1.397 -16.687,3.309 -3.932,6.365 2.031,10.374 -0.249,13.931 -0.946,1.475 -3.491,1.513 -5.057,0.405 -2.163,-1.53 -17.022,-12.219 -24.175,-17.367 -2.322,-1.671 -2.878,-4.437 -1.382,-7.031 3.279,-5.687 9.157,-15.771 13.266,-22.198 0.753,-1.177 3.554,-1.728 4.926,-0.849 2.958,1.896 2.401,8.026 9.58,12.637 5.102,3.277 11.236,1.824 15.002,-3.243 5.172,-6.958 2.072,-13.495 -3.773,-17.073 -5.671,-3.472 -11.05,3.142 -16.057,-0.499 -1.52,-1.105 -2.713,-2.417 -1.042,-5.392 0.807,-1.437 7.615,-12.905 13.881,-22.826 1.383,-2.19 4.67,-2.065 6.516,-0.767 7.445,5.233 20.863,14.233 24.08,16.167 1.346,0.809 1.711,0.947 2.82,-0.552 1.864,-2.521 -2.751,-7.787 1.547,-13.339 4.721,-6.097 12.948,-7.954 18.829,-2.784 5.881,5.17 5.255,13.671 1.829,17.541 -4.458,5.035 -10.133,3.072 -12.297,5.593 -1.127,1.313 -0.711,1.862 1.542,3.778 1.505,1.28 13.311,8.965 21.705,15.183 3.316,2.457 2.859,5.907 2.097,7.31 z" clip-path="url(#SVGID_2_)" transform="matrix(0.57705333,0,0,0.57705333,192.54699,55.796444)"/><path id="path936" d="m 189.924,76.375 c -4.498,8.27 -9.95,17.86 -11.506,20.745 -1.569,2.91 -0.537,4.262 1.009,5.224 4.031,2.509 10.542,-2.12 16.584,1.947 5.509,3.708 7.925,10.283 3.393,17.355 -3.674,5.733 -11.351,5.72 -16.294,2.545 -6.956,-4.468 -6.416,-10.407 -9.282,-12.244 -1.329,-0.852 -4.043,-0.318 -4.773,0.822 -2.601,4.068 -8.159,13.378 -11.885,19.683 -1.352,2.289 -3.924,4.74 -7.276,2.71 -11.566,-7.004 -23.438,-14.453 -24.222,-14.899 -1.537,-0.874 -2.76,-2.452 -1.806,-3.928 1.588,-2.459 7.716,-0.968 11.201,-5.344 3.842,-4.824 3.973,-12.207 -2.044,-16.55 -6.499,-4.692 -13.78,-1.397 -16.687,3.309 -3.932,6.365 2.031,10.374 -0.249,13.931 -0.946,1.475 -3.491,1.513 -5.057,0.405 -2.163,-1.53 -17.022,-12.219 -24.175,-17.367 -2.322,-1.671 -2.878,-4.437 -1.382,-7.031 3.279,-5.687 9.157,-15.771 13.266,-22.198 0.753,-1.177 3.554,-1.728 4.926,-0.849 2.958,1.896 2.401,8.026 9.58,12.637 5.102,3.277 11.236,1.824 15.002,-3.243 5.172,-6.958 2.072,-13.495 -3.773,-17.073 -5.671,-3.472 -11.05,3.142 -16.057,-0.499 -1.52,-1.105 -2.713,-2.417 -1.042,-5.392 0.807,-1.437 7.615,-12.905 13.881,-22.826 1.383,-2.19 4.67,-2.065 6.516,-0.767 7.445,5.233 20.863,14.233 24.08,16.167 1.346,0.809 1.711,0.947 2.82,-0.552 1.864,-2.521 -2.751,-7.787 1.547,-13.339 4.721,-6.097 12.948,-7.954 18.829,-2.784 5.881,5.17 5.255,13.671 1.829,17.541 -4.458,5.035 -10.133,3.072 -12.297,5.593 -1.127,1.313 -0.711,1.862 1.542,3.778 1.505,1.28 13.311,8.965 21.705,15.183 3.316,2.457 2.859,5.907 2.097,7.31 z" clip-path="url(#SVGID_2_)" transform="matrix(-0.10990138,-0.56649116,0.56649116,-0.10990138,124.04731,252.814)" style="fill:#000;fill-opacity:.16744187"/><path style="fill:#000;fill-opacity:.16744187" id="path938" d="m 189.924,76.375 c -4.498,8.27 -9.95,17.86 -11.506,20.745 -1.569,2.91 -0.537,4.262 1.009,5.224 4.031,2.509 10.542,-2.12 16.584,1.947 5.509,3.708 7.925,10.283 3.393,17.355 -3.674,5.733 -11.351,5.72 -16.294,2.545 -6.956,-4.468 -6.416,-10.407 -9.282,-12.244 -1.329,-0.852 -4.043,-0.318 -4.773,0.822 -2.601,4.068 -8.159,13.378 -11.885,19.683 -1.352,2.289 -3.924,4.74 -7.276,2.71 -11.566,-7.004 -23.438,-14.453 -24.222,-14.899 -1.537,-0.874 -2.76,-2.452 -1.806,-3.928 1.588,-2.459 7.716,-0.968 11.201,-5.344 3.842,-4.824 3.973,-12.207 -2.044,-16.55 -6.499,-4.692 -13.78,-1.397 -16.687,3.309 -3.932,6.365 2.031,10.374 -0.249,13.931 -0.946,1.475 -3.491,1.513 -5.057,0.405 -2.163,-1.53 -17.022,-12.219 -24.175,-17.367 -2.322,-1.671 -2.878,-4.437 -1.382,-7.031 3.279,-5.687 9.157,-15.771 13.266,-22.198 0.753,-1.177 3.554,-1.728 4.926,-0.849 2.958,1.896 2.401,8.026 9.58,12.637 5.102,3.277 11.236,1.824 15.002,-3.243 5.172,-6.958 2.072,-13.495 -3.773,-17.073 -5.671,-3.472 -11.05,3.142 -16.057,-0.499 -1.52,-1.105 -2.713,-2.417 -1.042,-5.392 0.807,-1.437 7.615,-12.905 13.881,-22.826 1.383,-2.19 4.67,-2.065 6.516,-0.767 7.445,5.233 20.863,14.233 24.08,16.167 1.346,0.809 1.711,0.947 2.82,-0.552 1.864,-2.521 -2.751,-7.787 1.547,-13.339 4.721,-6.097 12.948,-7.954 18.829,-2.784 5.881,5.17 5.255,13.671 1.829,17.541 -4.458,5.035 -10.133,3.072 -12.297,5.593 -1.127,1.313 -0.711,1.862 1.542,3.778 1.505,1.28 13.311,8.965 21.705,15.183 3.316,2.457 2.859,5.907 2.097,7.31 z" clip-path="url(#SVGID_2_)" transform="matrix(0.57705333,0,0,0.57705333,-80.387224,129.65982)"/><g id="g975" transform="translate(56.748697,4.5038647)" style="opacity:.5"><path id="path94" d="m 257.71382,156.68632 c -1.175,-0.093 -4.641,0.363 -4.729,2.967 -0.088,2.604 -0.977,22.79 -0.991,24.459 -0.014,1.67 1.91,2.762 4.16,2.731 z" clip-path="url(#SVGID_6_)" style="fill:#3e416d"/><path id="path96" d="m 252.72582,248.76132 c 0,0 2.831,-70.327 3.683,-108.103 0.202,-8.963 3.094,-13.178 10.281,-13.056 19.239,0.325 59.852,3.2 65.743,3.41 5.891,0.21 10.498,2.117 10.054,9.273 -1.862,29.991 -9.495,116.633 -9.495,116.633 z" clip-path="url(#SVGID_6_)" style="fill:#4d4d87"/><path id="path98" d="m 256.34582,246.99232 c 0,0 4.479,-90.745 4.735,-93.978 0.256,-3.233 2.106,-3.149 3.467,-3.15 3.971,-0.002 41.015,1.561 69.243,4.457 2.519,0.258 3.089,1.615 2.941,3.487 -0.148,1.872 -8.729,97.235 -8.729,97.235 z" clip-path="url(#SVGID_6_)" style="fill:#f9fafe"/><path id="path100" d="m 285.20082,138.80132 c -3.591,-0.066 -4.721,3.439 -0.308,3.894 4.412,0.455 18.961,1.29 21.496,1.385 2.535,0.095 3.062,-3.888 -0.201,-4.146 -3.263,-0.258 -17.497,-1.068 -20.987,-1.133 z" clip-path="url(#SVGID_6_)" style="fill:#3e416d"/><path id="path102" d="m 316.16982,140.12532 c -1.875,-0.117 -3.604,1.727 -2.26,3.674 1.344,1.947 3.389,0.996 4.118,-0.102 0.729,-1.098 0.656,-3.415 -1.858,-3.572 z" clip-path="url(#SVGID_6_)" style="fill:#3e416d"/><path id="path106" d="m 321.01782,224.84532 c 0.788,0.054 1.284,0.273 1.317,0.939 0.033,0.666 0.095,2.319 0.092,2.897 -0.003,0.578 -0.14,1.23 -0.993,1.184 -0.853,-0.046 -54.839,-3.787 -55.371,-3.829 -0.532,-0.042 -1.052,-0.233 -0.999,-1.171 0.053,-0.938 0.189,-1.847 0.267,-2.291 0.078,-0.443 0.364,-0.806 1.007,-0.819 0.643,-0.013 52.594,2.946 54.68,3.09 z" clip-path="url(#SVGID_6_)" style="fill:#d9e8fb"/><path id="path108" d="m 320.67082,234.36432 c 0.575,0.04 1.151,0.327 1.117,1.03 -0.034,0.704 -0.165,2.085 -0.212,2.68 -0.047,0.596 -0.083,1.321 -1.081,1.22 -0.998,-0.101 -53.702,-4.639 -54.719,-4.762 -1.018,-0.123 -1.135,-0.539 -1.097,-1.286 0.038,-0.746 0.146,-1.572 0.219,-2.23 0.073,-0.658 0.203,-0.947 1.185,-0.912 0.982,0.036 49.756,3.92 54.588,4.26 z" clip-path="url(#SVGID_6_)" style="fill:#d9e8fb"/><path id="path110" d="m 264.40782,239.90432 c 0.073,-0.615 0.427,-0.801 1.005,-0.798 0.578,0.003 52.869,3.802 53.693,3.932 0.825,0.13 1.323,0.319 1.297,0.916 -0.026,0.597 -0.077,2.327 -0.08,2.905 -0.003,0.578 -0.3,1.089 -1.109,1.025 -0.809,-0.064 -53.478,-4.215 -54.182,-4.249 -0.704,-0.034 -0.937,-0.331 -0.893,-0.884 0.044,-0.553 0.139,-1.744 0.269,-2.847 z" clip-path="url(#SVGID_6_)" style="fill:#d9e8fb"/><path id="path122" d="m 288.184,157.934 c 0,0 51.695,2.237 77.501,3.95 l 2.178,-16.218 -78.522,-4.022 z" clip-path="url(#SVGID_10_)" transform="translate(-29.151178,6.1483176)" style="fill:#d9e8fb"/></g></svg>