<svg id="Layer_35" enable-background="new 0 0 64 64" height="512" viewBox="0 0 64 64" width="512" xmlns="http://www.w3.org/2000/svg"><path d="m62 32v7h-8v-1c0-.83-.34-1.58-.88-2.12s-1.29-.88-2.12-.88c-1.66 0-3 1.34-3 3v1h-8v-7h-1c-.83 0-1.58-.34-2.12-.88s-.88-1.29-.88-2.12c0-1.66 1.34-3 3-3h1v-7h8v1c0 .83.34 1.58.88 2.12s1.29.88 2.12.88c1.66 0 3-1.34 3-3v-1h8v7h-1c-.83 0-1.58.34-2.12.88s-.88 1.29-.88 2.12c0 1.66 1.34 3 3 3z" fill="#fcd770"/><g fill="#ff826e"><circle cx="59" cy="60" r="2"/><circle cx="51" cy="54" r="2"/><circle cx="43" cy="60" r="2"/></g><path d="m36 39.68v19.32c0 .83-.34 1.58-.88 2.12s-1.29.88-2.12.88c-1.66 0-3-1.34-3-3v-16.27c0-.99-.73-1.83-1.72-1.98l-6.28-.89-.85-.12c-2.95-.43-5.15-2.96-5.15-5.94v-.8h12l3.46.86c2.67.67 4.54 3.07 4.54 5.82z" fill="#cf9e76"/><path d="m22 39.86v12.14c0 1.66-1.34 3-3 3h-11c-.83 0-1.58-.34-2.12-.88s-.88-1.29-.88-2.12c0-1.66 1.34-3 3-3h8v-15.2c0 2.98 2.2 5.51 5.15 5.94z" fill="#cf9e76"/><path d="m42 4.29c0 .46-.14.91-.41 1.3l-5.69 8.22c-.93 1.35-2.1 2.48-3.44 3.36-1.34.89-2.86 1.51-4.46 1.83v14h-12v-3-10c-1.25 0-2.42.62-3.11 1.66l-6.19 9.29c-.44.66-1.17 1.05-1.96 1.05h-.39c-.65 0-1.24-.26-1.66-.69-.43-.42-.69-1.01-.69-1.66 0-.43.12-.84.33-1.21l4.59-7.64c2.53-4.22 7.09-6.8 12.01-6.8h3.07 3c2.52 0 4.89-1.19 6.4-3.2l5.91-7.89c.44-.57 1.11-.91 1.83-.91h.57c.63 0 1.21.26 1.62.67s.67.99.67 1.62z" fill="#b4dd7f"/><circle cx="22" cy="8" fill="#f0d0b4" r="6"/><path d="m61 27h2v-9h-10v2c0 1.103-.897 2-2 2s-2-.897-2-2v-2h-10v7c-2.206 0-4 1.794-4 4s1.794 4 4 4v7h10v-2c0-1.103.897-2 2-2s2 .897 2 2v2h10v-9h-2c-1.103 0-2-.897-2-2s.897-2 2-2zm0 6v5h-6c0-2.206-1.794-4-4-4s-4 1.794-4 4h-6v-7h-2c-1.103 0-2-.897-2-2s.897-2 2-2h2v-7h6c0 2.206 1.794 4 4 4s4-1.794 4-4h6v5c-2.206 0-4 1.794-4 4s1.794 4 4 4z"/><path d="m31.697 32.894-2.697-.675v-12.424c3.142-.826 5.862-2.728 7.725-5.418l5.691-8.221c.382-.552.584-1.198.584-1.87 0-1.812-1.475-3.286-3.286-3.286h-.571c-1.028 0-2.011.492-2.628 1.314l-5.914 7.886c-.852 1.136-2.034 1.969-3.355 2.419 1.088-1.234 1.754-2.848 1.754-4.619 0-3.86-3.141-7-7-7s-7 3.14-7 7c0 2.014.86 3.826 2.225 5.104-4.586.531-8.76 3.177-11.161 7.178l-4.586 7.644c-.313.52-.478 1.116-.478 1.725 0 1.847 1.503 3.349 3.35 3.349h.394c1.122 0 2.164-.558 2.786-1.491l6.193-9.29c.315-.474.764-.829 1.277-1.03v8.811 3.796 14.204h-7c-2.206 0-4 1.794-4 4s1.794 4 4 4h11c2.206 0 4-1.794 4-4v-10.99l5.142.735c.489.069.858.495.858.989v16.266c0 2.206 1.794 4 4 4s4-1.794 4-4v-19.315c0-3.218-2.181-6.011-5.303-6.791zm-14.697-24.894c0-2.757 2.243-5 5-5s5 2.243 5 5-2.243 5-5 5-5-2.243-5-5zm-1 11c-1.587 0-3.061.789-3.941 2.109l-6.193 9.29c-.252.376-.671.601-1.123.601h-.393c-.745 0-1.35-.605-1.35-1.349 0-.245.066-.485.192-.694l4.587-7.645c2.336-3.894 6.608-6.312 11.148-6.312h6.073c2.817 0 5.509-1.346 7.2-3.6l5.914-7.885c.242-.323.626-.515 1.029-.515h.571c.709 0 1.286.577 1.286 1.286 0 .263-.079.516-.229.731l-5.691 8.221c-1.723 2.489-4.307 4.187-7.276 4.781l-.804.161v13.82h-10v-2-11zm3 35h-11c-1.103 0-2-.897-2-2s.897-2 2-2h9v-11.329c1.047 1.076 2.433 1.827 4 2.053v11.276c0 1.103-.897 2-2 2zm16 5c0 1.103-.897 2-2 2s-2-.897-2-2v-16.266c0-1.483-1.107-2.76-2.575-2.969l-7.132-1.019c-2.379-.34-4.174-2.363-4.274-4.746h10.858l3.336.834c2.229.558 3.787 2.552 3.787 4.851z"/><path d="m52 51.184v-9.184h-2v9.184c-1.161.414-2 1.514-2 2.816 0 1.654 1.346 3 3 3s3-1.346 3-3c0-1.302-.839-2.402-2-2.816zm-1 3.816c-.552 0-1-.449-1-1s.448-1 1-1 1 .449 1 1-.448 1-1 1z"/><path d="m60 57.184v-7.184h-2v7.184c-1.161.414-2 1.514-2 2.816 0 1.654 1.346 3 3 3s3-1.346 3-3c0-1.302-.839-2.402-2-2.816zm-1 3.816c-.552 0-1-.449-1-1s.448-1 1-1 1 .449 1 1-.448 1-1 1z"/><path d="m58 42h2v2h-2z"/><path d="m58 46h2v2h-2z"/><path d="m44 57.184v-7.184h-2v7.184c-1.161.414-2 1.514-2 2.816 0 1.654 1.346 3 3 3s3-1.346 3-3c0-1.302-.839-2.402-2-2.816zm-1 3.816c-.552 0-1-.449-1-1s.448-1 1-1 1 .449 1 1-.448 1-1 1z"/><path d="m42 42h2v2h-2z"/><path d="m42 46h2v2h-2z"/></svg>