<svg id="Layer_3" enable-background="new 0 0 64 64" height="512" viewBox="0 0 64 64" width="512" xmlns="http://www.w3.org/2000/svg"><path d="m41 15c-.379 0-.725-.214-.895-.553l-1.723-3.447h-3.382c-.4 0-.762-.238-.919-.606l-2.108-4.918-4.063 8.938c-.167.368-.547.603-.944.586-.404-.014-.761-.27-.903-.648l-2.359-6.291-1.904 2.539c-.189.252-.485.4-.8.4h-6v-2h5.5l2.7-3.6c.219-.292.576-.443.942-.39.361.052.666.296.794.639l2.152 5.739 4.001-8.802c.164-.36.558-.558.921-.586.396.004.752.242.908.606l2.741 6.394h3.341c.379 0 .725.214.895.553l1.105 2.211 1.105-2.211c.17-.339.516-.553.895-.553h6v2h-5.382l-1.724 3.447c-.169.339-.515.553-.894.553z" fill="#e47c6e"/><path d="m8 19h2v3h-2z" fill="#4d5d7a"/><path d="m54 19h2v3h-2z" fill="#4d5d7a"/><path d="m55 2c-3.866 0-7 3.134-7 7 0 2.791 1.637 5.193 4 6.317v4.683h6v-4.683c2.363-1.124 4-3.527 4-6.317 0-3.866-3.134-7-7-7z" fill="#a1cdfb"/><path d="m48 9c0 1.934.798 3.67 2.067 4.935 4.467-.5 7.933-4.082 7.933-8.435 0-1.086-.224-2.12-.617-3.075-.745-.27-1.545-.425-2.383-.425-3.866 0-7 3.134-7 7z" fill="#c7e2fc"/><path d="m9 2c-3.866 0-7 3.134-7 7 0 2.791 1.637 5.193 4 6.317v4.683h6v-4.683c2.363-1.124 4-3.527 4-6.317 0-3.866-3.134-7-7-7z" fill="#a1cdfb"/><path d="m2 9c0 1.934.798 3.67 2.067 4.935 4.467-.5 7.933-4.082 7.933-8.435 0-1.086-.224-2.12-.617-3.075-.745-.27-1.545-.425-2.383-.425-3.866 0-7 3.134-7 7z" fill="#c7e2fc"/><path d="m52 17h6v3h-6z" fill="#f5b953"/><path d="m6 17h6v3h-6z" fill="#f5b953"/><path d="m51.598 36c-.501-2.469-1.469-4.763-2.788-6.81l2.19-2.19-6-6-2.19 2.19c-2.047-1.319-4.342-2.287-6.81-2.788v-2.402h-8v2.402c-2.469.501-4.763 1.469-6.81 2.788l-2.19-2.19-6 6 2.19 2.19c-1.319 2.047-2.287 4.342-2.788 6.81h-2.402v8h2.402c.501 2.469 1.469 4.763 2.788 6.81l-2.19 2.19 6 6 2.19-2.19c2.047 1.319 4.342 2.287 6.81 2.788v2.402h8v-2.402c2.469-.501 4.763-1.469 6.81-2.788l2.19 2.19 6-6-2.19-2.19c1.319-2.047 2.287-4.342 2.788-6.81h2.402v-8zm-19.598 20c-8.837 0-16-7.163-16-16s7.163-16 16-16 16 7.163 16 16-7.163 16-16 16z" fill="#4d5d7a"/><path d="m35 44h-6c-3.314 0-6 2.686-6 6v3.227c2.565 1.748 5.662 2.773 9 2.773s6.435-1.025 9-2.773v-3.227c0-3.314-2.686-6-6-6z" fill="#c66b60"/><path d="m27 53c6.075 0 11-3.358 11-7.5 0-.244-.02-.485-.054-.723-.87-.493-1.874-.777-2.946-.777h-6c-3.314 0-6 2.686-6 6v2.481c1.241.331 2.587.519 4 .519z" fill="#e47c6e"/><path d="m30 48 2-2 2 2 2.795-3.726c-.567-.178-1.17-.274-1.795-.274h-6c-.625 0-1.228.096-1.795.274z" fill="#efbe9a"/><path d="m36 36h3c1.105 0 2 .895 2 2 0 1.105-.895 2-2 2h-3" fill="#efbe9a"/><path d="m28 36h-3c-1.105 0-2 .895-2 2 0 1.105.895 2 2 2h3" fill="#db9b7c"/><path d="m37 32v7c0 2.761-2.239 5-5 5-2.761 0-5-2.239-5-5v-7" fill="#db9b7c"/><path d="m31 43.899c2.282-.463 4-2.48 4-4.899v-7h-8v7c0 2.419 1.718 4.436 4 4.899z" fill="#efbe9a"/><path d="m35 32c0 2.209-3.791 4-6 4h-4v-4c0-2.209 1.791-4 4-4h6c2.209 0 4 1.791 4 4v4c-2.209 0-4-1.791-4-4z" fill="#a66d43"/><path d="m35 32c0 .383.071.745.171 1.096.528-.774.829-1.657.829-2.596 0-.891-.276-1.731-.755-2.475-.083-.005-.161-.025-.245-.025h-6c-2.209 0-4 1.791-4 4v3.01c1.134.622 2.512.99 4 .99 2.209 0 6-1.791 6-4z" fill="#c18e59"/><g fill="#fff"><path d="m12 7h-2v2h-2v-2h-2v2h-2v2h2v3h2v-3h2v3h2v-3h2v-2h-2z"/><path d="m60 9h-2v-2h-2v2h-2v-2h-2v2h-2v2h2v3h2v-3h2v3h2v-3h2z"/></g></svg>