<svg xmlns="http://www.w3.org/2000/svg" xmlns:xlink="http://www.w3.org/1999/xlink" width="479.999" height="479.999" version="1.1" viewBox="0 0 4999.99 4999.99" xml:space="preserve" style="shape-rendering:geometricPrecision;text-rendering:geometricPrecision;image-rendering:optimizeQuality;fill-rule:evenodd;clip-rule:evenodd"><defs><style type="text/css">.str0{stroke:#1b6168;stroke-width:6.94;stroke-miterlimit:2.61313}.fil5,.fil62{fill:none}.fil62{fill-rule:nonzero}.fil29{fill:#f2f3f3}.fil3{fill:#f2f2e8}.fil28{fill:#d6d6d6}.fil2{fill:#d6d7c9}.fil4{fill:#d5d4c2}.fil30{fill:#cccbcb}.fil32{fill:#a7a7a7}.fil31{fill:#908f8d}.fil27{fill:#282828}.fil43{fill:#111242}.fil41{fill:#121343}.fil45{fill:#154b50}.fil44{fill:#1b6168}.fil40{fill:#26264a}.fil37{fill:#26264b}.fil6{fill:#2f3434}.fil35{fill:#303d74}.fil42{fill:#3ca3f0}.fil34{fill:#546a75}.fil39{fill:#5e626a}.fil1{fill:#72716f}.fil7{fill:#79cff2}.fil38{fill:#858c94}.fil10{fill:#cacaca}.fil9{fill:#d65656}.fil33{fill:#dc774b}.fil0{fill:#eaeaea}.fil36{fill:#fcd62b}.fil46{fill:#ffc19f}.fil11{fill:#ffdf48}.fil8{fill:#fff}.fil15{fill-rule:nonzero}.fil24{fill:#ee414b}.fil24,.fil25{fill-rule:nonzero}.fil15{fill:#facd2e}.fil25{fill:#d4d3d3}.fil17,.fil21,.fil22{fill-rule:nonzero}.fil22{fill:#d2ac3b}.fil21{fill:#8ac3ea}.fil17{fill:#868582}.fil12,.fil19,.fil26{fill-rule:nonzero}.fil26{fill:#70706e}.fil19{fill:#363435}.fil12{fill:#282828}.fil13,.fil14,.fil18{fill-rule:nonzero}.fil18{fill:#20aaa0}.fil13{fill:#404979}.fil14{fill:#00aeef}.fil48,.fil49,.fil72{fill-rule:nonzero}.fil49,.fil72{fill:#19555b}.fil72{fill:#1b6168}.fil48{fill:#2d8f91}.fil64,.fil68,.fil70{fill-rule:nonzero}.fil70{fill:#6b1a11}.fil68{fill:#701608}.fil64{fill:#752912}.fil47,.fil61,.fil67{fill-rule:nonzero}.fil67{fill:#8c2f22}.fil47{fill:#9dcecc}.fil61{fill:#9e330d}.fil20{fill:#bb7017}.fil20,.fil56,.fil58{fill-rule:nonzero}.fil56{fill:#c48369}.fil58{fill:#c4c4c4}.fil50,.fil55,.fil66{fill-rule:nonzero}.fil66{fill:#c67f75}.fil50{fill:#d3dae5}.fil55{fill:#db9c7d}.fil54{fill:#dbccc9}.fil54,.fil63,.fil69{fill-rule:nonzero}.fil69{fill:#dd6b5b}.fil63{fill:#e0956c}.fil52{fill-rule:nonzero}.fil53{fill:#e2a285}.fil53,.fil57{fill-rule:nonzero}.fil52{fill:#e2d4d2}.fil57{fill:#ef5a18}.fil16,.fil23,.fil60{fill-rule:nonzero}.fil60{fill:#f59c74}.fil16{fill:#f7941e}.fil23{fill:#fccc0f}.fil51,.fil59,.fil65{fill-rule:nonzero}.fil65{fill:#ff9797}.fil51{fill:#ffc19f}.fil59{fill:#fff}.fil71{fill:#fefefe;fill-opacity:.25098}</style><clipPath id="id0"><path d="M1887.85 1348.77l669.92 0c30.54,0 55.53,24.99 55.53,55.53l0 816.6 -780.97 0 0 -816.6c0,-30.54 24.98,-55.53 55.53,-55.53z"/></clipPath><clipPath id="id1"><path d="M1870.44 2256.3l737.11 0 0 -772.28 -737.11 0 0 772.28z"/></clipPath><clipPath id="id2"><path d="M1210 1948.5l1072.99 0c12.81,0 23.28,10.48 23.28,23.28l0 721.37c0,12.81 -10.48,23.29 -23.28,23.29l-1072.99 0c-12.8,0 -23.28,-10.48 -23.28,-23.29l0 -721.37c0,-12.8 10.48,-23.28 23.28,-23.28z"/></clipPath><clipPath id="id3"><path d="M1594.24 2843.05l399.05 0c11.76,0 21.37,9.62 21.37,21.37l0 0 -441.8 0 0 -0c0,-11.76 9.62,-21.37 21.37,-21.37z"/></clipPath><clipPath id="id4"><path d="M1909.14 2716.44l-235.7 0 -18.09 126.61 273.52 0 -19.73 -126.61z"/></clipPath><clipPath id="id5"><path d="M1294.22 2383.22c-13.98,-11.92 -59.19,-22.12 -73.99,-24.83 -52.89,-9.67 -110.41,-11.54 -164.06,-9.65 -53.52,1.89 -110.24,7.78 -162.29,20.66 -14.94,3.7 -59.41,16.56 -73.52,29.07l-48.92 529.3c-6.6,71.47 54.04,140.18 126.36,140.18l322.59 0c69.31,0 125.85,-65.65 120.12,-133.82l-46.3 -550.91z"/></clipPath><clipPath id="id6"><path d="M810.96 3226.85l570.03 0 0 91.06 -642.88 0 0 -18.21c0,-40.07 32.78,-72.85 72.85,-72.85z"/></clipPath><clipPath id="id7"><path d="M969.12 3228.53c4.87,1.9 71.29,27.14 156.3,21.44 0.37,0.37 10.39,-76.77 61.24,-95.93 35.15,-13.24 57.56,1.8 77.08,31.42 9.35,14.19 18.04,33.67 22.4,59.95 -0.46,1.37 37.33,-1.59 37.33,-1.59 0,0 29.36,-122.93 119.06,-81.04 -6.15,-7.51 -84.03,-60.35 -171.44,-84.98l-51.66 -23.83c0,0 -177.57,-25.43 -232.89,27.34 -0.91,0.91 -51.85,79.33 -20.24,145.29 1.48,1.06 2.19,1.54 2.53,1.75 0.24,0.15 0.29,0.17 0.29,0.17z"/></clipPath><clipPath id="id8" style="clip-rule:nonzero"><path d="M1270.42 3082.24c0.6,-3.2 1.21,-6.61 0.16,-8.85 -4.07,-8.71 -24.65,-1.32 -21.54,-10.84 10.94,-33.32 -8.79,-32.42 -13.98,-41.3 -23.79,-40.69 -31.52,-97.83 -35.13,-150.87 41.97,19.77 85.57,2.92 85.57,2.92 15,-7.95 31.96,-116.68 -10.2,-162.26 -22.47,14.99 -64.4,28.41 -97.31,37.87 -59.11,7.54 -196.32,17.1 -254.48,0.02l-0.3 -0.09c-0.83,-0.25 -1.65,-0.5 -2.44,-0.76 -42.59,-13.22 -77.25,-29.51 -77.25,-29.51 -43.35,34.29 -37.69,131.56 -24.32,142.02 0,0 41.43,18.64 87.49,3 -0.52,136.14 23.78,341.55 62.15,364.8 -0.2,-11.11 -0.1,-29.7 1.79,-49.61 2.62,-27.54 8.69,-57.6 22.22,-73.94 1.07,-0.36 31.83,-20.66 98.7,-29.32 43.64,-5.65 102.67,-6.34 178.87,6.7z"/></clipPath><clipPath id="id9"><path d="M1052.18 833.33l669.92 0c30.54,0 55.53,24.99 55.53,55.53l0 816.6 -780.97 0 0 -816.6c0,-30.54 24.98,-55.53 55.53,-55.53z"/></clipPath><clipPath id="id10"><path d="M1034.78 1740.86l737.11 0 0 -772.28 -737.11 0 0 772.28z"/></clipPath></defs><g id="Layer_x0020_1"><metadata id="CorelCorpID_0Corel-Layer"/><g id="_1410702352"><ellipse cx="2500" cy="3942.12" class="fil0" rx="2367.92" ry="224.55"/><path d="M2177.53 3706.43l373.65 0 29.19 -0.05c0,0 11.48,-0.24 18.78,-16.87 3.1,1.93 13.57,-29.44 27.61,-67.25 21.4,-57.62 51.09,-130.2 75.6,-122.57l28.86 15.35c-22.26,0.2 -34.04,12.74 -43.98,29.17 -13.45,22.23 -26.08,63.18 -30.84,75.51 -9.23,23.92 -18.15,47.19 -18.15,47.19 0,0 -19.37,57.65 -48.56,61.96 -0.7,0.7 -32.15,0.54 -34.11,0.53l-0.07 0 -0.03 0 -374.83 0c-18.17,0 -24.12,0.68 -42.13,-6.93 -12.22,-5.17 -26.94,-13.99 -38.6,-28.85 -6.43,-8.2 -11.88,-18.27 -15.52,-30.82 -5.37,-18.56 -4,-28.61 -4,-47.92l0 -898.43 22.96 0 0 895.56c0,16.76 -1.81,28.93 4,44.77 4.48,12.2 13.7,29.43 32.42,40.69 14.61,8.79 21.74,8.97 37.76,8.97z" class="fil1"/><path d="M1887.85 1348.77l669.92 0c30.54,0 55.53,24.99 55.53,55.53l0 816.6 -780.97 0 0 -816.6c0,-30.54 24.98,-55.53 55.53,-55.53z" class="fil2"/><g style="clip-path:url(#id0)"><g><path id="1" d="M2557.76 1348.77l-669.92 0c-30.54,0 -55.53,24.99 -55.53,55.53l0 44.31 780.97 0 0 -44.31c0,-30.54 -24.99,-55.53 -55.53,-55.53z" class="fil3"/><circle cx="1893.26" cy="1399.83" r="19.42" class="fil4"/><circle cx="1945.63" cy="1399.83" r="19.42" class="fil4"/><circle cx="1998" cy="1399.83" r="19.42" class="fil4"/><rect width="519.75" height="22.49" x="2055.94" y="1389.05" class="fil4" rx="37.42" ry="11.25"/></g></g><path d="M1887.85 1348.77l669.92 0c30.54,0 55.53,24.99 55.53,55.53l0 816.6 -780.97 0 0 -816.6c0,-30.54 24.98,-55.53 55.53,-55.53z" class="fil5"/><polygon points="1870.44 2256.3 2607.56 2256.3 2607.56 1484.02 1870.44 1484.02" class="fil6"/><g style="clip-path:url(#id1)"><g><g><polygon id="1" points="1927.92 1570.37 2040.87 1570.37 2040.87 1585.5 1927.92 1585.5" class="fil7"/><polygon points="1927.92 1607.69 2110.07 1607.69 2110.07 1622.82 1927.92 1622.82" class="fil8"/><polygon points="2012.68 1645.09 2118.98 1645.09 2118.98 1660.23 2012.68 1660.23" class="fil7"/><polygon points="2012.68 1682.41 2118.98 1682.41 2118.98 1697.64 2012.68 1697.64" class="fil7"/><polygon points="2086.45 1719.82 2189.84 1719.82 2189.84 1734.95 2086.45 1734.95" class="fil7"/><polygon points="2078.89 1570.37 2185.77 1570.37 2185.77 1585.5 2078.89 1585.5" class="fil9"/><polygon points="2213.13 1570.37 2267.11 1570.37 2267.11 1585.5 2213.13 1585.5" class="fil10"/><polygon points="2302.05 1570.37 2473.72 1570.37 2473.72 1585.5 2302.05 1585.5" class="fil8"/><polygon points="2140.52 1607.69 2248.9 1607.69 2248.9 1622.82 2140.52 1622.82" class="fil7"/><polygon points="2151.42 1645.09 2272.52 1645.09 2272.52 1660.23 2151.42 1660.23" class="fil10"/><polygon points="2151.42 1682.41 2234.09 1682.41 2234.09 1697.64 2151.42 1697.64" class="fil10"/><polygon points="2302.05 1645.09 2392.04 1645.09 2392.04 1660.23 2302.05 1660.23" class="fil11"/><polygon points="2257.71 1682.41 2415.58 1682.41 2415.58 1697.64 2257.71 1697.64" class="fil8"/><polygon points="2435.63 1682.41 2475.72 1682.41 2475.72 1697.64 2435.63 1697.64" class="fil10"/><polygon points="2219.37 1719.82 2296.22 1719.82 2296.22 1734.95 2219.37 1734.95" class="fil10"/><polygon points="2313.28 1719.82 2456.34 1719.82 2456.34 1734.95 2313.28 1734.95" class="fil10"/><polygon points="2477.63 1719.82 2520.39 1719.82 2520.39 1734.95 2477.63 1734.95" class="fil8"/><polygon points="2012.68 1794.54 2118.98 1794.54 2118.98 1809.68 2012.68 1809.68" class="fil7"/><polygon points="2012.68 1831.95 2118.98 1831.95 2118.98 1847.09 2012.68 1847.09" class="fil7"/><polygon points="2151.42 1794.54 2326.42 1794.54 2326.42 1809.68 2151.42 1809.68" class="fil8"/><polygon points="2151.42 1831.95 2247.15 1831.95 2247.15 1847.09 2151.42 1847.09" class="fil8"/><polygon points="2351.95 1794.54 2399.7 1794.54 2399.7 1809.68 2351.95 1809.68" class="fil11"/><polygon points="2420.16 1794.54 2479.21 1794.54 2479.21 1809.68 2420.16 1809.68" class="fil10"/><polygon points="2340.31 1831.95 2446.69 1831.95 2446.69 1847.09 2340.31 1847.09" class="fil10"/><polygon points="2268.44 1831.95 2313.69 1831.95 2313.69 1847.09 2268.44 1847.09" class="fil9"/><polygon points="1927.92 1893.24 2040.87 1893.24 2040.87 1908.37 1927.92 1908.37" class="fil7"/><polygon points="1927.92 1930.55 2110.07 1930.55 2110.07 1945.68 1927.92 1945.68" class="fil8"/><polygon points="2012.68 1967.96 2118.98 1967.96 2118.98 1983.09 2012.68 1983.09" class="fil7"/><polygon points="2012.68 2005.27 2118.98 2005.27 2118.98 2020.41 2012.68 2020.41" class="fil7"/><polygon points="2086.45 2042.68 2189.84 2042.68 2189.84 2057.81 2086.45 2057.81" class="fil7"/><polygon points="2078.89 1893.24 2185.77 1893.24 2185.77 1908.37 2078.89 1908.37" class="fil8"/><polygon points="2213.13 1893.24 2267.11 1893.24 2267.11 1908.37 2213.13 1908.37" class="fil11"/><polygon points="2302.05 1893.24 2550.08 1893.24 2550.08 1908.37 2302.05 1908.37" class="fil10"/><polygon points="2140.52 1930.55 2248.9 1930.55 2248.9 1945.68 2140.52 1945.68" class="fil7"/><polygon points="2151.42 1967.96 2272.52 1967.96 2272.52 1983.09 2151.42 1983.09" class="fil8"/><polygon points="2151.42 2005.27 2234.09 2005.27 2234.09 2020.41 2151.42 2020.41" class="fil9"/><polygon points="2302.05 1967.96 2392.04 1967.96 2392.04 1983.09 2302.05 1983.09" class="fil10"/><polygon points="2415.67 1967.96 2470.39 1967.96 2470.39 1983.09 2415.67 1983.09" class="fil11"/><polygon points="2497.01 1967.96 2550.08 1967.96 2550.08 1983.09 2497.01 1983.09" class="fil10"/><polygon points="2257.71 2005.27 2415.58 2005.27 2415.58 2020.41 2257.71 2020.41" class="fil8"/><polygon points="2435.63 2005.27 2475.72 2005.27 2475.72 2020.41 2435.63 2020.41" class="fil10"/><polygon points="2219.37 2042.68 2296.22 2042.68 2296.22 2057.81 2219.37 2057.81" class="fil10"/><polygon points="2012.68 2117.41 2118.98 2117.41 2118.98 2132.54 2012.68 2132.54" class="fil7"/><polygon points="2012.68 2154.81 2118.98 2154.81 2118.98 2169.94 2012.68 2169.94" class="fil7"/><polygon points="2151.42 2117.41 2326.42 2117.41 2326.42 2132.54 2151.42 2132.54" class="fil8"/><polygon points="2151.42 2154.81 2247.15 2154.81 2247.15 2169.94 2151.42 2169.94" class="fil10"/><polygon points="2351.95 2117.41 2399.7 2117.41 2399.7 2132.54 2351.95 2132.54" class="fil11"/><polygon points="2420.16 2117.41 2479.21 2117.41 2479.21 2132.54 2420.16 2132.54" class="fil10"/><polygon points="2340.31 2154.81 2446.69 2154.81 2446.69 2169.94 2340.31 2169.94" class="fil10"/><polygon points="2268.44 2154.81 2313.69 2154.81 2313.69 2169.94 2268.44 2169.94" class="fil9"/></g></g></g><polygon points="1870.44 2256.3 2607.56 2256.3 2607.56 1484.02 1870.44 1484.02" class="fil5"/><path d="M3546.13 1322.45l-42.11 0 0 -239.42c0,-63.05 -39.52,-130.9 -126.29,-130.9 -86.77,0 -126.29,67.85 -126.29,130.9l0 231.53 -42.09 0 0 -231.53c0,-85.96 57.84,-173 168.39,-173 110.56,0 168.39,87.03 168.39,173l0 239.42z" class="fil12"/><path d="M3935.52 3048.44c0,29.06 23.56,52.63 52.63,52.63 29.07,0 52.62,-23.57 52.62,-52.63 0,-29.07 -23.55,-52.63 -52.62,-52.63 -29.07,0 -52.63,23.56 -52.63,52.63z" class="fil13"/><path d="M3935.52 3174.74c0,29.06 23.56,52.62 52.63,52.62 29.07,0 52.62,-23.56 52.62,-52.62 0,-29.07 -23.55,-52.61 -52.62,-52.61 -29.07,0 -52.63,23.55 -52.63,52.61z" class="fil13"/><path d="M2704.18 3595.71c0,29.06 23.56,52.61 52.61,52.61 29.07,0 52.63,-23.55 52.63,-52.61 0,-29.07 -23.55,-52.63 -52.63,-52.63 -29.06,0 -52.61,23.56 -52.61,52.63z" class="fil13"/><path d="M2704.18 3722c0,29.07 23.56,52.63 52.61,52.63 29.07,0 52.63,-23.56 52.63,-52.63 0,-29.07 -23.55,-52.62 -52.63,-52.62 -29.06,0 -52.61,23.55 -52.61,52.62z" class="fil13"/><polygon points="3788.18 3293.43 3841.07 3293.43 3841.07 2746.08 3788.18 2746.08" class="fil13"/><polygon points="3879.85 3293.43 3932.76 3293.43 3932.76 2746.08 3879.85 2746.08" class="fil13"/><path d="M3734.96 3527.37c-70.82,0 -107.87,-58.24 -107.87,-115.77 0,-29.65 9.39,-57.49 26.44,-78.41 19.9,-24.43 48.07,-37.35 81.43,-37.35l0 42.09c-20.57,0 -36.99,7.35 -48.8,21.85 -10.79,13.24 -16.98,32.13 -16.98,51.83 0,36.67 20.33,73.67 65.78,73.67l0 42.1z" class="fil12"/><path d="M3977.61 3527.37l0 -42.1c20.57,0 37,-7.35 48.81,-21.85 10.78,-13.23 16.97,-32.13 16.97,-51.82 0,-36.67 -20.34,-73.67 -65.79,-73.67l0 -42.09c70.83,0 107.89,58.24 107.89,115.77 0,29.64 -9.39,57.49 -26.44,78.42 -19.91,24.43 -48.07,37.35 -81.44,37.35z" class="fil12"/><polygon points="3731.18 2935.59 3731.18 3380.03 3773.28 3380.03 3773.28 3295.83 3941.66 3295.83 3941.66 3380.03 3983.77 3380.03 3983.77 2935.59" class="fil14"/><polygon points="3731.18 3422.12 3731.18 3819.64 3983.77 3819.64 3983.77 3422.12" class="fil15"/><polygon points="3799.59 3464.21 3915.36 3464.21 3915.36 3254.76 3799.59 3254.76" class="fil16"/><path d="M4093.39 3985.11c-7.03,-111.5 -99.63,-199.76 -212.89,-199.76l-46.02 0c-113.28,0 -205.86,88.26 -212.9,199.76l471.82 0z" class="fil14"/><path d="M4177.16 2426.01l0 -33.26c200.07,0 291.2,-144.13 291.2,-278.05 0,-133.92 -91.13,-278.04 -291.2,-278.04l0 -33.26c222.92,0 324.46,161.37 324.46,311.31 0,149.93 -101.54,311.31 -324.46,311.31z" class="fil17"/><path d="M2843.62 2605.91c-198.98,0 -304.38,-124.88 -336.66,-241.74 -41.18,-149 18.16,-305.77 144.29,-381.23l42.7 71.36c-94.15,56.33 -138.08,174.64 -106.85,287.72 31.27,113.16 127.16,180.72 256.51,180.72l0 83.17z" class="fil17"/><path d="M3610.16 1209.61c-3.1,-47 -42.11,-84.19 -89.91,-84.19 -47.78,0 -86.8,37.19 -89.9,84.19l179.81 0z" class="fil18"/><path d="M3325.11 1209.61c-3.11,-47 -42.11,-84.19 -89.91,-84.19 -47.79,0 -86.8,37.19 -89.9,84.19l179.81 0z" class="fil18"/><polygon points="2819.94 3293.43 2872.84 3293.43 2872.84 2746.08 2819.94 2746.08" class="fil13"/><polygon points="2911.63 3293.43 2964.52 3293.43 2964.52 2746.08 2911.63 2746.08" class="fil13"/><polygon points="2818.01 2809.3 3933.58 2809.3 3933.58 2714.59 2818.01 2714.59" class="fil17"/><polygon points="2818.01 1777.93 3933.58 1777.93 3933.58 1683.21 2818.01 1683.21" class="fil12"/><path d="M3809.23 1767.4l-42.1 0 0 -231.54c0,-70.82 58.24,-107.87 115.77,-107.87 57.53,0 115.77,37.05 115.77,107.87l0 167.12 -42.11 0 0 -167.12c0,-20.57 -7.35,-36.99 -21.85,-48.8 -13.24,-10.79 -32.13,-16.97 -51.82,-16.97 -36.67,0 -73.67,20.33 -73.67,65.77l0 231.54z" class="fil12"/><path d="M2977.81 1702.98l-42.11 0 0 -167.12c0,-20.57 -7.34,-36.99 -21.85,-48.8 -13.23,-10.79 -32.13,-16.97 -51.82,-16.97 -36.67,0 -73.67,20.33 -73.67,65.77l0 147.33 -42.1 0 0 -147.33c0,-70.82 58.24,-107.87 115.77,-107.87 57.53,0 115.77,37.05 115.77,107.87l0 167.12z" class="fil12"/><path d="M2766.72 3527.37c-70.82,0 -107.87,-58.24 -107.87,-115.77 0,-29.65 9.39,-57.49 26.44,-78.41 19.91,-24.43 48.07,-37.35 81.43,-37.35l0 42.09c-20.57,0 -36.98,7.35 -48.8,21.85 -10.79,13.24 -16.98,32.13 -16.98,51.83 0,36.67 20.33,73.67 65.78,73.67l0 42.1z" class="fil12"/><path d="M3009.39 3527.37l0 -42.1c20.57,0 36.98,-7.35 48.8,-21.85 10.79,-13.23 16.97,-32.13 16.97,-51.82 0,-36.67 -20.33,-73.67 -65.77,-73.67l0 -42.09c70.81,0 107.86,58.24 107.86,115.77 0,29.64 -9.39,57.49 -26.43,78.41 -19.91,24.43 -48.07,37.35 -81.43,37.35z" class="fil12"/><polygon points="3237.11 1830.55 3338.58 1830.55 3338.58 1390.84 3237.11 1390.84" class="fil19"/><polygon points="3412.98 1830.55 3514.46 1830.55 3514.46 1390.84 3412.98 1390.84" class="fil19"/><polygon points="3237.11 2719.78 3338.58 2719.78 3338.58 2448.46 3237.11 2448.46" class="fil12"/><polygon points="3412.98 2719.78 3514.46 2719.78 3514.46 2448.46 3412.98 2448.46" class="fil12"/><path d="M3164.15 1541.33c-50.33,0 -91.28,-40.94 -91.28,-91.26l0 -166.35c0,-50.33 40.94,-91.27 91.28,-91.27l423.28 0c50.33,0 91.28,40.94 91.28,91.27l0 166.35c0,50.32 -40.95,91.26 -91.28,91.26l-423.28 0z" class="fil16"/><path d="M3233.23 1504.52c-62.22,0 -112.66,-50.45 -112.66,-112.68 0,-62.23 50.44,-112.69 112.66,-112.69 62.25,0 112.69,50.46 112.69,112.69 0,62.23 -50.44,112.68 -112.69,112.68z" class="fil20"/><path d="M3520.89 1504.52c-62.24,0 -112.68,-50.45 -112.68,-112.68 0,-62.23 50.44,-112.69 112.68,-112.69 62.25,0 112.69,50.46 112.69,112.69 0,62.23 -50.44,112.68 -112.69,112.68z" class="fil20"/><path d="M3345.91 1350.26c0,62.23 -50.44,112.68 -112.69,112.68 -62.22,0 -112.66,-50.45 -112.66,-112.68 0,-62.23 50.44,-112.69 112.66,-112.69 62.25,0 112.69,50.45 112.69,112.69z" class="fil15"/><path d="M3633.58 1350.26c0,62.23 -50.44,112.68 -112.69,112.68 -62.24,0 -112.68,-50.45 -112.68,-112.68 0,-62.23 50.44,-112.69 112.68,-112.69 62.25,0 112.69,50.45 112.69,112.69z" class="fil15"/><path d="M3589.43 1338.34c-1.19,-6.55 -3.33,-12.77 -6.3,-18.51 -2.94,-5.7 -6.66,-10.9 -11.04,-15.5 -8.96,-9.39 -20.61,-16.15 -33.75,-19.05 -4.64,-1.02 -9.44,-1.61 -14.39,-1.61 -36.77,0 -66.58,29.81 -66.58,66.58 0,4.95 0.57,9.74 1.61,14.39 2.89,13.14 9.67,24.79 19.06,33.75 4.6,4.39 9.8,8.11 15.5,11.04 5.74,2.96 11.96,5.1 18.52,6.28 3.87,0.71 7.83,1.13 11.89,1.13 36.77,0 66.6,-29.81 66.6,-66.59 0,-4.07 -0.43,-8.04 -1.12,-11.92z" class="fil13"/><path d="M3538.34 1285.28l-79.37 79.36c2.89,13.14 9.67,24.79 19.06,33.75l94.06 -94.06c-8.96,-9.38 -20.61,-16.15 -33.75,-19.05z" class="fil21"/><polygon points="4009.19 1870.28 4274.51 1870.28 4274.51 1783.22 4009.19 1783.22" class="fil19"/><polygon points="4009.19 2462 4274.51 2462 4274.51 2374.94 4009.19 2374.94" class="fil19"/><path d="M4179.79 1599l0 1048.25c89.22,-12.79 157.87,-89.33 157.87,-182.09l0 -684.07c0,-92.76 -68.64,-169.29 -157.87,-182.09z" class="fil14"/><polygon points="4103.92 1599 3914.47 1599 4009.19 2640.92 4103.92 2640.92" class="fil14"/><polygon points="2725.23 2398.86 2651.56 2398.86 2598.94 1599 2704.18 1599" class="fil14"/><polygon points="2752.89 2398.86 2830.46 2398.86 2830.46 1599 2752.89 1599" class="fil14"/><polygon points="2641.03 1746.34 2830.47 1746.34 2830.47 1599.01 2641.03 1599.01" class="fil14"/><polygon points="2762.95 2935.59 2762.95 3380.03 2805.05 3380.03 2805.05 3295.83 2973.43 3295.83 2973.43 3380.03 3015.53 3380.03 3015.53 2935.59" class="fil14"/><polygon points="2762.95 3422.12 2762.95 3819.64 3015.53 3819.64 3015.53 3422.12" class="fil15"/><polygon points="2831.35 3464.21 2947.12 3464.21 2947.12 3254.76 2831.35 3254.76" class="fil16"/><path d="M3125.15 3985.11c-7.03,-111.5 -99.63,-199.76 -212.89,-199.76l-46.02 0c-113.28,0 -205.86,88.26 -212.91,199.76l471.83 0z" class="fil14"/><polygon points="3002.17 2535.68 3749.4 2535.68 3749.4 1872.64 3002.17 1872.64" class="fil15"/><polygon points="3002.18 1932.56 3749.4 1932.56 3749.4 1873.44 3002.18 1873.44" class="fil22"/><polygon points="2891.67 1893.69 3859.91 1893.69 3859.91 1599.01 2891.67 1599.01" class="fil14"/><path d="M3036.9 2630.39l0 124.06c0,88.42 71.69,160.09 160.09,160.09l357.59 0c88.41,0 160.09,-71.68 160.09,-160.09l0 -124.06 -677.77 0z" class="fil23"/><path d="M3617.85 2346.24c0,23.24 -18.85,42.09 -42.1,42.09l-399.92 0c-23.25,0 -42.11,-18.84 -42.11,-42.09 0,-23.26 18.85,-42.11 42.11,-42.11l399.92 0c23.25,0 42.1,18.84 42.1,42.11z" class="fil13"/><path d="M3617.85 2198.89c0,23.25 -18.85,42.1 -42.1,42.1l-399.92 0c-23.25,0 -42.11,-18.85 -42.11,-42.1 0,-23.25 18.85,-42.09 42.11,-42.09l399.92 0c23.25,0 42.1,18.85 42.1,42.09z" class="fil13"/><path d="M3617.85 2051.56c0,23.25 -18.85,42.09 -42.1,42.09l-399.92 0c-23.25,0 -42.11,-18.85 -42.11,-42.09 0,-23.26 18.85,-42.1 42.11,-42.1l399.92 0c23.25,0 42.1,18.84 42.1,42.1z" class="fil13"/><path d="M3251.44 2198.89c0,11.63 -9.42,21.05 -21.06,21.05 -11.61,0 -21.03,-9.43 -21.03,-21.05 0,-11.62 9.42,-21.05 21.03,-21.05 11.63,0 21.06,9.43 21.06,21.05z" class="fil18"/><path d="M3304.06 2198.89c0,11.63 -9.42,21.05 -21.04,21.05 -11.63,0 -21.06,-9.43 -21.06,-21.05 0,-11.62 9.43,-21.05 21.06,-21.05 11.62,0 21.04,9.43 21.04,21.05z" class="fil15"/><path d="M3409.31 2198.89c0,11.63 -9.43,21.05 -21.05,21.05 -11.63,0 -21.05,-9.43 -21.05,-21.05 0,-11.62 9.42,-21.05 21.05,-21.05 11.62,0 21.05,9.43 21.05,21.05z" class="fil18"/><path d="M3461.93 2198.89c0,11.63 -9.42,21.05 -21.04,21.05 -11.63,0 -21.05,-9.43 -21.05,-21.05 0,-11.62 9.42,-21.05 21.05,-21.05 11.62,0 21.04,9.43 21.04,21.05z" class="fil18"/><path d="M3514.55 2198.89c0,11.63 -9.42,21.05 -21.04,21.05 -11.62,0 -21.04,-9.43 -21.04,-21.05 0,-11.62 9.42,-21.05 21.04,-21.05 11.62,0 21.04,9.43 21.04,21.05z" class="fil24"/><path d="M3198.82 2051.56c0,11.61 -9.43,21.05 -21.04,21.05 -11.64,0 -21.05,-9.43 -21.05,-21.05 0,-11.63 9.41,-21.05 21.05,-21.05 11.61,0 21.04,9.43 21.04,21.05z" class="fil18"/><path d="M3304.06 2051.56c0,11.61 -9.42,21.05 -21.04,21.05 -11.63,0 -21.06,-9.43 -21.06,-21.05 0,-11.63 9.43,-21.05 21.06,-21.05 11.62,0 21.04,9.43 21.04,21.05z" class="fil18"/><path d="M3409.31 2051.56c0,11.61 -9.43,21.05 -21.05,21.05 -11.63,0 -21.05,-9.43 -21.05,-21.05 0,-11.63 9.42,-21.05 21.05,-21.05 11.62,0 21.05,9.43 21.05,21.05z" class="fil15"/><path d="M3461.93 2051.56c0,11.61 -9.42,21.05 -21.04,21.05 -11.63,0 -21.05,-9.43 -21.05,-21.05 0,-11.63 9.42,-21.05 21.05,-21.05 11.62,0 21.04,9.43 21.04,21.05z" class="fil18"/><path d="M3304.06 2346.24c0,11.61 -9.42,21.04 -21.04,21.04 -11.63,0 -21.06,-9.43 -21.06,-21.04 0,-11.64 9.43,-21.05 21.06,-21.05 11.62,0 21.04,9.41 21.04,21.05z" class="fil18"/><path d="M3356.69 2346.24c0,11.61 -9.42,21.04 -21.05,21.04 -11.63,0 -21.05,-9.43 -21.05,-21.04 0,-11.64 9.42,-21.05 21.05,-21.05 11.63,0 21.05,9.41 21.05,21.05z" class="fil18"/><path d="M3409.31 2346.24c0,11.61 -9.43,21.04 -21.05,21.04 -11.63,0 -21.05,-9.43 -21.05,-21.04 0,-11.64 9.42,-21.05 21.05,-21.05 11.62,0 21.05,9.41 21.05,21.05z" class="fil24"/><path d="M3461.93 2346.24c0,11.61 -9.42,21.04 -21.04,21.04 -11.63,0 -21.05,-9.43 -21.05,-21.04 0,-11.64 9.42,-21.05 21.05,-21.05 11.62,0 21.04,9.41 21.04,21.05z" class="fil24"/><path d="M3567.17 2346.24c0,11.61 -9.42,21.04 -21.05,21.04 -11.63,0 -21.06,-9.43 -21.06,-21.04 0,-11.64 9.43,-21.05 21.06,-21.05 11.63,0 21.05,9.41 21.05,21.05z" class="fil15"/><path d="M3072.53 1672.69c0,17.43 -14.13,31.56 -31.58,31.56 -17.44,0 -31.57,-14.13 -31.57,-31.56 0,-17.44 14.13,-31.57 31.57,-31.57 17.45,0 31.58,14.13 31.58,31.57z" class="fil12"/><path d="M3177.78 1672.69c0,17.43 -14.13,31.56 -31.58,31.56 -17.44,0 -31.57,-14.13 -31.57,-31.56 0,-17.44 14.13,-31.57 31.57,-31.57 17.45,0 31.58,14.13 31.58,31.57z" class="fil12"/><path d="M3703.98 1820.03c0,17.43 -14.13,31.57 -31.57,31.57 -17.43,0 -31.57,-14.14 -31.57,-31.57 0,-17.44 14.14,-31.58 31.57,-31.58 17.44,0 31.57,14.14 31.57,31.58z" class="fil12"/><path d="M2830.47 2625.26c-33.61,0 -60.94,-27.33 -60.94,-60.93 0,-33.6 27.34,-60.94 60.94,-60.94 33.61,0 60.94,27.34 60.94,60.94 0,33.6 -27.33,60.93 -60.94,60.93z" class="fil14"/><path d="M2830.47 2495.07c-38.19,0 -69.26,31.07 -69.26,69.26 0,38.19 31.07,69.26 69.26,69.26 38.19,0 69.26,-31.07 69.26,-69.26 0,-38.19 -31.07,-69.26 -69.26,-69.26zm0 16.63c29.07,0 52.63,23.55 52.63,52.63 0,29.07 -23.56,52.63 -52.63,52.63 -29.07,0 -52.63,-23.56 -52.63,-52.63 0,-29.07 23.56,-52.63 52.63,-52.63z" class="fil14"/><path d="M3298.71 1338.34c-1.19,-6.55 -3.33,-12.77 -6.29,-18.51 -2.94,-5.7 -6.66,-10.9 -11.05,-15.5 -8.95,-9.39 -20.61,-16.15 -33.75,-19.05 -4.64,-1.02 -9.44,-1.61 -14.39,-1.61 -36.77,0 -66.57,29.81 -66.57,66.58 0,4.95 0.57,9.74 1.6,14.39 2.89,13.14 9.67,24.79 19.06,33.75 4.6,4.39 9.8,8.11 15.5,11.04 5.74,2.96 11.96,5.1 18.52,6.28 3.87,0.71 7.83,1.13 11.89,1.13 36.78,0 66.6,-29.81 66.6,-66.59 0,-4.07 -0.43,-8.04 -1.12,-11.92z" class="fil13"/><path d="M3246.02 1285.28l-79.36 79.36c2.89,13.14 9.67,24.79 19.06,33.75l94.05 -94.06c-8.96,-9.38 -20.61,-16.15 -33.75,-19.05z" class="fil21"/><path d="M3554.58 2914.55l-357.59 0 357.59 0c69.15,0 128.06,-43.83 150.45,-105.24l0 0c-22.39,61.41 -81.3,105.24 -150.45,105.24zm160.09 -199.96l0 -84.2 0 84.2z" class="fil25"/><path d="M3705.03 2809.3l0 0c6.24,-17.1 9.64,-35.58 9.64,-54.85l0 -39.86 0 39.86c0,19.27 -3.4,37.75 -9.64,54.85z" class="fil26"/><path d="M3554.58 2914.55l-357.59 0 0 0c-88.41,0 -160.09,-71.68 -160.09,-160.09l0 -124.06 113.3 0 0 80.19c0,58.86 47.72,106.57 106.57,106.57l238.04 0c58.85,0 106.56,-47.71 106.56,-106.57l0 -80.19 113.29 0 0 124.06c0,19.27 -3.4,37.75 -9.64,54.85 -22.39,61.41 -81.3,105.24 -150.45,105.24z" class="fil16"/><polygon points="3915.36 3373.39 3799.59 3373.39 3799.59 3279.06 3915.36 3279.06" class="fil15"/><polygon points="2947.12 3373.39 2831.35 3373.39 2831.35 3279.06 2947.12 3279.06" class="fil15"/><path d="M1210 1948.5l1072.99 0c12.81,0 23.28,10.48 23.28,23.28l0 721.37c0,12.81 -10.48,23.29 -23.28,23.29l-1072.99 0c-12.8,0 -23.28,-10.48 -23.28,-23.29l0 -721.37c0,-12.8 10.48,-23.28 23.28,-23.28z" class="fil27"/><g style="clip-path:url(#id2)"><g><polygon id="1" points="1236.41 1998.2 2256.58 1998.2 2256.58 2565.51 1236.41 2565.51" class="fil6"/><rect width="1119.56" height="154.41" x="1186.71" y="2562.03" class="fil28"/><rect width="1444.28" height="217.72" x="1024.35" y="2562.03" class="fil28"/></g></g><path d="M1210 1948.5l1072.99 0c12.81,0 23.28,10.48 23.28,23.28l0 721.37c0,12.81 -10.48,23.29 -23.28,23.29l-1072.99 0c-12.8,0 -23.28,-10.48 -23.28,-23.29l0 -721.37c0,-12.8 10.48,-23.28 23.28,-23.28z" class="fil5"/><path d="M1594.24 2843.05l399.05 0c11.76,0 21.37,9.62 21.37,21.37l0 0 -441.8 0 0 -0c0,-11.76 9.62,-21.37 21.37,-21.37z" class="fil29"/><g style="clip-path:url(#id3)"><g><path id="1" d="M1933.54 2843.05c11.76,0 21.38,9.62 21.38,21.38l59.75 0c0,-11.76 -9.62,-21.38 -21.38,-21.38l-59.75 0z" class="fil30"/></g></g><path d="M1594.24 2843.05l399.05 0c11.76,0 21.37,9.62 21.37,21.37l0 0 -441.8 0 0 -0c0,-11.76 9.62,-21.37 21.37,-21.37z" class="fil5"/><polygon points="1909.14 2716.44 1673.44 2716.44 1655.35 2843.05 1928.87 2843.05" class="fil28"/><g style="clip-path:url(#id4)"><g><polygon id="1" points="1898.73 2716.44 1918.46 2843.05 1928.87 2843.05 1909.14 2716.44" class="fil31"/><polygon points="1909.57 2786.05 1898.73 2716.44 1673.44 2716.44 1663.5 2786.05" class="fil32"/></g></g><polygon points="1909.14 2716.44 1673.44 2716.44 1655.35 2843.05 1928.87 2843.05" class="fil5"/><rect width="1379.81" height="101.43" x="1056.59" y="2864.43" class="fil33"/><rect width="66.98" height="686.11" x="2230.58" y="2965.86" class="fil34"/><rect width="120.09" height="120.09" x="2205.68" y="3642.88" class="fil35"/><rect width="66.98" height="686.11" x="1192.11" y="2965.86" class="fil34"/><rect width="120.09" height="120.09" x="1167.22" y="3642.88" class="fil35"/><rect width="1272.64" height="101.43" x="1110.17" y="3141.45" class="fil36"/><path d="M1351.82 2372.73l46.77 556.52c9.06,107.87 -80.19,196.97 -178.2,196.97l-322.59 0c-101.41,0 -194.69,-92.3 -184.39,-203.82l49.52 -535.82c10.57,-114.34 578.49,-137.56 588.88,-13.85z" class="fil37"/><path d="M1294.22 2383.22c-13.98,-11.92 -59.19,-22.12 -73.99,-24.83 -52.89,-9.67 -110.41,-11.54 -164.06,-9.65 -53.52,1.89 -110.24,7.78 -162.29,20.66 -14.94,3.7 -59.41,16.56 -73.52,29.07l-48.92 529.3c-6.6,71.47 54.04,140.18 126.36,140.18l322.59 0c69.31,0 125.85,-65.65 120.12,-133.82l-46.3 -550.91z" class="fil38"/><g style="clip-path:url(#id5)"><g><path id="1" d="M1579.22 3396.18c0.21,0 0.42,0 0.63,0 9.63,0.13 18.22,4.5 24.01,11.3 24.39,8.65 57.28,22.9 69.06,40.73 8.07,12.2 8.25,27.68 -0.94,39.35 -24.36,30.93 -101.71,35.91 -138.45,38.33 -27.87,1.84 -55.9,2.63 -83.84,2.8 -30.68,10.7 -72.21,14.26 -103.66,16.34 -41.2,2.72 -84.05,3.58 -125.39,2.5 -14.52,-0.38 -26.38,-11.14 -28.16,-25.56 -0.07,-0.59 -0.15,-1.19 -0.22,-1.78 -0.43,-3.26 -0.93,-6.52 -1.45,-9.77 -3.05,-19.15 -7.28,-38.48 -9.5,-57.69 -0.51,-4.41 -0.11,-8.59 1.19,-12.5 -2.42,-11.35 -4.84,-22.7 -7.37,-34.03 -6.69,-15.91 -11.98,-32.67 -16.56,-49.27 -6.3,-22.81 -11.38,-46.09 -15.68,-69.36 -0.35,-1.91 -0.7,-3.83 -1.04,-5.74 -6.89,-0.17 -13.72,-0.91 -19.94,-2.48 -51.03,2.63 -114.31,-4.85 -162.03,-23.18 -2.09,-0.7 -4.14,-1.65 -6.11,-2.85 -2.11,-1.28 -4.11,-2.71 -6.01,-4.28 -24.84,-20.54 -37.15,-72.03 -43.64,-102.35 -10.79,-50.32 -17.01,-103.14 -21.19,-154.41 -2.54,-31.12 -4.31,-62.47 -5.02,-93.78 -24.38,1.61 -49.96,-2.01 -70.68,-11.36 -2.23,-1.01 -4.04,-2.1 -5.96,-3.61 -10.78,-8.44 -15.79,-22.97 -18.28,-37.06 -44.95,-28.3 -87.56,-60.07 -129.56,-92.56 -31.4,5.35 -69.51,-8.86 -96.82,-21.09 -1.68,-0.75 -3.24,-1.62 -4.7,-2.6 -17.41,-8.93 -32.09,-24.73 -29.85,-45.83 0.47,-4.43 1.61,-8.45 3.28,-12.07 -5.83,-10.81 -7.55,-23.3 -2.65,-35.22 3.33,-8.1 8.6,-13.95 15,-17.99 0.24,-5.84 1.91,-11.78 5.42,-17.64 3.13,-5.22 7.06,-9.21 11.53,-12.17 -0.02,-8.32 2.61,-16.6 9.02,-24.15 13.86,-16.31 35.51,-16.17 54.13,-9.87 4.2,0.45 8.08,1.75 11.55,3.85 14.22,-3.65 29.67,-3.85 42.66,2.2 -2.47,-29.94 3.9,-59.48 20.87,-82.81 -6.46,-2.01 -12.8,-4.64 -18.91,-7.82 -10.69,-5.56 -16.65,-16.42 -15.58,-28.42 1.07,-12 8.83,-21.65 20.33,-25.24 18.52,-5.79 29.83,-13.63 36.46,-31.28 0.05,-4.09 0.17,-8.17 0.35,-12.25 -8.11,-3.28 -16.09,-6.75 -24.67,-9.84 -12.42,-4.47 -20.08,-16.19 -19.2,-29.36 0.88,-13.17 10.04,-23.77 22.94,-26.54 18.33,-3.95 29.5,-16.12 39.65,-30.78 11.08,-28.44 27.35,-53.86 49.1,-75.38 21.5,-26.79 46.96,-46.58 78.96,-59.73 0.63,-0.26 1.17,-0.46 1.8,-0.67 76.96,-25.83 159.51,-33.28 239.91,-22.35 44.81,6.09 105.23,20.78 144.32,44.68 48.5,29.67 80.08,68.19 94.01,123.34 7.33,18.7 11.77,38.34 13.12,58.41 0.93,13.87 1.16,27.8 0.62,41.69 5.2,25.37 10.28,39.67 34.84,51.04 11.41,5.29 17.94,16.65 16.76,29.18 -1.18,12.52 -9.72,22.47 -21.93,25.53 -0.98,0.24 -1.97,0.48 -2.95,0.71 19.22,29.73 22.89,68.87 11.81,107.37 -9.55,33.17 -30.11,62.35 -57.61,83.02 13.93,-7.13 27.76,-14.47 41.5,-21.96 3.34,-33.68 18,-55.54 40.04,-81.11 1.57,-2.09 3.34,-4.03 5.28,-5.79 14.56,-13.18 35.21,-14.3 53.75,-9.54 3.47,-2.09 7.35,-3.39 11.55,-3.85 18.62,-6.3 40.27,-6.44 54.13,9.87 6.41,7.55 9.05,15.82 9.03,24.15 4.47,2.95 8.4,6.94 11.53,12.17 3.51,5.86 5.18,11.8 5.42,17.64 6.4,4.04 11.67,9.89 15,17.99 4.91,11.92 3.19,24.41 -2.65,35.22 1.68,3.63 2.81,7.65 3.29,12.07 2.24,21.09 -12.44,36.9 -29.85,45.83 -1.45,0.98 -3.02,1.85 -4.7,2.6 -27.31,12.22 -65.43,26.44 -96.82,21.09 -39.12,30.22 -78.76,59.89 -120.3,86.66l-2.77 -33c-10.18,6.76 -20.45,13.35 -30.86,19.75 -3.07,21.11 -8.69,36.82 -14.05,39.67 0,0 -43.61,16.85 -85.57,-2.92 3.61,53.04 11.35,110.19 35.13,150.87 5.2,8.89 24.93,7.98 13.98,41.3 -0.2,0.63 -0.31,1.19 -0.32,1.68 13.2,-3.51 25.57,-9.37 36.71,-17.06 2.61,1.83 4.98,4.02 7.05,6.61 37.63,11.82 74.57,28.46 108.89,47.43 14.42,7.97 48.8,27.48 61.73,40.92 6.66,6.26 10.97,13.02 16.01,20.67 2.81,4.26 5.43,8.63 7.79,13.17 8.2,15.78 13.65,33.37 17.66,50.66 0.08,0.34 0.14,0.63 0.21,0.98 0.18,0.9 0.35,1.8 0.51,2.7 0.26,0.86 0.49,1.74 0.68,2.64 7.18,33.87 10.07,70.1 10.92,105.11 3.02,4.67 4.53,10.07 4.45,16 -0.07,5.26 0.06,10.69 0.28,16.18 9.25,1.54 17.54,5.9 22.87,15.18 0.13,0.22 0.26,0.45 0.39,0.67 0.58,0.01 1.16,0.04 1.74,0.07 5.48,0.31 10.57,2 14.95,4.7 6.49,0 12.57,1.96 17.65,5.33z" class="fil39"/></g></g><path d="M1294.22 2383.22c-13.98,-11.92 -59.19,-22.12 -73.99,-24.83 -52.89,-9.67 -110.41,-11.54 -164.06,-9.65 -53.52,1.89 -110.24,7.78 -162.29,20.66 -14.94,3.7 -59.41,16.56 -73.52,29.07l-48.92 529.3c-6.6,71.47 54.04,140.18 126.36,140.18l322.59 0c69.31,0 125.85,-65.65 120.12,-133.82l-46.3 -550.91z" class="fil5"/><path d="M810.96 3226.85l570.03 0 0 91.06 -642.88 0 0 -18.21c0,-40.07 32.78,-72.85 72.85,-72.85z" class="fil38"/><g style="clip-path:url(#id6)"><g><path id="1" d="M899.2 3217.78c0,0 125.66,145.7 427.98,132.04 1.82,3.64 205.79,1.82 205.79,1.82l-10.02 -141.14 -623.75 7.28z" class="fil39"/></g></g><path d="M810.96 3226.85l570.03 0 0 91.06 -642.88 0 0 -18.21c0,-40.07 32.78,-72.85 72.85,-72.85z" class="fil5"/><path d="M766.88 3415.34l653.26 0 0 -97.43 -731.2 0 0 19.49c0,42.87 35.07,77.94 77.94,77.94z" class="fil40"/><rect width="158.44" height="122.93" x="977.14" y="3415.34" class="fil41"/><path d="M1026.76 3538.28l59.19 0 0 243.54c-8.94,-4.34 -18.98,-6.78 -29.59,-6.78 -10.61,0 -20.65,2.44 -29.59,6.78l0 -243.54z" class="fil42"/><circle cx="713.97" cy="3842.87" r="67.84" class="fil43"/><circle cx="1398.74" cy="3842.87" r="67.84" class="fil43"/><path d="M1026.76 3720.4l59.19 0 188.49 0c40.95,0 75.46,29.85 82.8,68.8 11.47,-8.89 25.87,-14.17 41.5,-14.17 5.32,0 10.5,0.61 15.46,1.77 -13.04,-65.18 -70.9,-114.68 -139.76,-114.68l-188.49 0 -59.19 0 -192.14 0c-69.22,0 -127.33,50.02 -139.96,115.7 6.12,-1.81 12.6,-2.79 19.31,-2.79 14.22,0 27.42,4.38 38.33,11.85 8.24,-37.81 42.19,-66.48 82.32,-66.48l192.14 0z" class="fil42"/><circle cx="1056.35" cy="3842.87" r="67.84" class="fil43"/><path d="M969.12 3228.53c4.87,1.9 71.29,27.14 156.3,21.44 0.37,0.37 10.39,-76.77 61.24,-95.93 35.15,-13.24 57.56,1.8 77.08,31.42 9.35,14.19 18.04,33.67 22.4,59.95 -0.46,1.37 37.33,-1.59 37.33,-1.59 0,0 29.36,-122.93 119.06,-81.04 -6.15,-7.51 -84.03,-60.35 -171.44,-84.98l-51.66 -23.83c0,0 -177.57,-25.43 -232.89,27.34 -0.91,0.91 -51.85,79.33 -20.24,145.29 1.48,1.06 2.19,1.54 2.53,1.75 0.24,0.15 0.29,0.17 0.29,0.17z" class="fil44"/><g style="clip-path:url(#id7)"><g><path id="1" d="M1158.09 3174.35c-38.26,-12.08 -119.28,-40.45 -155.98,-74.39 -6.69,-6.19 -11.91,-12.56 -15.13,-19.06 -0.15,0.14 -0.3,0.28 -0.44,0.41 -0.91,0.91 -51.85,79.33 -20.24,145.29 1.48,1.06 2.19,1.54 2.53,1.75 0.24,0.15 0.29,0.17 0.29,0.17 4.87,1.9 71.29,27.14 156.3,21.44 0.29,0.29 6.36,-45.87 32.67,-75.63z" class="fil45"/><path d="M1228.62 3152.63c13.52,5.43 24.73,17.07 35.12,32.84 9.35,14.19 18.04,33.67 22.4,59.95 -0.46,1.37 37.33,-1.59 37.33,-1.59 0,0 9.89,-41.4 35.72,-67.96 -56.41,-30.76 -145.48,-66.82 -145.48,-67.43 -25.5,-8.65 -10.02,11.15 -10.02,11.15 0,0 17.07,17.07 17.07,16.62 8.14,5.94 9.27,11.72 7.85,16.42z" class="fil45"/></g></g><path d="M969.12 3228.53c4.87,1.9 71.29,27.14 156.3,21.44 0.37,0.37 10.39,-76.77 61.24,-95.93 35.15,-13.24 57.56,1.8 77.08,31.42 9.35,14.19 18.04,33.67 22.4,59.95 -0.46,1.37 37.33,-1.59 37.33,-1.59 0,0 29.36,-122.93 119.06,-81.04 -6.15,-7.51 -84.03,-60.35 -171.44,-84.98l-51.66 -23.83c0,0 -177.57,-25.43 -232.89,27.34 -0.91,0.91 -51.85,79.33 -20.24,145.29 1.48,1.06 2.19,1.54 2.53,1.75 0.24,0.15 0.29,0.17 0.29,0.17z" class="fil5"/><path d="M1357.4 3244.09c0,1.37 17.75,125.2 49.62,170.73 0,1.82 79.68,-4.55 79.68,-4.55 0,0 6.52,-96.95 -9.24,-171.29 -0.2,-0.05 -0.3,-0.11 -0.27,-0.19 -0.31,-1.89 -0.65,-3.76 -1.01,-5.58 -3.78,-16.33 -8.72,-31.38 -15.13,-43.81 -2.02,-3.81 -4.12,-7.32 -6.26,-10.56 -3.81,-5.78 -7.22,-11.52 -12.27,-16.05 -8.73,-7.83 -19.87,-13.12 -28.43,-16.56 -11.87,-4.78 -19.94,-4.99 -36.38,1.2 -11.48,4.32 -20.89,11.61 -28.57,20.3 -26.31,29.75 -32.39,75.91 -32.67,75.63 0,0 14.06,5.75 40.93,0.74z" class="fil46"/><path d="M1409.37 3463.73c0.64,2.47 85.79,-11.54 85.83,-14.63 0.4,-25.77 -3.15,-84.02 -3,-95.43l-103.6 15.9c6.1,26.03 16.66,78.38 20.77,94.16z" class="fil47"/><path d="M1529.27 3417.6c-2.39,-5.24 -6.62,-11.71 -10.05,-17.69 -2.55,-4.43 -48.65,3.76 -46.94,15.15 0.44,2.91 0.96,5.45 1.58,7.74 -7.9,1.34 -16.49,2.63 -25.6,3.77 -19.81,2.45 -37.72,3.7 -50.42,3.71 2.09,18.09 8.66,48.93 11.15,69.01 0,0 212.42,5.4 240.1,-29.75 7.8,-9.91 -50,-39.02 -119.81,-51.94z" class="fil48"/><path d="M1407.16 3486.73c0.71,4.45 1.36,8.72 1.83,12.56 0,0 212.42,5.4 240.1,-29.75 1.1,-1.4 0.88,-3.18 -0.48,-5.24 -54.91,21.51 -188.79,22.82 -241.44,22.44z" class="fil49"/><path d="M1582.35 3428.27c-0.02,1.62 -1.28,2.94 -2.95,2.89 -9.89,-0.24 -21.78,6.5 -28.85,16.06 -0.5,0.66 -1.23,1.07 -1.99,1.16 -0.72,0.09 -1.48,-0.09 -2.1,-0.55 -1.3,-0.96 -1.57,-2.8 -0.61,-4.09 8.12,-10.97 21.91,-18.57 33.61,-18.42 1.61,0.02 2.91,1.33 2.89,2.95zm-48.24 13.43c-0.49,0.73 -1.25,1.15 -2.06,1.26 -0.68,0.08 -1.4,-0.08 -2,-0.48 -1.33,-0.92 -1.68,-2.74 -0.77,-4.07 7.57,-11.12 19.28,-17.88 32.14,-18.42 1.61,-0.07 2.98,1.17 3.05,2.79 0.07,1.61 -1.17,3.09 -2.79,3.04 -6.48,0.29 -18.64,2.75 -27.57,15.87zm-15.71 -4.7c-0.47,0.88 -1.31,1.43 -2.23,1.54 -0.57,0.07 -1.17,-0.03 -1.72,-0.31 -1.43,-0.76 -1.97,-2.53 -1.22,-3.95 6.3,-11.92 19.36,-19.71 31.76,-19.04 1.61,0.1 2.85,1.49 2.75,3.1 -0.09,1.61 -1.46,2.8 -3.08,2.75 -10.2,-0.63 -20.99,5.96 -26.25,15.91z" class="fil50"/><path d="M1433.7 2664.47c11.63,15.87 23.59,30.98 36.69,45.65 -57.33,44.82 -113.25,88.41 -173.61,125.21 2.29,-27.06 -1.41,-65.31 -17.4,-91.81 52.47,-22.9 103.13,-49.96 154.33,-79.05z" class="fil51"/><path d="M1443.38 2596.61c-27.51,31.33 -34.31,47.43 -36.11,70.5 -2.43,31.06 20.48,55.93 46.83,63.43 14.42,4.11 39.71,1.96 84.3,-18 -13.95,-22.11 -18.82,-89.59 -45.88,-121.98 -12.64,15.76 -37.04,7.62 -49.14,6.04z" class="fil51"/><path d="M1509.37 2620.75c-0.14,-0.35 -0.28,-0.7 -0.41,-1.04 0.17,-0.16 0.34,-0.32 0.51,-0.48 0.22,0.41 0.45,0.83 0.67,1.26 -0.25,0.09 -0.5,0.17 -0.76,0.26z" class="fil52"/><path d="M1485.04 2715.8c-17.54,-3.86 -33.13,-16.06 -39.51,-37.41 14.09,-10.05 19.53,-24.56 18.35,-38.63 1.72,1.41 3.51,2.67 5.32,3.77 1.64,0.98 3.26,1.75 4.85,2.32 -3.27,5.16 -4.2,10 -2.07,13.55 1.4,2.34 3.97,3.87 7.36,4.61 8.36,1.84 21.7,-1.07 34.83,-8.26 1.7,-0.94 3.33,-1.9 4.89,-2.9 3.91,25.58 3.93,53.25 6.63,57.41 -12.5,6.54 -27.16,8.5 -40.66,5.54zm21.94 -94.19c-0.01,-0.04 -0.02,-0.07 -0.02,-0.11 0.69,-0.59 1.35,-1.19 2,-1.79 0.14,0.34 0.28,0.69 0.41,1.04 -0.79,0.27 -1.59,0.56 -2.4,0.86z" class="fil53"/><path d="M1496.61 2626.41c-18.45,10.12 -29.48,24.89 -24.63,32.99 4.85,8.1 23.74,6.46 42.19,-3.65 18.45,-10.13 29.48,-24.89 24.63,-32.99 -4.85,-8.1 -23.74,-6.47 -42.19,3.65z" class="fil51"/><path d="M1479.25 2599.44c-16.91,12.28 -25.61,28.11 -19.44,35.38 6.17,7.26 24.87,3.19 41.79,-9.09 16.91,-12.28 25.61,-28.12 19.44,-35.38 -6.17,-7.26 -24.88,-3.19 -41.79,9.09z" class="fil51"/><path d="M1514.87 2652.22c-19.62,7.96 -32.45,21.9 -28.65,31.13 3.8,9.23 22.78,10.25 42.41,2.29 19.62,-7.96 32.45,-21.9 28.65,-31.13 -3.8,-9.23 -22.78,-10.25 -42.4,-2.29z" class="fil51"/><path d="M1519.23 2682.43c-19.24,3.16 -34.03,13.37 -33.03,22.8 1,9.43 17.41,14.52 36.65,11.36 19.24,-3.16 34.04,-13.37 33.04,-22.8 -1,-9.43 -17.41,-14.52 -36.65,-11.36z" class="fil51"/><path d="M1452.94 2598.28c5.57,-3.11 13.65,-3.78 22.3,-1.87 1.96,0.43 3.94,0.99 5.93,1.69 -0.28,0.19 -0.55,0.37 -0.82,0.57 -8.81,2.64 -19.02,1.15 -27.4,-0.38z" class="fil54"/><path d="M1463.87 2639.76c-12.37,-10.09 -21.63,-27.23 -16.62,-36.01 1.3,-2.28 3.26,-4.1 5.69,-5.46 8.38,1.54 18.59,3.02 27.4,0.38 -0.37,0.25 -0.72,0.51 -1.09,0.77 -10.08,7.32 -17.25,15.91 -20.08,23.19 -0.1,-0.09 -0.2,-0.2 -0.3,-0.32 0.08,0.16 0.16,0.32 0.24,0.48 -1.85,4.87 -1.77,9.13 0.7,12.04 0.97,1.14 2.26,2.01 3.8,2.61 0.1,0.77 0.2,1.56 0.26,2.33z" class="fil55"/><path d="M1474.05 2645.85c-1.59,-0.57 -3.21,-1.34 -4.85,-2.32 -1.81,-1.09 -3.6,-2.36 -5.32,-3.77 -0.06,-0.78 -0.16,-1.56 -0.26,-2.33 0.61,0.23 1.26,0.42 1.94,0.57 4.56,1 10.74,0.17 17.51,-2.26 -3.85,3.33 -6.91,6.79 -9.02,10.11zm-14.94 -23.07c-0.08,-0.16 -0.16,-0.32 -0.24,-0.48 0.1,0.11 0.2,0.22 0.3,0.32 -0.02,0.05 -0.04,0.11 -0.06,0.16zm47.59 -1.06c0.08,-0.08 0.17,-0.15 0.26,-0.22 0,0.04 0.01,0.07 0.02,0.11 -0.09,0.04 -0.19,0.07 -0.28,0.11z" class="fil56"/><path d="M1476.96 2646.69c-0.96,-0.21 -1.93,-0.49 -2.91,-0.84 2.1,-3.32 5.17,-6.78 9.02,-10.11 5.95,-2.14 12.36,-5.53 18.53,-10.01 1.79,-1.3 3.5,-2.65 5.1,-4.01 0.09,-0.04 0.18,-0.07 0.28,-0.11 0.6,3.55 -0,7.06 -1.86,10.32 -4.78,8.36 -15.43,17.56 -28.15,14.76z" class="fil55"/><path d="M1465.56 2638c-0.69,-0.15 -1.33,-0.35 -1.94,-0.57 -1.54,-0.59 -2.83,-1.46 -3.8,-2.61 -2.47,-2.9 -2.56,-7.17 -0.7,-12.04 0.02,-0.05 0.04,-0.11 0.06,-0.16 2.83,-7.28 10,-15.87 20.08,-23.19 0.36,-0.26 0.72,-0.52 1.09,-0.77 0.27,-0.2 0.54,-0.38 0.82,-0.57 2.26,0.79 4.54,1.76 6.78,2.89 11.25,5.7 17.7,13.18 19.01,20.51 -0.09,0.07 -0.17,0.14 -0.26,0.22 -1.6,1.36 -3.31,2.71 -5.1,4.01 -6.17,4.48 -12.58,7.87 -18.53,10.01 -6.77,2.43 -12.94,3.26 -17.51,2.26z" class="fil55"/><path d="M1505.11 2631.93c-5.44,9.52 -24.19,9.98 -41.88,1.01 -17.69,-8.96 -27.62,-23.95 -22.18,-33.48 5.44,-9.52 24.19,-9.97 41.88,-1.01 17.69,8.97 27.62,23.95 22.18,33.48z" class="fil51"/><path d="M673.19 2658.19c-11.63,15.87 -23.59,30.98 -36.69,45.65 57.32,44.82 113.25,88.41 173.61,125.21 -2.29,-27.06 1.41,-65.31 17.4,-91.81 -52.47,-22.89 -103.13,-49.96 -154.33,-79.05z" class="fil51"/><path d="M663.5 2590.32c27.51,31.34 34.31,47.43 36.11,70.5 2.43,31.06 -20.48,55.93 -46.83,63.43 -14.42,4.11 -39.71,1.96 -84.3,-18 13.95,-22.11 18.82,-89.59 45.88,-121.98 12.64,15.76 37.04,7.62 49.14,6.04z" class="fil51"/><path d="M597.52 2614.46c0.14,-0.35 0.28,-0.7 0.41,-1.04 -0.17,-0.16 -0.34,-0.32 -0.51,-0.48 -0.22,0.41 -0.45,0.83 -0.67,1.26 0.25,0.09 0.51,0.17 0.76,0.26z" class="fil52"/><path d="M621.85 2709.51c17.54,-3.86 33.13,-16.06 39.51,-37.41 -14.09,-10.05 -19.54,-24.56 -18.35,-38.63 -1.72,1.41 -3.51,2.67 -5.32,3.77 -1.64,0.98 -3.26,1.75 -4.85,2.32 3.27,5.16 4.2,10 2.07,13.55 -1.4,2.34 -3.97,3.87 -7.36,4.61 -8.36,1.84 -21.7,-1.07 -34.83,-8.26 -1.7,-0.94 -3.33,-1.9 -4.89,-2.9 -3.91,25.58 -3.93,53.25 -6.63,57.41 12.5,6.54 27.16,8.5 40.66,5.54zm-21.93 -94.19c0,-0.04 0.01,-0.07 0.02,-0.11 -0.69,-0.59 -1.35,-1.19 -2.01,-1.79 -0.14,0.34 -0.28,0.69 -0.41,1.04 0.8,0.27 1.59,0.56 2.4,0.86z" class="fil53"/><path d="M610.28 2620.12c18.45,10.12 29.48,24.89 24.63,32.99 -4.85,8.1 -23.74,6.47 -42.19,-3.65 -18.45,-10.13 -29.48,-24.89 -24.63,-32.99 4.85,-8.1 23.74,-6.47 42.19,3.65z" class="fil51"/><path d="M627.63 2593.15c16.91,12.28 25.61,28.11 19.44,35.38 -6.17,7.26 -24.88,3.19 -41.79,-9.09 -16.91,-12.28 -25.61,-28.12 -19.44,-35.38 6.17,-7.26 24.88,-3.19 41.79,9.09z" class="fil51"/><path d="M592.02 2645.93c19.62,7.96 32.45,21.9 28.65,31.13 -3.8,9.23 -22.78,10.25 -42.41,2.29 -19.62,-7.96 -32.44,-21.9 -28.65,-31.13 3.8,-9.23 22.78,-10.25 42.4,-2.29z" class="fil51"/><path d="M587.65 2676.14c19.24,3.16 34.04,13.37 33.03,22.8 -0.99,9.43 -17.41,14.52 -36.65,11.36 -19.24,-3.16 -34.04,-13.37 -33.04,-22.8 1,-9.43 17.41,-14.52 36.65,-11.36z" class="fil51"/><path d="M653.95 2592c-5.57,-3.11 -13.65,-3.78 -22.3,-1.87 -1.95,0.43 -3.94,0.99 -5.93,1.69 0.28,0.19 0.55,0.38 0.82,0.57 8.81,2.64 19.02,1.15 27.4,-0.38z" class="fil54"/><path d="M643.01 2633.47c12.37,-10.09 21.64,-27.23 16.62,-36.01 -1.3,-2.28 -3.26,-4.11 -5.69,-5.47 -8.38,1.54 -18.59,3.02 -27.4,0.38 0.36,0.25 0.72,0.51 1.08,0.77 10.08,7.32 17.25,15.91 20.09,23.19 0.1,-0.09 0.2,-0.2 0.3,-0.32 -0.08,0.16 -0.16,0.32 -0.24,0.48 1.86,4.87 1.77,9.13 -0.7,12.04 -0.97,1.14 -2.26,2.01 -3.81,2.61 -0.1,0.78 -0.2,1.56 -0.26,2.33z" class="fil55"/><path d="M632.83 2639.56c1.59,-0.57 3.21,-1.34 4.85,-2.32 1.81,-1.09 3.6,-2.36 5.32,-3.77 0.06,-0.78 0.16,-1.56 0.26,-2.33 -0.61,0.23 -1.26,0.42 -1.94,0.57 -4.56,1 -10.74,0.17 -17.51,-2.26 3.85,3.33 6.92,6.79 9.02,10.11zm14.94 -23.07c0.08,-0.16 0.16,-0.32 0.24,-0.48 -0.1,0.11 -0.2,0.22 -0.3,0.32 0.02,0.05 0.04,0.11 0.06,0.16zm-47.59 -1.06c-0.08,-0.08 -0.17,-0.15 -0.25,-0.22 -0.01,0.04 -0.02,0.07 -0.02,0.11 0.09,0.04 0.19,0.07 0.27,0.11z" class="fil56"/><path d="M629.93 2640.4c0.96,-0.21 1.93,-0.49 2.91,-0.84 -2.1,-3.32 -5.17,-6.78 -9.02,-10.11 -5.95,-2.14 -12.36,-5.53 -18.53,-10.01 -1.79,-1.3 -3.5,-2.65 -5.1,-4.01 -0.09,-0.04 -0.18,-0.07 -0.27,-0.11 -0.61,3.55 0,7.06 1.86,10.32 4.78,8.36 15.43,17.56 28.15,14.76z" class="fil55"/><path d="M641.33 2631.71c0.69,-0.15 1.34,-0.35 1.94,-0.57 1.54,-0.59 2.83,-1.46 3.81,-2.61 2.46,-2.9 2.56,-7.17 0.7,-12.04 -0.02,-0.05 -0.04,-0.11 -0.06,-0.16 -2.84,-7.28 -10,-15.87 -20.09,-23.19 -0.36,-0.26 -0.72,-0.52 -1.08,-0.77 -0.27,-0.19 -0.55,-0.38 -0.82,-0.57 -2.26,0.79 -4.54,1.76 -6.78,2.89 -11.25,5.7 -17.7,13.18 -19.01,20.51 0.09,0.07 0.17,0.14 0.25,0.22 1.6,1.36 3.31,2.71 5.1,4.01 6.17,4.48 12.58,7.87 18.53,10.01 6.77,2.43 12.95,3.26 17.51,2.26z" class="fil55"/><path d="M601.78 2625.65c5.44,9.52 24.19,9.97 41.88,1 17.69,-8.96 27.62,-23.95 22.18,-33.48 -5.44,-9.52 -24.19,-9.97 -41.88,-1.01 -17.69,8.97 -27.62,23.95 -22.18,33.48z" class="fil51"/><path d="M1270.42 3082.24c0.6,-3.2 1.21,-6.61 0.16,-8.85 -4.07,-8.71 -24.65,-1.32 -21.54,-10.84 10.94,-33.32 -8.79,-32.42 -13.98,-41.3 -23.79,-40.69 -31.52,-97.83 -35.13,-150.87 41.97,19.77 85.57,2.92 85.57,2.92 15,-7.95 31.96,-116.68 -10.2,-162.26 -22.47,14.99 -64.4,28.41 -97.31,37.87 -59.11,7.54 -196.32,17.1 -254.48,0.02l-0.3 -0.09c-0.83,-0.25 -1.65,-0.5 -2.44,-0.76 -42.59,-13.22 -77.25,-29.51 -77.25,-29.51 -43.35,34.29 -37.69,131.56 -24.32,142.02 0,0 41.43,18.64 87.49,3 -0.52,136.14 23.78,341.55 62.15,364.8 -0.2,-11.11 -0.1,-29.7 1.79,-49.61 2.62,-27.54 8.69,-57.6 22.22,-73.94 1.07,-0.36 31.83,-20.66 98.7,-29.32 43.64,-5.65 102.67,-6.34 178.87,6.7z" class="fil57"/><g style="clip-path:url(#id8)"><g><path id="1" d="M1287.72 3103.14l0 0c-0.06,-0.03 -1.77,-0.94 -4.64,-2.48 -0,0 -0.01,0 -0.03,0 1.54,0.82 3.09,1.64 4.67,2.48l0 -0z" class="fil58"/><path d="M1248.94 3062.93l0 0 0 0zm0.01 -0.05c0,-0.01 0,-0.01 0,-0.02 0,0 0,0.01 0,0.02zm0.01 -0.05c0,-0.01 0.01,-0.01 0,-0.02 0,0.01 0,0.01 -0,0.02zm0.02 -0.05c0,-0 0,-0.02 0,-0.02 -0,0 0,0.02 -0,0.02zm0.02 -0.06c0,-0 0,-0.01 0,-0.02 -0,0 0,0.01 -0,0.02zm0.02 -0.05c0,-0.01 0.01,-0.02 0,-0.02 0,0.01 0,0.02 -0,0.02zm0.02 -0.06c0,-0 0,-0.01 0,-0.01 0,0 0,0.01 0,0.01zm0.08 -0.26c0.02,-0.04 0.03,-0.08 0.04,-0.12 -0.01,0.04 -0.03,0.08 -0.04,0.12zm0.07 -0.21c0.01,-0.03 0.02,-0.06 0.03,-0.08 -0,0.03 -0.02,0.05 -0.03,0.08zm0.07 -0.22c0,-0.01 0,-0.02 0.01,-0.02 -0,0 -0,0.01 -0.01,0.02z" class="fil59"/><path d="M1235.3 3021.63c-0.01,-0.01 -0.02,-0.02 -0.03,-0.04 0.01,0.02 0.02,0.03 0.03,0.04zm-0.04 -0.06c-0.02,-0.02 -0.03,-0.04 -0.05,-0.07 0.02,0.02 0.03,0.05 0.05,0.07zm-0.06 -0.08c-0.01,-0.02 -0.03,-0.05 -0.04,-0.07 0.02,0.02 0.03,0.05 0.04,0.07zm-0.05 -0.07c-0.01,-0.03 -0.03,-0.05 -0.04,-0.08 0.01,0.03 0.03,0.05 0.04,0.08zm-0.05 -0.09c-0.02,-0.02 -0.03,-0.05 -0.05,-0.07 0.02,0.02 0.03,0.05 0.05,0.07zm-0.05 -0.07c-0.75,-1.29 -1.35,-2.72 -2.07,-4.04 -0.05,0.03 -0.1,0.06 -0.15,0.09 0.72,1.33 1.47,2.65 2.23,3.95z" class="fil59"/><path d="M1055.15 3018.66c-10.2,2.15 -20,4.41 -29.37,6.79 -77.93,19.85 -126.4,47.56 -156.09,68.98 3.83,2.75 8.03,4.45 10.35,7.55 0.01,0.01 0.02,0.02 0.03,0.04 0,0.01 0.01,0.02 0.02,0.02 0.02,0.02 0.03,0.04 0.05,0.07 0,0 0,0.01 0.01,0.01 0.01,0.02 0.03,0.05 0.05,0.07 0,0 0,0 0,0 0.01,0.02 0.03,0.05 0.05,0.07 0,0 0.01,0 0.01,0.01 0.02,0.02 0.03,0.05 0.05,0.07l0 0c0.85,1.24 1.68,2.51 2.5,3.79 32.12,-22.59 85.67,-51.63 172.91,-69.97 0.98,-0.2 1.97,-0.41 2.96,-0.61 100.11,-20.82 158.3,-9.52 198.2,4.2 0.31,-6.1 0.6,-12.09 0.84,-17.86 -41.69,-13.74 -101.87,-24.15 -202.55,-3.21zm-15.63 -49.53c-9.22,1.94 -18.1,4.03 -26.62,6.2 -89.74,22.86 -141.62,56.23 -170.31,78.76 6.04,5.7 22.7,-0.84 21,7.61l0 0c-0,0.02 -0,0.03 -0.01,0.05 0,0 0,0.01 0,0.02 -0,0.01 -0,0.02 -0.01,0.03 -0,0.01 -0.01,0.02 -0,0.02 -0,0.01 -0,0.02 -0.01,0.04 -0,0 -0,0.01 -0,0.02 -0,0.01 -0.01,0.02 -0.01,0.03 -0,0.01 0,0.02 -0.01,0.02 0,0.01 -0,0.02 -0,0.03 -0,0.01 -0.01,0.02 -0,0.02 -0,0.01 -0.01,0.02 -0.01,0.04 -0,0.01 -0,0.01 -0,0.02 -0,0.02 -0.01,0.04 -0.02,0.06l0 0c-0.01,0.07 -0.03,0.13 -0.05,0.2 -0.01,0.04 -0.02,0.08 -0.04,0.13 -0,0.03 -0.01,0.06 -0.02,0.09 -0.01,0.02 -0.02,0.05 -0.02,0.08 -0.01,0.05 -0.02,0.09 -0.04,0.15 0,0.01 0,0.02 -0,0.02 -2.2,8.97 -2.29,15.22 -1.3,19.94 28.51,-22.71 83.91,-58.73 187.2,-80.46 0.17,-0.04 0.34,-0.07 0.51,-0.11 111.04,-23.09 169.33,-6.09 208.34,9.23 0.48,-13.41 0.75,-25.76 0.77,-36.47 -42.83,-15.46 -105.8,-29.41 -216.11,-6.44 -1.08,0.22 -2.16,0.44 -3.23,0.67z" class="fil60"/><path d="M1140 2767.87l-0.3 -27.68c-68.26,3.72 -158.67,-3.31 -225.39,-11.31l0.44 41.41c0.34,31.89 51.04,57.2 113.24,56.53 62.2,-0.67 112.35,-27.07 112,-58.95z" class="fil61"/></g></g><path d="M1270.42 3082.24c0.6,-3.2 1.21,-6.61 0.16,-8.85 -4.07,-8.71 -24.65,-1.32 -21.54,-10.84 10.94,-33.32 -8.79,-32.42 -13.98,-41.3 -23.79,-40.69 -31.52,-97.83 -35.13,-150.87 41.97,19.77 85.57,2.92 85.57,2.92 15,-7.95 31.96,-116.68 -10.2,-162.26 -22.47,14.99 -64.4,28.41 -97.31,37.87 -59.11,7.54 -196.32,17.1 -254.48,0.02l-0.3 -0.09c-0.83,-0.25 -1.65,-0.5 -2.44,-0.76 -42.59,-13.22 -77.25,-29.51 -77.25,-29.51 -43.35,34.29 -37.69,131.56 -24.32,142.02 0,0 41.43,18.64 87.49,3 -0.52,136.14 23.78,341.55 62.15,364.8 -0.2,-11.11 -0.1,-29.7 1.79,-49.61 2.62,-27.54 8.69,-57.6 22.22,-73.94 1.07,-0.36 31.83,-20.66 98.7,-29.32 43.64,-5.65 102.67,-6.34 178.87,6.7z" class="fil62"/><path d="M1112.57 2643.74l1.23 113.92c0.27,24.5 -38.26,44.78 -86.05,45.29 -47.79,0.51 -86.75,-18.94 -87.01,-43.43l-1.23 -113.93 173.06 -1.86z" class="fil63"/><path d="M1366.6 2592.78c-17.46,60.68 -77.84,97.51 -122.35,90.39 -44.5,-7.13 -51.78,-57.47 -42.4,-116.13 9.39,-58.65 53.11,-100.57 97.58,-93.3 60.8,9.94 83.58,62.01 67.17,119.04z" class="fil51"/><path d="M1312.56 2604.62c-4.13,25.72 -25.85,43.62 -48.54,40 -22.67,-3.63 -37.72,-27.43 -33.6,-53.14 4.12,-25.72 25.84,-43.62 48.51,-39.99 22.69,3.62 37.73,27.42 33.62,53.13z" class="fil63"/><path d="M704.37 2579.4c14.99,61.33 73.84,100.57 118.59,95.25 44.76,-5.32 54.06,-55.33 47.06,-114.31 -7.01,-58.98 -49,-102.64 -93.74,-97.17 -61.15,7.48 -86,58.59 -71.91,116.24z" class="fil51"/><path d="M761.19 2593.48c3.07,25.86 24.06,44.63 46.86,41.92 22.81,-2.72 38.81,-25.88 35.73,-51.74 -3.07,-25.87 -24.06,-44.63 -46.86,-41.92 -22.81,2.71 -38.81,25.87 -35.73,51.74z" class="fil63"/><path d="M747.42 2343.43c-26.31,198.6 116.06,333.48 283.58,336.86 167.53,3.39 308.44,-138.83 295.37,-333.01 -7.26,-107.81 -118.39,-194.56 -278.45,-196.76 -167.54,-2.31 -281.79,51.67 -300.5,192.91z" class="fil64"/><path d="M799.48 2303.87c-15.83,33.29 -11.77,329.73 21.62,371.71 35.42,44.54 182.06,89.44 213.05,90.07 33.2,0.67 178.44,-34 207.48,-81.57 34.37,-56.3 54.47,-319.54 44.51,-351.12 -33.69,-106.69 -125.78,-112.11 -246.35,-114.55 -112.79,-2.28 -199.22,-0.9 -240.32,85.46z" class="fil51"/><path d="M818.96 2601.21c-0.57,12.02 15.67,22.57 36.28,23.55 20.6,0.98 37.78,-7.96 38.35,-19.99 0.57,-12.02 -15.67,-22.56 -36.28,-23.54 -20.61,-0.98 -37.78,7.96 -38.36,19.98z" class="fil65"/><path d="M1178.52 2605.13c1.11,11.99 18.67,20.16 39.21,18.26 20.54,-1.9 36.3,-13.16 35.19,-25.14 -1.11,-11.99 -18.67,-20.15 -39.2,-18.26 -20.55,1.9 -36.3,13.16 -35.19,25.14z" class="fil65"/><path d="M1021.2 2547.28c1.33,0.03 2.52,-0.91 2.78,-2.26 1.79,-9.58 9.52,-15.64 19.68,-15.44 10.23,0.21 17.88,6.7 19.04,16.17 0.19,1.51 1.58,2.59 3.09,2.41 1.52,-0.19 2.59,-1.56 2.41,-3.08 -1.48,-12.11 -11.52,-20.76 -24.41,-21.02 -12.81,-0.26 -22.96,7.76 -25.24,19.95 -0.28,1.5 0.71,2.95 2.22,3.22l0.45 0.05z" class="fil66"/><path d="M869.64 2408.18c1.86,-0.14 3.67,-0.93 5.06,-2.38 17.76,-18.37 53.52,-25.75 83.23,-17.09 4.13,1.22 8.49,-1.17 9.72,-5.34 1.21,-4.15 -1.17,-8.5 -5.34,-9.71 -35.45,-10.3 -77.05,-1.36 -98.88,21.27 -3.01,3.11 -2.92,8.07 0.2,11.07 1.67,1.61 3.87,2.33 6.02,2.18z" class="fil67"/><path d="M1208.11 2406c2.15,0.03 4.31,-0.81 5.87,-2.53 2.93,-3.19 2.73,-8.14 -0.45,-11.07 -23.15,-21.3 -65.2,-27.76 -99.96,-15.39 -4.09,1.46 -6.21,5.94 -4.76,10.01 1.46,4.09 5.95,6.22 10.02,4.76 29.15,-10.4 65.3,-5.18 84.09,12.15 1.47,1.35 3.33,2.05 5.19,2.07z" class="fil67"/><path d="M1149.59 2608.93c6.97,46.05 -64.78,105.47 -126.9,99.19 -61.78,-6.25 -100.85,-62.51 -97.72,-108.92 5.51,-25.24 45.63,-16.24 106.78,-14.8 61.08,1.44 113.59,-3.49 117.83,24.53z" class="fil68"/><path d="M1031.59 2666.48c-28.7,-0.87 -51,5.57 -65.8,18.86 15.67,11.81 37.06,23.22 61.02,23.85 26.98,0.71 50.87,-3.02 69.15,-20.97 -6.5,-13.51 -38.71,-20.97 -64.38,-21.74z" class="fil69"/><path d="M1119.67 2587.81c-20.84,-7.5 -53.97,-3.57 -84.43,-4.11 -34.37,-0.62 -59.39,-5.91 -81.07,-1.18 7.33,20.48 40.11,26.25 79.65,27.47 45.65,1.41 78.81,-0.55 85.85,-22.18z" class="fil59"/><path d="M687.39 2444.89c36.2,-11.31 59.26,-33.27 63.18,-90.33 -20.51,-4.96 -30.14,-11.18 -49.85,-18.28 77.99,-16.79 70.16,-125.3 172.65,-167.43 167.58,-56.24 317.07,-6.54 359.75,19.57 78.65,48.11 86.5,109.94 90.03,179.08 9.02,62.81 22.63,81.74 55.53,96.98 -36.21,9.07 -57.14,-0.7 -68.89,-13.2 2.27,39.43 20.52,52.45 40.59,70.5 -56.09,1.07 -74,-18.15 -75.38,-61.5 -1.44,-45.32 1.86,-112.61 -4.65,-130.05 -3.76,-10.09 -50.46,-72.33 -65.91,-73.24 -33.67,-1.99 -74.44,111.54 -193.69,106.02 48.99,-23.91 76.45,-59.02 104.63,-109.41 -9.54,5.18 -19.13,11.52 -28.69,19.3 -100.69,81.92 -191.71,100.45 -275.63,90.78 -6.14,84.16 15.74,128.6 -91.63,157.33 10.03,-11.39 25.26,-46.07 28.24,-73.75 -11.62,6.54 -32.68,11.96 -60.27,-2.39z" class="fil64"/><path d="M1166.35 3250.71c0,1.37 17.76,125.2 49.63,170.74 0,1.82 79.68,-4.55 79.68,-4.55 0,0 6.52,-96.95 -9.24,-171.29 -0.2,-0.05 -0.3,-0.11 -0.27,-0.19 -0.31,-1.9 -0.65,-3.76 -1.01,-5.58 -3.79,-16.33 -8.72,-31.38 -15.13,-43.81 -2.02,-3.81 -4.12,-7.32 -6.26,-10.56 -10.39,-15.77 -21.6,-27.41 -35.12,-32.84 -11.87,-4.78 -25.52,-4.77 -41.96,1.42 -11.49,4.33 -20.89,11.61 -28.57,20.3 -26.31,29.75 -32.39,75.91 -32.67,75.63 0,0 14.06,5.75 40.93,0.74z" class="fil46"/><path d="M1221.79 3482.85c0.64,2.47 85.79,-11.55 85.84,-14.63 0.39,-25.77 -3.15,-84.02 -3,-95.43l-103.6 15.9c6.09,26.04 16.65,78.39 20.76,94.16z" class="fil47"/><path d="M1341.69 3436.72c-2.39,-5.25 -6.62,-11.71 -10.05,-17.69 -2.55,-4.43 -48.65,3.76 -46.94,15.15 0.44,2.91 0.96,5.45 1.58,7.75 -7.9,1.34 -16.49,2.63 -25.6,3.77 -19.81,2.45 -37.72,3.7 -50.42,3.71 2.09,18.09 8.66,48.93 11.15,69.01 0,0 212.42,5.4 240.1,-29.75 7.8,-9.91 -50,-39.02 -119.81,-51.94z" class="fil48"/><path d="M1219.57 3505.85c0.71,4.45 1.36,8.72 1.83,12.56 0,0 212.42,5.4 240.1,-29.75 1.1,-1.41 0.88,-3.18 -0.48,-5.24 -54.91,21.51 -188.79,22.82 -241.44,22.44z" class="fil49"/><path d="M1394.77 3447.39c-0.02,1.62 -1.28,2.94 -2.95,2.89 -9.89,-0.24 -21.78,6.5 -28.85,16.06 -0.5,0.66 -1.23,1.07 -1.99,1.16 -0.72,0.09 -1.48,-0.09 -2.1,-0.55 -1.3,-0.96 -1.57,-2.8 -0.61,-4.09 8.12,-10.97 21.91,-18.57 33.61,-18.42 1.61,0.02 2.91,1.33 2.89,2.95zm-48.24 13.43c-0.49,0.73 -1.25,1.15 -2.06,1.26 -0.68,0.08 -1.4,-0.09 -2,-0.48 -1.33,-0.92 -1.68,-2.74 -0.77,-4.07 7.57,-11.13 19.28,-17.88 32.14,-18.42 1.61,-0.07 2.98,1.17 3.05,2.79 0.07,1.61 -1.17,3.09 -2.79,3.04 -6.48,0.29 -18.64,2.75 -27.57,15.87zm-15.71 -4.7c-0.47,0.88 -1.31,1.43 -2.23,1.54 -0.57,0.07 -1.17,-0.03 -1.72,-0.31 -1.43,-0.76 -1.97,-2.53 -1.22,-3.94 6.3,-11.92 19.36,-19.71 31.75,-19.04 1.61,0.1 2.85,1.48 2.75,3.1 -0.09,1.61 -1.46,2.8 -3.09,2.75 -10.2,-0.63 -20.99,5.96 -26.25,15.91z" class="fil50"/><path d="M885.75 2492.5c10.37,-18.89 29.91,-30.1 51.41,-29.67 10.32,0.15 20.22,2.54 28.4,7.6 8.37,5.18 17.22,14.33 20.89,20.33 0.53,0.86 1.27,1.54 1.73,2.44 1.96,3.81 0.44,8.49 -3.38,10.43 -0.99,0.51 -2.04,0.78 -3.09,0.83 -2.96,0.17 -5.91,-1.39 -7.34,-4.22 -6.79,-13.28 -21.13,-21.67 -37.42,-21.91 -16.31,-0.45 -29.93,7.67 -37.58,21.63 -2.07,3.76 -6.77,5.11 -10.54,3.08 -3.76,-2.07 -5.13,-6.77 -3.08,-10.55z" class="fil70"/><path d="M1095.09 2492.5c10.37,-18.89 29.91,-30.1 51.41,-29.67 10.32,0.15 20.22,2.54 28.4,7.6 8.37,5.18 17.22,14.33 20.89,20.33 0.53,0.86 1.27,1.54 1.73,2.44 1.96,3.81 0.44,8.49 -3.38,10.43 -0.99,0.51 -2.04,0.78 -3.09,0.83 -2.96,0.17 -5.91,-1.39 -7.34,-4.22 -6.79,-13.28 -21.13,-21.67 -37.42,-21.91 -16.31,-0.45 -29.93,7.67 -37.58,21.63 -2.07,3.76 -6.77,5.11 -10.54,3.08 -3.76,-2.07 -5.13,-6.77 -3.08,-10.55z" class="fil70"/><path d="M896.26 2545.34l99.11 -99.11c-2.42,-3.47 -5.13,-6.71 -8.11,-9.69 -8.42,-8.42 -18.94,-14.74 -30.7,-18.11l-88.09 88.1c3.37,11.76 9.69,22.28 18.11,30.7 2.98,2.98 6.22,5.69 9.69,8.11zm108.03 -81.54l-90.46 90.46c7.24,2.48 15,3.82 23.08,3.82 1.88,0 3.74,-0.07 5.58,-0.22l65.4 -65.4c0.14,-1.84 0.22,-3.7 0.22,-5.58 0,-8.08 -1.35,-15.85 -3.83,-23.09z" class="fil71"/><path d="M1105.68 2545.36l99.11 -99.11c-2.42,-3.47 -5.13,-6.71 -8.11,-9.69 -8.42,-8.42 -18.94,-14.74 -30.7,-18.11l-88.09 88.09c3.37,11.76 9.69,22.29 18.11,30.7 2.98,2.98 6.22,5.7 9.69,8.11z" class="fil71"/><path d="M1213.7 2463.82l-90.46 90.46c7.24,2.48 15,3.83 23.08,3.83 1.88,0 3.74,-0.07 5.58,-0.22l65.4 -65.4c0.14,-1.84 0.22,-3.7 0.22,-5.58 0,-8.08 -1.35,-15.84 -3.83,-23.08z" class="fil71"/><path d="M936.92 2403.54c23.02,0 43.85,9.33 58.93,24.41 11.93,11.93 20.26,27.46 23.22,44.81l45.04 0c2.96,-17.36 11.29,-32.89 23.22,-44.81 15.08,-15.08 35.92,-24.41 58.93,-24.41 23.02,0 43.85,9.33 58.93,24.41 6.11,6.11 11.28,13.17 15.26,20.93l71.99 0c3.35,0 6.07,2.72 6.07,6.07 0,3.35 -2.72,6.07 -6.07,6.07l-66.93 0c2.65,8.14 4.09,16.83 4.09,25.86 0,23.01 -9.33,43.85 -24.41,58.93 -15.08,15.08 -35.91,24.41 -58.93,24.41 -23.01,0 -43.85,-9.33 -58.93,-24.41 -15.08,-15.08 -24.41,-35.92 -24.41,-58.93l0.02 -1.97 -42.7 0 0.02 1.97c0,23.01 -9.33,43.85 -24.41,58.93 -15.08,15.08 -35.91,24.41 -58.93,24.41 -23.01,0 -43.85,-9.33 -58.93,-24.41 -15.08,-15.08 -24.41,-35.92 -24.41,-58.93 0,-9.02 1.44,-17.72 4.09,-25.86l-90.66 0c-3.35,0 -6.07,-2.72 -6.07,-6.07 0,-3.35 2.72,-6.07 6.07,-6.07l95.71 0c3.98,-7.76 9.15,-14.82 15.26,-20.93 15.08,-15.08 35.92,-24.41 58.93,-24.41zm50.35 33c-12.88,-12.88 -30.69,-20.85 -50.35,-20.85 -19.66,0 -37.46,7.97 -50.34,20.85 -12.89,12.88 -20.85,30.69 -20.85,50.35 0,19.66 7.97,37.46 20.85,50.35 12.88,12.88 30.69,20.85 50.34,20.85 19.66,0 37.46,-7.97 50.35,-20.85 12.88,-12.89 20.85,-30.69 20.85,-50.35 0,-19.66 -7.97,-37.46 -20.85,-50.35zm158.99 -20.85c-19.66,0 -37.46,7.97 -50.34,20.85 -12.89,12.88 -20.85,30.69 -20.85,50.35 0,19.66 7.97,37.46 20.85,50.35 12.88,12.88 30.69,20.85 50.34,20.85 19.66,0 37.46,-7.97 50.35,-20.85 12.88,-12.89 20.85,-30.69 20.85,-50.35 0,-19.66 -7.97,-37.46 -20.85,-50.35 -12.88,-12.88 -30.69,-20.85 -50.35,-20.85z" class="fil72 str0"/><polygon points="1296.98 2045.89 1806.35 2045.89 1806.35 2027.3 1296.98 2027.3" class="fil9"/><polygon points="1296.98 2091.85 1460.2 2091.85 1460.2 2073.26 1296.98 2073.26" class="fil7"/><polygon points="1296.98 2137.69 1560.2 2137.69 1560.2 2119.1 1296.98 2119.1" class="fil8"/><polygon points="1419.46 2183.65 1573.06 2183.65 1573.06 2165.06 1419.46 2165.06" class="fil7"/><polygon points="1419.46 2229.49 1573.06 2229.49 1573.06 2210.9 1419.46 2210.9" class="fil7"/><polygon points="1526.07 2275.45 1675.46 2275.45 1675.46 2256.86 1526.07 2256.86" class="fil7"/><polygon points="1515.13 2091.85 1793.49 2091.85 1793.49 2073.26 1515.13 2073.26" class="fil8"/><polygon points="1833.15 2091.85 1966.08 2091.85 1966.08 2073.26 1833.15 2073.26" class="fil10"/><polygon points="2016.56 2091.85 2196 2091.85 2196 2073.26 2016.56 2073.26" class="fil10"/><polygon points="1604.19 2137.69 1760.8 2137.69 1760.8 2119.1 1604.19 2119.1" class="fil7"/><polygon points="1619.93 2183.65 1709.59 2183.65 1709.59 2165.06 1619.93 2165.06" class="fil8"/><polygon points="1619.93 2229.49 1773.54 2229.49 1773.54 2210.9 1619.93 2210.9" class="fil10"/><polygon points="1752.26 2183.65 1922.93 2183.65 1922.93 2165.06 1752.26 2165.06" class="fil10"/><polygon points="1957.07 2183.65 2046.61 2183.65 2046.61 2165.06 1957.07 2165.06" class="fil11"/><polygon points="2085.07 2183.65 2196 2183.65 2196 2165.06 2085.07 2165.06" class="fil10"/><polygon points="1807.67 2229.49 2001.66 2229.49 2001.66 2210.9 1807.67 2210.9" class="fil8"/><polygon points="2030.62 2229.49 2088.56 2229.49 2088.56 2210.9 2030.62 2210.9" class="fil10"/><polygon points="1718.13 2275.45 1829.19 2275.45 1829.19 2256.86 1718.13 2256.86" class="fil9"/><polygon points="1419.46 2367.25 1573.06 2367.25 1573.06 2348.66 1419.46 2348.66" class="fil7"/><polygon points="1419.46 2413.2 1573.06 2413.2 1573.06 2394.61 1419.46 2394.61" class="fil7"/><polygon points="1619.93 2367.25 1709.59 2367.25 1709.59 2348.66 1619.93 2348.66" class="fil10"/><polygon points="1619.93 2413.2 1758.27 2413.2 1758.27 2394.61 1619.93 2394.61" class="fil8"/><polygon points="1752.26 2367.25 1883.51 2367.25 1883.51 2348.66 1752.26 2348.66" class="fil10"/><polygon points="1909.71 2367.25 1978.7 2367.25 1978.7 2348.66 1909.71 2348.66" class="fil8"/><polygon points="2008.27 2367.25 2093.6 2367.25 2093.6 2348.66 2008.27 2348.66" class="fil10"/><polygon points="1892.89 2413.2 2046.61 2413.2 2046.61 2394.61 1892.89 2394.61" class="fil10"/><polygon points="1419.46 2459.05 1573.06 2459.05 1573.06 2440.46 1419.46 2440.46" class="fil7"/><polygon points="1419.46 2505 1573.06 2505 1573.06 2486.41 1419.46 2486.41" class="fil7"/><polygon points="1619.93 2459.05 1709.59 2459.05 1709.59 2440.46 1619.93 2440.46" class="fil10"/><polygon points="1619.93 2505 1901.54 2505 1901.54 2486.41 1619.93 2486.41" class="fil8"/><polygon points="1752.26 2459.05 1922.93 2459.05 1922.93 2440.46 1752.26 2440.46" class="fil8"/><polygon points="1957.07 2459.05 2046.61 2459.05 2046.61 2440.46 1957.07 2440.46" class="fil10"/><polygon points="2085.07 2459.05 2196 2459.05 2196 2440.46 2085.07 2440.46" class="fil10"/><polygon points="1935.67 2505 2093.6 2505 2093.6 2486.41 1935.67 2486.41" class="fil10"/><polygon points="1789.04 2413.2 1854.43 2413.2 1854.43 2394.61 1789.04 2394.61" class="fil11"/><path d="M1052.18 833.33l669.92 0c30.54,0 55.53,24.99 55.53,55.53l0 816.6 -780.97 0 0 -816.6c0,-30.54 24.98,-55.53 55.53,-55.53z" class="fil2"/><g style="clip-path:url(#id9)"><g><path id="1" d="M1722.09 833.33l-669.92 0c-30.54,0 -55.53,24.99 -55.53,55.53l0 44.31 780.97 0 0 -44.31c0,-30.54 -24.99,-55.53 -55.53,-55.53z" class="fil3"/><circle cx="1057.59" cy="884.39" r="19.42" class="fil4"/><circle cx="1109.96" cy="884.39" r="19.42" class="fil4"/><circle cx="1162.33" cy="884.39" r="19.42" class="fil4"/><rect width="519.75" height="22.49" x="1220.27" y="873.62" class="fil4" rx="37.42" ry="11.25"/></g></g><path d="M1052.18 833.33l669.92 0c30.54,0 55.53,24.99 55.53,55.53l0 816.6 -780.97 0 0 -816.6c0,-30.54 24.98,-55.53 55.53,-55.53z" class="fil5"/><polygon points="1034.78 1740.86 1771.89 1740.86 1771.89 968.58 1034.78 968.58" class="fil6"/><g style="clip-path:url(#id10)"><g><g><polygon id="1" points="1714.41 1654.51 1601.46 1654.51 1601.46 1639.38 1714.41 1639.38" class="fil7"/><polygon points="1714.41 1617.2 1532.25 1617.2 1532.25 1602.06 1714.41 1602.06" class="fil8"/><polygon points="1629.65 1579.79 1523.35 1579.79 1523.35 1564.65 1629.65 1564.65" class="fil7"/><polygon points="1629.65 1542.47 1523.35 1542.47 1523.35 1527.24 1629.65 1527.24" class="fil7"/><polygon points="1555.87 1505.06 1452.49 1505.06 1452.49 1489.93 1555.87 1489.93" class="fil7"/><polygon points="1563.44 1654.51 1456.56 1654.51 1456.56 1639.38 1563.44 1639.38" class="fil9"/><polygon points="1429.2 1654.51 1375.22 1654.51 1375.22 1639.38 1429.2 1639.38" class="fil10"/><polygon points="1340.28 1654.51 1168.61 1654.51 1168.61 1639.38 1340.28 1639.38" class="fil8"/><polygon points="1501.81 1617.2 1393.43 1617.2 1393.43 1602.06 1501.81 1602.06" class="fil7"/><polygon points="1490.91 1579.79 1369.81 1579.79 1369.81 1564.65 1490.91 1564.65" class="fil10"/><polygon points="1490.91 1542.47 1408.24 1542.47 1408.24 1527.24 1490.91 1527.24" class="fil10"/><polygon points="1340.28 1579.79 1250.29 1579.79 1250.29 1564.65 1340.28 1564.65" class="fil11"/><polygon points="1384.61 1542.47 1226.74 1542.47 1226.74 1527.24 1384.61 1527.24" class="fil8"/><polygon points="1206.7 1542.47 1166.61 1542.47 1166.61 1527.24 1206.7 1527.24" class="fil10"/><polygon points="1422.96 1505.06 1346.11 1505.06 1346.11 1489.93 1422.96 1489.93" class="fil10"/><polygon points="1329.06 1505.06 1185.99 1505.06 1185.99 1489.93 1329.06 1489.93" class="fil10"/><polygon points="1164.7 1505.06 1121.94 1505.06 1121.94 1489.93 1164.7 1489.93" class="fil8"/><polygon points="1629.65 1430.34 1523.35 1430.34 1523.35 1415.2 1629.65 1415.2" class="fil7"/><polygon points="1629.65 1392.93 1523.35 1392.93 1523.35 1377.8 1629.65 1377.8" class="fil7"/><polygon points="1490.91 1430.34 1315.91 1430.34 1315.91 1415.2 1490.91 1415.2" class="fil8"/><polygon points="1490.91 1392.93 1395.18 1392.93 1395.18 1377.8 1490.91 1377.8" class="fil8"/><polygon points="1290.37 1430.34 1242.63 1430.34 1242.63 1415.2 1290.37 1415.2" class="fil11"/><polygon points="1222.17 1430.34 1163.11 1430.34 1163.11 1415.2 1222.17 1415.2" class="fil10"/><polygon points="1302.02 1392.93 1195.64 1392.93 1195.64 1377.8 1302.02 1377.8" class="fil10"/><polygon points="1373.89 1392.93 1328.64 1392.93 1328.64 1377.8 1373.89 1377.8" class="fil9"/><polygon points="1714.41 1331.65 1601.46 1331.65 1601.46 1316.52 1714.41 1316.52" class="fil7"/><polygon points="1714.41 1294.33 1532.25 1294.33 1532.25 1279.2 1714.41 1279.2" class="fil8"/><polygon points="1629.65 1256.93 1523.35 1256.93 1523.35 1241.79 1629.65 1241.79" class="fil7"/><polygon points="1629.65 1219.61 1523.35 1219.61 1523.35 1204.48 1629.65 1204.48" class="fil7"/><polygon points="1555.87 1182.2 1452.49 1182.2 1452.49 1167.07 1555.87 1167.07" class="fil7"/><polygon points="1563.44 1331.65 1456.56 1331.65 1456.56 1316.52 1563.44 1316.52" class="fil8"/><polygon points="1429.2 1331.65 1375.22 1331.65 1375.22 1316.52 1429.2 1316.52" class="fil11"/><polygon points="1340.28 1331.65 1092.25 1331.65 1092.25 1316.52 1340.28 1316.52" class="fil10"/><polygon points="1501.81 1294.33 1393.43 1294.33 1393.43 1279.2 1501.81 1279.2" class="fil7"/><polygon points="1490.91 1256.93 1369.81 1256.93 1369.81 1241.79 1490.91 1241.79" class="fil8"/><polygon points="1490.91 1219.61 1408.24 1219.61 1408.24 1204.48 1490.91 1204.48" class="fil9"/><polygon points="1340.28 1256.93 1250.29 1256.93 1250.29 1241.79 1340.28 1241.79" class="fil10"/><polygon points="1226.67 1256.93 1171.93 1256.93 1171.93 1241.79 1226.67 1241.79" class="fil11"/><polygon points="1145.31 1256.93 1092.25 1256.93 1092.25 1241.79 1145.31 1241.79" class="fil10"/><polygon points="1384.61 1219.61 1226.74 1219.61 1226.74 1204.48 1384.61 1204.48" class="fil8"/><polygon points="1206.7 1219.61 1166.61 1219.61 1166.61 1204.48 1206.7 1204.48" class="fil10"/><polygon points="1422.96 1182.2 1346.11 1182.2 1346.11 1167.07 1422.96 1167.07" class="fil10"/><polygon points="1629.65 1107.48 1523.35 1107.48 1523.35 1092.35 1629.65 1092.35" class="fil7"/><polygon points="1629.65 1070.07 1523.35 1070.07 1523.35 1054.94 1629.65 1054.94" class="fil7"/><polygon points="1490.91 1107.48 1315.91 1107.48 1315.91 1092.35 1490.91 1092.35" class="fil8"/><polygon points="1490.91 1070.07 1395.18 1070.07 1395.18 1054.94 1490.91 1054.94" class="fil10"/><polygon points="1290.37 1107.48 1242.63 1107.48 1242.63 1092.35 1290.37 1092.35" class="fil11"/><polygon points="1222.17 1107.48 1163.11 1107.48 1163.11 1092.35 1222.17 1092.35" class="fil10"/><polygon points="1302.02 1070.07 1195.64 1070.07 1195.64 1054.94 1302.02 1054.94" class="fil10"/><polygon points="1373.89 1070.07 1328.64 1070.07 1328.64 1054.94 1373.89 1054.94" class="fil9"/></g></g></g><polygon points="1034.78 1740.86 1771.89 1740.86 1771.89 968.58 1034.78 968.58" class="fil5"/></g></g></svg>