<svg id="Layer_1" enable-background="new 0 0 256 256" height="512" viewBox="0 0 256 256" width="512" xmlns="http://www.w3.org/2000/svg"><path d="m92 193v-100c0-1.63.146-3.18.409-4.54.619-3.24 1.882-5.46 3.341-5.46h-53.75c-3.89 0-7.26 2.22-8.91 5.46-.7 1.36-1.09 2.91-1.09 4.54v100c0 5.52 4.48 10 10 10h53.75c-2.07 0-3.75-4.48-3.75-10z" fill="#ef7f72"/><path d="m222.91 88.46c-1.65-3.24-5.02-5.46-8.91-5.46h-53.75c1.459 0 2.723 2.22 3.341 5.46.263 1.36.409 2.91.409 4.54v100c0 5.52-1.68 10-3.75 10h53.75c5.52 0 10-4.48 10-10v-100c0-1.63-.39-3.18-1.09-4.54z" fill="#e8383b"/><path d="m164 193v-100c0-1.63-.146-3.18-.409-4.54-.619-3.24-1.883-5.46-3.341-5.46h-64.5c-1.459 0-2.722 2.22-3.341 5.46-.263 1.36-.409 2.91-.409 4.54v100c0 5.52 1.68 10 3.75 10h64.5c2.07 0 3.75-4.48 3.75-10z" fill="#e95947"/><path d="m199.7 146h-143.4c-8.553 0-15.977-6.086-17.652-14.472l-8.5-42.479c-.132-.662-.038-1.349.269-1.95 2.23-4.379 6.668-7.099 11.583-7.099h172c4.915 0 9.353 2.72 11.583 7.098.306.602.401 1.289.269 1.95l-8.5 42.48c-1.675 8.386-9.099 14.472-17.652 14.472zm-163.444-57.004 8.275 41.355c1.117 5.591 6.067 9.649 11.769 9.649h143.4c5.702 0 10.651-4.058 11.768-9.648l8.275-41.356c-1.297-1.869-3.421-2.996-5.743-2.996h-172c-2.322 0-4.446 1.127-5.744 2.996z" fill="#1c2d6b"/><path d="m125.384 158.384v-24.767c0-1.445 1.171-2.616 2.616-2.616-4.971 0-9 4.029-9 9v12c0 4.971 4.029 9 9 9-1.445-.001-2.616-1.172-2.616-2.617z" fill="#ede49d"/><path d="m128 131c1.445 0 2.616 1.171 2.616 2.616v24.767c0 1.445-1.171 2.616-2.616 2.616 4.971 0 9-4.029 9-9v-12c0-4.97-4.029-8.999-9-8.999z" fill="#d3ba2a"/><path d="m130.616 158.384v-24.767c0-1.445-1.171-2.616-2.616-2.616s-2.616 1.171-2.616 2.616v24.767c0 1.445 1.171 2.616 2.616 2.616s2.616-1.171 2.616-2.616z" fill="#eee045"/><path d="m128 164c-6.617 0-12-5.383-12-12v-12c0-6.617 5.383-12 12-12s12 5.383 12 12v12c0 6.617-5.383 12-12 12zm0-30c-3.309 0-6 2.691-6 6v12c0 3.309 2.691 6 6 6s6-2.691 6-6v-12c0-3.309-2.691-6-6-6z" fill="#1c2d6b"/><path d="m149 53h-14c2.419 0 4.436 5.153 4.9 12h7.1c2.761 0 5 2.239 5 5v13h12v-15c0-8.284-6.716-15-15-15z" fill="#4b67b0"/><path d="m121 53h-14c-8.284 0-15 6.716-15 15v15h12v-13c0-2.761 2.239-5 5-5h7.1c.464-6.847 2.481-12 4.9-12z" fill="#89aadb"/><path d="m135 53h-14c-2.419 0-4.436 5.153-4.9 12h23.8c-.464-6.847-2.481-12-4.9-12z" fill="#6287c5"/><g fill="#1c2d6b"><path d="m164 86h-12c-1.657 0-3-1.343-3-3v-13c0-1.103-.897-2-2-2h-38c-1.103 0-2 .897-2 2v13c0 1.657-1.343 3-3 3h-12c-1.657 0-3-1.343-3-3v-15c0-9.925 8.075-18 18-18h42c9.925 0 18 8.075 18 18v15c0 1.657-1.343 3-3 3zm-9-6h6v-12c0-6.617-5.383-12-12-12h-42c-6.617 0-12 5.383-12 12v12h6v-10c0-4.411 3.589-8 8-8h38c4.411 0 8 3.589 8 8z"/><path d="m214 206h-172c-7.168 0-13-5.832-13-13v-100c0-2.059.492-4.104 1.422-5.912 2.225-4.368 6.663-7.088 11.578-7.088h172c4.915 0 9.353 2.72 11.583 7.098.925 1.798 1.417 3.843 1.417 5.902v100c0 7.168-5.832 13-13 13zm-172-120c-2.646 0-5.036 1.464-6.237 3.822-.501.974-.763 2.069-.763 3.178v100c0 3.86 3.14 7 7 7h172c3.86 0 7-3.14 7-7v-100c0-1.109-.262-2.204-.758-3.168-1.206-2.368-3.596-3.832-6.242-3.832z"/></g></svg>