<svg xmlns="http://www.w3.org/2000/svg" xmlns:svg="http://www.w3.org/2000/svg" xmlns:xlink="http://www.w3.org/1999/xlink" id="Layer_1" x="0" y="0" version="1.1" viewBox="0 0 400 240" xml:space="preserve" style="enable-background:new 0 0 400 240"><metadata id="metadata4099"/><defs id="defs4097"><defs id="defs3993"><rect id="SVGID_1_" width="400" height="240" x="0" y="0"/></defs><clipPath id="SVGID_2_"><use style="overflow:visible" id="use3995" width="100%" height="100%" x="0" y="0" xlink:href="#SVGID_1_"/></clipPath></defs><rect id="rect3990" width="400" height="240" x="0" y="0" style="fill:#008dd2;fill-opacity:1"/><g id="g4062"><path id="path4036" d="m 56.145,70.171 c 0.053,-5.076 2.192,-6.733 6.714,-6.972 6.136,-0.323 268.254,-6.883 273.338,-7.014 5.084,-0.13 7.722,1.61 7.656,5.06 C 343.787,64.695 340.86,240 340.86,240 H 57.98 C 59.062,176.148 56.145,70.171 56.145,70.171 Z" style="fill:#f9fafe"/><path id="path4038" d="m 69.229,140.675 c -0.003,2.717 0.328,6.326 0.375,8.436 0.028,1.263 1.026,2.286 2.289,2.281 l 90.429,-0.428 c 2.033,-0.007 3.529,-1.904 3.064,-3.883 l -1.934,-8.22 -92.052,-0.347 c -1.199,-0.005 -2.17,0.964 -2.171,2.161 z" style="fill:#d9e8fb"/><path id="path4040" d="m 70.117,160.304 v 3.472 c 0,0.869 0.217,1.574 1.574,1.574 h 62.026 c 0.826,0 1.511,-0.638 1.57,-1.462 l 0.133,-1.856 c 0.064,-0.901 -0.641,-1.672 -1.545,-1.686 l -62.756,-1.015 c -0.749,-0.002 -1.002,0.256 -1.002,0.973 z" style="fill:#d9e8fb"/><path id="path4042" d="m 70.794,170.903 c -0.012,1.29 -0.085,2.41 -0.105,3.214 -0.024,1.009 0.248,1.189 1.151,1.189 h 39.629 c 0.603,0 1.07,-0.53 0.993,-1.128 l -0.325,-2.55 c -0.063,-0.491 -0.475,-0.863 -0.971,-0.874 l -39.585,-0.893 c -0.755,-0.002 -0.781,0.452 -0.787,1.042 z" style="fill:#d9e8fb"/><path id="path4044" d="m 70.07,188.637 c -0.499,5.873 -0.283,8.596 -0.112,11.455 0.05,0.84 0.665,1.53 1.506,1.536 l 44.136,0.332 c 0.88,0.007 1.581,-0.734 1.526,-1.613 l -0.612,-9.977 c -0.049,-0.789 -0.696,-1.408 -1.486,-1.423 l -42.781,-1.866 c -1.414,-0.026 -2.057,0.146 -2.177,1.556 z" style="fill:#d9e8fb"/><path id="path4046" d="m 286.887,90.532 c 0.085,1.878 0.317,4.612 0.486,7.506 0.083,1.413 0.849,1.875 2.264,1.883 l 40.107,0.236 c 1.471,0.009 2.66,-1.197 2.63,-2.668 0,0 -0.161,-6.441 -0.2,-8.384 -0.029,-1.441 -0.561,-2.55 -2,-2.467 -10.329,0.598 -16.933,1.067 -41.34,1.308 -1.45,0.013 -2.013,1.138 -1.947,2.586 z" style="fill:#d9e8fb"/><path id="path4048" d="m 183.22,130.146 2.196,75.396 c 0.069,2.372 1.455,4.295 5.522,4.282 l 137.208,-2.523 c 1.523,0.008 2.76,-1.23 2.75,-2.753 l -1.907,-76.371 c -0.015,-2.239 -0.296,-3.981 -4.099,-3.98 l -138.999,3.135 c -1.516,0.035 -2.715,1.297 -2.671,2.814 z" style="fill:#d9e8fb"/><path id="path4050" d="m 337.804,56.167 c -5.084,0.13 -268.808,6.709 -274.945,7.032 -4.522,0.238 -6.661,1.896 -6.714,6.972 l 0.189,5.932 287.336,-5.179 c 0.107,-5.674 0.183,-9.19 0.183,-9.678 0.002,-4.742 -0.965,-5.21 -6.049,-5.079 z" style="fill:#bfdaf9"/><path id="path4052" d="m 139.093,73.282 c -1.2,0.044 -1.733,-0.889 -1.956,-1.333 -0.222,-0.444 -2.222,-4.933 -2.444,-5.378 -0.222,-0.444 -0.444,-0.978 -1.467,-0.978 -1.023,0 -30.844,0.756 -31.822,0.8 -0.978,0.044 -1.502,0.641 -1.778,1.067 -0.436,0.673 -3.826,4.846 -4.489,5.733 -0.413,0.553 -0.978,0.844 -1.689,0.889 -1.996,0.125 -37.114,2.021 -37.114,2.021 l 0.188,6.291 286.979,-2.485 0.222,-11.737 z" style="fill:#d9e8fb"/><path id="path4054" d="m 63.387,66.534 c -2.637,0.289 -4.589,5.178 0.54,5.448 5.128,0.27 3.484,-5.889 -0.54,-5.448 z" style="fill:#96bcef"/><path id="path4056" d="m 72.47,66.202 c -2.027,1.223 -1.956,4.765 0,5.479 1.956,0.714 4.711,0.269 4.889,-2.131 0.178,-2.4 -3.022,-4.474 -4.889,-3.348 z" style="fill:#96bcef"/><path id="path4058" d="m 82.026,68.615 c -0.104,1.555 0.954,2.983 2.933,3.022 1.778,0.035 2.844,-1.531 2.889,-2.699 0.044,-1.168 -0.489,-3.346 -2.622,-3.346 -2.267,0.001 -3.111,1.69 -3.2,3.023 z" style="fill:#96bcef"/><path id="path4060" d="m 69.042,101.61 c -1.197,7.024 5.983,10.392 11.163,10.704 5.18,0.312 9.9,-3.257 11.163,-9.854 C 92.631,95.863 88.06,92.41 82.667,91.163 77.274,89.915 70.219,94.704 69.042,101.61 Z" style="fill:#d9e8fb"/></g></svg>