<svg xmlns="http://www.w3.org/2000/svg" xmlns:svg="http://www.w3.org/2000/svg" id="Capa_1" width="480" height="480" x="0" y="0" version="1.1" viewBox="0 0 480 480" xml:space="preserve"><metadata id="metadata39"/><path id="path2" d="M 427.27499,9.9999985 H 52.707188 c -8.97231,0 -15.703741,7.5924055 -14.912154,16.5637385 L 72.007281,409.95139 c 0.792565,8.9645 8.546221,18.34725 17.24294,20.7699 l 134.869039,37.46363 c 8.685,2.40701 22.88081,2.42265 31.57851,0.0313 l 135.03615,-37.41084 c 8.69868,-2.41582 16.45233,-11.71356 17.24391,-20.69369 L 442.20474,26.563737 C 442.99633,17.592404 436.29324,9.9999985 427.27499,9.9999985 Z M 362.31492,148.39208 c -0.006,0.0587 -0.0518,0.10454 -0.10948,0.11431 -0.0587,0.009 -0.11532,-0.0206 -0.14074,-0.0752 l -105.66626,43.30184 c -1.505,0.61665 -2.36305,2.21253 -2.05031,3.80842 0.31467,1.59588 1.71413,2.7471 3.34127,2.7471 h 82.1913 c 4.3723,0 8.53741,1.85681 11.4614,5.10818 2.92302,3.25138 4.32834,7.59144 3.86413,11.93832 l -12.84229,120.47093 c -0.63034,5.91053 -4.60197,10.93174 -10.20954,12.90484 l -87.23986,30.69603 c -3.28558,1.1571 -6.86727,1.16589 -10.16067,0.0245 l -86.83233,-30.0784 c -5.64178,-1.95454 -9.64663,-6.9904 -10.28088,-12.92732 l -5.8216,-54.55899 c -0.30587,-2.86438 0.6196,-5.72387 2.54482,-7.86507 1.9262,-2.14218 4.67037,-3.36571 7.55136,-3.36571 h 24.16298 c 5.19224,0 9.54694,3.91591 10.09617,9.07785 l 3.57193,33.53598 60.12258,20.8989 60.39819,-21.08947 7.38717,-69.55226 H 136.88331 c -5.17659,0 -9.52446,-3.89442 -10.09226,-9.03974 l -3.25138,-29.47835 c -0.49645,-4.49642 2.04054,-8.77784 6.22131,-10.50077 l 109.29487,-45.06091 c 1.24015,-0.51112 1.94477,-1.82554 1.68481,-3.14095 -0.26094,-1.31442 -1.41313,-2.26139 -2.75296,-2.26139 H 122.9152 c -3.46442,0 -6.36984,-2.61616 -6.73143,-6.06005 l -3.32858,-31.68405 c -0.20034,-1.90666 0.41827,-3.8094 1.70143,-5.23523 1.28315,-1.424857 3.11162,-2.238917 5.02902,-2.238917 h 240.77865 c 1.92816,0 3.76445,0.82286 5.04858,2.260407 1.28413,1.43855 1.89395,3.35594 1.67601,5.2714 z" style="stroke-width:.97726935;fill:#0277bd;fill-opacity:1"/></svg>