<svg xmlns="http://www.w3.org/2000/svg" xmlns:svg="http://www.w3.org/2000/svg" id="Layer_1" width="480" height="480" x="0" y="0" version="1.1" viewBox="0 0 480 480" xml:space="preserve"><metadata id="metadata39"/><path style="fill:#fc490b;stroke-width:1.05954838" id="path2" d="M 38.963879,25.227829 68.818773,407.16746 c 0.448189,5.73533 4.330374,10.62621 9.814596,12.36493 l 157.097111,49.80725 c 2.77814,0.88048 5.76076,0.88048 8.5389,0 l 157.09711,-49.80725 c 5.48422,-1.73872 9.36641,-6.6296 9.8146,-12.36493 L 441.03598,25.227829 C 441.67807,17.016329 435.18834,10 426.95247,10 H 53.048455 C 44.812586,10 38.322852,17.016329 38.963879,25.227829 Z M 364.47514,143.7309 H 169.90498 l 5.87202,54.14821 H 360.2433 L 348.17611,352.24789 240.00046,386.54441 131.82481,352.24789 125.5205,271.59931 h 56.77908 v 39.5593 l 59.21815,15.89322 58.86427,-15.89322 4.56665,-63.04631 H 123.6843 L 111.64995,94.14827 h 256.69996 z"/></svg>