<?xml version="1.0" encoding="UTF-8" standalone="no"?>
<!-- Generator: Adobe Illustrator 19.0.0, SVG Export Plug-In . SVG Version: 6.00 Build 0)  -->

<svg
   xmlns:dc="http://purl.org/dc/elements/1.1/"
   xmlns:cc="http://creativecommons.org/ns#"
   xmlns:rdf="http://www.w3.org/1999/02/22-rdf-syntax-ns#"
   xmlns:svg="http://www.w3.org/2000/svg"
   xmlns="http://www.w3.org/2000/svg"
   xmlns:sodipodi="http://sodipodi.sourceforge.net/DTD/sodipodi-0.dtd"
   xmlns:inkscape="http://www.inkscape.org/namespaces/inkscape"
   version="1.1"
   id="Layer_1"
   x="0px"
   y="0px"
   viewBox="0 0 480 480"
   xml:space="preserve"
   sodipodi:docname="html.svg"
   width="480"
   height="480"
   inkscape:version="0.92.4 (5da689c313, 2019-01-14)"><metadata
   id="metadata39"><rdf:RDF><cc:Work
       rdf:about=""><dc:format>image/svg+xml</dc:format><dc:type
         rdf:resource="http://purl.org/dc/dcmitype/StillImage" /><dc:title></dc:title></cc:Work></rdf:RDF></metadata><defs
   id="defs37" /><sodipodi:namedview
   pagecolor="#ffffff"
   bordercolor="#666666"
   borderopacity="1"
   objecttolerance="10"
   gridtolerance="10"
   guidetolerance="10"
   inkscape:pageopacity="0"
   inkscape:pageshadow="2"
   inkscape:window-width="1920"
   inkscape:window-height="1013"
   id="namedview35"
   showgrid="false"
   inkscape:zoom="0.54359468"
   inkscape:cx="217.0735"
   inkscape:cy="217.0735"
   inkscape:window-x="-9"
   inkscape:window-y="-9"
   inkscape:window-maximized="1"
   inkscape:current-layer="Layer_1" />
<path
   style="fill:#fc490b;stroke-width:1.05954838"
   d="M 38.963879,25.227829 68.818773,407.16746 c 0.448189,5.73533 4.330374,10.62621 9.814596,12.36493 l 157.097111,49.80725 c 2.77814,0.88048 5.76076,0.88048 8.5389,0 l 157.09711,-49.80725 c 5.48422,-1.73872 9.36641,-6.6296 9.8146,-12.36493 L 441.03598,25.227829 C 441.67807,17.016329 435.18834,10 426.95247,10 H 53.048455 C 44.812586,10 38.322852,17.016329 38.963879,25.227829 Z M 364.47514,143.7309 H 169.90498 l 5.87202,54.14821 H 360.2433 L 348.17611,352.24789 240.00046,386.54441 131.82481,352.24789 125.5205,271.59931 h 56.77908 v 39.5593 l 59.21815,15.89322 58.86427,-15.89322 4.56665,-63.04631 H 123.6843 L 111.64995,94.14827 h 256.69996 z"
   id="path2"
   inkscape:connector-curvature="0" />
<g
   id="g4"
   transform="translate(0,45.852997)">
</g>
<g
   id="g6"
   transform="translate(0,45.852997)">
</g>
<g
   id="g8"
   transform="translate(0,45.852997)">
</g>
<g
   id="g10"
   transform="translate(0,45.852997)">
</g>
<g
   id="g12"
   transform="translate(0,45.852997)">
</g>
<g
   id="g14"
   transform="translate(0,45.852997)">
</g>
<g
   id="g16"
   transform="translate(0,45.852997)">
</g>
<g
   id="g18"
   transform="translate(0,45.852997)">
</g>
<g
   id="g20"
   transform="translate(0,45.852997)">
</g>
<g
   id="g22"
   transform="translate(0,45.852997)">
</g>
<g
   id="g24"
   transform="translate(0,45.852997)">
</g>
<g
   id="g26"
   transform="translate(0,45.852997)">
</g>
<g
   id="g28"
   transform="translate(0,45.852997)">
</g>
<g
   id="g30"
   transform="translate(0,45.852997)">
</g>
<g
   id="g32"
   transform="translate(0,45.852997)">
</g>
</svg>