<?xml version="1.0" encoding="UTF-8" standalone="no"?>
<svg
   xmlns:dc="http://purl.org/dc/elements/1.1/"
   xmlns:cc="http://creativecommons.org/ns#"
   xmlns:rdf="http://www.w3.org/1999/02/22-rdf-syntax-ns#"
   xmlns:svg="http://www.w3.org/2000/svg"
   xmlns="http://www.w3.org/2000/svg"
   xmlns:sodipodi="http://sodipodi.sourceforge.net/DTD/sodipodi-0.dtd"
   xmlns:inkscape="http://www.inkscape.org/namespaces/inkscape"
   viewBox="0 0 96 96"
   width="480"
   height="480"
   version="1.1"
   id="svg4"
   sodipodi:docname="javascript.svg"
   inkscape:version="0.92.4 (5da689c313, 2019-01-14)"
   style="fill:#000000">
  <metadata
     id="metadata10">
    <rdf:RDF>
      <cc:Work
         rdf:about="">
        <dc:format>image/svg+xml</dc:format>
        <dc:type
           rdf:resource="http://purl.org/dc/dcmitype/StillImage" />
        <dc:title />
      </cc:Work>
    </rdf:RDF>
  </metadata>
  <defs
     id="defs8" />
  <sodipodi:namedview
     pagecolor="#ffffff"
     bordercolor="#666666"
     borderopacity="1"
     objecttolerance="10"
     gridtolerance="10"
     guidetolerance="10"
     inkscape:pageopacity="0"
     inkscape:pageshadow="2"
     inkscape:window-width="1920"
     inkscape:window-height="1013"
     id="namedview6"
     showgrid="false"
     inkscape:zoom="0.6675088"
     inkscape:cx="-73.456079"
     inkscape:cy="95.418319"
     inkscape:window-x="-9"
     inkscape:window-y="-9"
     inkscape:window-maximized="1"
     inkscape:current-layer="svg4" />
  <path
     d="m 88.548031,2.65 c -0.38,-0.414 -0.914,-0.65 -1.476,-0.65 H 8.9280303 c -0.562,0 -1.096,0.236 -1.476,0.65 -0.38,0.414 -0.566,0.97 -0.516,1.528 l 7.0400007,78.854 c 0.074,0.824 0.648,1.518 1.444,1.746 l 32.02,9.146 c 0.178,0.05 0.364,0.076 0.548,0.076 0.184,0 0.37,-0.026 0.548,-0.076 l 32.048,-9.146 c 0.796,-0.228 1.37,-0.922 1.444,-1.746 l 7.036,-78.854 c 0.05,-0.558 -0.138,-1.114 -0.516,-1.528 z m -66.548,53.358 14,3.884 V 20 h 8 v 52 l -22,-6.102 z m 52.108,-14.008 -2.108,24.5 -20,5.5 v -9.202 l 13.5,-3.71 0.5,-7.5 -14,2.412 V 20 h 24 l -0.69,8 h -15.31 v 16 z"
     id="path2"
     style="fill:#e7a42b;fill-opacity:1;stroke-width:2"
     inkscape:connector-curvature="0" />
</svg>
