<svg xmlns="http://www.w3.org/2000/svg" xmlns:svg="http://www.w3.org/2000/svg" id="svg4" width="480" height="480" version="1.1" viewBox="0 0 96 96" style="fill:#000"><metadata id="metadata10"/><path id="path2" d="m 88.548031,2.65 c -0.38,-0.414 -0.914,-0.65 -1.476,-0.65 H 8.9280303 c -0.562,0 -1.096,0.236 -1.476,0.65 -0.38,0.414 -0.566,0.97 -0.516,1.528 l 7.0400007,78.854 c 0.074,0.824 0.648,1.518 1.444,1.746 l 32.02,9.146 c 0.178,0.05 0.364,0.076 0.548,0.076 0.184,0 0.37,-0.026 0.548,-0.076 l 32.048,-9.146 c 0.796,-0.228 1.37,-0.922 1.444,-1.746 l 7.036,-78.854 c 0.05,-0.558 -0.138,-1.114 -0.516,-1.528 z m -66.548,53.358 14,3.884 V 20 h 8 v 52 l -22,-6.102 z m 52.108,-14.008 -2.108,24.5 -20,5.5 v -9.202 l 13.5,-3.71 0.5,-7.5 -14,2.412 V 20 h 24 l -0.69,8 h -15.31 v 16 z" style="fill:#e7a42b;fill-opacity:1;stroke-width:2"/></svg>