<svg xmlns="http://www.w3.org/2000/svg" xmlns:svg="http://www.w3.org/2000/svg" id="Capa_1" width="480" height="480" x="0" y="0" version="1.1" viewBox="0 0 512 512" xml:space="preserve"><metadata id="metadata47"/><g id="g872"><path id="path2" d="m 501.33333,256 c 0,24.89367 -3.70491,48.92675 -10.60396,71.56738 0,0.01 0,0.01 -0.01,0.0201 -7.96087,26.12513 -20.14704,50.39875 -35.78896,72.01779 v 0.01 c -22.30041,30.8315 -51.6005,56.27621 -85.55616,74.00059 -10.00404,5.22675 -20.40771,9.78362 -31.15254,13.59875 -8.71221,3.10404 -17.65442,5.71741 -26.79596,7.83054 h -0.01 c -17.81541,4.11604 -36.35054,6.28858 -55.41658,6.28858 -39.80437,0 -77.38542,-9.47312 -110.62042,-26.29571 C 114.30754,459.31617 87.030501,437.17579 65.310834,410.35971 45.564376,386.00654 30.403543,357.798 21.110585,327.03646 14.321751,304.55588 10.666668,280.70392 10.666668,256 10.666668,120.50604 120.50604,10.666668 256,10.666668 391.49396,10.666668 501.33333,120.50604 501.33333,256 Z" style="fill:#264d6f;stroke-width:.95833331"/><path id="path4" d="m 367.28167,117.79204 v 121.02504 c 0,28.48838 -23.09104,51.58038 -51.58038,51.58038 H 191.72267 c -35.83879,0 -64.88779,29.05954 -64.88779,64.89833 v 59.44063 H 86.299293 c -7.339875,0 -14.389375,-1.45188 -20.988459,-4.37575 -19.746458,-24.35317 -34.907291,-52.56171 -44.200249,-83.32325 -0.731209,-7.59 -1.111667,-15.69175 -1.111667,-24.30334 0,-75.19179 29.690125,-112.00233 66.300375,-112.00233 H 256.68042 V 173.26804 H 143.28658 V 117.793 c 0,-28.168291 50.14767,-51.009207 112.00234,-51.009207 61.85466,0 111.99275,22.839958 111.99275,51.008247 z" style="fill:#3876ac;stroke-width:.95833331"/><circle id="circle6" cx="192.103" cy="122.428" r="20.61" style="fill:#f2f2f2;stroke-width:.95833331"/><path id="path8" d="m 492.66137,296.27492 c 0,11.29491 -0.67083,21.72925 -1.93295,31.29246 0,0.01 0,0.01 -0.01,0.0201 -7.96087,26.12513 -20.14704,50.39875 -35.78896,72.01779 v 0.01 c -8.65183,5.7778 -18.33483,8.65184 -28.55833,8.65184 H 255.99042 V 425.74 h 113.38425 v 47.87546 c -10.00404,5.22675 -20.40771,9.78362 -31.15254,13.59875 -8.71221,3.10404 -17.65442,5.71741 -26.79596,7.83054 h -0.01 c -17.81541,4.11604 -36.35054,6.28858 -55.41658,6.28858 -39.80437,0 -77.38542,-9.47312 -110.62042,-26.29571 v -114.8457 c 0,-28.48838 23.10159,-51.58996 51.58996,-51.58996 h 123.97863 c 35.83879,0 64.88779,-29.04996 64.88779,-64.88779 v -59.44063 h 40.53462 c 36.61025,-9.6e-4 66.29079,36.04771 66.29079,112.00138 z" style="fill:#f7cd00;stroke-width:.95833331"/><path id="path10" d="m 341.17571,476.57958 c 0,3.89563 -1.081,7.54017 -2.95358,10.63463 -8.71221,3.10404 -17.65442,5.71741 -26.79596,7.83054 h -0.01 c -6.78883,-3.36471 -11.45591,-10.37396 -11.45591,-18.46517 0,-11.385 9.223,-20.608 20.608,-20.608 11.38404,0 20.60704,9.223 20.60704,20.608 z" style="fill:#f2f2f2;stroke-width:.95833331"/></g></svg>