<?xml version="1.0" encoding="UTF-8" standalone="no"?>
<!-- Generator: Adobe Illustrator 19.0.0, SVG Export Plug-In . SVG Version: 6.00 Build 0)  -->

<svg
   xmlns:dc="http://purl.org/dc/elements/1.1/"
   xmlns:cc="http://creativecommons.org/ns#"
   xmlns:rdf="http://www.w3.org/1999/02/22-rdf-syntax-ns#"
   xmlns:svg="http://www.w3.org/2000/svg"
   xmlns="http://www.w3.org/2000/svg"
   xmlns:sodipodi="http://sodipodi.sourceforge.net/DTD/sodipodi-0.dtd"
   xmlns:inkscape="http://www.inkscape.org/namespaces/inkscape"
   version="1.1"
   id="Capa_1"
   x="0px"
   y="0px"
   viewBox="0 0 480 480"
   xml:space="preserve"
   sodipodi:docname="scratch.svg"
   width="480"
   height="480"
   inkscape:version="0.92.4 (5da689c313, 2019-01-14)"><metadata
   id="metadata59"><rdf:RDF><cc:Work
       rdf:about=""><dc:format>image/svg+xml</dc:format><dc:type
         rdf:resource="http://purl.org/dc/dcmitype/StillImage" /><dc:title></dc:title></cc:Work></rdf:RDF></metadata><defs
   id="defs57" /><sodipodi:namedview
   pagecolor="#ffffff"
   bordercolor="#666666"
   borderopacity="1"
   objecttolerance="10"
   gridtolerance="10"
   guidetolerance="10"
   inkscape:pageopacity="0"
   inkscape:pageshadow="2"
   inkscape:window-width="1920"
   inkscape:window-height="1013"
   id="namedview55"
   showgrid="false"
   inkscape:zoom="0.4609375"
   inkscape:cx="256"
   inkscape:cy="256"
   inkscape:window-x="-9"
   inkscape:window-y="-9"
   inkscape:window-maximized="1"
   inkscape:current-layer="Capa_1" />



<g
   id="g877"
   transform="matrix(0.8984374,0,0,0.8984374,10.000103,10.000052)"><path
     id="path2"
     d="m 511.999,255.279 c 0.094,34.346 -6.572,67.134 -18.766,97.092 C 455.262,445.743 363.76,511.696 256.721,511.999 150.769,512.292 59.665,448.187 20.502,356.54 7.389,325.893 0.106,292.164 0.001,256.731 -0.083,228.467 4.421,201.258 12.811,175.814 46.374,73.969 142.148,0.325 255.269,0.001 c 106.496,-0.303 197.997,64.48 236.836,156.891 12.716,30.27 19.79,63.498 19.894,98.387 z"
     style="fill:#12adf6"
     inkscape:connector-curvature="0" /><path
     id="path4"
     d="m 492.104,156.892 c -1.703,-0.397 -3.448,-0.711 -5.235,-0.951 -12.11,-1.609 -24.294,-0.125 -36.435,0.146 -6.541,0.136 -13.019,1.432 -18.578,4.744 -5.642,3.344 -11.442,3.793 -17.648,3.699 -10.313,-0.167 -19.937,2.57 -28.526,8.276 -2.644,1.755 -4.221,1.463 -6.646,-0.251 -9.498,-6.719 -20.24,-10.094 -31.807,-9.31 -20.24,1.369 -40.521,1.337 -60.771,2.09 -2.591,0.094 -4.535,-0.616 -6.541,-2.205 -6.343,-5.015 -13.615,-8.119 -21.493,-9.874 -9.634,-2.142 -19.101,-0.24 -28.63,0.899 -13.563,1.62 -26.781,4.023 -37.48,13.49 -1.149,1.024 -2.403,1.014 -3.783,0.825 -10.919,-1.546 -21.88,-1.264 -32.82,-0.46 -14.608,1.087 -29.1,2.79 -40.97,12.727 -2.466,2.048 -3.082,-0.428 -4.075,-1.599 -15.579,-18.39 -39.319,-24.315 -61.523,-15.214 -1.985,0.815 -3.96,1.254 -6.081,1.442 -11.588,1.066 -21.671,4.545 -30.25,10.449 -8.39,25.443 -12.894,52.652 -12.81,80.917 0.104,35.432 7.387,69.161 20.501,99.808 12.466,2.769 26.143,1.076 38.619,-6.102 5.736,-3.312 11.807,-4.117 18.578,-0.616 20.856,10.762 42.862,11.713 64.522,3.406 9.425,-3.615 18.913,-5.245 28.588,-7.001 4.274,-0.773 8.004,-0.125 12.11,1.442 24.471,9.352 46.832,5.548 66.612,-11.849 2.581,-2.278 4.483,-4.974 8.746,-3.511 3.26,1.118 6.959,0.063 10.073,2.853 6.854,6.123 15.005,10.418 24.106,11.358 17.648,1.808 35.359,1.181 52.955,-1.181 1.829,-0.24 3.417,-0.491 5.224,0.23 17.659,7.064 35.6,6.729 53.958,2.863 6.447,-1.358 13.354,-1.515 19.759,2.685 12.309,8.056 25.987,10.031 40.134,6.134 7.022,-1.933 14.075,-2.884 21.243,-3.594 2.57,-0.261 5.078,-0.69 7.502,-1.285 12.194,-29.957 18.86,-62.746 18.766,-97.092 -0.103,-34.89 -7.177,-68.118 -19.894,-98.388 z"
     style="fill:#fdfdfd"
     inkscape:connector-curvature="0" /><path
     id="path6"
     d="m 9.318,287.624 c -0.017,-5.852 -0.055,-11.706 -0.042,-17.558 0.007,-3.367 0.572,-6.807 2.561,-9.426 2.729,-3.592 2.569,-7.15 1.94,-11.276 -1.708,-11.194 -0.246,-22.223 3.58,-32.786 5.356,-14.792 17.995,-22.745 33.678,-21.662 2.21,0.153 3.938,-0.211 5.834,-1.474 7.66,-5.108 15.8,-5.492 23.876,-1.192 8.129,4.328 11.911,11.503 12.282,20.612 0.115,2.822 -1.51,6.48 0.409,8.222 1.698,1.541 4.965,-1.463 7.589,-1.08 9.191,1.34 16.37,-3.706 24.084,-7.151 1.209,-0.54 1.878,-1.359 2.511,-2.406 4.083,-6.749 10.104,-10.466 17.904,-11.449 17.054,-2.148 34.084,-3.424 50.966,1.234 2.297,0.634 4.809,2.424 6.717,1.888 1.412,-0.397 1.862,-3.789 2.989,-5.7 4.02,-6.813 10.162,-10.42 17.896,-11.497 6.689,-0.932 13.372,-1.922 20.071,-2.772 10.942,-1.388 19.868,3.421 24.997,13.687 1.289,2.58 2.086,3.813 5.059,1.803 3.296,-2.226 7.309,-2.536 11.255,-2.661 21.012,-0.672 42.041,-0.607 63.035,-2.089 10.08,-0.712 19.147,5.953 22.504,15.484 1.401,3.98 7.229,5.934 10.522,3.232 3.43,-2.814 6.999,-5.14 11.398,-6.023 1.482,-0.298 2.109,-1.581 2.954,-2.617 4.759,-5.833 10.928,-8.738 18.438,-8.818 2.854,-0.03 5.708,-0.031 8.562,-0.034 6.789,-0.007 13.551,0.851 19.058,-5.119 2.691,-2.917 7.281,-3.303 11.418,-3.396 8.708,-0.196 17.416,-0.525 26.125,-0.557 10.565,-0.04 19.546,6.438 22.681,16.054 3.166,9.707 -0.26,20.03 -8.993,26.194 -2.001,1.413 -2.573,2.839 -2.544,5.164 0.181,14.718 0.242,29.439 0.249,44.159 0.001,2.419 0.584,4.013 2.764,5.535 8.238,5.751 11.691,15.232 9.332,24.472 -2.437,9.542 -9.632,16.134 -19.577,17.367 -9.225,1.144 -18.373,2.244 -27.42,4.77 -8.304,2.319 -15.777,-0.771 -21.317,-7.443 -1.752,-2.111 -3.497,-2.719 -6.09,-2.79 -7.909,-0.218 -15.948,1.053 -23.665,-1.822 -1.241,-0.463 -2.273,0.476 -3.387,0.879 -17.555,6.336 -34.408,6.108 -49.872,-5.665 -1.686,-1.284 -2.591,-1.252 -4.146,0.059 -4.425,3.729 -9.647,5.185 -15.43,5.227 -9.46,0.069 -18.918,0.465 -28.379,0.594 -11.282,0.154 -19.432,-5.126 -23.423,-15.502 -1.051,-2.732 -1.921,-2.483 -4.106,-1.462 -8.464,3.953 -16.577,3.161 -24.224,-2.294 -3.643,-2.599 -12.54,-0.2 -14.3,3.786 -9.247,20.934 -33.562,27.084 -51.862,13.039 -1.473,-1.131 -2.594,-1.249 -4.415,-0.931 -9.755,1.7 -19.536,4.005 -29.359,4.277 -6.033,0.167 -10.663,1.746 -15.549,4.767 -13.29,8.216 -42.69,8.021 -56.059,-8.335 -1.539,-1.883 -2.753,-2.029 -4.858,-0.894 -7.021,3.788 -14.601,5.437 -22.568,4.906 -1.89,-0.126 -3.062,0.525 -4.306,1.769 -7.351,7.353 -16.1,9.274 -25.615,5.37 -9.592,-3.936 -14.08,-11.751 -14.351,-21.987 -0.147,-5.554 -0.055,-11.113 -0.071,-16.67 0.233,-0.011 0.462,-0.012 0.69,-0.012 z"
     style="fill:#feb903"
     inkscape:connector-curvature="0" /><g
     id="g22">
	<path
   id="path8"
   d="m 422.385,256.369 c -0.028,-9.758 -0.248,-19.522 0.013,-29.273 0.103,-3.881 -1.185,-5.086 -4.833,-4.603 -1.463,0.193 -3.016,0.069 -4.479,-0.185 -2.763,-0.479 -4.235,-2.383 -4.167,-5.066 0.068,-2.684 1.7,-4.812 4.403,-4.878 9.302,-0.227 18.614,-0.243 27.917,-0.087 2.702,0.046 4.345,1.996 4.447,4.778 0.11,3.001 -1.485,4.753 -4.432,5.28 -0.147,0.026 -0.298,0.039 -0.445,0.067 -2.583,0.493 -6.222,-1.26 -7.568,1.052 -1.256,2.159 -0.499,5.523 -0.521,8.358 -0.048,6.154 0.076,12.313 -0.082,18.464 -0.071,2.785 0.726,3.749 3.611,3.202 7.514,-1.424 15.053,-2.734 22.611,-3.888 2.697,-0.412 3.744,-1.377 3.647,-4.285 -0.308,-9.301 -0.434,-18.612 -0.344,-27.916 0.03,-3.124 -1.145,-3.902 -3.937,-3.586 -1.63,0.185 -3.311,0.166 -4.948,0.01 -3.002,-0.286 -4.677,-2.183 -4.681,-5.068 -0.003,-2.65 1.48,-4.801 4.298,-4.917 9.146,-0.375 18.301,-0.632 27.454,-0.663 2.884,-0.009 4.719,1.978 4.785,4.962 0.067,2.998 -1.74,4.539 -4.577,5.244 -2.635,0.655 -6.379,-1.327 -7.75,1.487 -1.124,2.31 -0.282,5.591 -0.263,8.442 0.154,22.669 0.391,45.338 0.409,68.006 0.003,3.842 0.456,6.013 5.059,4.803 2.539,-0.668 5.151,-0.26 6.789,2.276 2.232,3.457 0.008,7.336 -4.666,7.954 -5.499,0.727 -11.021,1.284 -16.532,1.916 -3.303,0.378 -6.44,1.363 -9.54,2.525 -2.514,0.943 -4.895,0.722 -6.178,-1.915 -1.271,-2.611 -0.553,-4.976 1.789,-6.769 2.854,-2.186 6.294,-2.885 9.684,-3.319 2.912,-0.373 3.61,-1.575 3.545,-4.377 -0.239,-10.355 -0.297,-20.716 -0.217,-31.074 0.023,-3.027 -0.845,-3.987 -3.9,-3.407 -7.366,1.396 -14.764,2.644 -22.175,3.781 -2.795,0.429 -4.099,1.392 -3.959,4.552 0.273,6.143 0.233,12.313 -0.003,18.459 -0.12,3.13 1.159,3.949 3.947,3.756 1.79,-0.123 3.617,-0.097 5.396,0.122 2.774,0.342 4.382,2.18 4.413,4.852 0.031,2.866 -1.559,5.081 -4.586,5.105 -9.454,0.074 -18.915,0.019 -28.365,-0.272 -2.838,-0.088 -4.64,-2.078 -4.615,-5.122 0.025,-3.064 1.912,-4.551 4.735,-5.083 0.293,-0.055 0.599,-0.041 0.898,-0.064 7.937,-0.606 7.937,-0.606 7.915,-8.418 -0.024,-8.407 -0.048,-16.814 -0.071,-25.222 0.021,0.004 0.045,0.004 0.069,0.004 z"
   style="fill:#fdfdfd"
   inkscape:connector-curvature="0" />
	<path
   id="path10"
   d="m 166.811,215.082 c 8.515,0.032 14.837,0.158 21.004,1.57 6.695,1.533 13.472,3.608 15.882,10.957 2.484,7.569 -1.115,14.062 -6.164,19.161 -3.244,3.276 -3.393,5.205 -1.227,9.107 3.553,6.402 3.745,13.822 4.088,21.02 0.201,4.21 0.549,8.387 1.377,12.508 0.533,2.649 1.815,4.85 4.895,5.075 2.92,0.212 4.231,-1.796 5.245,-4.105 0.061,-0.137 0.125,-0.273 0.185,-0.411 2.356,-5.513 4.572,-7.064 7.885,-5.514 3.24,1.515 3.686,4.499 1.464,9.79 -3.147,7.493 -8.726,11.135 -16.022,10.463 -7.197,-0.665 -12.001,-5.373 -13.784,-13.327 -1.816,-8.099 -1.076,-16.465 -2.667,-24.577 -0.401,-2.047 -0.964,-4.079 -1.655,-6.047 -1.444,-4.109 -4.416,-5.354 -8.562,-4.403 -12.114,2.779 -12.111,2.76 -11.881,15.206 0.08,4.351 0.301,8.711 0.103,13.052 -0.141,3.087 1.178,3.61 3.748,3.047 1.316,-0.288 2.668,-0.638 3.994,-0.603 2.651,0.07 4.668,1.291 5.181,4.071 0.537,2.911 -0.602,5.358 -3.528,5.88 -8.553,1.526 -17.15,2.877 -25.775,3.909 -2.789,0.333 -4.813,-1.586 -5.079,-4.623 -0.266,-3.035 1.41,-4.747 4.188,-5.544 6.895,-1.978 6.904,-1.975 6.869,-9.027 -0.03,-6.152 -0.134,-12.306 -0.09,-18.458 0.014,-1.953 -0.377,-2.989 -2.648,-3.119 -3.139,-0.18 -4.982,-2.051 -4.844,-5.312 0.129,-3.023 1.997,-4.758 4.906,-4.811 2.447,-0.045 2.522,-1.302 2.495,-3.126 -0.084,-5.852 -0.164,-11.707 -0.051,-17.557 0.046,-2.376 -0.667,-3.342 -3.074,-2.806 -1.169,0.26 -2.364,0.415 -3.553,0.582 -3.534,0.497 -6.481,-0.257 -7.023,-4.325 -0.546,-4.103 2.202,-5.625 5.693,-5.99 6.86,-0.721 13.737,-1.285 18.425,-1.713 z m -0.243,20.561 c 0.03,0 0.062,0 0.092,0 0.008,3.003 0.1,6.009 -0.001,9.009 -0.078,2.328 0.965,2.962 3.024,2.363 4.46,-1.3 8.876,-2.766 13.374,-3.914 5.142,-1.313 8.062,-4.862 10.292,-9.326 1.552,-3.106 0.621,-5.152 -2.421,-6.487 -4.064,-1.784 -8.423,-2.145 -12.749,-2.521 -11.641,-1.012 -11.645,-0.964 -11.613,10.427 0.001,0.148 0.001,0.299 0.002,0.449 z"
   style="fill:#fdfdfd"
   inkscape:connector-curvature="0" />
	<path
   id="path12"
   d="m 64.602,220.729 c -0.008,-2.912 -0.091,-5.093 -0.003,-7.267 0.138,-3.396 1.476,-5.997 5.319,-5.871 3.777,0.123 5.143,2.683 5.018,6.132 -0.367,10.055 -0.806,20.108 -1.206,30.162 -0.123,3.111 -1.456,5.278 -4.762,5.443 -3.498,0.174 -5.213,-1.862 -5.466,-5.211 -0.558,-7.391 -3.437,-13.556 -9.206,-18.373 -5.485,-4.58 -10.06,-3.297 -11.383,3.561 -1.05,5.446 -1.908,10.953 -1.243,16.555 0.549,4.621 2.97,7.322 7.667,8.05 5.04,0.781 10.058,1.7 14.885,3.449 12.5,4.531 18.524,13.674 16.144,24.56 -2.555,11.683 -14.904,20.466 -26.994,19.193 -4.523,-0.476 -8.918,-1.55 -12.848,-3.848 -3.45,-2.018 -4.036,-0.665 -3.72,2.557 0.176,1.788 0.245,3.609 0.118,5.399 -0.212,2.978 -1.896,4.739 -4.928,4.755 -2.981,0.017 -4.978,-1.651 -5.135,-4.595 -0.615,-11.562 -0.106,-23.122 0.45,-34.674 0.145,-3.011 2.149,-4.74 5.067,-4.645 3.395,0.111 5.117,2.271 5.047,5.661 -0.158,7.648 3.191,13.169 9.78,16.975 6.74,3.893 15.914,2.229 20.701,-3.958 4.327,-5.59 3.108,-12.146 -3.027,-15.71 -4.488,-2.608 -9.523,-3.597 -14.56,-4.434 -13.575,-2.257 -19.236,-8.847 -19.166,-22.651 0.028,-5.569 0.685,-11.107 2.161,-16.477 3.394,-12.353 14.678,-16.48 25.326,-9.333 1.819,1.219 3.484,2.672 5.964,4.595 z"
   style="fill:#fdfdfd"
   inkscape:connector-curvature="0" />
	<path
   id="path14"
   d="m 227.745,280.096 c -4.195,-0.218 -8.39,-0.424 -12.585,-0.659 -3.404,-0.19 -5.442,-2.052 -5.274,-5.415 0.157,-3.139 2.289,-4.787 5.47,-4.74 3.75,0.055 7.503,0.142 11.244,0.381 2.286,0.146 3.418,-0.355 3.911,-2.959 3.295,-17.373 6.763,-34.716 10.281,-52.045 0.59,-2.908 -0.491,-3.388 -3.003,-2.96 -3.398,0.578 -6.82,1.021 -10.239,1.469 -3.273,0.428 -5.779,-0.709 -6.35,-4.136 -0.614,-3.687 1.545,-5.596 5.004,-6.118 6.078,-0.915 12.169,-1.745 18.253,-2.615 5.757,-0.822 7.201,-0.037 9.565,5.64 7.717,18.531 15.476,37.047 22.991,55.659 1.471,3.644 2.849,5.305 6.587,2.718 1.208,-0.836 2.691,-1.334 4.111,-1.793 3.001,-0.97 5.457,-0.125 6.614,2.879 1.143,2.966 0.037,5.335 -2.878,6.63 -3.558,1.581 -7.226,2.915 -10.764,4.537 -3.949,1.81 -7.819,3.749 -10.939,6.949 -2.207,2.263 -4.926,2.425 -7.213,0.22 -2.48,-2.39 -2.079,-5.116 0.109,-7.594 0.689,-0.78 1.615,-1.347 2.315,-2.119 1.333,-1.469 4.78,-1.53 4.184,-3.982 -0.907,-3.725 -2.72,-7.258 -4.415,-10.744 -0.515,-1.06 -1.936,-0.229 -2.928,-0.066 -5.768,0.949 -11.52,2.004 -17.301,2.854 -2.001,0.294 -3.623,0.696 -3.422,3.119 0.164,1.977 -2.415,4.552 1.609,5.765 2.402,0.724 3.121,3.142 2.507,5.599 -0.612,2.447 -2.261,3.866 -4.848,3.903 -4.198,0.059 -8.397,0.037 -12.595,0.048 -0.001,-0.142 -0.001,-0.283 -0.001,-0.425 z m 22.465,-54.632 c -0.292,0.033 -0.583,0.067 -0.875,0.1 -1.705,8.487 -3.434,16.969 -5.092,25.465 -0.236,1.208 -1.551,3.33 1.422,2.896 4.284,-0.624 8.533,-1.486 12.803,-2.21 1.395,-0.236 2.196,-0.696 1.528,-2.318 -3.281,-7.969 -6.527,-15.953 -9.786,-23.933 z"
   style="fill:#fdfdfd"
   inkscape:connector-curvature="0" />
	<path
   id="path16"
   d="m 317.344,212.602 c 9.891,-0.542 19.782,-1.065 29.671,-1.636 5.4,-0.312 7.513,1.648 7.338,7.01 -0.185,5.699 -0.476,11.396 -0.607,17.096 -0.077,3.371 -1.575,5.638 -4.956,5.781 -3.517,0.149 -5.05,-2.261 -5.147,-5.529 -0.108,-3.595 -0.192,-7.208 0.032,-10.792 0.157,-2.509 -0.73,-3.049 -3.065,-2.868 -4.935,0.381 -9.89,0.621 -14.839,0.669 -2.531,0.025 -3.371,0.918 -3.347,3.437 0.194,20.114 0.319,40.228 0.366,60.344 0.005,2.448 0.926,3.108 3.198,2.934 2.389,-0.182 4.808,-0.185 7.199,-0.039 3.022,0.185 4.691,2.023 4.705,4.982 0.015,2.967 -1.656,4.912 -4.67,5.008 -10.351,0.329 -20.706,0.588 -31.062,0.674 -3.068,0.025 -5.117,-1.756 -5.194,-5.035 -0.078,-3.314 1.979,-4.814 5.009,-5.264 0.59,-0.088 1.198,-0.061 1.798,-0.083 8.673,-0.308 8.679,-0.308 8.646,-9.178 -0.065,-17.564 -0.259,-35.128 -0.11,-52.691 0.033,-3.866 -1.149,-4.865 -4.804,-4.544 -4.476,0.394 -8.999,0.357 -13.5,0.313 -2.346,-0.022 -3.177,0.63 -2.728,3.111 0.908,5.015 1.458,10.096 2.332,15.119 0.616,3.539 -0.435,6.175 -4.028,6.791 -3.636,0.624 -5.514,-1.695 -6.068,-5.118 -1.22,-7.55 -2.468,-15.099 -3.584,-22.665 -0.758,-5.137 1.018,-7.345 6.335,-7.437 10.354,-0.18 20.713,-0.102 31.07,-0.133 0.006,-0.084 0.008,-0.17 0.01,-0.257 z"
   style="fill:#fdfdfd"
   inkscape:connector-curvature="0" />
	<path
   id="path18"
   d="m 392.766,236.911 c -0.009,-3.283 -0.112,-5.762 0,-8.231 0.148,-3.263 1.692,-5.579 5.19,-5.544 3.464,0.033 5.085,2.301 5.128,5.596 0.091,6.903 0.05,13.806 0.089,20.71 0.015,2.685 -1.054,4.706 -3.629,5.613 -2.676,0.942 -4.655,-0.298 -6.164,-2.448 -3.723,-5.307 -8.351,-9.383 -14.755,-11.161 -6.596,-1.832 -10.2,-0.183 -11.943,6.431 -3.025,11.48 -2.565,23.223 -1.155,34.851 0.704,5.804 4.851,9.127 10.666,9.985 2.064,0.304 4.184,0.343 6.277,0.316 8.914,-0.116 13.807,-4.684 14.578,-13.637 0.18,-2.087 0.05,-4.198 0.075,-6.299 0.039,-3.212 1.712,-5.194 4.845,-5.389 2.914,-0.181 4.87,1.448 5.254,4.445 2.274,17.746 -8.04,31.746 -24.657,31.278 -15.501,-0.437 -25.15,-5.816 -27.09,-18.794 -1.988,-13.302 -2.434,-26.978 1.48,-40.165 3.498,-11.788 12.239,-16.286 24.128,-13.063 3.891,1.055 7.519,2.784 11.683,5.506 z"
   style="fill:#fdfdfd"
   inkscape:connector-curvature="0" />
	<path
   id="path20"
   d="m 125.639,243.919 c -0.009,-3.421 -0.11,-6.089 0,-8.749 0.123,-2.997 1.863,-4.814 4.798,-4.923 3.176,-0.118 5.173,1.71 5.242,4.911 0.159,7.35 0.113,14.704 0.12,22.056 0.003,2.569 -1.333,4.289 -3.728,5.026 -2.489,0.766 -4.383,-0.345 -5.813,-2.35 -3.653,-5.122 -8.039,-9.23 -14.267,-11.104 -7.359,-2.216 -10.786,-0.654 -12.724,6.858 -2.89,11.208 -2.067,22.684 -1.075,34.005 0.494,5.649 4.658,9.2 10.52,10.219 3.593,0.625 7.198,0.56 10.752,-0.022 5.112,-0.836 8.808,-5.029 9.968,-10.89 0.676,-3.416 0.417,-6.873 0.523,-10.317 0.087,-2.777 1.766,-4.501 4.466,-4.822 2.726,-0.325 4.63,1.112 5.477,3.688 3.4,10.337 -2.759,26.23 -12.912,30.45 -16.598,6.899 -39.489,1.961 -39.748,-23.301 -0.089,-8.697 -0.495,-17.406 0.748,-26.065 2.83,-19.699 16.221,-26.402 33.718,-16.877 1.042,0.567 2.066,1.158 3.935,2.207 z"
   style="fill:#fdfdfd"
   inkscape:connector-curvature="0" />
</g></g>
<g
   id="g24"
   transform="translate(0,-32)">
</g>
<g
   id="g26"
   transform="translate(0,-32)">
</g>
<g
   id="g28"
   transform="translate(0,-32)">
</g>
<g
   id="g30"
   transform="translate(0,-32)">
</g>
<g
   id="g32"
   transform="translate(0,-32)">
</g>
<g
   id="g34"
   transform="translate(0,-32)">
</g>
<g
   id="g36"
   transform="translate(0,-32)">
</g>
<g
   id="g38"
   transform="translate(0,-32)">
</g>
<g
   id="g40"
   transform="translate(0,-32)">
</g>
<g
   id="g42"
   transform="translate(0,-32)">
</g>
<g
   id="g44"
   transform="translate(0,-32)">
</g>
<g
   id="g46"
   transform="translate(0,-32)">
</g>
<g
   id="g48"
   transform="translate(0,-32)">
</g>
<g
   id="g50"
   transform="translate(0,-32)">
</g>
<g
   id="g52"
   transform="translate(0,-32)">
</g>
</svg>