<svg xmlns="http://www.w3.org/2000/svg" xmlns:xlink="http://www.w3.org/1999/xlink" style="isolation:isolate" width="500" height="300" viewBox="0 0 500 300"><defs><clipPath id="_clipPath_E0k74859djL0FcKyz2bxSYT366kE2AuQ"><rect width="500" height="300"/></clipPath></defs><g clip-path="url(#_clipPath_E0k74859djL0FcKyz2bxSYT366kE2AuQ)"><g id="Group"><linearGradient id="_lgradient_12" x1="0%" x2="100%" y1="50%" y2="50%"><stop offset=".87%" stop-opacity="1" style="stop-color:#90f"/><stop offset="98.261%" stop-opacity="1" style="stop-color:#f0f"/></linearGradient><rect width="500" height="300" x="0" y="0" fill="url(#_lgradient_12)" transform="matrix(1,0,0,1,0,0)"/><path fill="#FFF" fill-rule="evenodd" d="M 184.328 218.544 L 184.328 223.712 L 182.832 223.712 L 182.832 223.712 Q 177.664 223.712 174.604 220.686 L 174.604 220.686 L 174.604 220.686 Q 171.544 217.66 171.544 212.492 L 171.544 212.492 L 171.544 201.476 L 171.544 201.476 Q 171.544 195.152 166.512 195.152 L 166.512 195.152 L 166.512 189.984 L 166.512 189.984 Q 171.544 189.984 171.544 183.66 L 171.544 183.66 L 171.544 172.644 L 171.544 172.644 Q 171.544 167.476 174.604 164.45 L 174.604 164.45 L 174.604 164.45 Q 177.664 161.424 182.832 161.424 L 182.832 161.424 L 184.328 161.424 L 184.328 166.592 L 183.308 166.592 L 183.308 166.592 Q 177.256 166.592 177.256 173.46 L 177.256 173.46 L 177.256 184.748 L 177.256 184.748 Q 177.188 190.8 172.564 192.432 L 172.564 192.432 L 172.564 192.704 L 172.564 192.704 Q 177.12 194.2 177.256 200.184 L 177.256 200.184 L 177.256 211.676 L 177.256 211.676 Q 177.256 218.544 183.308 218.544 L 183.308 218.544 L 184.328 218.544 Z M 214.316 216.368 L 214.316 216.368 L 214.316 216.368 Q 203.504 216.368 196.228 209.092 L 196.228 209.092 L 196.228 209.092 Q 189.02 201.816 189.02 190.936 L 189.02 190.936 L 189.02 190.936 Q 189.02 180.056 196.228 172.848 L 196.228 172.848 L 196.228 172.848 Q 203.436 165.504 214.316 165.504 L 214.316 165.504 L 214.316 165.504 Q 225.332 165.504 232.2 173.46 L 232.2 173.46 L 227.712 177.812 L 227.712 177.812 Q 222.476 171.488 214.316 171.488 L 214.316 171.488 L 214.316 171.488 Q 206.224 171.488 200.784 176.928 L 200.784 176.928 L 200.784 176.928 Q 195.412 182.3 195.412 190.936 L 195.412 190.936 L 195.412 190.936 Q 195.412 199.572 200.784 204.944 L 200.784 204.944 L 200.784 204.944 Q 206.224 210.384 214.316 210.384 L 214.316 210.384 L 214.316 210.384 Q 222.816 210.384 229.072 203.244 L 229.072 203.244 L 233.628 207.664 L 233.628 207.664 Q 230.16 211.812 225.128 214.09 L 225.128 214.09 L 225.128 214.09 Q 220.096 216.368 214.316 216.368 Z M 271.028 202.292 L 271.028 202.292 L 271.028 202.292 Q 271.028 208.684 266.336 212.56 L 266.336 212.56 L 266.336 212.56 Q 261.576 216.368 254.776 216.368 L 254.776 216.368 L 254.776 216.368 Q 248.724 216.368 244.1 212.832 L 244.1 212.832 L 244.1 212.832 Q 239.476 209.296 237.708 203.176 L 237.708 203.176 L 243.692 200.728 L 243.692 200.728 Q 244.304 202.904 245.392 204.672 L 245.392 204.672 L 245.392 204.672 Q 246.48 206.44 247.942 207.698 L 247.942 207.698 L 247.942 207.698 Q 249.404 208.956 251.172 209.67 L 251.172 209.67 L 251.172 209.67 Q 252.94 210.384 254.912 210.384 L 254.912 210.384 L 254.912 210.384 Q 259.196 210.384 261.916 208.174 L 261.916 208.174 L 261.916 208.174 Q 264.636 205.964 264.636 202.292 L 264.636 202.292 L 264.636 202.292 Q 264.636 199.232 262.392 197.056 L 262.392 197.056 L 262.392 197.056 Q 260.284 194.948 254.504 192.976 L 254.504 192.976 L 254.504 192.976 Q 248.656 190.868 247.228 190.12 L 247.228 190.12 L 247.228 190.12 Q 239.476 186.176 239.476 178.492 L 239.476 178.492 L 239.476 178.492 Q 239.476 173.12 243.76 169.312 L 243.76 169.312 L 243.76 169.312 Q 248.112 165.504 254.436 165.504 L 254.436 165.504 L 254.436 165.504 Q 260.012 165.504 264.092 168.36 L 264.092 168.36 L 264.092 168.36 Q 268.172 171.148 269.532 175.364 L 269.532 175.364 L 263.684 177.812 L 263.684 177.812 Q 262.868 175.092 260.454 173.29 L 260.454 173.29 L 260.454 173.29 Q 258.04 171.488 254.572 171.488 L 254.572 171.488 L 254.572 171.488 Q 250.9 171.488 248.384 173.528 L 248.384 173.528 L 248.384 173.528 Q 245.868 175.432 245.868 178.492 L 245.868 178.492 L 245.868 178.492 Q 245.868 181.008 247.84 182.844 L 247.84 182.844 L 247.84 182.844 Q 250.016 184.68 257.292 187.196 L 257.292 187.196 L 257.292 187.196 Q 264.704 189.712 267.866 193.35 L 267.866 193.35 L 267.866 193.35 Q 271.028 196.988 271.028 202.292 Z M 308.632 202.292 L 308.632 202.292 L 308.632 202.292 Q 308.632 208.684 303.94 212.56 L 303.94 212.56 L 303.94 212.56 Q 299.18 216.368 292.38 216.368 L 292.38 216.368 L 292.38 216.368 Q 286.328 216.368 281.704 212.832 L 281.704 212.832 L 281.704 212.832 Q 277.08 209.296 275.312 203.176 L 275.312 203.176 L 281.296 200.728 L 281.296 200.728 Q 281.908 202.904 282.996 204.672 L 282.996 204.672 L 282.996 204.672 Q 284.084 206.44 285.546 207.698 L 285.546 207.698 L 285.546 207.698 Q 287.008 208.956 288.776 209.67 L 288.776 209.67 L 288.776 209.67 Q 290.544 210.384 292.516 210.384 L 292.516 210.384 L 292.516 210.384 Q 296.8 210.384 299.52 208.174 L 299.52 208.174 L 299.52 208.174 Q 302.24 205.964 302.24 202.292 L 302.24 202.292 L 302.24 202.292 Q 302.24 199.232 299.996 197.056 L 299.996 197.056 L 299.996 197.056 Q 297.888 194.948 292.108 192.976 L 292.108 192.976 L 292.108 192.976 Q 286.26 190.868 284.832 190.12 L 284.832 190.12 L 284.832 190.12 Q 277.08 186.176 277.08 178.492 L 277.08 178.492 L 277.08 178.492 Q 277.08 173.12 281.364 169.312 L 281.364 169.312 L 281.364 169.312 Q 285.716 165.504 292.04 165.504 L 292.04 165.504 L 292.04 165.504 Q 297.616 165.504 301.696 168.36 L 301.696 168.36 L 301.696 168.36 Q 305.776 171.148 307.136 175.364 L 307.136 175.364 L 301.288 177.812 L 301.288 177.812 Q 300.472 175.092 298.058 173.29 L 298.058 173.29 L 298.058 173.29 Q 295.644 171.488 292.176 171.488 L 292.176 171.488 L 292.176 171.488 Q 288.504 171.488 285.988 173.528 L 285.988 173.528 L 285.988 173.528 Q 283.472 175.432 283.472 178.492 L 283.472 178.492 L 283.472 178.492 Q 283.472 181.008 285.444 182.844 L 285.444 182.844 L 285.444 182.844 Q 287.62 184.68 294.896 187.196 L 294.896 187.196 L 294.896 187.196 Q 302.308 189.712 305.47 193.35 L 305.47 193.35 L 305.47 193.35 Q 308.632 196.988 308.632 202.292 Z M 314.956 223.712 L 313.46 223.712 L 313.46 218.544 L 314.48 218.544 L 314.48 218.544 Q 320.532 218.544 320.532 211.676 L 320.532 211.676 L 320.532 200.184 L 320.532 200.184 Q 320.668 194.2 325.224 192.704 L 325.224 192.704 L 325.224 192.432 L 325.224 192.432 Q 320.6 190.8 320.532 184.748 L 320.532 184.748 L 320.532 173.46 L 320.532 173.46 Q 320.532 166.592 314.48 166.592 L 314.48 166.592 L 313.46 166.592 L 313.46 161.424 L 314.956 161.424 L 314.956 161.424 Q 320.124 161.424 323.184 164.45 L 323.184 164.45 L 323.184 164.45 Q 326.244 167.476 326.244 172.644 L 326.244 172.644 L 326.244 183.66 L 326.244 183.66 Q 326.244 189.984 331.276 189.984 L 331.276 189.984 L 331.276 195.152 L 331.276 195.152 Q 326.244 195.152 326.244 201.476 L 326.244 201.476 L 326.244 212.492 L 326.244 212.492 Q 326.244 217.66 323.184 220.686 L 323.184 220.686 L 323.184 220.686 Q 320.124 223.712 314.956 223.712 L 314.956 223.712 Z M 130.336 114.504 L 150.328 123.548 L 150.328 129.26 L 123.808 116.68 L 123.808 112.056 L 150.328 99.476 L 150.328 105.188 L 130.336 114.232 L 130.336 114.504 Z M 165.56 110.832 L 165.56 132.796 L 159.304 132.796 L 159.304 84.108 L 165.56 84.108 L 165.56 104.984 L 189.904 104.984 L 189.904 84.108 L 196.16 84.108 L 196.16 132.796 L 189.904 132.796 L 189.904 110.832 L 165.56 110.832 Z M 236.144 90.092 L 222.544 90.092 L 222.544 132.796 L 216.288 132.796 L 216.288 90.092 L 202.688 90.092 L 202.688 84.108 L 236.144 84.108 L 236.144 90.092 Z M 248.928 103.896 L 248.928 132.796 L 242.672 132.796 L 242.672 84.108 L 248.928 84.108 L 265.86 113.756 L 266.132 113.756 L 283.064 84.108 L 289.32 84.108 L 289.32 132.796 L 283.064 132.796 L 283.064 103.896 L 283.336 95.736 L 283.064 95.736 L 267.832 122.46 L 264.16 122.46 L 248.928 95.736 L 248.656 95.736 L 248.928 103.896 Z M 326.448 126.812 L 326.448 132.796 L 299.112 132.796 L 299.112 84.108 L 305.368 84.108 L 305.368 126.812 L 326.448 126.812 Z M 332.16 99.476 L 358.68 112.056 L 358.68 116.68 L 332.16 129.26 L 332.16 123.548 L 352.152 114.504 L 352.152 114.232 L 332.16 105.188 L 332.16 99.476 Z"/></g></g></svg>