<svg xmlns="http://www.w3.org/2000/svg" xmlns:xlink="http://www.w3.org/1999/xlink" style="isolation:isolate" width="500" height="300" viewBox="0 0 500 300"><defs><clipPath id="_clipPath_6piZt5Upqa8Lo3MsbnwL4EXsMVhD8qtD"><rect width="500" height="300"/></clipPath></defs><g clip-path="url(#_clipPath_6piZt5Upqa8Lo3MsbnwL4EXsMVhD8qtD)"><g id="Group"><g id="Group"><g id="Group"><linearGradient id="_lgradient_14" x1="0%" x2="100%" y1="50%" y2="50%"><stop offset=".87%" stop-opacity="1" style="stop-color:#f0f"/><stop offset="97.826%" stop-opacity="1" style="stop-color:#dd3535"/></linearGradient><rect width="500" height="304" x="0" y="0" fill="url(#_lgradient_14)" transform="matrix(1,0,0,1,0,0)"/></g></g><g id="Group"><path fill="#464646" fill-opacity=".19" d="M 65.808 219.386 C 65.808 195.546 108.232 176.19 160.487 176.19 C 212.741 176.19 255.166 195.546 255.166 219.386 C 255.166 243.227 212.741 262.582 160.487 262.582 C 108.232 262.582 65.808 243.227 65.808 219.386 Z"/><path fill="#666" d="M 59.719 21 L 289.379 21 C 296.924 21 303.096 27.173 303.096 34.718 L 303.096 176.19 L 46 176.19 L 46 34.718 C 46 27.173 52.173 21 59.719 21 Z"/><path fill="#FFF" d="M 55.315 166.876 L 293.782 166.876 L 293.782 34.718 C 293.782 32.315 291.782 30.315 289.379 30.315 L 59.719 30.315 C 57.316 30.315 55.316 32.315 55.316 34.718 L 55.316 166.876 L 55.315 166.876 Z"/><path fill="#FFF" d="M 303.097 176.191 L 303.097 191.194 C 303.097 198.739 296.294 204.912 287.974 204.912 L 61.123 204.912 C 52.804 204.912 46 198.739 46 191.194 L 46 176.191 L 303.097 176.191 Z"/><path fill="#F90" d="M 107.39 166.879 L 107.39 30.318 L 59.716 30.318 C 57.313 30.318 55.313 32.317 55.313 34.72 L 55.313 166.877 L 107.388 166.877 L 107.39 166.879 L 107.39 166.879 Z"/><path fill="#FFF" d="M 65.808 46.423 L 98.305 46.423 L 98.305 50.406 L 65.808 50.406 L 65.808 46.423 Z M 65.808 142.291 L 98.305 142.291 L 98.305 146.275 L 65.808 146.275 L 65.808 142.291 Z M 65.808 123.117 L 93.074 123.117 L 93.074 127.101 L 65.808 127.101 L 65.808 123.117 Z M 65.808 103.944 L 98.305 103.944 L 98.305 107.927 L 65.808 107.927 L 65.808 103.944 Z M 65.808 84.769 L 86.102 84.769 L 86.102 88.753 L 65.808 88.753 L 65.808 84.769 Z M 65.808 65.595 L 88.094 65.595 L 88.094 69.578 L 65.808 69.578 C 65.808 69.578 65.808 65.595 65.808 65.595 Z"/><rect width="30.135" height="3.94" x="118.224" y="46.053" fill="#FAD24D" transform="matrix(1,0,0,1,0,0)"/><rect width="44.719" height="3.94" x="154.078" y="46.053" fill="#FF5B62" transform="matrix(1,0,0,1,0,0)"/><rect width="30.135" height="3.94" x="118.224" y="58.813" fill="#21D0C3" transform="matrix(1,0,0,1,0,0)"/><rect width="53.9" height="3.94" x="154.078" y="58.813" fill="#FF5B62" transform="matrix(1,0,0,1,0,0)"/><rect width="7.832" height="3.94" x="212.224" y="58.813" fill="#FAD24D" transform="matrix(1,0,0,1,0,0)"/><rect width="19.918" height="3.94" x="118.224" y="71.573" fill="#FF5B62" transform="matrix(1,0,0,1,0,0)"/><rect width="40.246" height="3.94" x="143.967" y="71.573" fill="#21D0C3" transform="matrix(1,0,0,1,0,0)"/><rect width="30.135" height="3.94" x="189.926" y="71.573" fill="#FAD24D" transform="matrix(1,0,0,1,0,0)"/><rect width="30.135" height="3.94" x="118.224" y="84.333" fill="#FAD24D" transform="matrix(1,0,0,1,0,0)"/><rect width="63.298" height="3.94" x="155.867" y="84.333" fill="#FF5B62" transform="matrix(1,0,0,1,0,0)"/><rect width="26.409" height="3.94" x="222.3" y="84.333" fill="#21D0C3" transform="matrix(1,0,0,1,0,0)"/><rect width="37.024" height="3.94" x="118.224" y="97.093" fill="#FF5B62" transform="matrix(1,0,0,1,0,0)"/><rect width="37.024" height="3.94" x="162.271" y="97.093" fill="#21D0C3" transform="matrix(1,0,0,1,0,0)"/><rect width="37.024" height="3.94" x="206.312" y="97.093" fill="#FAD24D" transform="matrix(1,0,0,1,0,0)"/><rect width="30.135" height="3.94" x="118.224" y="109.854" fill="#FAD24D" transform="matrix(1,0,0,1,0,0)"/><rect width="18.076" height="3.94" x="154.078" y="109.854" fill="#21D0C3" transform="matrix(1,0,0,1,0,0)"/><rect width="18.076" height="3.94" x="175.581" y="109.854" fill="#FF5B62" transform="matrix(1,0,0,1,0,0)"/><path fill="#C2C2C4" d="M 203.299 225.841 L 224.449 232.617 L 124.651 232.617 L 141.714 225.841 L 141.714 204.916 L 203.299 204.916 L 203.299 225.841 Z"/><path fill="#B0B0B0" d="M 203.299 225.841 L 141.714 204.916 L 203.299 204.916 L 203.299 225.841 Z"/><path fill="#ECF0F1" d="M 141.714 225.841 L 203.299 225.841 L 224.449 232.617 L 224.449 235.537 L 174.55 235.537 L 124.648 235.537 L 124.648 232.617 L 141.711 225.841 L 141.714 225.841 Z"/><path fill="#B6B6B8" d="M 169.967 190.556 C 169.967 188.028 172.019 185.977 174.546 185.977 C 177.073 185.977 179.125 188.028 179.125 190.556 C 179.125 193.083 177.073 195.135 174.546 195.135 C 172.019 195.135 169.967 193.083 169.967 190.556 Z"/></g><g id="Group"><g id="Group"><path fill="#EBEBEB" fill-opacity=".07" d="M 327 240.5 C 327 231.393 339.77 224 355.5 224 C 371.23 224 384 231.393 384 240.5 C 384 249.607 371.23 257 355.5 257 C 339.77 257 327 249.607 327 240.5 Z"/></g><g id="Group"><path fill="#FAD24D" d="M 329.437 168.019 L 389.732 168.019 L 385.507 217.831 L 383.437 244.475 L 335.924 244.475 L 329.44 168.019 L 329.437 168.019 L 329.437 168.019 Z"/><path fill="#EDB937" d="M 328.865 167.379 L 390.732 167.379 L 390.337 171.928 L 329.262 171.928 L 328.865 167.379 Z"/><path fill="#ED4C54" d="M 341.026 152 L 376.571 152 C 378.3 152 379.715 153.415 379.715 155.145 L 379.715 158.289 L 337.881 158.289 L 337.881 155.145 C 337.882 153.416 339.297 152 341.026 152 Z"/><path fill="#FF5B62" d="M 330.478 158.289 L 389.119 158.289 C 391.032 158.289 392.596 159.854 392.596 161.767 L 392.596 169.58 C 392.596 169.62 392.563 169.653 392.523 169.653 L 327.073 169.653 C 327.033 169.653 327 169.62 327 169.58 L 327 161.767 C 327 159.853 328.564 158.289 330.478 158.289 Z"/><path fill="#FFF" d="M 387.119 187.117 Q 388.547 187.117 386.119 206.952 C 385.894 208.465 333.25 208.753 333.028 207.233 L 331.028 189.907 Q 330.808 188.389 387.119 187.117 Z"/><path fill="#EDB937" d="M 354.183 192.241 C 354.183 192.241 356.359 193.121 355.308 196.346 C 354.261 199.572 353.963 201.115 355.24 202.601 C 356.518 204.087 354.409 204.17 353.279 203.307 C 348.421 199.597 351.035 191.464 354.183 192.241 Z M 365.1 198.76 C 365.1 198.76 365.541 201.066 362.263 201.934 C 360.959 202.281 359.941 202.581 359.156 202.939 C 360.244 201.813 360.893 199.778 360.807 197.662 C 362.78 197.085 364.636 197.41 365.102 198.757 L 365.1 198.76 Z M 357.879 203.748 C 357.452 204.149 357.159 204.636 356.973 205.271 C 356.453 207.033 355.355 205.631 355.312 204.281 C 355.761 204.175 356.088 203.918 356.143 203.531 C 356.281 203.623 356.432 203.701 356.597 203.768 C 357.049 203.88 357.479 203.866 357.88 203.75 L 357.88 203.747 L 357.879 203.747 L 357.879 203.748 Z M 357.211 206.952 C 357.211 206.952 356.767 204.647 360.048 203.778 C 363.325 202.907 364.784 202.32 365.338 200.441 C 365.893 198.563 367.109 200.287 366.997 201.705 C 366.516 207.8 358.269 210.019 357.214 206.955 L 357.211 206.952 Z M 356.781 203.313 C 356.781 203.313 354.605 202.433 355.652 199.21 C 356.7 195.984 356.998 194.441 355.72 192.956 C 354.443 191.47 356.551 191.386 357.682 192.249 C 362.54 195.96 359.926 204.092 356.781 203.315 L 356.781 203.313 L 356.781 203.313 Z"/></g></g><g style="mix-blend-mode:normal" opacity=".37"><path d="M 351.04 58 L 418.96 58 C 420.086 58 421 58.914 421 60.04 L 421 123.96 C 421 125.086 420.086 126 418.96 126 L 351.04 126 C 349.914 126 349 125.086 349 123.96 L 349 60.04 C 349 58.914 349.914 58 351.04 58 Z" style="stroke:none;fill:#ebebeb;stroke-miterlimit:10"/></g><path fill="#FFF" fill-rule="evenodd" d="M 358.176 114.376 C 356.592 114.376 355.476 113.8 354.828 112.576 L 354.72 112.576 L 354.72 119.164 C 355.764 119.416 356.916 119.56 358.176 119.56 C 364.044 119.56 367.572 117.004 367.572 110.02 L 367.572 94.72 L 362.172 94.72 L 362.172 109.588 C 362.172 112.144 362.028 114.376 358.176 114.376 Z M 381.036 115.384 C 378.372 115.384 376.068 114.052 375.924 111.136 L 370.452 111.136 C 370.488 117.112 375.42 119.776 380.82 119.776 C 385.824 119.776 390.972 117.652 390.972 111.892 C 390.972 102.568 376.824 105.7 376.824 101.344 C 376.824 99.508 378.948 98.788 380.46 98.788 C 383.16 98.788 384.636 99.616 384.924 102.172 L 390.144 102.172 C 389.964 96.592 385.428 94.36 380.388 94.36 C 375.924 94.36 371.244 96.736 371.244 101.776 C 371.244 110.812 385.392 107.752 385.392 112.504 C 385.392 114.7 382.728 115.384 381.036 115.384 Z"/></g></g></svg>