<svg xmlns="http://www.w3.org/2000/svg" xmlns:xlink="http://www.w3.org/1999/xlink" style="isolation:isolate" width="500" height="300" viewBox="0 0 500 300"><defs><clipPath id="_clipPath_YZYL0aKlCncnCQOntZQTIVm9nFNLGv7Y"><rect width="500" height="300"/></clipPath></defs><g clip-path="url(#_clipPath_YZYL0aKlCncnCQOntZQTIVm9nFNLGv7Y)"><g id="Group"><g id="Group"><g id="Group"><linearGradient id="_lgradient_16" x1="0%" x2="100%" y1="50%" y2="50%"><stop offset=".87%" stop-opacity="1" style="stop-color:#009688"/><stop offset="97.826%" stop-opacity="1" style="stop-color:#02ceba"/></linearGradient><rect width="500" height="304" x="0" y="0" fill="url(#_lgradient_16)" transform="matrix(1,0,0,1,0,0)"/></g></g><g id="python" style="opacity:.83"><rect width="86.625" height="53.87" x="338.688" y="202.564" fill="#FFF" transform="matrix(1,0,0,1,0,0)"/><g id="Group"><path fill="#AAC1CE" d="M 424.625 203.128 L 424.625 255.872 L 339.375 255.872 L 339.375 203.128 L 424.625 203.128 Z M 426 202 L 338 202 L 338 257 L 426 257 L 426 202 Z"/><rect width="86.941" height="1.128" x="338.516" y="211.282" fill="#AAC1CE" transform="matrix(1,0,0,1,0,0)"/></g><path fill="#E04F5F" d="M 344.101 207.284 C 344.101 206.304 345.07 205.508 346.264 205.508 C 347.457 205.508 348.427 206.304 348.427 207.284 C 348.427 208.263 347.457 209.059 346.264 209.059 C 345.07 209.059 344.101 208.263 344.101 207.284 Z"/><path fill="#25B6D2" d="M 351.188 207.284 C 351.188 206.304 352.157 205.508 353.351 205.508 C 354.544 205.508 355.513 206.304 355.513 207.284 C 355.513 208.263 354.544 209.059 353.351 209.059 C 352.157 209.059 351.188 208.263 351.188 207.284 Z"/><path fill="#32BEA6" d="M 358.279 207.284 C 358.279 206.304 359.248 205.508 360.441 205.508 C 361.635 205.508 362.604 206.304 362.604 207.284 C 362.604 208.263 361.635 209.059 360.441 209.059 C 359.248 209.059 358.279 208.263 358.279 207.284 Z"/><g id="Group"><path fill="#415E72" d="M 357.397 228.307 C 358.422 228.17 359.46 228.105 360.498 228.118 C 361.664 228.044 362.824 228.308 363.78 228.862 C 364.492 229.367 364.891 230.106 364.868 230.878 C 364.913 231.649 364.564 232.399 363.905 232.949 C 362.934 233.638 361.673 233.989 360.392 233.924 C 360.061 233.928 359.729 233.91 359.402 233.869 L 359.402 237.307 L 357.397 237.307 C 357.397 237.307 357.397 228.307 357.397 228.307 Z M 359.409 232.557 C 359.735 232.612 360.066 232.636 360.399 232.626 C 361.911 232.626 362.839 232.017 362.839 230.948 C 362.839 229.932 361.981 229.391 360.579 229.391 C 360.186 229.384 359.794 229.411 359.407 229.472 L 359.409 232.557 Z"/><path fill="#415E72" d="M 367.908 230.715 L 369.36 234.248 C 369.525 234.654 369.69 235.15 369.805 235.534 L 369.853 235.534 C 369.991 235.155 370.128 234.667 370.284 234.235 L 371.536 230.717 L 373.713 230.717 L 371.701 235.209 C 370.601 237.674 369.853 238.768 368.898 239.445 C 368.308 239.897 367.567 240.194 366.77 240.298 L 366.309 238.891 C 366.736 238.801 367.139 238.644 367.495 238.431 C 367.959 238.161 368.335 237.805 368.595 237.389 C 368.669 237.3 368.716 237.197 368.733 237.09 C 368.727 236.976 368.687 236.864 368.617 236.766 L 365.682 230.717 L 367.908 230.715 Z"/><path fill="#415E72" d="M 377.214 228.834 L 377.214 230.715 L 379.139 230.715 L 379.139 231.957 L 377.214 231.957 L 377.214 234.866 C 377.214 235.665 377.478 236.085 378.253 236.085 C 378.52 236.087 378.785 236.06 379.044 236.003 L 379.077 237.275 C 378.602 237.397 378.106 237.452 377.61 237.439 C 376.961 237.465 376.328 237.268 375.862 236.898 C 375.379 236.37 375.155 235.713 375.235 235.057 L 375.235 231.961 L 374.08 231.961 L 374.08 230.72 L 375.234 230.72 L 375.234 229.227 L 377.214 228.834 Z"/><path fill="#415E72" d="M 380.68 227.694 L 382.723 227.694 L 382.723 231.62 L 382.756 231.62 C 383.008 231.301 383.353 231.04 383.761 230.862 C 384.184 230.663 384.662 230.561 385.147 230.564 C 386.522 230.564 387.951 231.308 387.951 233.419 L 387.951 237.303 L 385.924 237.303 L 385.924 233.612 C 385.924 232.651 385.495 231.934 384.375 231.934 C 383.661 231.934 383.029 232.311 382.807 232.869 C 382.743 233.03 382.714 233.199 382.723 233.368 L 382.723 237.307 L 380.68 237.307 L 380.68 227.694 Z"/><path fill="#415E72" d="M 397.753 233.951 C 397.916 235.75 396.271 237.316 394.079 237.449 C 393.93 237.458 393.778 237.46 393.628 237.456 C 391.485 237.524 389.682 236.152 389.6 234.393 C 389.594 234.281 389.597 234.17 389.605 234.059 C 389.442 232.267 391.078 230.705 393.261 230.571 C 393.428 230.561 393.594 230.559 393.76 230.566 C 395.885 230.498 397.676 231.854 397.76 233.599 C 397.766 233.716 397.763 233.833 397.753 233.951 Z M 391.703 234.02 C 391.703 235.291 392.462 236.253 393.699 236.253 C 394.852 236.253 395.661 235.32 395.661 233.996 C 395.661 232.968 395.1 231.79 393.715 231.79 C 392.278 231.785 391.702 232.923 391.702 234.014 L 391.703 234.02 Z"/><path fill="#415E72" d="M 399.424 232.679 C 399.424 231.921 399.406 231.285 399.357 230.717 L 401.144 230.717 L 401.242 231.705 L 401.291 231.705 C 401.833 230.977 402.808 230.543 403.847 230.568 C 405.25 230.568 406.701 231.311 406.701 233.397 L 406.701 237.308 L 404.667 237.308 L 404.667 233.584 C 404.667 232.636 404.238 231.918 403.134 231.918 C 402.406 231.932 401.771 232.323 401.551 232.892 C 401.488 233.068 401.459 233.251 401.467 233.434 L 401.467 237.305 L 399.424 237.305 L 399.424 232.679 L 399.424 232.679 Z"/></g></g><g id="icon"><g id="Group"><g id="Group"><path fill="#FFF" d="M 275.662 147.588 C 287.658 142.488 289.446 103.672 282.369 92.239 C 273.124 77.313 229.177 80.31 215.3 90.979 C 213.707 96.278 213.874 105.896 213.948 113.541 L 257.505 113.541 L 257.505 117.12 L 213.957 117.12 C 213.957 117.172 194.568 117.233 194.568 117.233 C 161.136 117.233 161.831 185.327 205.944 185.327 C 205.944 185.327 207.565 170.245 210.4 162.687 C 219.154 139.361 255.931 155.98 275.662 147.588 Z M 230.057 108.015 C 225.036 108.015 220.97 104.202 220.97 99.484 C 220.97 94.775 225.036 90.953 230.057 90.953 C 235.087 90.953 239.154 94.775 239.154 99.484 C 239.163 104.193 235.087 108.015 230.057 108.015 Z"/><path fill="#FFF" d="M 292.54 118.666 C 292.54 118.666 291.382 133.757 288.548 141.307 C 279.794 164.624 243.026 148.013 223.286 156.406 C 211.299 161.505 209.492 200.322 216.579 211.755 C 225.815 226.689 269.761 223.692 283.647 213.015 C 285.241 207.724 285.074 198.107 285 190.461 L 241.433 190.461 L 241.433 186.882 L 284.981 186.882 C 284.981 186.83 306.445 186.769 306.445 186.769 C 337.256 186.769 340.016 118.666 292.54 118.666 Z M 267.325 194.501 C 272.346 194.501 276.422 198.315 276.422 203.032 C 276.422 207.741 272.346 211.555 267.325 211.555 C 262.304 211.555 258.237 207.741 258.237 203.032 C 258.237 198.315 262.304 194.501 267.325 194.501 Z"/></g></g></g></g></g></svg>