<svg xmlns="http://www.w3.org/2000/svg" xmlns:xlink="http://www.w3.org/1999/xlink" style="isolation:isolate" width="500" height="300" viewBox="0 0 500 300"><defs><clipPath id="_clipPath_UMGkmOnyDoafBA9TakTTcddZpjTnnnyD"><rect width="500" height="300"/></clipPath></defs><g clip-path="url(#_clipPath_UMGkmOnyDoafBA9TakTTcddZpjTnnnyD)"><g id="Group"><g id="Group"><g id="Group"><linearGradient id="_lgradient_17" x1="0%" x2="100%" y1="50%" y2="50%"><stop offset=".87%" stop-opacity="1" style="stop-color:#90f"/><stop offset="97.391%" stop-opacity="1" style="stop-color:#4a86e8"/></linearGradient><rect width="500" height="304" x="0" y="0" fill="url(#_lgradient_17)" transform="matrix(1,0,0,1,0,0)"/></g></g><g id="Group"><g id="Group"><path fill="#EBEBEB" fill-opacity=".07" d="M 124.447 244.91 C 124.447 241.112 129.703 238.028 136.178 238.028 C 142.652 238.028 147.908 241.112 147.908 244.91 C 147.908 248.708 142.652 251.791 136.178 251.791 C 129.703 251.791 124.447 248.708 124.447 244.91 Z"/></g><g id="Group"><path fill="#FAD24D" d="M 125.45 214.681 L 150.268 214.681 L 148.529 235.456 L 147.677 246.568 L 128.12 246.568 L 125.451 214.681 L 125.45 214.681 L 125.45 214.681 Z"/><path fill="#EDB937" d="M 125.214 214.414 L 150.679 214.414 L 150.517 216.311 L 125.378 216.311 L 125.214 214.414 Z"/><path fill="#ED4C54" d="M 130.22 208 L 144.85 208 C 145.562 208 146.145 208.59 146.145 209.312 L 146.145 210.623 L 128.925 210.623 L 128.925 209.312 C 128.926 208.59 129.508 208 130.22 208 Z"/><path fill="#FF5B62" d="M 125.878 210.623 L 150.015 210.623 C 150.803 210.623 151.447 211.276 151.447 212.073 L 151.447 215.332 C 151.447 215.349 151.433 215.362 151.417 215.362 L 124.477 215.362 C 124.46 215.362 124.447 215.349 124.447 215.332 L 124.447 212.073 C 124.447 211.275 125.091 210.623 125.878 210.623 Z"/><path fill="#FFF" d="M 149.192 222.646 Q 149.78 222.646 148.78 230.918 C 148.688 231.549 127.019 231.67 126.928 231.035 L 126.105 223.81 Q 126.014 223.176 149.192 222.646 Z"/><path fill="#EDB937" d="M 135.635 224.783 C 135.635 224.783 136.531 225.15 136.099 226.495 C 135.667 227.84 135.545 228.484 136.071 229.103 C 136.596 229.723 135.729 229.758 135.263 229.398 C 133.264 227.851 134.34 224.459 135.635 224.783 Z M 140.129 227.502 C 140.129 227.502 140.311 228.463 138.961 228.826 C 138.424 228.97 138.006 229.095 137.682 229.244 C 138.13 228.775 138.398 227.926 138.362 227.044 C 139.174 226.803 139.938 226.939 140.13 227.501 L 140.129 227.502 Z M 137.157 229.582 C 136.981 229.749 136.861 229.952 136.784 230.217 C 136.57 230.952 136.118 230.367 136.1 229.804 C 136.285 229.76 136.42 229.653 136.442 229.491 C 136.499 229.53 136.561 229.562 136.629 229.59 C 136.815 229.637 136.992 229.631 137.157 229.583 L 137.157 229.582 L 137.157 229.582 L 137.157 229.582 Z M 136.882 230.918 C 136.882 230.918 136.699 229.957 138.05 229.595 C 139.398 229.231 139.999 228.986 140.227 228.203 C 140.455 227.42 140.956 228.139 140.91 228.73 C 140.712 231.272 137.317 232.197 136.883 230.92 L 136.882 230.918 Z M 136.705 229.4 C 136.705 229.4 135.809 229.034 136.24 227.689 C 136.671 226.344 136.794 225.701 136.268 225.081 C 135.742 224.461 136.61 224.426 137.076 224.786 C 139.075 226.334 137.999 229.725 136.705 229.401 L 136.705 229.4 L 136.705 229.4 Z"/></g></g><path fill="none" stroke="#FFF" stroke-linecap="square" stroke-linejoin="miter" stroke-miterlimit="3" stroke-width="1" d="M 130 140 C 130 100.538 170.53 86 234 86 C 297.47 86 367.12 129.359 380 168 C 386 186 391 223 354 237 C 328.432 249.902 271.554 229 234 229 C 170.53 229 130 179.462 130 140 Z" vector-effect="non-scaling-stroke"/><g id="Group"><path fill="#464646" fill-opacity=".19" d="M 151.447 236.693 C 151.447 210.85 186.939 189.868 230.657 189.868 C 274.374 189.868 309.867 210.85 309.867 236.693 C 309.867 262.536 274.374 283.518 230.657 283.518 C 186.939 283.518 151.447 262.536 151.447 236.693 Z"/><path fill="#666" d="M 182.349 163 L 288.645 163 C 292.137 163 294.994 165.683 294.994 168.962 L 294.994 230.451 L 176 230.451 L 176 168.962 C 176 165.683 178.857 163 182.349 163 Z"/><path fill="#FFF" d="M 180.311 226.403 L 290.683 226.403 L 290.683 168.962 C 290.683 167.918 289.758 167.049 288.645 167.049 L 182.349 167.049 C 181.237 167.049 180.312 167.918 180.312 168.962 L 180.312 226.403 L 180.311 226.403 Z"/><path fill="#FFF" d="M 294.995 230.451 L 294.995 236.972 C 294.995 240.252 291.846 242.935 287.995 242.935 L 183 242.935 C 179.149 242.935 176 240.252 176 236.972 L 176 230.451 L 294.995 230.451 Z"/><path fill="#F90" d="M 204.414 226.404 L 204.414 167.05 L 182.348 167.05 C 181.236 167.05 180.311 167.919 180.311 168.963 L 180.311 226.403 L 204.413 226.403 L 204.414 226.404 L 204.414 226.404 Z"/><path fill="#FFF" d="M 185.168 174.05 L 200.209 174.05 L 200.209 175.781 L 185.168 175.781 L 185.168 174.05 Z M 185.168 215.717 L 200.209 215.717 L 200.209 217.449 L 185.168 217.449 L 185.168 215.717 Z M 185.168 207.384 L 197.788 207.384 L 197.788 209.115 L 185.168 209.115 L 185.168 207.384 Z M 185.168 199.05 L 200.209 199.05 L 200.209 200.782 L 185.168 200.782 L 185.168 199.05 Z M 185.168 190.716 L 194.561 190.716 L 194.561 192.448 L 185.168 192.448 L 185.168 190.716 Z M 185.168 182.382 L 195.483 182.382 L 195.483 184.114 L 185.168 184.114 C 185.168 184.114 185.168 182.382 185.168 182.382 Z"/><rect width="13.948" height="1.713" x="209.428" y="173.889" fill="#FAD24D" transform="matrix(1,0,0,1,0,0)"/><rect width="20.698" height="1.713" x="226.023" y="173.889" fill="#FF5B62" transform="matrix(1,0,0,1,0,0)"/><rect width="13.948" height="1.713" x="209.428" y="179.435" fill="#21D0C3" transform="matrix(1,0,0,1,0,0)"/><rect width="24.947" height="1.713" x="226.023" y="179.435" fill="#FF5B62" transform="matrix(1,0,0,1,0,0)"/><rect width="3.625" height="1.713" x="252.935" y="179.435" fill="#FAD24D" transform="matrix(1,0,0,1,0,0)"/><rect width="9.219" height="1.713" x="209.428" y="184.981" fill="#FF5B62" transform="matrix(1,0,0,1,0,0)"/><rect width="18.627" height="1.713" x="221.343" y="184.981" fill="#21D0C3" transform="matrix(1,0,0,1,0,0)"/><rect width="13.948" height="1.713" x="242.615" y="184.981" fill="#FAD24D" transform="matrix(1,0,0,1,0,0)"/><rect width="13.948" height="1.713" x="209.428" y="190.527" fill="#FAD24D" transform="matrix(1,0,0,1,0,0)"/><rect width="29.297" height="1.713" x="226.851" y="190.527" fill="#FF5B62" transform="matrix(1,0,0,1,0,0)"/><rect width="12.223" height="1.713" x="257.599" y="190.527" fill="#21D0C3" transform="matrix(1,0,0,1,0,0)"/><rect width="17.136" height="1.713" x="209.428" y="196.073" fill="#FF5B62" transform="matrix(1,0,0,1,0,0)"/><rect width="17.136" height="1.713" x="229.815" y="196.073" fill="#21D0C3" transform="matrix(1,0,0,1,0,0)"/><rect width="17.136" height="1.713" x="250.199" y="196.073" fill="#FAD24D" transform="matrix(1,0,0,1,0,0)"/><rect width="13.948" height="1.713" x="209.428" y="201.619" fill="#FAD24D" transform="matrix(1,0,0,1,0,0)"/><rect width="8.366" height="1.713" x="226.023" y="201.619" fill="#21D0C3" transform="matrix(1,0,0,1,0,0)"/><rect width="8.366" height="1.713" x="235.975" y="201.619" fill="#FF5B62" transform="matrix(1,0,0,1,0,0)"/><path fill="#C2C2C4" d="M 248.804 252.031 L 258.593 254.976 L 212.403 254.976 L 220.3 252.031 L 220.3 242.936 L 248.804 242.936 L 248.804 252.031 Z"/><path fill="#B0B0B0" d="M 248.804 252.031 L 220.3 242.936 L 248.804 242.936 L 248.804 252.031 Z"/><path fill="#ECF0F1" d="M 220.3 252.031 L 248.804 252.031 L 258.593 254.976 L 258.593 256.245 L 235.498 256.245 L 212.401 256.245 L 212.401 254.976 L 220.299 252.031 L 220.3 252.031 Z"/><path fill="#B6B6B8" d="M 233.377 236.695 C 233.377 235.596 234.326 234.704 235.496 234.704 C 236.666 234.704 237.615 235.596 237.615 236.695 C 237.615 237.793 236.666 238.685 235.496 238.685 C 234.326 238.685 233.377 237.793 233.377 236.695 Z"/></g><g id="hosting"><linearGradient id="_lgradient_18" x1="49.999%" x2="49.999%" y1="-1869.797%" y2="1298.803%"><stop offset="0%" stop-opacity="1" style="stop-color:#fc5c7d"/><stop offset="12.9%" stop-opacity="1" style="stop-color:#f35e85"/><stop offset="34.3%" stop-opacity="1" style="stop-color:#d9659b"/><stop offset="61.6%" stop-opacity="1" style="stop-color:#b070bf"/><stop offset="93.4%" stop-opacity="1" style="stop-color:#777ff0"/><stop offset="100%" stop-opacity="1" style="stop-color:#6a82fb"/></linearGradient><path fill="url(#_lgradient_18)" d="M 230.964 79.835 L 236.614 79.835 L 236.614 82.968 L 230.964 82.968 L 230.964 79.835 Z"/><linearGradient id="_lgradient_19" x1="49.999%" x2="49.999%" y1="-1869.797%" y2="1298.803%"><stop offset="0%" stop-opacity="1" style="stop-color:#fc5c7d"/><stop offset="12.9%" stop-opacity="1" style="stop-color:#f35e85"/><stop offset="34.3%" stop-opacity="1" style="stop-color:#d9659b"/><stop offset="61.6%" stop-opacity="1" style="stop-color:#b070bf"/><stop offset="93.4%" stop-opacity="1" style="stop-color:#777ff0"/><stop offset="100%" stop-opacity="1" style="stop-color:#6a82fb"/></linearGradient><path fill="url(#_lgradient_19)" d="M 240.381 79.835 L 246.03 79.835 L 246.03 82.968 L 240.381 82.968 L 240.381 79.835 L 240.381 79.835 Z"/><linearGradient id="_lgradient_20" x1="49.999%" x2="49.999%" y1="-2269.797%" y2="898.803%"><stop offset="0%" stop-opacity="1" style="stop-color:#fc5c7d"/><stop offset="12.9%" stop-opacity="1" style="stop-color:#f35e85"/><stop offset="34.3%" stop-opacity="1" style="stop-color:#d9659b"/><stop offset="61.6%" stop-opacity="1" style="stop-color:#b070bf"/><stop offset="93.4%" stop-opacity="1" style="stop-color:#777ff0"/><stop offset="100%" stop-opacity="1" style="stop-color:#6a82fb"/></linearGradient><path fill="url(#_lgradient_20)" d="M 230.964 92.368 L 236.614 92.368 L 236.614 95.501 L 230.964 95.501 L 230.964 92.368 Z"/><linearGradient id="_lgradient_21" x1="49.999%" x2="49.999%" y1="-2269.797%" y2="898.803%"><stop offset="0%" stop-opacity="1" style="stop-color:#fc5c7d"/><stop offset="12.9%" stop-opacity="1" style="stop-color:#f35e85"/><stop offset="34.3%" stop-opacity="1" style="stop-color:#d9659b"/><stop offset="61.6%" stop-opacity="1" style="stop-color:#b070bf"/><stop offset="93.4%" stop-opacity="1" style="stop-color:#777ff0"/><stop offset="100%" stop-opacity="1" style="stop-color:#6a82fb"/></linearGradient><path fill="url(#_lgradient_21)" d="M 240.381 92.368 L 246.03 92.368 L 246.03 95.501 L 240.381 95.501 L 240.381 92.368 L 240.381 92.368 Z"/><linearGradient id="_lgradient_22" x1="49.999%" x2="49.999%" y1="-2669.797%" y2="498.803%"><stop offset="0%" stop-opacity="1" style="stop-color:#fc5c7d"/><stop offset="12.9%" stop-opacity="1" style="stop-color:#f35e85"/><stop offset="34.3%" stop-opacity="1" style="stop-color:#d9659b"/><stop offset="61.6%" stop-opacity="1" style="stop-color:#b070bf"/><stop offset="93.4%" stop-opacity="1" style="stop-color:#777ff0"/><stop offset="100%" stop-opacity="1" style="stop-color:#6a82fb"/></linearGradient><path fill="url(#_lgradient_22)" d="M 230.964 104.901 L 236.614 104.901 L 236.614 108.034 L 230.964 108.034 L 230.964 104.901 Z"/><g id="Group"><linearGradient id="_lgradient_23" x1="49.999%" x2="49.999%" y1="-2669.797%" y2="498.803%"><stop offset="0%" stop-opacity="1" style="stop-color:#fc5c7d"/><stop offset="12.9%" stop-opacity="1" style="stop-color:#f35e85"/><stop offset="34.3%" stop-opacity="1" style="stop-color:#d9659b"/><stop offset="61.6%" stop-opacity="1" style="stop-color:#b070bf"/><stop offset="93.4%" stop-opacity="1" style="stop-color:#777ff0"/><stop offset="100%" stop-opacity="1" style="stop-color:#6a82fb"/></linearGradient><path fill="url(#_lgradient_23)" d="M 240.381 104.901 L 246.03 104.901 L 246.03 108.034 L 240.381 108.034 L 240.381 104.901 L 240.381 104.901 Z"/><path fill="#FFF" d="M 270.512 44.803 C 269.423 44.803 268.334 44.864 267.254 44.984 C 262.18 30.901 244.341 22.906 227.411 27.128 C 214.501 30.347 205.399 39.95 204.648 51.144 C 204.006 51.094 203.36 51.069 202.716 51.069 C 191.275 51.069 182 58.785 182 68.302 C 182 77.819 191.275 85.535 202.716 85.535 L 210.249 85.535 L 210.249 105.901 C 210.432 107.949 211.85 109.781 214.015 110.768 L 214.015 118.433 C 214.015 119.299 214.858 120 215.898 120 L 223.431 120 C 224.061 120 224.649 119.739 224.998 119.303 L 228.665 114.728 C 235.188 115.491 241.807 115.491 248.33 114.728 L 251.996 119.303 C 252.346 119.739 252.934 120 253.563 120 L 261.096 120 C 262.136 120 262.979 119.299 262.979 118.433 L 262.979 110.768 C 265.145 109.781 266.562 107.949 266.746 105.901 L 266.746 85.535 L 270.512 85.535 C 284.034 85.535 294.995 76.417 294.995 65.169 C 294.995 53.921 284.033 44.803 270.512 44.803 Z M 230.964 68.302 L 230.964 62.372 C 232.733 62.216 234.623 62.107 236.614 62.059 L 236.614 68.302 L 240.381 68.302 L 240.381 62.065 C 242.371 62.107 244.262 62.211 246.03 62.379 L 246.03 68.302 L 249.797 68.302 L 249.797 62.819 C 258.066 64.047 262.979 66.464 262.979 68.302 C 262.979 70.857 253.443 74.568 238.497 74.568 C 223.552 74.568 214.015 70.857 214.015 68.302 C 214.015 66.472 218.929 64.055 227.198 62.819 L 227.198 68.302 L 230.964 68.302 L 230.964 68.302 Z M 214.13 73.232 C 214.525 73.453 214.951 73.663 215.394 73.868 L 215.8 74.05 C 216.237 74.241 216.693 74.426 217.173 74.603 L 217.362 74.675 C 217.902 74.869 218.471 75.052 219.057 75.229 L 219.535 75.369 C 220.036 75.513 220.55 75.652 221.077 75.784 L 221.428 75.872 C 222.063 76.025 222.715 76.168 223.384 76.301 C 223.546 76.334 223.71 76.364 223.874 76.395 C 224.429 76.499 224.994 76.6 225.569 76.696 L 226.055 76.776 C 226.755 76.88 227.466 76.979 228.188 77.073 L 228.635 77.125 C 229.244 77.197 229.858 77.262 230.477 77.321 C 230.665 77.34 230.853 77.358 231.042 77.374 C 231.795 77.44 232.537 77.498 233.29 77.543 L 233.591 77.559 C 234.258 77.597 234.929 77.626 235.599 77.648 L 236.213 77.667 C 236.978 77.687 237.74 77.702 238.501 77.702 C 239.262 77.702 240.025 77.687 240.789 77.667 L 241.403 77.648 C 242.074 77.626 242.744 77.597 243.411 77.559 L 243.712 77.543 C 244.465 77.498 245.219 77.44 245.961 77.374 C 246.149 77.358 246.337 77.34 246.526 77.321 C 247.145 77.263 247.757 77.199 248.365 77.127 L 248.814 77.073 C 249.534 76.985 250.246 76.885 250.947 76.776 L 251.433 76.696 C 252.007 76.602 252.572 76.502 253.128 76.395 C 253.292 76.364 253.456 76.334 253.618 76.301 C 254.286 76.167 254.938 76.024 255.575 75.872 L 255.925 75.784 C 256.452 75.652 256.966 75.513 257.469 75.369 C 257.627 75.323 257.787 75.278 257.944 75.229 C 258.529 75.052 259.098 74.869 259.639 74.675 L 259.827 74.603 C 260.307 74.426 260.769 74.241 261.2 74.05 L 261.607 73.868 C 262.049 73.663 262.475 73.453 262.87 73.232 C 262.902 73.213 262.94 73.196 262.974 73.177 L 262.985 73.177 L 262.985 80.835 C 262.985 83.39 253.448 87.101 238.503 87.101 C 223.558 87.101 214.021 83.39 214.021 80.835 L 214.021 73.171 L 214.032 73.171 C 214.06 73.196 214.098 73.213 214.13 73.232 L 214.13 73.232 Z M 214.015 85.704 L 214.026 85.704 C 214.06 85.723 214.098 85.74 214.13 85.759 C 214.525 85.979 214.951 86.189 215.394 86.395 L 215.8 86.576 C 216.237 86.768 216.693 86.952 217.173 87.129 L 217.362 87.201 C 217.902 87.396 218.471 87.579 219.057 87.756 L 219.535 87.895 C 220.036 88.04 220.55 88.179 221.077 88.311 L 221.428 88.398 C 222.063 88.552 222.715 88.695 223.384 88.828 C 223.546 88.86 223.71 88.89 223.874 88.922 C 224.429 89.026 224.994 89.126 225.569 89.222 L 226.055 89.302 C 226.755 89.407 227.466 89.506 228.188 89.6 L 228.635 89.652 C 229.244 89.724 229.858 89.789 230.477 89.847 C 230.665 89.866 230.853 89.885 231.042 89.901 C 231.795 89.967 232.537 90.024 233.29 90.07 L 233.591 90.086 C 234.258 90.123 234.929 90.153 235.599 90.175 L 236.213 90.194 C 236.978 90.214 237.74 90.228 238.501 90.228 C 239.262 90.228 240.025 90.214 240.789 90.194 L 241.403 90.175 C 242.074 90.153 242.744 90.123 243.411 90.086 L 243.712 90.07 C 244.465 90.024 245.219 89.967 245.961 89.901 C 246.149 89.885 246.337 89.866 246.526 89.847 C 247.145 89.789 247.757 89.725 248.365 89.653 L 248.814 89.6 C 249.534 89.511 250.246 89.412 250.947 89.302 L 251.433 89.222 C 252.007 89.128 252.572 89.028 253.128 88.922 C 253.292 88.89 253.456 88.86 253.618 88.828 C 254.286 88.694 254.938 88.551 255.575 88.398 L 255.925 88.311 C 256.452 88.179 256.966 88.04 257.469 87.895 C 257.627 87.85 257.787 87.805 257.944 87.756 C 258.529 87.579 259.098 87.396 259.639 87.201 L 259.827 87.129 C 260.307 86.952 260.769 86.768 261.2 86.576 L 261.607 86.395 C 262.049 86.189 262.475 85.979 262.87 85.759 C 262.902 85.74 262.94 85.723 262.974 85.704 L 262.985 85.704 L 262.985 93.368 C 262.985 95.923 253.448 99.634 238.503 99.634 C 223.558 99.634 214.021 95.923 214.021 93.368 L 214.015 85.704 Z M 222.424 116.867 L 217.782 116.867 L 217.782 112.413 C 219.995 113.154 222.283 113.727 224.62 114.127 L 222.424 116.867 Z M 259.213 116.867 L 254.571 116.867 L 252.375 114.127 C 254.711 113.727 257 113.154 259.213 112.413 L 259.213 116.867 Z M 262.979 105.901 C 262.979 108.456 253.443 112.167 238.497 112.167 C 223.552 112.167 214.015 108.456 214.015 105.901 L 214.015 98.237 L 214.026 98.237 C 214.06 98.255 214.098 98.273 214.13 98.291 C 214.525 98.512 214.951 98.722 215.394 98.928 L 215.8 99.109 C 216.237 99.3 216.693 99.485 217.173 99.662 L 217.362 99.734 C 217.902 99.929 218.471 100.112 219.057 100.289 L 219.535 100.428 C 220.036 100.572 220.55 100.712 221.077 100.843 L 221.428 100.931 C 222.063 101.085 222.715 101.228 223.384 101.36 C 223.546 101.393 223.71 101.423 223.874 101.454 C 224.429 101.559 224.994 101.659 225.569 101.755 L 226.055 101.835 C 226.755 101.94 227.466 102.039 228.188 102.133 L 228.635 102.185 C 229.244 102.257 229.858 102.322 230.477 102.38 C 230.665 102.399 230.853 102.418 231.042 102.434 C 231.795 102.499 232.537 102.557 233.29 102.603 L 233.591 102.618 C 234.258 102.656 234.929 102.686 235.599 102.708 L 236.213 102.727 C 236.978 102.747 237.74 102.761 238.501 102.761 C 239.262 102.761 240.025 102.747 240.789 102.727 L 241.403 102.708 C 242.074 102.686 242.744 102.656 243.411 102.618 L 243.712 102.603 C 244.465 102.557 245.219 102.499 245.961 102.434 C 246.149 102.418 246.337 102.399 246.526 102.38 C 247.145 102.322 247.757 102.258 248.365 102.186 L 248.814 102.133 C 249.534 102.044 250.246 101.945 250.947 101.835 L 251.433 101.755 C 252.007 101.661 252.572 101.561 253.128 101.454 C 253.292 101.423 253.456 101.393 253.618 101.36 C 254.286 101.227 254.938 101.084 255.575 100.931 L 255.925 100.843 C 256.452 100.712 256.966 100.572 257.469 100.428 C 257.627 100.383 257.787 100.337 257.944 100.289 C 258.529 100.112 259.098 99.929 259.639 99.734 L 259.827 99.662 C 260.307 99.485 260.769 99.3 261.2 99.109 L 261.607 98.928 C 262.049 98.722 262.475 98.512 262.87 98.291 C 262.902 98.273 262.94 98.255 262.974 98.237 L 262.985 98.237 L 262.979 105.901 Z M 270.512 82.401 L 266.746 82.401 L 266.746 68.302 C 266.746 63.897 259.16 60.964 249.797 59.668 L 249.797 57.984 L 253.027 55.299 C 253.78 55.606 254.607 55.766 255.446 55.769 C 258.567 55.769 261.096 53.665 261.096 51.069 C 261.096 48.473 258.567 46.369 255.446 46.369 C 252.326 46.369 249.797 48.473 249.797 51.069 C 249.8 51.767 249.993 52.455 250.362 53.082 L 246.58 56.228 C 246.228 56.522 246.03 56.92 246.03 57.336 L 246.03 59.234 C 244.17 59.07 242.275 58.971 240.381 58.93 L 240.381 45.458 L 243.61 42.766 C 244.364 43.073 245.191 43.233 246.03 43.236 C 249.151 43.236 251.68 41.132 251.68 38.536 C 251.68 35.941 249.151 33.836 246.03 33.836 C 242.91 33.836 240.381 35.941 240.381 38.536 C 240.384 39.234 240.577 39.922 240.946 40.549 L 237.164 43.695 C 236.812 43.989 236.614 44.388 236.614 44.803 L 236.614 58.93 C 234.72 58.971 232.825 59.07 230.964 59.234 L 230.964 52.636 C 230.964 52.22 230.766 51.822 230.413 51.528 L 226.633 48.382 C 227.002 47.755 227.195 47.067 227.198 46.369 C 227.198 43.774 224.668 41.669 221.548 41.669 C 218.428 41.669 215.898 43.774 215.898 46.369 C 215.898 48.965 218.428 51.069 221.548 51.069 L 221.548 51.069 C 222.387 51.066 223.214 50.906 223.968 50.599 L 227.198 53.284 L 227.198 59.668 C 217.834 60.964 210.249 63.898 210.249 68.302 L 210.249 82.401 L 202.716 82.401 C 193.355 82.401 185.766 76.089 185.766 68.302 C 185.766 60.515 193.355 54.202 202.716 54.202 C 203.861 54.203 205.004 54.299 206.126 54.489 C 207.145 54.662 208.14 54.115 208.348 53.268 C 208.373 53.164 208.386 53.058 208.386 52.952 C 208.386 52.863 208.386 52.772 208.367 52.639 C 208.361 39.668 220.997 29.148 236.59 29.143 C 249.643 29.139 260.997 36.578 264.051 47.135 C 264.288 47.959 265.269 48.476 266.266 48.304 C 277.462 46.347 288.446 52.312 290.798 61.626 C 293.15 70.939 285.98 80.076 274.784 82.033 C 273.379 82.279 271.948 82.402 270.512 82.401 Z M 253.563 51.069 C 253.563 50.204 254.406 49.503 255.446 49.503 C 256.486 49.503 257.33 50.204 257.33 51.069 C 257.33 51.934 256.486 52.636 255.446 52.636 C 254.406 52.636 253.563 51.935 253.563 51.069 Z M 244.147 38.536 C 244.147 37.671 244.99 36.97 246.03 36.97 C 247.07 36.97 247.914 37.671 247.914 38.536 C 247.914 39.401 247.07 40.103 246.03 40.103 C 244.99 40.103 244.147 39.402 244.147 38.536 Z M 221.548 47.936 C 220.508 47.936 219.665 47.234 219.665 46.369 C 219.665 45.504 220.508 44.803 221.548 44.803 C 222.588 44.803 223.431 45.504 223.431 46.369 C 223.431 47.234 222.588 47.936 221.548 47.936 Z"/></g></g></g></g></svg>