<?xml version="1.0" encoding="iso-8859-1"?>
<!-- Generator: Adobe Illustrator 22.0.1, SVG Export Plug-In . SVG Version: 6.00 Build 0)  -->
<svg version="1.1" id="Layer_1" xmlns="http://www.w3.org/2000/svg" xmlns:xlink="http://www.w3.org/1999/xlink" x="0px" y="0px"
	 viewBox="0 0 400 240" style="enable-background:new 0 0 400 240;" xml:space="preserve">
<g>
	<rect style="fill:#9553F1;" width="400" height="240"/>
	<g>
		<defs>
			<rect id="SVGID_1_" width="400" height="240"/>
		</defs>
		<clipPath id="SVGID_2_">
			<use xlink:href="#SVGID_1_"  style="overflow:visible;"/>
		</clipPath>
		<polygon style="clip-path:url(#SVGID_2_);fill:#8147E0;" points="330.5,-2.75 329.875,38.125 322.375,38.25 323.312,-4.125 		"/>
		<polygon style="clip-path:url(#SVGID_2_);fill:#8147E0;" points="351.5,53.75 406.75,53.9 406.375,61.25 350.625,60.05 		"/>
		<path style="clip-path:url(#SVGID_2_);fill:#6D3ACF;" d="M-5.25,21.75c0,0,134.25-0.5,141.25-0.5s12.5-0.25,13,7.5
			s2.5,44.75,2.5,44.75l-9.75,0.5c0,0-1.75-35.75-2-38.75s-0.5-5-4.75-5S-5.25,30.5-5.25,30.5V21.75z"/>
		<rect x="96.084" y="-9.667" style="clip-path:url(#SVGID_2_);fill:#8147E0;" width="11.416" height="91.046"/>
		<path style="clip-path:url(#SVGID_2_);fill:#8147E0;" d="M-15,162.054c0,0,57.583-0.804,59.083-0.887
			c1.5-0.083,2.417-0.25,2.5-2.833c0.083-2.583,0.667-25,0.667-25l7.833-0.25c0,0-0.667,22.917-0.75,24.583
			c-0.083,1.667,0,3.333,1.75,3.333S69,161,69,161l0.25,7.833l-84.25,2V162.054z"/>
		<path style="clip-path:url(#SVGID_2_);fill:#AA75F4;" d="M28.862,76.129c-4.462,0.27-8.01,1.694-8.01,7.086
			c0,5.391,0.154,40.205,0.308,45.288c0.154,5.083,1.848,8.318,8.318,8.164s52.066-0.308,52.066-0.308l0.77-60.692
			C82.315,75.667,33.946,75.821,28.862,76.129z"/>
		<polygon style="clip-path:url(#SVGID_2_);fill:#6D3ACF;" points="395.845,153 329.667,153.472 330.274,162.903 397.667,163.375 		
			"/>
		<path style="clip-path:url(#SVGID_2_);fill:#8147E0;" d="M392.208,121.958c-5.112,0.365-9.875,1.5-9.875,7.625
			c0,6.125,0.25,46.75,0.25,51.5s0.25,9.875,7.375,9.875s25.875-0.125,25.875-0.125l-3.5-69.5
			C412.333,121.333,395.708,121.708,392.208,121.958z"/>
		<path style="clip-path:url(#SVGID_2_);fill:#AA75F4;" d="M13.431,273.354c5.112-0.365,9.875-1.5,9.875-7.625
			s-0.25-46.75-0.25-51.5s-0.25-9.875-7.375-9.875s-25.875,0.125-25.875,0.125l3.5,69.5
			C-6.694,273.979,9.931,273.604,13.431,273.354z"/>
		<path style="clip-path:url(#SVGID_2_);fill:#AA75F4;" d="M296,37.667c0-4.667,1.833-6,5.5-6.167s44,0.333,48,0.333
			s5.833,1.333,5.667,6C355,42.5,352.833,73,352.833,76.167c0,3.167-1.167,6.5-4.833,6.333s-53-1-53-1L296,37.667z"/>
		<path style="clip-path:url(#SVGID_2_);fill:#8147E0;" d="M203.915-24.437c-0.114-2.101,0.988-4.571,4.201-4.695
			c3.212-0.124,46.269-1.421,49.357-1.483c3.089-0.062,4.391,1.235,4.386,3.768c-0.021,11.243-0.268,30.681-0.062,41.759
			c0.048,2.594-1.235,4.571-4.077,4.633c-2.842,0.062-43.427,0.927-46.578,0.988c-3.15,0.062-4.338-2.408-4.51-5.065
			C205.83,3.052,204.347-16.468,203.915-24.437z"/>
	</g>
	<g>
		<defs>
			<rect id="SVGID_3_" width="400" height="240"/>
		</defs>
		<clipPath id="SVGID_4_">
			<use xlink:href="#SVGID_3_"  style="overflow:visible;"/>
		</clipPath>
		<g style="clip-path:url(#SVGID_4_);">
			<g>
				<path style="fill:#F9FAFE;" d="M341.902,250c0,0-1.333-108.136,0-179.667c0.106-5.666-3.725-9.513-10.341-9.501
					C234.902,61,128.024,57.625,67.901,57.623c-5.998,0-9.989,3.255-9.799,9.046c2.8,85.204,3.78,183.33,3.78,183.33H341.902z"/>
				<path style="fill:#BFDAF9;" d="M341.902,70.333c0.223-8.208-1.152-9.458-10.341-9.501c-96.658-0.45-203.539-3.671-263.66-3.209
					c-8.338,0.064-9.901,2.127-9.798,9.046c0.039,2.623,0.171,5.247,0.253,7.872c29.558,0.216,165.688,1.251,283.425,2.852
					C341.818,75.015,341.839,72.659,341.902,70.333z"/>
				<path style="fill:#D9E8FB;" d="M341.812,75.498c-4.279-0.077-158.344-2.832-166.978-2.832c-8.75,0-10.625-9.125-15.375-9.125
					s-43.25-0.75-49.25-0.75s-7,9.75-12.25,9.75s-39.672-0.168-39.672-0.168l0,0.001c0.117,3.658,0.23,7.317,0.34,10.971
					c112.049,0.329,253.248,2.042,283.033,2.416C341.705,82.297,341.756,78.873,341.812,75.498z"/>
				<path style="fill:#96BCEF;" d="M81.577,64.835c-0.844-2.771-7.684-3.843-6.936,1.714S82.865,69.063,81.577,64.835z"/>
				<path style="fill:#96BCEF;" d="M65.271,62.959c-2.369,1.429-2.285,5.569,0,6.403c2.285,0.834,5.506,0.315,5.714-2.49
					C71.192,64.067,67.452,61.643,65.271,62.959z"/>
				<path style="fill:#96BCEF;" d="M85.945,64.69c-0.981,1.562-0.682,3.645,1.36,4.797c1.833,1.035,3.824,0.002,4.526-1.19
					c0.702-1.192,1.37-3.761-0.854-4.96C88.615,62.064,86.787,63.35,85.945,64.69z"/>
				<path style="fill:#D9E8FB;" d="M81.333,191.5c0-5.333,2.167-7,6.5-6.833c4.333,0.167,49.5,1.5,53.833,1.667
					c4.333,0.167,5.833,1.333,6,5.833s-1.116,71.889-1.116,71.889l-64.638-0.87L81.333,191.5z"/>
				<path style="fill:#D9E8FB;" d="M171.5,192c0.167-4.167,1.833-6.167,5.833-6.167s49.5,0.333,53,0.333s7.333,0.667,7.167,6.167
					c-0.167,5.5-1.278,72.302-1.278,72.302L171.143,264L171.5,192z"/>
				<path style="fill:#D9E8FB;" d="M259.5,191c0-3,1.5-5.167,4.5-5.167s51.333,0,55,0c3.667,0,5.333,1.667,5.5,5.833
					c0.167,4.167-0.69,72.968-0.69,72.968H258.73L259.5,191z"/>
				<path style="fill:#BFDAF9;" d="M147.667,192.167c-0.167-4.5-1.667-5.667-6-5.833c-4.333-0.167-49.5-1.5-53.833-1.667
					c-4.333-0.167-6.5,1.5-6.5,6.833l0.294,36.312c0,0,9.748-8.312,19.004-15.492c1.084-0.841,2.119-0.882,2.991-0.253
					c2.706,1.954,7.628,5.933,7.628,5.933s9.495-6.933,15.103-12.438c1.21-1.187,2.528-0.656,3.604,0.597
					c5.606,6.528,17.246,21.817,17.246,21.817C147.49,211.154,147.747,194.338,147.667,192.167z"/>
				<path style="fill:#D9E8FB;" d="M96.25,194.5c-4.502,0.214-7.75,8-3.75,11s10.5,0.5,11.5-3.75S101.5,194.25,96.25,194.5z"/>
				<path style="fill:#BFDAF9;" d="M91.313,232.083c-2.129,0.133-4,3.562,0.562,3.5s40.125-0.25,43.812-0.188
					s4.375-4.375,0.375-4.25S95.313,231.833,91.313,232.083z"/>
				<path style="fill:#BFDAF9;" d="M230.333,186.167c-3.5,0-49-0.333-53-0.333s-5.667,2-5.833,6.167l-0.164,33.141
					c0,0,9.289-6.825,20.361-15.629c1.116-0.887,2.678-0.887,3.65-0.042c2.272,1.975,6.32,5.53,6.32,5.53s8.458-6.625,14.909-11.401
					c1.396-1.034,2.9-0.711,3.821,0.313c4.916,5.463,16.546,18.288,16.546,18.288c0.251-14.441,0.487-27.557,0.557-29.867
					C237.667,186.833,233.833,186.167,230.333,186.167z"/>
				<path style="fill:#D9E8FB;" d="M181.848,196.431c-1.803,2.869-1.253,6.696,2.498,8.813c3.368,1.901,7.025,0.004,8.315-2.186
					c1.29-2.19,2.516-6.91-1.568-9.111C186.753,191.608,183.394,193.97,181.848,196.431z"/>
				<path style="fill:#BFDAF9;" d="M181,230.75c-4.243,0.269-4.625,3.75-0.25,3.875s41.625,0.125,45.875,0.25
					s5.125-3.875-0.125-4.25S188.875,230.25,181,230.75z"/>
				<path style="fill:#BFDAF9;" d="M324.5,191.667c-0.167-4.167-1.833-5.833-5.5-5.833s-52,0-55,0S259.5,188,259.5,191
					l-0.381,36.423c4.051-3.693,12.108-10.988,16.252-14.383c1.379-1.13,2.754-1.13,3.955-0.31c2.601,1.773,7.007,4.931,7.007,4.931
					s8.943-6.797,15.14-11.578c1.276-0.985,2.464-0.672,3.662,0.38c5.179,4.549,14.683,14.557,19.125,19.292
					C324.435,209.366,324.577,193.595,324.5,191.667z"/>
				<path style="fill:#D9E8FB;" d="M280.5,198.5c-1.508-4.953-13.734-6.87-12.398,3.063S282.802,206.058,280.5,198.5z"/>
				<path style="fill:#BFDAF9;" d="M269.167,231.191c-4.828,0.261-5.167,3.976-0.833,3.976s43.167,0,46.5,0s3.5-4.128-0.833-4.128
					C309.667,231.038,274.833,230.885,269.167,231.191z"/>
				<path style="fill:#D9E8FB;" d="M90.365,90.101c-5.313-0.693-10.274,3.056-10.746,8.106c-0.472,5.05,3.305,8.932,9.002,9.384
					c5.697,0.451,8.892-4.598,9.205-7.655S95.969,90.831,90.365,90.101z"/>
				<path style="fill:#BFDAF9;" d="M289.167,92.583c-1.251,0.074-2.25,0.25-2.25,2.5s0.083,5.5,0.083,6.583s0.167,2.667,1.75,2.667
					c1.583,0,31.333,0.5,33.167,0.5c1.833,0,2.333-0.917,2.333-2.5c0-1.583,0-7.083,0-8.417s-0.583-2.25-2-2.25
					C320.833,91.667,290.583,92.5,289.167,92.583z"/>
				<path style="fill:#BFDAF9;" d="M238,157.062c0.09-1.624,0.75-2.625,2.938-2.75s31.25-0.438,33.438-0.562
					s2.625,1.125,2.625,2.625s0,6.438,0,8.062s-1.062,2.875-2.812,2.938s-31.188-0.062-33.062-0.125s-3.125-0.625-3.188-2.75
					S237.875,159.312,238,157.062z"/>
				<path style="fill:#D9E8FB;" d="M127.167,156.833c0-1.381,0.292-2.417,1.708-2.458c1.417-0.042,98.167-0.042,100.125-0.042
					c1.958,0,2.708,0.417,2.792,1.708s0.333,8.25,0.417,9.458c0.083,1.208-0.542,2.167-2.167,2.208
					c-1.625,0.042-98.75,1.208-100.292,1.25c-1.542,0.042-2.167-0.667-2.25-2.292C127.417,165.042,127.167,158.167,127.167,156.833z
					"/>
				<path style="fill:#D9E8FB;" d="M166.063,133.312c-1.812-0.026-2.312,1.25-2.25,3.938s0.25,3.812,2.562,3.75
					s64.938-0.688,66.812-0.688s2.625-1.188,2.75-3.438s0.062-3.562-2.25-3.625S170.5,133.375,166.063,133.312z"/>
				<path style="fill:#D9E8FB;" d="M116.563,120.937c-2.062,0.045-2.875,1.062-2.75,3.938s0.125,3.5,2.938,3.5
					s164.938-0.75,168.125-0.75s4.188-1.062,4.188-4.25s0.125-4.5-3.25-4.5S119.458,120.875,116.563,120.937z"/>
			</g>
			<g>
				<path style="fill:#FFAB00;" d="M144.994,107.436c0,0,5.55-6.272,7.283-8.582c1.732-2.31,4.504-4.735,8.431-4.966
					c3.927-0.231,83.043-5.197,91.128-5.659c8.085-0.462,9.933,2.31,9.933,7.507S262,158.798,262,163.302
					c0,4.504-1.501,11.781-3.811,15.708c-2.31,3.927-7.722,12.965-7.722,12.965L144.994,107.436z"/>
				<path style="fill:#4D4D87;" d="M196.625-12.75c0,0,0.875,104,0.875,108.5s11.875,4.25,11.875-1s-0.25-108-0.25-108
					L196.625-12.75z"/>
				<path style="fill:#4D4D87;" d="M258.333,135.407c0,0,19.354-0.083,32.353,0.311c0.898,0.027,2.636-0.696,3.11-1.803
					c0.798-1.865,2.027-4.834,2.87-7.341c2.396-7.125,12.25-5.458,10.583,1.875c-0.771,3.392-1.756,6.221-3,10.062
					c-1.438,4.438-4.875,7.812-14.872,7.999c-11.213,0.21-27.062,0.23-31.044,0.23C252,146.741,254.667,135.741,258.333,135.407z"/>
				<path style="fill:#FFD011;" d="M143.499,113.06c-0.213-3.928,1.848-8.547,7.854-8.778s86.508-2.656,92.283-2.772
					c5.775-0.115,8.209,2.31,8.2,7.045c-0.038,21.021-0.5,57.364-0.115,78.077c0.09,4.85-2.31,8.547-7.623,8.662
					s-81.195,1.732-87.086,1.848c-5.89,0.115-8.11-4.503-8.431-9.471C147.079,164.457,144.307,127.96,143.499,113.06z"/>
				<path style="fill:#F9FAFE;" d="M188.338,149.168c5.881,0.071,17.666-0.124,21.617-0.194c0.84-0.015,1.363,0.458,1.425,1.3
					c0.303,4.151,1.2,17.046,1.198,24.037c-0.002,6.8-3.841,13.609-12.32,14.177c-7.293,0.489-13.032-7.083-15.014-10.092
					c-0.488-0.74-0.318-1.37,0.332-1.623c1.393-0.543,3.797-1.49,5.139-2.075c0.647-0.282,1.243-0.066,1.599,0.478
					c1.48,2.262,5.744,7.79,10.31,4.585c3.854-2.706,2.774-17.269,2.288-22.203c-0.101-1.026-0.56-1.683-2.038-1.368
					c-2.87,0.611-10.141,1.562-13.614,2.002c-1.165,0.147-1.78-0.432-1.98-1.522c-0.274-1.496-0.327-4.36-0.332-6.08
					C186.945,149.749,187.382,149.157,188.338,149.168z"/>
				<path style="fill:#F9FAFE;" d="M234.575,155.481c-0.805-1.275-2.606-2.937-6.441-2.502c-2.797,0.317-4.897,2.679-3.729,6.206
					c1.911,5.77,17.247,5.611,18.668,16.119c1.096,8.101-5.244,12.61-12.376,12.848c-6.531,0.218-12.651-3.854-14.227-9.475
					c-0.145-0.517-0.047-1.596,1.225-2.001c1.109-0.354,3.374-0.906,4.499-1.205c1.007-0.268,1.616,0.176,1.897,0.995
					c0.663,1.933,2.301,5.196,5.836,5.322c4.333,0.154,6.502-2.716,5.337-6.483c-1.799-5.815-15.708-5.353-18.062-15.643
					c-1.498-6.549,2.183-11.457,9.672-12.471c4.18-0.566,10.307,1.535,12.821,5.417c0.304,0.469,0.253,1.454-0.873,2.322
					c-0.51,0.393-1.687,0.954-2.287,1.188C235.524,156.512,235.04,156.217,234.575,155.481z"/>
				<path style="fill:#3E416D;" d="M144.044,97.734c-1.289,1.298-2.314,0.95-3.492,0.125c-3.352-2.347-11.009-7.328-20.317-10.919
					c-0.502-0.194-1.005-0.783-0.499-2.368c0.45-1.411,1.996-4.001,2.927-5.153c0.829-1.025,1.597-1.208,2.744-0.494
					c4.022,2.504,13.708,8.909,19.307,15.77C145.113,95.185,145.46,96.309,144.044,97.734z"/>
				<path style="fill:#3E416D;" d="M136.408,104.695c-3.288-0.67-11.626-1.955-19.239,0.276c-0.564,0.165-1.195,0.82-1.115,2.483
					c0.044,0.921,0.611,2.72,1.033,3.539c0.712,1.379,1.035,1.564,1.943,1.285c3.217-0.988,11.219-3.253,17.535-3.428
					c0.446-0.012,1.2-0.654,1.299-2.152C137.97,105.106,137.33,104.882,136.408,104.695z"/>
			</g>
		</g>
	</g>
</g>
</svg>
