<?xml version="1.0" encoding="iso-8859-1"?>
<!-- Generator: Adobe Illustrator 22.0.1, SVG Export Plug-In . SVG Version: 6.00 Build 0)  -->
<svg version="1.1" id="Layer_1" xmlns="http://www.w3.org/2000/svg" xmlns:xlink="http://www.w3.org/1999/xlink" x="0px" y="0px"
	 viewBox="0 0 400 240" style="enable-background:new 0 0 400 240;" xml:space="preserve">
<g>
	<rect style="fill:#9553F1;" width="400" height="240"/>
	<g>
		<defs>
			<rect id="SVGID_1_" width="400" height="240"/>
		</defs>
		<clipPath id="SVGID_2_">
			<use xlink:href="#SVGID_1_"  style="overflow:visible;"/>
		</clipPath>
		<g style="clip-path:url(#SVGID_2_);">
			<polygon style="fill:#6D3ACF;" points="277.748,-6.175 339.996,54.403 359.697,35.832 299.913,-23.165 			"/>
			<path style="fill:#8147E0;" d="M323.304,44.528c-1.929,2.23-1.294,3.623,0.811,5.791c2.105,2.169,80.738,83.194,80.738,83.194
				l28.089-36.137c0,0-78.388-74.442-81.449-77.349s-4.297-1.568-6.076,0C337.294,27.188,325.233,42.298,323.304,44.528z"/>
			<path style="fill:#AA75F4;" d="M332.457,47.266c-0.678-3.278,2.936-5.742,5.919-4.188c2.982,1.553,2.825,4.663,0.768,6.365
				C337.009,51.211,333.234,51.02,332.457,47.266z"/>
			<path style="fill:#AA75F4;" d="M345.999,32.752c-0.673,4.211,7.154,6.173,8.181,1.402
				C355.206,29.383,346.958,26.752,345.999,32.752z"/>
		</g>
		<g style="clip-path:url(#SVGID_2_);">
			<path style="fill:#8147E0;" d="M127.767,42.602c4.274-0.225,5.207,1.777,5.256,4.798c0.049,3.021,1.276,67.112,1.252,71.601
				c-0.024,4.489-0.628,5.834-4.181,6.07c-28.797,1.914-95.287,1.935-100.441,1.914s-6.429-1.394-6.76-5.292
				c-0.331-3.898-3.906-36.363-5.779-68.066c-0.233-3.95,0.98-5.238,6.326-5.52C44.387,47.001,96.245,44.265,127.767,42.602z"/>
			<path style="fill:#6D3ACF;" d="M22.963,52.056c-1.866,0.624-2.45,3.511-0.993,4.445c1.457,0.934,3.773,1.073,4.353-0.842
				C26.902,53.744,24.681,51.481,22.963,52.056z"/>
			<path style="fill:#6D3ACF;" d="M128.303,48.765c-1.119-1.619-4.055-1.376-4.546,0.283c-0.491,1.659,0.02,3.923,2.021,3.946
				C127.779,53.018,129.334,50.256,128.303,48.765z"/>
			<path style="fill:#AA75F4;" d="M24.631,52.329L70.604,18.88l53.963,29.167c0,0,1.012,0.724,0.458,1.599
				c-0.433,0.686-1.436,0.432-1.436,0.432L70.475,23.414L26.25,54.113c0,0-1.076,0.916-2.026,0.168
				C23.344,53.587,24.631,52.329,24.631,52.329z"/>
			<polygon style="fill:#AA75F4;" points="68.185,0.529 69.275,17.547 72.377,17.547 72.377,0.08 			"/>
			<path style="fill:#6D3ACF;" d="M67.627,16.086c1.391-1.077,2.865-1.949,4.691-0.651c1.826,1.298,8.458,6.01,9.282,6.596
				c0.825,0.586,0.293,1.205-0.403,2.016c-0.696,0.81-3.465,4.149-4.371,5.09c-0.906,0.94-1.165,1.303-2.564,1.251
				c-1.399-0.052-5.698-0.042-6.838,0.005c-1.14,0.047-1.994-1.119-2.746-1.87c-0.751-0.751-2.825-2.825-3.485-3.485
				c-0.659-0.659-1.268-1.397-0.176-2.468C62.11,21.499,66.506,16.954,67.627,16.086z"/>
		</g>
		<polygon style="clip-path:url(#SVGID_2_);fill:#6D3ACF;" points="337.099,63.699 339.706,66.386 368.696,36.366 366.144,33.943 		
			"/>
		<polygon style="clip-path:url(#SVGID_2_);fill:#6D3ACF;" points="367.341,150.561 325.075,150.561 324.741,156.027 
			367.808,155.494 		"/>
		<polygon style="clip-path:url(#SVGID_2_);fill:#6D3ACF;" points="366.541,179.494 366.941,185.361 326.675,185.227 
			326.141,179.894 		"/>
		<polygon style="clip-path:url(#SVGID_2_);fill:#6D3ACF;" points="325.792,212.753 325.296,206.894 365.56,206.37 366.18,211.694 
					"/>
		<path style="clip-path:url(#SVGID_2_);fill:#8147E0;" d="M370.63,130.427c1.156,0.089,2.489,0.089,2.4,2.133
			C372.941,134.605,370.008,240,370.008,240h-5.467c0,0,1.111-105.928,1.2-107.617c0.089-1.689,0-2.133,1.244-2.222
			C368.23,130.072,370.63,130.427,370.63,130.427z"/>
		<polygon style="clip-path:url(#SVGID_2_);fill:#6D3ACF;" points="365.066,234.485 365.561,240.344 325.298,240.868 
			324.678,235.544 		"/>
	</g>
	<g>
		<path style="fill:#F9FAFE;" d="M56.145,70.171c0.053-5.076,2.192-6.733,6.714-6.972c6.136-0.323,268.254-6.883,273.338-7.014
			c5.084-0.13,7.722,1.61,7.656,5.06S340.86,240,340.86,240H57.98C59.062,176.148,56.145,70.171,56.145,70.171z"/>
		<path style="fill:#D9E8FB;" d="M69.229,140.675c-0.003,2.717,0.328,6.326,0.375,8.436c0.028,1.263,1.026,2.286,2.289,2.281
			l90.429-0.428c2.033-0.007,3.529-1.904,3.064-3.883l-1.934-8.22l-92.052-0.347C70.201,138.509,69.23,139.478,69.229,140.675z"/>
		<path style="fill:#D9E8FB;" d="M70.117,160.304v3.472c0,0.869,0.217,1.574,1.574,1.574h62.026c0.826,0,1.511-0.638,1.57-1.462
			l0.133-1.856c0.064-0.901-0.641-1.672-1.545-1.686l-62.756-1.015C70.37,159.329,70.117,159.587,70.117,160.304z"/>
		<path style="fill:#D9E8FB;" d="M70.794,170.903c-0.012,1.29-0.085,2.41-0.105,3.214c-0.024,1.009,0.248,1.189,1.151,1.189h39.629
			c0.603,0,1.07-0.53,0.993-1.128l-0.325-2.55c-0.063-0.491-0.475-0.863-0.971-0.874l-39.585-0.893
			C70.826,169.859,70.8,170.313,70.794,170.903z"/>
		<path style="fill:#D9E8FB;" d="M70.07,188.637c-0.499,5.873-0.283,8.596-0.112,11.455c0.05,0.84,0.665,1.53,1.506,1.536
			l44.136,0.332c0.88,0.007,1.581-0.734,1.526-1.613l-0.612-9.977c-0.049-0.789-0.696-1.408-1.486-1.423l-42.781-1.866
			C70.833,187.055,70.19,187.227,70.07,188.637z"/>
		<path style="fill:#D9E8FB;" d="M286.887,90.532c0.085,1.878,0.317,4.612,0.486,7.506c0.083,1.413,0.849,1.875,2.264,1.883
			l40.107,0.236c1.471,0.009,2.66-1.197,2.63-2.668c0,0-0.161-6.441-0.2-8.384c-0.029-1.441-0.561-2.55-2-2.467
			c-10.329,0.598-16.933,1.067-41.34,1.308C287.384,87.959,286.821,89.084,286.887,90.532z"/>
		<path style="fill:#D9E8FB;" d="M183.22,130.146l2.196,75.396c0.069,2.372,1.455,4.295,5.522,4.282l137.208-2.523
			c1.523,0.008,2.76-1.23,2.75-2.753l-1.907-76.371c-0.015-2.239-0.296-3.981-4.099-3.98l-138.999,3.135
			C184.375,127.367,183.176,128.629,183.22,130.146z"/>
		<path style="fill:#BFDAF9;" d="M337.804,56.167c-5.084,0.13-268.808,6.709-274.945,7.032c-4.522,0.238-6.661,1.896-6.714,6.972
			l0.189,5.932l287.336-5.179c0.107-5.674,0.183-9.19,0.183-9.678C343.855,56.504,342.888,56.036,337.804,56.167z"/>
		<path style="fill:#D9E8FB;" d="M139.093,73.282c-1.2,0.044-1.733-0.889-1.956-1.333c-0.222-0.444-2.222-4.933-2.444-5.378
			c-0.222-0.444-0.444-0.978-1.467-0.978s-30.844,0.756-31.822,0.8c-0.978,0.044-1.502,0.641-1.778,1.067
			c-0.436,0.673-3.826,4.846-4.489,5.733c-0.413,0.553-0.978,0.844-1.689,0.889c-1.996,0.125-37.114,2.021-37.114,2.021l0.188,6.291
			l286.979-2.485l0.222-11.737L139.093,73.282z"/>
		<path style="fill:#96BCEF;" d="M63.387,66.534c-2.637,0.289-4.589,5.178,0.54,5.448C69.055,72.252,67.411,66.093,63.387,66.534z"
			/>
		<path style="fill:#96BCEF;" d="M72.47,66.202c-2.027,1.223-1.956,4.765,0,5.479c1.956,0.714,4.711,0.269,4.889-2.131
			S74.337,65.076,72.47,66.202z"/>
		<path style="fill:#96BCEF;" d="M82.026,68.615c-0.104,1.555,0.954,2.983,2.933,3.022c1.778,0.035,2.844-1.531,2.889-2.699
			c0.044-1.168-0.489-3.346-2.622-3.346C82.959,65.593,82.115,67.282,82.026,68.615z"/>
		<path style="fill:#D9E8FB;" d="M69.042,101.61c-1.197,7.024,5.983,10.392,11.163,10.704s9.9-3.257,11.163-9.854
			s-3.308-10.05-8.701-11.297C77.274,89.915,70.219,94.704,69.042,101.61z"/>
	</g>
	<g>
		<path style="fill:#96BCEF;" d="M127.318,103.116l3.322-1.572c0.472-0.225,1.259-0.197,1.781-0.164
			c34.875,2.203,103.186,4.647,139.453,5.38c2.501,0.051,2.543,2.129,2.492,3.627c-0.892,26.44-5.645,80.944-5.645,80.944
			c-0.074,1.06-0.541,2.054-1.309,2.788l-2.552,2.439L127.318,103.116z"/>
		<path style="fill:#FFAB00;" d="M196.297,27.624l5.908-2.066c0,0,12.669,9.736,24.798,20.714c0.802,0.726,1.136,1.833,0.765,2.849
			c0,0-6.428,15.44-11.911,32.613c-0.231,0.724-0.796,1.295-1.487,1.612l-6.859,3.149L196.297,27.624z"/>
		<path style="fill:#4D4D87;" d="M202.884,0c0,0-1.047,15.461-1.079,23.528c-0.011,2.833,0.06,3.738-0.533,4.096
			c-1.356,0.818-3.452-0.533-3.452-0.533l-1.523,0.533L196.72,0H202.884z"/>
		<path style="fill:#BFDAF9;" d="M126.569,104.895c0,0-1.229,38.93-6.427,76.99c-0.233,1.708,1.214,3.2,2.932,3.343l140.402,11.691
			c1.197,0.099,2.24-0.809,2.306-2.008c0,0,4.463-60.86,4.506-81.188c0.004-1.962-1.036-2.711-2.497-2.795
			c0,0-104.69-5.656-139.789-7.92C126.987,102.942,126.631,103.62,126.569,104.895z"/>
		<path style="fill:#96BCEF;" d="M199.591,112.601c3.084,0.123,4.484,2.566,4.395,4.796c-0.09,2.256-2.305,4.16-5.029,4.052
			c-2.723-0.109-4.227-1.96-4.126-4.497C194.933,114.415,197.175,112.505,199.591,112.601z"/>
		<g>
			<path style="fill:#4D4D87;" d="M200.871,112.825c-0.005,0.001-0.011,0.003-0.016,0.004c-2.674,0.522-5.146-0.009-6.783-1.456
				c-1.653-1.461-2.415-3.835-2.205-6.865c0.344-4.936,5.251-6.268,8.146-6.622c1.533-0.188,2.734-1.436,2.855-2.966l0.757-9.194
				c0.038-0.474-6.76,0.338-6.711,0.811l0.538,6.571c-2.771,0.419-10.963,2.46-11.127,11.909c-0.079,4.517,1.174,8.006,3.724,10.371
				c1.917,1.778,4.573,2.847,7.532,3.075c0.889,0.069,1.805,0.061,2.737-0.025c1.439-0.133,2.633-0.51,3.665-1.019
				c0-0.008,0.004-0.016,0.004-0.024C204.062,115.507,203.054,113.479,200.871,112.825z"/>
		</g>
		<path style="fill:#FFD011;" d="M170.555,56.658c3.652,9.769,13.118,30.031,13.118,30.031c0.338,0.883,1.215,1.44,2.158,1.372
			l21.68-1.567c0,0,5.497-16.2,12.665-33.952c0.332-0.823,0.05-1.723-0.541-2.385c-6.36-7.129-23.337-22.532-23.337-22.532
			s-14.112,14.67-25.234,23.999C169.424,52.998,169.909,54.928,170.555,56.658z"/>
		<path style="fill:#F9FAFE;" d="M197.729,138.886l60.583,4.932c1.323,0.108,2.332-1.189,1.888-2.439
			c-6.504-18.323-18.467-18.585-24.681-9.54c0,0-13.791-25.196-26.896-1.554C208.623,130.285,191.716,125.045,197.729,138.886z"/>
		<path style="fill:#3E416D;" d="M279.835,132.07l-1.892-0.531c-0.588-0.32-0.782-0.978-0.739-1.646
			c0.964-14.789,6.332-23.84,6.332-23.84c0.187-0.803,0.991-1.302,1.794-1.112l3.614,0.81c0.892,0.211,1.384,1.169,1.035,2.016
			c0,0-6.383,9.479-8.307,23.325C281.549,131.97,280.782,132.254,279.835,132.07z"/>
		<path style="fill:#3E416D;" d="M291.419,124.073l-1.962-0.949c-0.271-0.266-0.209-0.642-0.062-0.992
			c2.721-6.495,10.877-13.787,10.877-13.787c0.44-0.558,1.284-0.568,1.737-0.021l2.24,2.156c0.404,0.488,0.322,1.213-0.18,1.599
			c0,0-6.965,4.951-11.674,12.054C292.19,124.443,291.684,124.334,291.419,124.073z"/>
		<path style="fill:#96BCEF;" d="M123.074,185.227l140.402,11.691c1.197,0.099,2.24-0.809,2.306-2.008c0,0,0.559-7.618,1.282-18.359
			c-3.954-3.951-15.483-15.46-18.123-17.991c-3.2-3.067-5.352-1.613-6.933-0.267c-2.365,2.013-5.828,4.421-5.828,4.421
			s-14.249-14.31-20.705-21.088c-4.3-4.514-5.971-4.649-12.133,1.467c-11.901,11.81-29.087,23.865-29.087,23.865
			s-6.214-6.608-14.649-13.584c-2.016-1.668-4.164-4.004-6.686-2.092c-2.536,1.922-26.887,20.21-31.899,23.874
			c-0.279,2.241-0.571,4.486-0.877,6.729C119.909,183.593,121.356,185.085,123.074,185.227z"/>
		<path style="fill:#F9FAFE;" d="M150.941,126.427c-3.007,8.018,6.4,16.178,15.822,11.556c9.422-4.622,10.044-12.489,3.022-18.133
			C161.456,113.155,153.607,119.316,150.941,126.427z"/>
	</g>
</g>
</svg>
