<?xml version="1.0" encoding="iso-8859-1"?>
<!-- Generator: Adobe Illustrator 22.0.1, SVG Export Plug-In . SVG Version: 6.00 Build 0)  -->
<svg version="1.1" id="Layer_1" xmlns="http://www.w3.org/2000/svg" xmlns:xlink="http://www.w3.org/1999/xlink" x="0px" y="0px"
	 viewBox="0 0 400 240" style="enable-background:new 0 0 400 240;" xml:space="preserve">
<g>
	<rect style="fill:#F284EF;" width="400" height="240"/>
	<g>
		<defs>
			<rect id="SVGID_1_" width="400" height="240"/>
		</defs>
		<clipPath id="SVGID_2_">
			<use xlink:href="#SVGID_1_"  style="overflow:visible;"/>
		</clipPath>
		<g style="clip-path:url(#SVGID_2_);">
			<path style="fill:#F59DF2;" d="M192.531-34.021c0.685,24.219,13.979,38.419,19.372,43.204c1.382,1.226,2.175-0.699,2.329-1.807
				c0.183-1.312,0.508-2.463,0.853-3.404c0.637-1.737,2.049-0.465,2.469,0.599c5.435,13.76,17.924,18.45,23.94,19.948
				c2.059,0.513,1.966-1.273,1.801-2.267c-0.301-1.818,2.028-1.832,2.948-1.167c9.142,6.608,21.911,4.277,27.085,2.932
				c1.459-0.379,1.088-1.093,0.561-1.45c-0.779-0.527-1.429-1.225-1.939-1.894c-0.854-1.122,0.178-1.95,0.959-1.893
				c8.212,0.604,18.799-2.14,24.248-3.781c2.224-0.67,3.226-2.616,2.499-4.939c-2.033-6.5-6.885-19.757-14.42-26.679
				c-0.543-0.498-0.98-1.899,0.017-2.388c0.501-0.246,1.081-0.487,1.689-0.657c0.608-0.17,1.459-0.9,0.692-1.994
				c-3.032-4.329-11.706-15.27-23.222-17.411c-0.895-0.166-2.211-1.085-1.32-1.936c0.538-0.514,1.21-1.064,1.98-1.506
				c0.77-0.442,1.741-1.483,0.263-2.417c-5.501-3.476-20.009-11.187-34.373-6.505c-0.996,0.325-2.656-0.105-1.815-1.628
				c0.378-0.684,0.858-1.42,1.459-2.118c0.93-1.081,2.233-2.711-0.173-2.727c-7.315-0.049-23.143,0.512-31.635,5.839L192.531-34.021
				z"/>
			<path style="fill:#E774E9;" d="M324.25,154.118c-20.261,2.08-27.396-4.294-25.958-8.517c1.028-3.019,7.953-4.312,18.605-3.615
				c5.946,0.389,12.122-1.15,16.421-2.587c3.478-7.438,5.905-14.699,7.502-21.686c-25.837,7.133-31.884-9.313-18.055-10.223
				c7.109-0.468,12.73-1.241,16.707-2.165c3.011-0.699,3.613-2.47,3.671-3.305c0.446-6.424,0.258-12.51-0.348-18.165
				c-0.111-1.04-1.187-2.98-3.148-1.996c-6.992,3.507-16.754,4.331-18.154-3.701c-1.234-7.08,8.072-8.302,15.735-7.578
				c3.129,0.296,2.796-2.032,2.5-3.136c-2.641-9.843-6.119-17.31-8.353-21.519c-1.335-2.517-4.188-3.665-7.515-3.032
				c-3.96,0.754-9.83,2.183-16.676,4.459c-2.703,0.899-1.544,2.78-0.974,3.786c4.211,7.434,8.369,17.694,1.35,20.577
				c-6.826,2.803-9.92-8.481-11.031-17.346c-0.297-2.368-2.297-1.711-3.286-1.222c-4.859,2.402-9.835,5.305-14.666,8.809
				c0.355,3.824,1.36,11.009,4.227,20.834c3.763,12.895-12.582,13.245-15.548-11.073c-5.47,5.617-10.395,12.269-14.274,20.153
				c1.012,3.592,3.032,9.529,6.548,15.29c5.561,9.112,5.801,15.811,3.605,18.122c-2.905,3.058-9.343,0.318-16.353-15.971
				c-9.492,41.409,20.773,77.601,20.773,77.601S302.534,181.697,324.25,154.118z"/>
			<path style="fill:#DC64E2;" d="M-0.821,214.624c3.448,8.899,16.144,30.817,58.433,35.449c0,0-1.685-34.347-56.108-38.966
				C0.362,211.009-1.724,212.293-0.821,214.624z"/>
			<path style="fill:#E774E9;" d="M2.681,191.142c1.501,11.667,10.227,41.642,59.468,59.662c0,0,8.117-41.6-55.648-63.186
				C5.163,187.165,2.288,188.086,2.681,191.142z"/>
			<path style="fill:#F59DF2;" d="M117.407,181.829c-9.872,17.815-19.181,20.027-21.824,16.433
				c-1.889-2.569,1.007-8.991,7.667-17.333c3.718-4.657,5.984-10.605,7.262-14.953c-4.115-7.105-8.687-13.246-13.508-18.55
				c-8.913,25.278-25.865,20.841-18.708,8.973c4.905-8.134,7.678-14.482,9.109-18.237c-5.748-4.866-11.642-8.763-17.38-11.884
				c-0.808-0.44-2.292-0.653-3.175,1.846c-2.59,7.33-6.033,15.962-13.351,12.555c-6.436-2.997-2.18-11.063,2.601-17.02
				c1.633-2.034-0.058-3.74-1.209-4.152c-9.358-3.352-17.292-4.754-22.008-5.336c-2.944-0.364-5.34,0.87-6.417,3.197
				c-1.643,3.548-4.15,9.533-6.336,17.139c-0.283,0.984-0.522,3.369,2.475,3.271c8.538-0.277,19.289,3.248,17.644,10.651
				c-1.598,7.191-12.545,3.217-20.498-0.841c-1.643-0.839-2.656,0.279-2.779,1.055c-0.709,4.458-1.184,9.192-1.29,14.108
				c-0.028,1.283,0.801,4.123,3.639,5.821c3.521,2.106,8.946,4.174,15.867,6.501c11.274,3.791,5.261,15.484-11.042,9.435
				c-5.414-2.009-6.293,0.071-5.902,1.615c1.321,5.211,3.179,10.476,5.799,15.658c1.564,3.093,3.913,3.74,5.388,4.153
				c3.4,0.952,7.754,1.882,12.454,2.166c10.656,0.644,16.29,4.275,16.931,7.399c0.743,3.615-3.779,7.428-16.464,5.298
				c-5.494-0.923-3.31,1.824-1.918,3.129c28.728,26.944,71.482,23.168,71.482,23.168S127.627,215.412,117.407,181.829z"/>
			<path style="fill:#DC64E2;" d="M-10.017,27.75c138.25,51.5,190.75-46.5,190.75-46.5l-6.25-1.25c-66,91-183,42.5-183,42.5
				L-10.017,27.75z"/>
			<path style="fill:#E774E9;" d="M136.848-24.929c0,0-49.322,101.222-148.974,117.89l0.808-6.958
				c0,0,91.025-14.275,142.063-112.369L136.848-24.929z"/>
			<path style="fill:#E774E9;" d="M418.436,292.337c-9.16-12.909-25.342-7.368-32.29-18.794
				c-6.948-11.426,2.404-25.909-1.967-33.737c-4.92-8.812-19.432-7.682-24.578-17.543c-5.146-9.862,3.461-21.905-0.009-29.218
				c-2.045-4.311-11.059-8.481-15.065-14.729c-4.006-6.248-6.283-14.543,0.169-18.323c7.239-4.241,16.544,3.554,20.228,9.284
				c3.924,6.104,1.939,12.254,5.744,16.942c6.34,7.812,18.263,3.62,24.341,13.911c6.007,10.172-1.273,21.297,6.08,29.993
				c8.347,9.87,20.868-0.44,29.886,12.017c7.534,10.407-0.674,31.432,5.46,39.819L418.436,292.337z"/>
			<path style="fill:#F59DF2;" d="M444.983,262.833c-6.333-16.667,9-28.333,2.667-42c-6.333-13.667-25.75-14-30.333-23
				c-5.159-10.13,5-23-1-34s-27.917-9.75-32.583-17.583c-2.751-4.618-2.417-11.958-5.75-19.625c-3.333-7.667-10-11.125-15.5-8.375
				c-6.063,3.032-7.926,12.084-4.875,19.125c3.25,7.5,8.375,7.125,10.375,13.625c3.333,10.832-11.734,22.609-5.917,34.75
				c5.75,12,20.726,12.166,24.25,24.5c4,14-13.5,19.25-7.5,35.5c5.013,13.576,29.833,19.083,33.833,30.083L444.983,262.833z"/>
			<path style="fill:#E774E9;" d="M416.483,249c0,0-18.531-49.164-35.53-87.302c-2.547-5.714-3.243-10.378,2.874-0.474
				c11.358,18.388,29.231,50.854,38.656,86.276C436.983,302,416.483,249,416.483,249z"/>
			<path style="fill:#DC64E2;" d="M359.018-31.772c0,0,10.605,112.098,98.043,162.723l1.689-6.798c0,0-80.203-45.352-93.513-155.125
				L359.018-31.772z"/>
			<path style="fill:#DC64E2;" d="M340.705,197.106c-17.592,8.402-60.271,37.656-63.156,124.512c0,0,69.7-8.753,70.681-120.322
				C348.251,198.955,345.313,194.905,340.705,197.106z"/>
		</g>
	</g>
	<g>
		<defs>
			<rect id="SVGID_3_" width="400" height="240"/>
		</defs>
		<clipPath id="SVGID_4_">
			<use xlink:href="#SVGID_3_"  style="overflow:visible;"/>
		</clipPath>
		<g style="clip-path:url(#SVGID_4_);">
			<path style="fill:#32B964;" d="M292.983,182c0,0,51.998-17.984,52-50c0.002-27.25-35.75-42.75-75-53L292.983,182z"/>
			<path style="fill:#0A965A;" d="M311.212,139.669l-26.812,3.881l8.585,38.448c0,0,15.317-5.3,29.325-15.264
				C316.761,170.412,311.235,153.315,311.212,139.669z"/>
			<path style="fill:#D9E8FB;" d="M82.983,243.5c0,0-5-134-5.5-150s4.5-25.5,21.5-26.5s167-6.5,185.5-7.5s26.334,7.001,26.5,21.5
				c1,87.5-1.333,161.333-1.333,161.333L82.983,243.5z"/>
			<line style="fill:none;" x1="150.233" y1="187.25" x2="150.233" y2="187.125"/>
			<g>
				<path style="fill:#BFDAF9;" d="M99.381,182.155c-2.958,17.357,14.785,25.681,27.584,26.451s24.465-8.049,27.584-24.35
					s-8.174-24.834-21.501-27.916C119.722,153.256,102.29,165.089,99.381,182.155z"/>
				<path style="fill:#BFDAF9;" d="M194.921,153.702c-14.879-1.289-28.416,7.252-30.349,20.949
					c-1.45,10.267,2.632,30.833,26.052,31.048s31.155-17.834,30.296-27.932C220.06,167.668,211.623,155.149,194.921,153.702z"/>
				<path style="fill:#F0F5FD;" d="M194.426,159.6c-11.639-1.008-22.227,5.672-23.739,16.386
					c-1.134,8.031,2.059,24.117,20.378,24.285s24.37-13.949,23.697-21.849C214.09,170.525,207.491,160.732,194.426,159.6z"/>
				<path style="fill:#F0F5FD;" d="M105.653,182.925c-2.341,13.738,11.703,20.327,21.833,20.936
					c10.13,0.609,19.364-6.371,21.833-19.273c2.469-12.902-6.47-19.656-17.018-22.096
					C121.753,160.052,107.955,169.417,105.653,182.925z"/>
				<path style="fill:#4D4D87;" d="M123.231,182.45c-1.265,3.373,2.693,6.807,6.657,4.862c3.964-1.945,4.226-5.255,1.272-7.629
					C127.655,176.866,124.352,179.458,123.231,182.45z"/>
				<path style="fill:#4D4D87;" d="M195.652,178.084c-1.855-2.69-5.888-3.07-7.452,0.617c-1.565,3.687,0.22,6.113,3.657,5.988
					C195.933,184.541,197.392,180.607,195.652,178.084z"/>
				<path style="fill:#4D4D87;" d="M125.983,182.25c0,0,5.25-10.5,6.5-12.875s2.75-2.625,2.125,0.25s-4,14.625-4,14.625
					L125.983,182.25z"/>
				<path style="fill:#4D4D87;" d="M190.067,182.167c0,0-12.417-4.667-14.25-5.583c-1.833-0.917-2.167-2.5,0.917-1.833
					s15.083,3.667,15.083,3.667L190.067,182.167z"/>
			</g>
			<path style="fill:#96BCEF;" d="M99.983,247.333c0,0-0.333-7.333-0.667-9.333c-0.333-2,0.333-5.667,5.333-6s110,0.333,115.667,0
				c5.667-0.333,5,6.333,5,8.667l-1,6.667H99.983z"/>
			<path style="fill:#BFDAF9;" d="M97.983,97.5c0.146-5.001,3.167-6,6.833-6.167c3.667-0.167,101.167-0.833,105.5-1
				c4.333-0.167,7.589,1.17,7.833,5.333c0.583,9.958-0.042,30.833-0.5,38.333c-0.214,3.493-1.167,6.5-6,6.5c-4.833,0-103.5,0-107,0
				s-5.154-1.678-5.5-5.833C98.317,124.667,97.733,106.083,97.983,97.5z"/>
			<path style="fill:#F0F5FD;" d="M103.653,99.508c0.164,9.742,0.331,22.742,1.233,32.361c0.133,1.417,1.223,2.548,2.646,2.548
				h101.085c1.598,0,2.84-1.27,2.963-2.864c0.777-10.053,1.152-22.053,1.143-33.431c-0.001-1.472-1.142-2.684-2.613-2.659
				l-104.284,1.75C104.586,97.233,103.632,98.268,103.653,99.508z"/>
			<path style="fill:#96BCEF;" d="M275.459,170.253c0-3.954-1.904-7.689-12.155-7.689s-11.35,4.174-11.35,8.641
				c0,1.174,0.879,2.124,1.977,2.124s5.931,0,8.275,0s1.971,2.481-0.153,2.554c-2.124,0.073-11.204-0.073-14.206-0.073
				c-2.71,0-8.494,0.659-8.348,12.522c0.119,9.645,5.682,11.072,8.753,11.123c1.055,0.017,1.914-0.837,1.894-1.892
				c-0.018-0.955-0.016-2.398,0.044-4.544c0.146-5.199,5.053-6.444,7.396-6.444s6.59,0.073,10.398-0.073
				c6.439-0.248,7.323-5.126,7.249-6.517C275.159,178.592,275.459,174.207,275.459,170.253z M259.306,168.628
				c-0.253,1.322-1.199,2.037-2.237,1.975c-1.038-0.062-2.477-0.738-2.237-2.145c0.236-1.384,1.65-2.344,2.73-2.094
				C258.643,166.614,259.559,167.306,259.306,168.628z"/>
			<path style="fill:#BFDAF9;" d="M282.514,176.4c-4.247-0.22-4.54,0.22-4.54,2.343s0.366,5.199-1.757,8.567
				c-2.124,3.368-11.643,1.757-16.695,1.904c-5.053,0.146-6.444,3.515-6.59,5.492c-0.146,1.977,0.073,7.396,0,10.398
				c-0.132,5.418,5.053,7.323,11.716,7.396c9.226,0.101,11.716-3.002,11.57-8.787c-0.05-1.978-1.611-1.831-3.222-1.904
				s-4.76,0.073-6.956,0s-2.416-1.904,0.073-1.831c2.49,0.073,9.739,0.22,15.085,0s7.396-5.345,7.469-11.35
				C288.724,183.795,286.904,176.627,282.514,176.4z M270.029,204.885c1.298-0.534,2.831,0.135,3.112,1.208
				c0.281,1.073-0.054,2.507-1.342,2.898c-1.288,0.391-2.361-0.114-2.789-1.062C268.583,206.981,268.944,205.331,270.029,204.885z"
				/>
			<g>
				<path style="fill:#32B964;" d="M78.869,132.338c0,0-26.219,16.332-26.219,44.996c0,31,32.338,41.591,67.333,43.667
					c39.333,2.333,113.333-12.667,163,25.333h55.667c-27.333-34.667-56.333-48.667-92-56.998
					c-36.442-8.512-98.333-4.002-132.667-7.335c-21.897-2.126-33.716-11.665-34.023-19.975L78.869,132.338z"/>
				<path style="fill:#0A965A;" d="M80.111,163.344c-0.079-0.442-0.135-0.882-0.151-1.318l-1.091-29.688
					c0,0-2.107,1.314-5.124,3.845c0.961,12.171,4.177,23.316,6.215,27.192L80.111,163.344z"/>
				<path style="fill:#0A965A;" d="M80.699,165.391c3.074,10.953-1.301,36.724,19.535,42.109
					c22.25,5.75,31.503-24.249,55.996-24.002v0c-15.865-0.14-30.634-0.37-42.246-1.497
					C95.003,180.157,83.601,172.745,80.699,165.391z"/>
				<path style="fill:#0A965A;" d="M214.233,208.232c18.732,1.766,29.872-19.414,47.192-14.964
					c-4.802-1.452-9.72-2.752-14.776-3.933c-19.421-4.537-46.07-5.374-71.924-5.672l0,0
					C191.991,183.977,188.181,205.777,214.233,208.232z"/>
				<path style="fill:#0A965A;" d="M281.911,200.837c16.685,9.193,5.399,29.337,24.244,45.496h32.494
					C320.898,223.818,302.44,210.026,281.911,200.837z"/>
			</g>
			<path style="fill:#BFDAF9;" d="M108.817,112.167c4.773-0.777,10.333,11.667,27.667,11c17.333-0.667,20.5-17.5,27.333-17.833
				c6.833-0.333,10.333,18.5,25.167,19s13.415-13.601,19.167-14.5c1.333-0.208,1.083,1.667,1.083,3.667s-0.25,12.417-0.25,12.417
				l-55.375,4.583c0,0-45.5,1.25-45.5-2.25S107.025,112.458,108.817,112.167z"/>
			<path style="fill:#D9E8FB;" d="M109.817,125.5c7.651-0.51,12.601-16.996,25.667-17.25C148.358,108,146.15,128,161.15,128.167
				c15,0.167,14.833-11.833,26-12.833c7.944-0.711,13.277,6.098,19.845,8.396c1.488,0.521,2.012,1.104,1.988,2.187
				c-0.083,3.75,0.083,5.5-4.75,5.5S111.9,131.5,110.067,131.5c-1.833,0-1.875-1.833-1.958-3.25
				C108.025,126.833,108.567,125.583,109.817,125.5z"/>
			<path style="fill:#BFDAF9;" d="M235.65,85.667c0,0,0.167,52.833,0.333,57c0.167,4.167,0.333,11.167,7.333,11.167
				s33.5-0.5,38.333-0.833s8.833-4.167,8.667-9.167c-0.167-5-1.912-57.521-1.912-57.521L235.65,85.667z"/>
			<path style="fill:#96BCEF;" d="M244.483,94.75c0,0,0.216,46.78,0.312,49.281c0.062,1.625,1.029,2.965,2.656,2.875
				c1.688-0.094,2.875-0.594,2.875-3.344s-0.844-49.812-0.844-49.812L244.483,94.75z"/>
			<path style="fill:#96BCEF;" d="M255.358,94.75c0,0,0.5,46.75,0.5,48.75s0.875,3.292,2.875,3.167s2.875-1.542,2.875-3.792
				s-1-48.625-1-48.625L255.358,94.75z"/>
			<path style="fill:#96BCEF;" d="M265.671,94.375c0,0,0.75,47.5,0.75,49s0.417,3.25,2.417,3.167c2-0.083,3-1.083,3.083-3
				c0.083-1.917-1.25-48.167-1.25-48.167L265.671,94.375z"/>
			<path style="fill:#96BCEF;" d="M275.483,93.5c0,0,1.25,46.875,1.25,48.625s0.375,4.125,2.5,4.125s3.333-0.542,3.458-3.167
				S280.733,92.5,280.733,92.5L275.483,93.5z"/>
			<g>
				<path style="fill:#F284EF;" d="M150.47,89.37c0,0-12.614,9.072-27.283,13.119c-1.863,0.514-3.275,1.669,0.467,1.557
					c3.551-0.106,8.317-0.673,13.407-2.479c0.998-0.354,2.295-0.406,0.973,0.96c-1.821,1.883-4.764,4.831-8.463,8.211
					c-1.271,1.161-2.193,3.122,0.956,1.482c5.301-2.762,14.219-8.792,23.916-21.269"/>
				<path style="fill:#32B964;" d="M191.317,76.333C216.65,82,224.233,104.75,259.983,111.25
					c33.164,6.03,51.226,20.42,51.226,28.421L344.983,132c0.002-27.25-35.75-42.75-75-53c-38.63-10.088-51-38.5-79.5-38.5
					c-23,0-55.749,38.828-45.167,49.833c8.333,8.667,50-2.667,57.667-23"/>
				<g>
					<path style="fill:#0A965A;" d="M203.643,65.798c-1.911,4.891-5.256,9.278-7.908,11.749c1.612,0.526,3.15,1.125,4.634,1.783
						c3.061-4.588,4.021-9.804,4.298-13.252C204.854,63.767,204.097,64.638,203.643,65.798z"/>
				</g>
				<path style="fill:#4D4D87;" d="M166.233,76.5c1.768,2.652,11.48-2.361,8.625-6.5C172.358,66.375,163.983,73.125,166.233,76.5z"
					/>
				<path style="fill:#4D4D87;" d="M151.358,73.625c1.816,0.838,6.875-7.125,4.25-8.125S148.108,72.125,151.358,73.625z"/>
				<path style="fill:#0A965A;" d="M332.971,107.206c3.574,8.984-2.068,20.193-1.488,29.294c0.388,6.078,3.652,11.35,6.714,15.026
					c4.119-5.761,6.786-12.283,6.786-19.526C344.984,122.358,340.493,114.194,332.971,107.206z"/>
				<path style="fill:#0A965A;" d="M215.554,48.477c-7.604-4.708-15.41-7.977-25.07-7.977c-5.951,0-12.554,2.603-18.892,6.648
					C188.069,53.425,200.93,47.992,215.554,48.477z"/>
				<path style="fill:#0A965A;" d="M270.483,94.5c14.375,4.08,24.977-3.159,35.441-3.658C295.039,86.198,282.7,82.321,269.983,79
					c-8.726-2.279-16.103-5.496-22.637-9.106C253.099,78.362,255.751,90.319,270.483,94.5z"/>
			</g>
			<path style="fill:#3E416D;" d="M189.275,91.917c1.917,0.958-0.06,3.92-0.504,4.487c-6.481,8.265-15.596,13.38-21.62,15.358
				c-0.842,0.277-2.674,0.372-5.242-4.029c-0.908-1.555-0.256-2.597,0.673-2.924c6.236-2.194,12.212-2.341,23.32-12.466
				C186.606,91.7,188.347,91.453,189.275,91.917z"/>
			<path style="fill:#3E416D;" d="M196.9,94.125c1.208-0.042,1.5,1.625,1.428,3.273c-0.33,7.564-2.332,14.005-6.022,17.893
				c-0.963,1.015-2.78,0.443-4.799-0.722c-0.59-0.34-0.802-1.136-0.397-1.683c2.683-3.625,5.98-7.752,7.704-17.403
				C194.884,95.089,195.15,94.185,196.9,94.125z"/>
		</g>
	</g>
</g>
</svg>
