<svg xmlns="http://www.w3.org/2000/svg" xmlns:xlink="http://www.w3.org/1999/xlink" viewBox="0 0 400 240"><style>.B{fill:#1ea85f}.C{fill:#0a965a}.D{fill:#5bc783}.E{fill:#1e96ff}.F{fill:#0078e6}.G{fill:#4d4d87}.H{fill:#d9e8fb}.I{clip-path:url(#A)}</style><defs><clipPath id="A"><path fill="none" d="M0 0h400v240H0z"/></clipPath><clipPath id="B"><path fill="none" d="M33.62 108.8c5 6.67 9.14 3.78 15.88.88 17.12-7.4 35.25-11.25 50.9-11.4 6.67-.06 13.22-.36 14.72-9 1-5.57 3.88-13.5 9-16.7-26.8-5.8-59.68-1.94-90.6 10.6-5.9 7.6-4.03 20.1.1 25.6z"/></clipPath><path id="C" d="M66.86 29.65c-4.36.1-6 3.82-6.2 8.16-.2 4 1.12 8.62 6.2 8.64 4.86 0 6.17-3.53 6.1-9.1-.05-4-2.5-7.78-6.1-7.7zm3 8.93c-.12 3.36-1.13 5-2.77 5.05-2 0-3.24-2.58-3.33-4.92s1.1-6 3-5.93c2.33.07 3.24 2.22 3.1 5.8z"/><path id="D" d="M67.06 69.45c-4.36.1-6 3.82-6.2 8.16-.2 4 1.12 8.62 6.2 8.64 4.86 0 6.17-3.53 6.1-9.1-.05-4-2.5-7.78-6.1-7.7zm3 8.93c-.1 3.36-1.13 5-2.77 5.05-2 0-3.24-2.58-3.32-4.92s1.1-6 3-5.93c2.33.07 3.2 2.18 3.1 5.8z"/><path id="E" d="M145.94 55.56c-.57.3-.53.53-.33.9a5.3 5.3 0 0 0 1.16 1.46.74.74 0 0 0 .9.15 12.34 12.34 0 0 0 3.9-3c.18-.23.32-.08.3.3 0 2-.7 7.18-1.34 11.14-.06.36 0 1 .62 1.07a14 14 0 0 0 2.23 0c.7 0 1.1-.23 1.2-1a72 72 0 0 0-.05-14.38c-.1-.6-.2-.9-.9-1-.93-.2-1.2-.3-1.7.16a29.32 29.32 0 0 1-5.99 4.19z"/><path id="F" d="M147 134.55c-.57.3-.53.53-.33.9a5.39 5.39 0 0 0 1.16 1.45.74.74 0 0 0 .9.15 12.17 12.17 0 0 0 3.9-3c.18-.23.32-.1.3.3 0 2-.7 7.17-1.34 11.13-.06.37-.05 1 .62 1.07a14 14 0 0 0 2.23 0c.7 0 1.1-.22 1.2-1a72 72 0 0 0-.05-14.38c-.08-.6-.2-.88-.9-1.05-.93-.2-1.2-.28-1.7.16a29.32 29.32 0 0 1-5.99 4.25z"/><path id="G" d="M165.82 55.85c-.57.3-.53.53-.32.9a5 5 0 0 0 1.16 1.45.75.75 0 0 0 .9.16 12.18 12.18 0 0 0 3.89-3c.2-.23.32-.08.32.3 0 2-.72 7.18-1.34 11.13-.06.37-.05 1 .6 1.07a14 14 0 0 0 2.23 0c.7 0 1.1-.22 1.2-1a71.33 71.33 0 0 0-.05-14.39c-.08-.6-.2-.88-.9-1-.94-.22-1.2-.3-1.7.15a29.32 29.32 0 0 1-5.99 4.21z"/><path id="H" d="M184 35.36c-.57.3-.53.54-.32.9a5.09 5.09 0 0 0 1.16 1.46.76.76 0 0 0 .9.15 12.18 12.18 0 0 0 3.89-3c.2-.23.32-.08.32.3 0 2-.72 7.18-1.34 11.13-.06.37-.05 1 .6 1.07a14 14 0 0 0 2.23 0c.7 0 1.1-.23 1.2-1a71.33 71.33 0 0 0-.05-14.39c-.08-.6-.2-.88-.9-1-.94-.22-1.2-.3-1.7.15a29.37 29.37 0 0 1-6 4.21z"/><path id="I" d="M188.76 11.4c-4.35.1-6 3.82-6.2 8.15-.2 4 1.12 8.63 6.2 8.65 4.87 0 6.18-3.53 6.1-9.1-.05-4-2.5-7.78-6.1-7.7zm3 8.93c-.1 3.35-1.12 5-2.76 5-2 .06-3.24-2.57-3.33-4.9s1.1-6 3-5.93c2.33.1 3.22 2.22 3.1 5.84z"/><path id="J" d="M330 152.1c-4.36.1-6 3.83-6.2 8.16-.2 4 1.12 8.62 6.2 8.64 4.86 0 6.17-3.53 6.1-9.1-.02-4-2.48-7.8-6.1-7.7zm3 8.93c-.1 3.36-1.13 5-2.77 5.05-2 0-3.24-2.58-3.32-4.9s1.1-6 3-5.94c2.36.07 3.24 2.18 3.1 5.77z"/><path id="K" d="M327.4 32.9c-4.35.1-6 3.82-6.2 8.15-.2 4 1.12 8.62 6.2 8.65 4.86 0 6.18-3.54 6.1-9.12-.05-4-2.5-7.77-6.1-7.68zm3 8.93c-.1 3.35-1.13 5-2.76 5-2 .06-3.25-2.58-3.33-4.9s1.1-6 3-5.94c2.33.1 3.2 2.22 3.1 5.85z"/><path id="L" d="M229.36 132.1c-4.35.1-6 3.83-6.2 8.16-.2 4 1.13 8.62 6.2 8.64 4.86 0 6.18-3.53 6.1-9.1-.05-4-2.47-7.8-6.1-7.7zm3 8.93c-.1 3.36-1.13 5-2.76 5.05-2 0-3.25-2.58-3.33-4.9s1.1-6 3-5.94c2.33.07 3.2 2.18 3.1 5.77z"/><path id="M" d="M344.25 176.3c-.57.3-.53.53-.32.9a5 5 0 0 0 1.16 1.46.73.73 0 0 0 .9.15 12.16 12.16 0 0 0 3.89-3c.2-.24.33-.1.32.3 0 2-.72 7.17-1.34 11.13-.06.37-.05 1 .6 1.07a14 14 0 0 0 2.23 0c.72 0 1.1-.23 1.2-1a71.76 71.76 0 0 0-.06-14.38c-.08-.6-.2-.88-.9-1.05-.94-.2-1.2-.28-1.7.16a29.37 29.37 0 0 1-6 4.25z"/><path id="N" d="M346.15-6.64c-4.36.1-6 3.82-6.2 8.15-.2 4 1.12 8.62 6.2 8.65 4.86 0 6.17-3.54 6.1-9.1-.05-4-2.5-7.78-6.1-7.7zm3 8.93c-.12 3.35-1.13 5-2.77 5-2 .06-3.24-2.58-3.33-4.9s1.1-6 3-5.93c2.33.1 3.22 2.22 3.1 5.84z"/></defs><path fill="#32b964" d="M0 0h400v240H0z"/><g class="I"><path d="M45.9 31.26c-4.35.1-6 3.83-6.2 8.16-.2 4 1.12 8.62 6.2 8.64 4.86 0 6.18-3.53 6.1-9.1-.02-3.95-2.5-7.77-6.1-7.7zm3 8.93c-.1 3.36-1.12 5-2.76 5.05-2 0-3.24-2.58-3.33-4.9s1.1-6 3-5.94c2.33.07 3.18 2.18 3.1 5.8z" class="B"/><path d="M39.78 14.8c-.57.3-.53.54-.32.9a5.05 5.05 0 0 0 1.15 1.45.75.75 0 0 0 .9.16 12.34 12.34 0 0 0 3.9-3c.18-.23.32-.08.3.3 0 2-.7 7.18-1.34 11.13-.06.37-.05 1 .62 1.07a14 14 0 0 0 2.23.05c.7 0 1.1-.23 1.2-1a72.11 72.11 0 0 0-.05-14.39c-.08-.6-.2-.88-.9-1-.93-.22-1.2-.3-1.7.15a29.32 29.32 0 0 1-5.99 4.16z" class="C"/><path d="M46.12 51.06c-4.36.1-6 3.83-6.2 8.16-.2 4 1.12 8.62 6.2 8.64 4.86 0 6.17-3.53 6.1-9.1-.05-4-2.5-7.75-6.1-7.7zm3 8.93c-.12 3.36-1.12 5-2.77 5-2 0-3.24-2.58-3.33-4.9s1.1-6 3-5.94c2.33.1 3.22 2.22 3.1 5.85z" class="D"/><path d="M41.4 75c-.58.3-.54.53-.33.9a5 5 0 0 0 1.16 1.46.73.73 0 0 0 .9.15 12.3 12.3 0 0 0 3.89-3c.2-.24.33-.1.32.3 0 2-.72 7.17-1.34 11.13-.06.36 0 1 .6 1.07a14 14 0 0 0 2.23 0c.72 0 1.1-.23 1.2-1A71 71 0 0 0 50 71.71c-.08-.6-.2-.9-.9-1-.94-.2-1.2-.3-1.7.16A29.59 29.59 0 0 1 41.4 75z" class="B"/><path d="M46.92 90.26c-4.35.1-6 3.82-6.2 8.15-.2 4 1.12 8.62 6.2 8.65 4.86 0 6.18-3.54 6.1-9.1-.03-3.95-2.5-7.78-6.1-7.7zm3 8.93c-.1 3.35-1.12 5-2.76 5-2 .06-3.24-2.58-3.33-4.9s1.1-6 3-5.94c2.33.1 3.22 2.22 3.1 5.85zm-3 11.07c-4.35.1-6 3.82-6.2 8.15-.2 4 1.12 8.62 6.2 8.65 4.86 0 6.18-3.54 6.1-9.1-.03-3.95-2.5-7.78-6.1-7.7zm3 8.93c-.1 3.35-1.12 5-2.76 5-2 .06-3.24-2.58-3.33-4.9s1.1-6 3-5.93c2.33.1 3.22 2.22 3.1 5.84z" class="C"/><path d="M47.13 130.06c-4.36.1-6 3.82-6.2 8.15-.2 4 1.12 8.62 6.2 8.65 4.86 0 6.17-3.54 6.1-9.1-.05-4-2.5-7.75-6.1-7.7zm3 8.93c-.12 3.35-1.13 5-2.77 5-2 .06-3.24-2.58-3.33-4.9s1.1-6 3-5.94c2.33.1 3.22 2.22 3.1 5.86zm-7.73 15c-.58.3-.54.53-.33.9a5 5 0 0 0 1.16 1.45.73.73 0 0 0 .9.15 12 12 0 0 0 3.89-3c.2-.23.33-.08.32.3 0 2-.72 7.17-1.34 11.13-.06.37 0 1 .6 1.07a14 14 0 0 0 2.23 0c.72 0 1.1-.22 1.2-1a71.09 71.09 0 0 0-.03-14.3c-.08-.6-.2-.88-.9-1-.94-.2-1.2-.28-1.7.16a29.59 29.59 0 0 1-6 4.14z" class="B"/><path d="M47.93 169.25c-4.35.1-6 3.82-6.2 8.16-.2 4 1.12 8.62 6.2 8.64 4.87 0 6.18-3.53 6.1-9.1-.04-4-2.5-7.78-6.1-7.7zm3 8.93c-.1 3.36-1.12 5-2.76 5-2 .05-3.24-2.58-3.33-4.92s1.1-6 3-5.93c2.33.1 3.22 2.23 3.1 5.85zM43.2 193.2c-.57.3-.53.54-.32.9a5.09 5.09 0 0 0 1.16 1.46.76.76 0 0 0 .9.15 12.18 12.18 0 0 0 3.89-3c.2-.23.32-.08.32.3 0 2-.72 7.18-1.34 11.14-.06.36 0 1 .6 1.07a14 14 0 0 0 2.23 0c.7 0 1.1-.23 1.2-1a71.33 71.33 0 0 0-.05-14.39c-.08-.6-.2-.88-.9-1-.94-.22-1.2-.3-1.7.15a29.37 29.37 0 0 1-6 4.2zm-.14 19.25c-.57.3-.53.53-.32.9a5 5 0 0 0 1.16 1.46.73.73 0 0 0 .9.15 12.41 12.41 0 0 0 3.89-3c.2-.24.32-.1.32.3 0 2-.72 7.17-1.35 11.13 0 .37 0 1 .62 1.07a14 14 0 0 0 2.23 0c.7 0 1.1-.23 1.2-1a71.22 71.22 0 0 0-.05-14.38c-.08-.6-.2-.9-.9-1-.94-.2-1.2-.28-1.7.16a29.32 29.32 0 0 1-5.99 4.2z" class="C"/><path d="M42.9 231.7c-.57.3-.53.53-.32.9a5.19 5.19 0 0 0 1.15 1.45.75.75 0 0 0 .9.16 12.34 12.34 0 0 0 3.9-3c.2-.23.32-.08.3.3 0 2-.7 7.17-1.34 11.13 0 .37 0 1 .62 1.07a14 14 0 0 0 2.23 0c.7 0 1.1-.22 1.2-1a71.33 71.33 0 0 0 0-14.39c-.08-.6-.2-.88-.9-1-.93-.2-1.2-.28-1.7.16a29.32 29.32 0 0 1-6.04 4.2z" class="B"/><path d="M44.5-9.14c-4.35.1-6 3.82-6.2 8.15-.2 4 1.12 8.62 6.2 8.65 4.86 0 6.17-3.54 6.1-9.1-.04-4-2.5-7.78-6.1-7.7zm3 8.93c-.1 3.35-1.13 5-2.77 5-2 .06-3.24-2.57-3.32-4.9s1.1-6 3-5.93c2.33.1 3.2 2.22 3.1 5.84z" class="C"/><path d="M66.05-9.54c-4.36.1-6 3.82-6.2 8.15-.2 4 1.12 8.62 6.2 8.65 4.86 0 6.17-3.54 6.1-9.1-.05-4-2.5-7.78-6.1-7.7zm3 8.93c-.12 3.35-1.13 5-2.77 5C64.25 4.5 63 1.85 63-.48s1.1-6 3-5.93c2.3.06 3.17 2.17 3.05 5.8z" class="B"/><path d="M61.33 14.4c-.57.3-.53.53-.33.9a5.2 5.2 0 0 0 1.16 1.45.75.75 0 0 0 .9.16 12.18 12.18 0 0 0 3.89-3c.2-.23.33-.08.32.3 0 2-.7 7.18-1.34 11.13-.06.37-.05 1 .6 1.07a14 14 0 0 0 2.23 0c.72 0 1.1-.22 1.2-1a72.11 72.11 0 0 0 0-14.39c-.1-.6-.2-.88-.9-1-.94-.22-1.2-.3-1.7.15a29.32 29.32 0 0 1-6.04 4.21z" class="D"/><use class="B" xlink:href="#C"/><g class="C"><use y="20" xlink:href="#C"/><use xlink:href="#D"/><path d="M62.34 93.4c-.57.3-.53.54-.33.9a5.12 5.12 0 0 0 1.16 1.46.75.75 0 0 0 .9.15 12.18 12.18 0 0 0 3.89-3c.2-.23.33-.08.32.3 0 2-.7 7.18-1.34 11.14-.06.36 0 1 .6 1.07a14 14 0 0 0 2.23 0c.72 0 1.1-.23 1.2-1a72.11 72.11 0 0 0 0-14.39c-.1-.6-.2-.88-.9-1-.94-.2-1.2-.3-1.7.15a28.93 28.93 0 0 1-6.04 4.2zm5.53 15.24c-4.36.1-6 3.83-6.2 8.16-.2 4 1.12 8.62 6.2 8.64 4.86 0 6.17-3.53 6.1-9.1-.05-4-2.5-7.77-6.1-7.7zm3 8.93c-.12 3.36-1.13 5-2.77 5.05-2 0-3.24-2.58-3.33-4.9s1.1-6 3-5.94c2.33.07 3.23 2.23 3.1 5.8zm-7.72 15.03c-.58.3-.54.53-.33.9A5 5 0 0 0 64 135a.73.73 0 0 0 .9.15 12.16 12.16 0 0 0 3.89-3c.2-.24.33-.1.32.3 0 2-.72 7.17-1.34 11.13-.06.37 0 1 .6 1.07a14 14 0 0 0 2.23 0c.72 0 1.1-.23 1.2-1a72 72 0 0 0-.05-14.38c-.1-.6-.2-.88-.9-1-.94-.2-1.2-.28-1.7.16a29.59 29.59 0 0 1-6.01 4.16zM63 151.84c-.57.3-.53.53-.32.9a4.9 4.9 0 0 0 1.16 1.45.75.75 0 0 0 .9.16 12.18 12.18 0 0 0 3.89-3c.2-.23.33-.08.32.3 0 2-.72 7.18-1.34 11.13-.06.37 0 1 .6 1.07a15.34 15.34 0 0 0 2.23 0c.72 0 1.1-.23 1.2-1a71.33 71.33 0 0 0 0-14.39c-.08-.6-.2-.88-.9-1-.94-.22-1.2-.3-1.7.15a29.37 29.37 0 0 1-6.05 4.21z"/></g><path d="M62.84 171.08c-.57.3-.53.54-.32.9a5 5 0 0 0 1.16 1.46.75.75 0 0 0 .9.15 12.18 12.18 0 0 0 3.89-3c.2-.23.32-.08.32.3 0 2-.72 7.18-1.34 11.14-.06.36 0 1 .6 1.07a14 14 0 0 0 2.23 0c.7 0 1.1-.23 1.2-1a71.33 71.33 0 0 0 0-14.39c-.08-.6-.2-.88-.9-1-.94-.2-1.2-.3-1.7.15a28.93 28.93 0 0 1-6.04 4.2zm5.53 15.25c-4.35.1-6 3.82-6.2 8.15-.2 4 1.13 8.62 6.2 8.64 4.86 0 6.18-3.53 6.1-9.1-.05-4-2.48-7.77-6.1-7.68zm3 8.92c-.1 3.36-1.13 5-2.76 5.05-2 0-3.25-2.58-3.33-4.9s1.1-6 3-5.94c2.33.07 3.2 2.18 3.1 5.8z" class="B"/><path d="M68.37 206.33c-4.35.1-6 3.82-6.2 8.15-.2 4 1.13 8.62 6.2 8.65 4.86 0 6.18-3.54 6.1-9.12-.05-4-2.48-7.77-6.1-7.68zm3 8.93c-.1 3.35-1.13 5-2.76 5-2 .06-3.25-2.58-3.33-4.9s1.1-6 3-5.94c2.33.1 3.2 2.22 3.1 5.85z" class="D"/><path d="M108.7 51.35c-4.35.1-6 3.82-6.2 8.16-.2 4 1.12 8.62 6.2 8.64 4.86 0 6.18-3.53 6.1-9.1-.05-4.04-2.5-7.78-6.1-7.7zm3 8.93c-.1 3.36-1.13 5-2.76 5-2 0-3.25-2.58-3.33-4.92s1.1-6 3-5.93c2.38.12 3.2 2.23 3.1 5.85z" class="C"/><path d="M102.58 34.9c-.57.3-.53.53-.33.9a5.39 5.39 0 0 0 1.16 1.45.74.74 0 0 0 .9.15 12.17 12.17 0 0 0 3.9-3c.18-.23.32-.1.3.3 0 2-.7 7.17-1.34 11.13-.06.37-.05 1 .62 1.07a14 14 0 0 0 2.23 0c.7 0 1.1-.22 1.2-1a72 72 0 0 0 0-14.38c-.1-.6-.2-.88-.9-1.05-.94-.2-1.2-.28-1.7.16a29.32 29.32 0 0 1-6.04 4.25z" class="D"/><path d="M108.92 71.15c-4.36.1-6 3.82-6.2 8.16-.2 4 1.12 8.62 6.2 8.64 4.86 0 6.17-3.53 6.1-9.1-.02-4-2.5-7.78-6.1-7.7zm3 8.93c-.1 3.36-1.12 5-2.76 5-2 .05-3.24-2.58-3.33-4.92s1.1-6 3-5.93c2.32.12 3.17 2.23 3.08 5.85zM104.2 95.1c-.57.3-.53.54-.32.9a5.09 5.09 0 0 0 1.13 1.46.76.76 0 0 0 .9.15 12.18 12.18 0 0 0 3.89-3c.2-.23.33-.08.32.3 0 2-.72 7.18-1.34 11.14-.06.36 0 1 .6 1.07a14 14 0 0 0 2.23 0c.72 0 1.1-.23 1.2-1a71.87 71.87 0 0 0-.06-14.39c-.08-.6-.2-.88-.9-1-.94-.22-1.2-.3-1.7.15a29.37 29.37 0 0 1-5.97 4.2z" class="C"/><path d="M109.72 110.34c-4.35.1-6 3.83-6.2 8.16-.2 4 1.12 8.62 6.2 8.64 4.86 0 6.18-3.53 6.1-9.1-.05-4.03-2.5-7.77-6.1-7.7zm3 8.93c-.1 3.36-1.13 5-2.76 5-2 .05-3.25-2.58-3.33-4.9s1.1-6 3-5.94c2.37.12 3.2 2.23 3.1 5.85z" class="B"/><path d="M109.72 130.35c-4.35.1-6 3.82-6.2 8.15-.2 4 1.12 8.62 6.2 8.64 4.86 0 6.18-3.53 6.1-9.1-.05-4.03-2.5-7.77-6.1-7.68zm3 8.92c-.1 3.36-1.13 5-2.76 5-2 .05-3.25-2.58-3.33-4.9s1.1-6 3-5.94c2.37.12 3.2 2.23 3.1 5.85zm-2.8 10.87c-4.36.1-6 3.83-6.2 8.16-.2 4 1.12 8.62 6.2 8.64 4.86 0 6.17-3.53 6.1-9.1-.03-4-2.5-7.77-6.1-7.7zm3 8.93c-.1 3.36-1.12 5-2.76 5.05-2 0-3.24-2.58-3.33-4.9s1.1-6 3-5.94c2.32.07 3.2 2.18 3.08 5.8z" class="C"/><path d="M105.2 174.1c-.57.3-.53.53-.32.9a5 5 0 0 0 1.16 1.46.73.73 0 0 0 .9.15 12.3 12.3 0 0 0 3.89-3c.2-.24.33-.1.32.3 0 2-.72 7.17-1.34 11.13-.06.37 0 1 .6 1.07a14 14 0 0 0 2.23 0c.72 0 1.1-.23 1.2-1a71.76 71.76 0 0 0-.06-14.38c-.08-.6-.2-.9-.9-1-.94-.2-1.2-.28-1.7.16a29.37 29.37 0 0 1-6 4.2zm5.53 15.24c-4.35.1-6 3.82-6.2 8.15-.2 4 1.12 8.62 6.2 8.65 4.86 0 6.18-3.54 6.1-9.1-.05-4.03-2.5-7.78-6.1-7.7zm3 8.93c-.1 3.35-1.13 5-2.76 5-2 .06-3.25-2.58-3.33-4.9s1.1-6 3-5.93c2.36.1 3.2 2.2 3.1 5.84z" class="B"/><path d="M106 213.3c-.57.3-.53.53-.32.9a5 5 0 0 0 1.16 1.45.75.75 0 0 0 .9.16 12.18 12.18 0 0 0 3.89-3c.2-.23.32-.08.32.3 0 2-.72 7.18-1.34 11.13-.06.37-.05 1 .6 1.07a14 14 0 0 0 2.23 0c.7 0 1.1-.22 1.2-1a71.33 71.33 0 0 0-.04-14.32c-.08-.6-.2-.88-.9-1-.94-.22-1.2-.3-1.7.15a29.32 29.32 0 0 1-6 4.14zm-.14 19.23c-.57.3-.53.54-.32.9a5.09 5.09 0 0 0 1.16 1.46.74.74 0 0 0 .89.15 12.23 12.23 0 0 0 3.9-3c.2-.23.32-.08.3.3 0 2-.7 7.18-1.34 11.14 0 .36 0 1 .62 1.07a14 14 0 0 0 2.23 0c.7 0 1.1-.23 1.2-1a71.33 71.33 0 0 0 0-14.39c-.08-.6-.2-.88-.9-1-.93-.22-1.2-.3-1.7.15a29.32 29.32 0 0 1-6.04 4.2zM107.1-8.85c-4.36.1-6 3.82-6.2 8.15-.2 4 1.12 8.62 6.2 8.65 4.86 0 6.17-3.54 6.1-9.1-.05-4-2.5-7.78-6.1-7.7zm3 8.93c-.12 3.35-1.13 5-2.77 5-2 .06-3.24-2.58-3.33-4.9s1.1-6 3-5.94c2.33.1 3.22 2.22 3.1 5.85z" class="C"/><path d="M107.3 11c-4.36.1-6 3.82-6.2 8.15-.2 4 1.12 8.62 6.2 8.65 4.86 0 6.17-3.54 6.1-9.12-.05-4.05-2.5-7.82-6.1-7.68zm3 8.92c-.1 3.36-1.13 5-2.77 5.05-2 .06-3.24-2.58-3.32-4.9s1.1-6 3-5.94c2.33.02 3.2 2.13 3.1 5.75z" class="B"/><path d="M88.05 71.83c-4.36.1-6 3.82-6.2 8.15-.2 4 1.12 8.62 6.2 8.65 4.86 0 6.17-3.54 6.1-9.1-.05-4-2.5-7.78-6.1-7.7zm3 8.93c-.1 3.35-1.12 5-2.76 5-2 .06-3.24-2.58-3.33-4.9s1.1-6 3-5.93c2.32.08 3.2 2.22 3.04 5.84zM81.9 55.38c-.57.3-.53.53-.32.9a5.11 5.11 0 0 0 1.15 1.46.74.74 0 0 0 .9.15 12.34 12.34 0 0 0 3.9-3c.2-.23.32-.08.3.3 0 2-.7 7.18-1.34 11.14-.05.36-.05 1 .62 1.07a14 14 0 0 0 2.23 0c.7 0 1.1-.23 1.2-1a71.2 71.2 0 0 0 0-14.38c-.08-.6-.2-.9-.9-1-.93-.2-1.2-.3-1.7.16a29.32 29.32 0 0 1-6.04 4.19zm6.35 36.25c-4.36.1-6 3.82-6.2 8.15-.2 4 1.12 8.62 6.2 8.65 4.86 0 6.17-3.54 6.1-9.1-.05-4-2.5-7.78-6.1-7.7zm3 8.93c-.12 3.35-1.13 5-2.77 5-2 .06-3.24-2.58-3.33-4.9s1.1-6 3-5.94c2.34.1 3.22 2.22 3.1 5.85zm-7.72 15.02c-.57.3-.54.53-.33.9a5 5 0 0 0 1.16 1.45.75.75 0 0 0 .9.16 12.18 12.18 0 0 0 3.89-3c.2-.23.33-.08.32.3 0 2-.72 7.17-1.34 11.13-.06.37 0 1 .6 1.07a14 14 0 0 0 2.23 0c.72 0 1.1-.22 1.2-1a72.11 72.11 0 0 0 0-14.39c-.1-.6-.2-.88-.9-1-.94-.2-1.2-.28-1.7.16a29.59 29.59 0 0 1-6.04 4.2z" class="C"/><path d="M89.06 130.82c-4.36.1-6 3.82-6.2 8.16-.2 4 1.12 8.62 6.2 8.64 4.86 0 6.17-3.53 6.1-9.1-.05-4-2.5-7.78-6.1-7.7zm3 8.93c-.1 3.36-1.12 5-2.76 5.05-2 0-3.24-2.58-3.33-4.92s1.1-6 3-5.93c2.32.05 3.2 2.18 3.08 5.8z" class="D"/><path d="M86.43 11.62c-4.36.1-6 3.83-6.2 8.16-.2 4 1.12 8.62 6.2 8.64 4.86 0 6.17-3.53 6.1-9.1-.05-4-2.53-7.78-6.1-7.7zm3 8.93c-.1 3.36-1.13 5-2.77 5.05-2 0-3.24-2.58-3.32-4.9s1.1-6 3-5.94c2.33.07 3.2 2.18 3.1 5.8zM80.3-4.83c-.57.3-.53.53-.32.9a4.9 4.9 0 0 0 1.16 1.45.75.75 0 0 0 .9.16 12.18 12.18 0 0 0 3.89-3c.2-.23.33-.08.32.3 0 2-.72 7.18-1.34 11.13-.06.37-.05 1 .6 1.07a14 14 0 0 0 2.23 0c.72 0 1.1-.22 1.2-1a71.33 71.33 0 0 0-.05-14.39c-.08-.6-.2-.88-.9-1-.98-.2-1.2-.28-1.7.2a29.37 29.37 0 0 1-6 4.17zm6.33 36.25c-4.35.1-6 3.82-6.2 8.16-.2 4 1.12 8.62 6.2 8.64 4.86 0 6.18-3.53 6.1-9.1-.05-4-2.52-7.78-6.1-7.7zm3 8.93c-.1 3.36-1.13 5-2.76 5-2 .05-3.25-2.58-3.33-4.9s1.1-6 3-5.94c2.33.12 3.2 2.23 3.1 5.85z" class="C"/><path d="M20.84-3.18c-.57.3-.53.53-.33.9a5.39 5.39 0 0 0 1.16 1.45.75.75 0 0 0 .9.16 12.34 12.34 0 0 0 3.9-3c.18-.23.32-.08.3.3 0 2-.7 7.17-1.34 11.13-.06.37-.05 1 .62 1.07a14 14 0 0 0 2.23 0c.7 0 1.1-.22 1.2-1a72.11 72.11 0 0 0-.05-14.39c-.1-.6-.2-.88-.9-1-.94-.2-1.2-.28-1.7.16a29.32 29.32 0 0 1-5.99 4.2zm5.53 15.24c-4.36.1-6 3.82-6.2 8.16-.2 4 1.12 8.62 6.2 8.64 4.86 0 6.17-3.53 6.1-9.1-.05-4-2.47-7.75-6.1-7.7zm3 8.93c-.12 3.36-1.13 5-2.77 5.05-2 .05-3.24-2.58-3.33-4.92s1.1-6 3-5.93c2.34.07 3.22 2.18 3.1 5.8z" class="B"/><g class="C"><path d="M26.37 32.06c-4.36.1-6 3.82-6.2 8.16-.2 4 1.12 8.62 6.2 8.64 4.86 0 6.17-3.53 6.1-9.1-.05-4-2.47-7.75-6.1-7.7zm3 8.93c-.12 3.36-1.13 5-2.77 5-2 .05-3.24-2.58-3.33-4.92s1.1-6 3-5.93c2.34.12 3.22 2.23 3.1 5.86z"/><use x="-40.49" y="-17.59" xlink:href="#D"/><path d="M21.85 75.8c-.57.3-.53.54-.33.9a5.46 5.46 0 0 0 1.16 1.46.77.77 0 0 0 .9.15 12.34 12.34 0 0 0 3.9-3c.18-.23.32-.08.3.3 0 2-.7 7.18-1.34 11.14-.06.36-.05 1 .62 1.07a14 14 0 0 0 2.23 0c.7 0 1.1-.23 1.2-1a72.11 72.11 0 0 0 0-14.39c-.1-.6-.2-.88-.9-1-.94-.22-1.2-.3-1.7.15a29.32 29.32 0 0 1-6.04 4.2zm5.53 15.25c-4.36.1-6 3.83-6.2 8.16-.2 4 1.12 8.62 6.2 8.64 4.86 0 6.17-3.53 6.1-9.1-.05-4-2.48-7.74-6.1-7.7zm3 8.93c-.12 3.36-1.13 5-2.77 5-2 0-3.24-2.58-3.33-4.9s1.1-6 3-5.94c2.34.12 3.22 2.23 3.1 5.87zM22.66 115c-.57.3-.54.53-.33.9a5 5 0 0 0 1.16 1.46.74.74 0 0 0 .9.15 12.16 12.16 0 0 0 3.89-3c.2-.24.33-.1.32.3 0 2-.72 7.17-1.34 11.13-.06.37-.05 1 .6 1.07a14 14 0 0 0 2.23 0c.72 0 1.1-.23 1.2-1a72 72 0 0 0-.05-14.38c-.1-.6-.2-.9-.9-1-.94-.2-1.2-.28-1.7.16a29.59 29.59 0 0 1-5.99 4.2zm-.16 19.25c-.58.3-.54.53-.33.9a5 5 0 0 0 1.16 1.45.75.75 0 0 0 .9.16 12.18 12.18 0 0 0 3.89-3c.2-.23.33-.08.32.3 0 2-.72 7.18-1.34 11.13-.06.37-.05 1 .6 1.07a14 14 0 0 0 2.23 0c.72 0 1.1-.22 1.2-1a71.09 71.09 0 0 0-.06-14.39c-.08-.6-.2-.88-.9-1.05-.94-.2-1.2-.28-1.7.16a29.59 29.59 0 0 1-5.99 4.25z"/></g><path d="M29.07 188.7c-4.35.1-6 3.82-6.2 8.15-.2 4 1.12 8.62 6.2 8.64 4.86 0 6.18-3.53 6.1-9.1-.05-4-2.5-7.77-6.1-7.68zm3 8.92c-.1 3.36-1.13 5-2.76 5-2 .06-3.25-2.58-3.33-4.9s1.1-6 3-5.94c2.33.12 3.2 2.24 3.1 5.85z" class="D"/><path d="M24.35 212.64c-.57.3-.53.53-.32.9a5 5 0 0 0 1.16 1.45.73.73 0 0 0 .9.15 12.27 12.27 0 0 0 3.89-3c.2-.24.32-.1.32.3 0 2-.72 7.17-1.35 11.13-.05.37 0 1 .62 1.07a14 14 0 0 0 2.23 0c.7 0 1.1-.22 1.2-1a71.22 71.22 0 0 0-.05-14.38c-.08-.6-.2-.88-.9-1.05-.94-.2-1.2-.28-1.7.16a29.32 29.32 0 0 1-5.99 4.25z" class="B"/><path d="M29.88 227.88c-4.35.1-6 3.82-6.2 8.15-.2 4 1.12 8.63 6.2 8.65 4.86 0 6.17-3.53 6.1-9.1-.05-4-2.52-7.78-6.1-7.7zm3 8.93c-.1 3.35-1.13 5-2.76 5-2 .06-3.25-2.57-3.33-4.9s1.1-6 3-5.93c2.33.1 3.2 2.22 3.1 5.84z" class="D"/><path d="M8.05 31.35c-4.36.1-6 3.82-6.2 8.16-.2 4 1.12 8.62 6.2 8.64 4.86 0 6.17-3.53 6.1-9.1-.05-4.04-2.5-7.78-6.1-7.7zm3 8.93c-.12 3.36-1.13 5-2.77 5C6.25 45.38 5 42.75 5 40.4s1.1-6 3-5.93c2.28.07 3.17 2.18 3.05 5.8zM1.9 14.9c-.57.3-.53.53-.32.9a5 5 0 0 0 1.16 1.45.72.72 0 0 0 .89.15 12.06 12.06 0 0 0 3.9-3c.2-.23.32-.1.32.3 0 2-.72 7.17-1.35 11.13 0 .37 0 1 .62 1.07a14 14 0 0 0 2.23 0c.7 0 1.1-.22 1.2-1a71.25 71.25 0 0 0-.05-14.38c-.08-.6-.2-.88-.9-1.05-.93-.2-1.2-.28-1.7.16a29.32 29.32 0 0 1-5.99 4.25zm6.35 36.25c-4.36.1-6 3.82-6.2 8.16-.2 4 1.12 8.62 6.2 8.64 4.86 0 6.17-3.53 6.1-9.1-.05-4-2.5-7.78-6.1-7.7zm3 8.93c-.1 3.36-1.13 5-2.77 5-2 .05-3.24-2.58-3.32-4.92s1.1-6 3-5.93c2.33.12 3.2 2.23 3.1 5.85z" class="C"/><path d="M3.53 75.1c-.57.3-.53.54-.33.9a5.46 5.46 0 0 0 1.16 1.46.77.77 0 0 0 .9.15 12.18 12.18 0 0 0 3.89-3c.2-.23.33-.08.32.3 0 2-.7 7.18-1.34 11.14-.06.36-.05 1 .6 1.07a14 14 0 0 0 2.23 0c.72 0 1.1-.23 1.2-1a72.11 72.11 0 0 0-.05-14.39c-.1-.6-.2-.88-.9-1-.94-.22-1.2-.3-1.7.15a29.32 29.32 0 0 1-5.99 4.2z" class="B"/><path d="M9.06 90.34c-4.36.1-6 3.83-6.2 8.16-.2 4 1.12 8.62 6.2 8.64 4.86 0 6.17-3.53 6.1-9.1-.05-4.03-2.5-7.77-6.1-7.7zm3 8.93c-.12 3.36-1.13 5-2.77 5-2 .05-3.24-2.58-3.33-4.9s1.1-6 3-5.94c2.33.12 3.22 2.23 3.1 5.85z" class="D"/><path d="M9.06 110.35c-4.36.1-6 3.82-6.2 8.15-.2 4 1.12 8.62 6.2 8.64 4.86 0 6.17-3.53 6.1-9.1-.05-4.03-2.5-7.77-6.1-7.68zm3 8.92c-.12 3.36-1.13 5-2.77 5-2 .05-3.24-2.58-3.33-4.9s1.1-6 3-5.94c2.33.12 3.22 2.23 3.1 5.85zm-2.8 10.87c-4.36.1-6 3.83-6.2 8.16-.2 4 1.12 8.62 6.2 8.64 4.86 0 6.17-3.53 6.1-9.1-.05-4-2.5-7.77-6.1-7.7zm3 8.93c-.1 3.36-1.13 5-2.77 5.05-2 0-3.24-2.58-3.32-4.9s1.1-6 3-5.94c2.33.07 3.2 2.18 3.1 5.8zM4.54 154.1c-.57.3-.53.53-.33.9a5.3 5.3 0 0 0 1.16 1.46.74.74 0 0 0 .9.15 12.46 12.46 0 0 0 3.9-3c.18-.24.32-.1.3.3 0 2-.7 7.17-1.34 11.13-.06.37-.05 1 .6 1.07a14.12 14.12 0 0 0 2.24 0c.7 0 1.1-.23 1.2-1a72 72 0 0 0 0-14.38c-.1-.6-.2-.9-.9-1-.94-.2-1.2-.28-1.7.16a29.32 29.32 0 0 1-6.04 4.2z" class="C"/><path d="M10.07 169.34c-4.36.1-6 3.82-6.2 8.15-.2 4 1.12 8.62 6.2 8.65 4.86 0 6.17-3.54 6.1-9.1-.05-4.03-2.5-7.78-6.1-7.7zm3 8.93c-.12 3.35-1.13 5-2.77 5-2 .06-3.24-2.58-3.33-4.9s1.1-6 3-5.93c2.33.1 3.22 2.2 3.1 5.84z" class="B"/><path d="M5.35 193.3c-.58.3-.54.53-.33.9a5 5 0 0 0 1.16 1.45.75.75 0 0 0 .9.16 12.18 12.18 0 0 0 3.89-3c.2-.23.33-.08.32.3 0 2-.72 7.18-1.34 11.13-.06.37 0 1 .6 1.07a14 14 0 0 0 2.23 0c.72 0 1.1-.22 1.2-1a72.11 72.11 0 0 0-.05-14.32c-.1-.6-.2-.88-.9-1-.94-.22-1.2-.3-1.7.15a29.59 29.59 0 0 1-5.99 4.14zm-.15 19.23c-.57.3-.53.54-.32.9A5.09 5.09 0 0 0 6 214.9a.75.75 0 0 0 .9.15 12.18 12.18 0 0 0 3.89-3c.2-.23.33-.08.32.3 0 2-.72 7.18-1.34 11.14-.06.36-.05 1 .6 1.07a14 14 0 0 0 2.23 0c.72 0 1.1-.23 1.2-1a71.87 71.87 0 0 0-.06-14.39c-.08-.6-.2-.88-.9-1-.94-.22-1.2-.3-1.7.15a29.37 29.37 0 0 1-5.97 4.2zM6.63-9c-4.35.05-6 3.77-6.2 8.1-.2 4 1.13 8.62 6.2 8.65 4.86 0 6.18-3.54 6.1-9.12-.05-4-2.5-7.77-6.1-7.63zm3 8.92c-.1 3.36-1.13 5-2.76 5.05C4.83 5 3.62 2.34 3.54 0s1.1-6 3-5.94c2.33.08 3.2 2.2 3.1 5.8z" class="D"/><path d="M128.67-7.4c-4.35.1-6 3.83-6.2 8.16-.2 4 1.12 8.62 6.2 8.64 4.86 0 6.17-3.53 6.1-9.1-.05-4-2.5-7.77-6.1-7.7zm3 8.93c-.1 3.36-1.13 5-2.77 5.05-2 0-3.24-2.58-3.32-4.9s1.1-6 3-5.94c2.33.07 3.2 2.18 3.1 5.8zM124 16.55c-.57.3-.53.53-.33.9a5.3 5.3 0 0 0 1.16 1.46.74.74 0 0 0 .9.15 12.31 12.31 0 0 0 3.9-3c.18-.24.32-.1.3.3 0 2-.7 7.17-1.34 11.13-.06.37-.05 1 .62 1.07a14 14 0 0 0 2.23 0c.7 0 1.1-.23 1.2-1a72 72 0 0 0-.05-14.38c-.08-.6-.2-.88-.9-1.05-.93-.2-1.2-.28-1.7.16a29.32 29.32 0 0 1-5.99 4.25zm5.48 15.25c-4.36.1-6 3.82-6.2 8.15-.2 4 1.12 8.62 6.2 8.65 4.86 0 6.17-3.54 6.1-9.1-.05-4-2.5-7.78-6.1-7.7zm3 8.93c-.12 3.35-1.13 5-2.77 5-2 .06-3.24-2.58-3.33-4.9s1.1-6 3-5.93c2.34.12 3.22 2.22 3.1 5.84zm-7.72 15c-.57.3-.54.53-.33.9a4.9 4.9 0 0 0 1.16 1.45.75.75 0 0 0 .9.16 12.18 12.18 0 0 0 3.89-3c.2-.23.33-.08.32.3 0 2-.72 7.18-1.34 11.13-.06.37-.05 1 .6 1.07a14 14 0 0 0 2.23.05c.72 0 1.1-.23 1.2-1a72.11 72.11 0 0 0-.05-14.39c-.1-.6-.2-.88-.9-1-.94-.22-1.2-.3-1.7.15a29.59 29.59 0 0 1-5.99 4.16zM124.6 75c-.58.3-.54.54-.33.9a5 5 0 0 0 1.16 1.46.73.73 0 0 0 .9.15 12.18 12.18 0 0 0 3.89-3c.2-.23.33-.08.32.3 0 2-.72 7.18-1.34 11.14-.06.36-.05 1 .6 1.07a14 14 0 0 0 2.23 0c.72 0 1.1-.23 1.2-1a71.09 71.09 0 0 0-.06-14.39c-.08-.6-.2-.88-.9-1-.94-.2-1.2-.3-1.7.15a29.2 29.2 0 0 1-5.99 4.2z" class="C"/><path d="M127.06 154.27c-.57.3-.54.54-.33.9a5.09 5.09 0 0 0 1.16 1.46.75.75 0 0 0 .9.15 12.18 12.18 0 0 0 3.89-3c.2-.23.33-.08.32.3 0 2-.72 7.18-1.34 11.14-.06.36 0 1 .6 1.07a14 14 0 0 0 2.23 0c.72 0 1.1-.23 1.2-1a72.11 72.11 0 0 0 0-14.39c-.1-.6-.2-.88-.9-1-.94-.22-1.2-.3-1.7.15a29.59 29.59 0 0 1-6.04 4.2z" class="D"/><path d="M126.9 173.52c-.58.3-.54.53-.33.9a5 5 0 0 0 1.16 1.46.73.73 0 0 0 .9.15 12.16 12.16 0 0 0 3.89-3c.2-.24.33-.1.32.3 0 2-.72 7.17-1.34 11.13-.06.37 0 1 .6 1.07a14 14 0 0 0 2.23 0c.72 0 1.1-.23 1.2-1a71 71 0 0 0-.06-14.38c-.08-.6-.2-.9-.9-1.05-.94-.2-1.2-.28-1.7.16a29.59 29.59 0 0 1-5.99 4.25z" class="B"/><path d="M126.75 192.76c-.57.3-.53.53-.32.9a5 5 0 0 0 1.16 1.45.75.75 0 0 0 .9.16 12.18 12.18 0 0 0 3.89-3c.2-.23.32-.08.32.3 0 2-.72 7.17-1.34 11.13-.06.37-.05 1 .6 1.07a14 14 0 0 0 2.23 0c.72 0 1.1-.22 1.2-1a71.33 71.33 0 0 0 0-14.39c-.08-.6-.2-.88-.9-1-.94-.2-1.2-.28-1.7.16a29.37 29.37 0 0 1-6.05 4.2zM133 228.1c-4.35.1-6 3.82-6.2 8.15-.2 4 1.12 8.62 6.2 8.65 4.86 0 6.18-3.54 6.1-9.1-.1-4-2.56-7.8-6.1-7.7zm3 8.93c-.1 3.35-1.12 5-2.76 5-2 .06-3.24-2.58-3.33-4.9s1.1-6 3-5.94c2.28.1 3.17 2.22 3.1 5.8z" class="D"/><g class="C"><path d="M150.46 11.8c-4.36.1-6 3.83-6.2 8.16-.2 4 1.12 8.62 6.2 8.64 4.86 0 6.17-3.53 6.1-9.1-.05-4-2.5-7.78-6.1-7.7zm3 8.93c-.12 3.36-1.13 5-2.77 5.05-2 0-3.24-2.58-3.33-4.9s1.1-6 3-5.94c2.34.07 3.22 2.18 3.1 5.8zm-9.14-25.38c-.57.3-.53.53-.32.9a5 5 0 0 0 1.16 1.45.75.75 0 0 0 .9.16 12.18 12.18 0 0 0 3.89-3c.2-.23.32-.08.32.3 0 2-.72 7.18-1.34 11.13-.06.37-.05 1 .6 1.07a14 14 0 0 0 2.23 0c.7 0 1.1-.22 1.2-1A71.33 71.33 0 0 0 152.91-8c-.08-.6-.2-.88-.9-1-.94-.22-1.2-.3-1.7.15a29.32 29.32 0 0 1-5.99 4.2zm6.34 36.25c-4.35.1-6 3.82-6.2 8.16-.2 4 1.12 8.62 6.2 8.64 4.86 0 6.17-3.53 6.1-9.1-.05-4-2.5-7.78-6.1-7.7zm3 8.93c-.1 3.36-1.13 5-2.77 5-2 .05-3.24-2.58-3.32-4.92s1.1-6 3-5.93c2.33.12 3.2 2.23 3.1 5.85z"/><use xlink:href="#E"/><path d="M151.47 70.8c-4.36.1-6 3.82-6.2 8.15-.2 4 1.12 8.62 6.2 8.65 4.86 0 6.17-3.54 6.1-9.12-.05-4-2.5-7.77-6.1-7.68zm3 8.93c-.12 3.35-1.13 5-2.77 5-2 .06-3.24-2.58-3.33-4.9s1.1-6 3-5.94c2.34.12 3.22 2.22 3.1 5.85zm-3 11.07c-4.36.1-6 3.82-6.2 8.15-.2 4 1.12 8.62 6.2 8.65 4.86 0 6.17-3.54 6.1-9.1-.05-4-2.5-7.78-6.1-7.7zm3 8.93c-.12 3.35-1.13 5-2.77 5-2 .06-3.24-2.58-3.33-4.9s1.1-6 3-5.94c2.34.12 3.22 2.22 3.1 5.85zm-2.8 10.87c-4.35.1-6 3.82-6.2 8.15-.2 4 1.12 8.62 6.2 8.65 4.86 0 6.17-3.54 6.1-9.12-.05-4-2.5-7.77-6.1-7.68zm3 8.92c-.1 3.36-1.13 5-2.77 5-2 .06-3.24-2.58-3.32-4.9s1.1-6 3-5.94c2.33.12 3.2 2.23 3.1 5.85z"/><use xlink:href="#F"/><path d="M152.48 149.8c-4.36.1-6 3.82-6.2 8.15-.2 4 1.12 8.63 6.2 8.65 4.86 0 6.17-3.53 6.1-9.1-.05-4-2.5-7.78-6.1-7.7zm3 8.93c-.12 3.35-1.13 5-2.77 5-2 .06-3.24-2.57-3.33-4.9s1.1-6 3-5.93c2.34.12 3.22 2.22 3.1 5.84zm-7.72 15c-.57.3-.54.54-.33.9a5.09 5.09 0 0 0 1.16 1.46.77.77 0 0 0 .9.15 12.18 12.18 0 0 0 3.89-3c.2-.23.33-.08.32.3 0 2-.72 7.18-1.34 11.13-.06.37-.05 1 .6 1.07a14 14 0 0 0 2.23 0c.72 0 1.1-.23 1.2-1a72.11 72.11 0 0 0-.05-14.39c-.1-.6-.2-.88-.9-1-.94-.22-1.2-.3-1.7.15a29.59 29.59 0 0 1-5.99 4.21zM147.6 193c-.58.3-.54.53-.33.9a5 5 0 0 0 1.16 1.46.73.73 0 0 0 .9.15 12.18 12.18 0 0 0 3.89-3c.2-.23.33-.08.32.3 0 2-.72 7.18-1.34 11.14-.06.36-.05 1 .6 1.07a14 14 0 0 0 2.23 0c.72 0 1.1-.23 1.2-1a71 71 0 0 0-.06-14.38c-.08-.6-.2-.9-.9-1.05-.94-.2-1.2-.3-1.7.16a29.59 29.59 0 0 1-5.99 4.24zm-.15 19.23c-.57.3-.53.53-.32.9a5 5 0 0 0 1.16 1.45.73.73 0 0 0 .9.15 12 12 0 0 0 3.89-3c.2-.23.32-.1.32.3 0 2-.72 7.17-1.34 11.13-.06.37-.05 1 .6 1.07a14 14 0 0 0 2.23 0c.72 0 1.1-.22 1.2-1a71.33 71.33 0 0 0-.05-14.39c-.08-.6-.2-.88-.9-1-.94-.2-1.2-.28-1.7.16a29.37 29.37 0 0 1-6 4.21zm5.55 15.24c-4.35.1-6 3.82-6.2 8.15-.2 4 1.12 8.63 6.2 8.65 4.86 0 6.18-3.53 6.1-9.1-.1-4-2.53-7.78-6.1-7.7zm3 8.93c-.1 3.36-1.13 5-2.76 5-2 .06-3.25-2.57-3.33-4.9s1.1-6 3-5.93c2.3.1 3.2 2.22 3.1 5.84zm16-164.1c-4.36.1-6 3.83-6.2 8.16-.2 4 1.12 8.62 6.2 8.64 4.86 0 6.17-3.53 6.1-9.1-.1-4-2.55-7.78-6.1-7.7zm3 8.93c-.12 3.36-1.13 5-2.77 5-2 0-3.24-2.58-3.33-4.9s1.1-6 3-5.94c2.3.12 3.18 2.23 3.1 5.85z"/><use xlink:href="#G"/><path d="M172.16 92.1c-4.35.1-6 3.82-6.2 8.16-.2 4 1.12 8.62 6.2 8.64 4.86 0 6.17-3.53 6.1-9.1-.05-4-2.5-7.8-6.1-7.7zm3 8.93c-.1 3.36-1.13 5-2.77 5-2 0-3.24-2.58-3.32-4.92s1.1-6 3-5.93c2.33.12 3.2 2.23 3.1 5.82z"/><use x="21.5" y="60.5" xlink:href="#E"/><path d="M173 131.3c-4.36.1-6 3.82-6.2 8.15-.2 4 1.12 8.62 6.2 8.65 4.86 0 6.17-3.54 6.1-9.12-.1-3.98-2.54-7.77-6.1-7.68zm3 8.93c-.12 3.35-1.13 5-2.77 5-2 .06-3.24-2.58-3.33-4.9s1.1-6 3-5.94c2.3.1 3.2 2.22 3.1 5.85zm-2.83 30.87c-4.35.1-6 3.82-6.2 8.15-.2 4 1.12 8.62 6.2 8.65 4.86 0 6.17-3.54 6.1-9.12-.05-4-2.5-7.78-6.1-7.68zm3 8.92c-.1 3.36-1.13 5-2.77 5-2 .06-3.24-2.58-3.32-4.9s1.1-6 3-5.94c2.33.12 3.2 2.23 3.1 5.83z"/></g><use x="21.45" y="60.5" class="D" xlink:href="#F"/><path d="M170.34 12.1c-4.35.1-6 3.82-6.2 8.15-.2 4 1.13 8.62 6.2 8.65 4.86 0 6.18-3.53 6.1-9.1-.05-4-2.52-7.8-6.1-7.7zm3 8.93c-.1 3.35-1.13 5-2.76 5-2 .06-3.25-2.57-3.33-4.9s1.1-6 3-5.93c2.33.1 3.2 2.22 3.1 5.8zM164.2-4.35c-.57.3-.54.53-.33.9A5 5 0 0 0 165-2a.73.73 0 0 0 .9.15 12.3 12.3 0 0 0 3.89-3c.2-.24.33-.1.32.3 0 2-.72 7.17-1.34 11.13-.06.36-.05 1 .6 1.07a14 14 0 0 0 2.23 0c.72 0 1.1-.23 1.2-1a72 72 0 0 0 0-14.38c-.1-.6-.2-.9-.9-1.05-.94-.2-1.2-.3-1.7.16a29.59 29.59 0 0 1-6 4.26z" class="B"/><path d="M170.54 31.9c-4.35.1-6 3.82-6.2 8.15-.2 4 1.12 8.62 6.2 8.65 4.86 0 6.18-3.54 6.1-9.1-.05-4-2.5-7.78-6.1-7.7zm3 8.93c-.1 3.35-1.13 5-2.76 5-2 .06-3.25-2.58-3.33-4.9s1.1-6 3-5.93c2.33.1 3.2 2.2 3.1 5.84z" class="D"/><g class="C"><use xlink:href="#H"/><path d="M191.2 130.8c-4.36.1-6 3.82-6.2 8.15-.2 4 1.12 8.62 6.2 8.65 4.86 0 6.17-3.54 6.1-9.1-.05-4-2.5-7.78-6.1-7.7zm3 8.93c-.1 3.35-1.13 5-2.77 5-2 .06-3.24-2.58-3.32-4.9s1.1-6 3-5.93c2.33.1 3.2 2.22 3.1 5.84zm-2.8 10.87c-4.35.1-6 3.82-6.2 8.15-.2 4 1.12 8.62 6.2 8.65 4.86 0 6.17-3.54 6.1-9.1-.05-4-2.5-7.78-6.1-7.7zm3 8.93c-.1 3.35-1.13 5-2.76 5-2 .06-3.25-2.58-3.33-4.9s1.1-6 3-5.93c2.33.1 3.2 2.2 3.1 5.84zm-7.73 15.03c-.57.3-.53.53-.32.9a5.19 5.19 0 0 0 1.15 1.45.75.75 0 0 0 .9.16 12.34 12.34 0 0 0 3.9-3c.18-.23.32-.08.3.3 0 2-.7 7.17-1.34 11.13-.06.37-.05 1 .62 1.07a14 14 0 0 0 2.23 0c.7 0 1.1-.22 1.2-1a72.11 72.11 0 0 0-.05-14.39c-.08-.6-.2-.88-.9-1.05-.93-.2-1.2-.28-1.7.16a29.32 29.32 0 0 1-5.99 4.25zm5.53 15.24c-4.36.1-6 3.82-6.2 8.16-.2 4 1.12 8.62 6.2 8.64 4.86 0 6.17-3.53 6.1-9.1-.05-4-2.5-7.78-6.1-7.7zm3 8.93c-.1 3.36-1.13 5-2.77 5.05-2 .05-3.24-2.58-3.32-4.92s1.1-6 3-5.93c2.33.07 3.2 2.18 3.1 5.8zm-7.72 15.02c-.57.3-.53.54-.33.9a5.46 5.46 0 0 0 1.16 1.46.75.75 0 0 0 .9.15 12.34 12.34 0 0 0 3.9-3c.18-.23.32-.08.3.3 0 2-.7 7.18-1.34 11.14-.06.36-.05 1 .6 1.07a14.12 14.12 0 0 0 2.24 0c.7 0 1.1-.23 1.2-1a72.11 72.11 0 0 0-.05-14.39c-.1-.6-.2-.88-.9-1-.94-.22-1.2-.3-1.7.15a29.32 29.32 0 0 1-5.99 4.2z"/></g><path d="M187.33 233c-.57.3-.54.53-.33.9a5 5 0 0 0 1.16 1.46.73.73 0 0 0 .9.15 12.16 12.16 0 0 0 3.89-3c.2-.24.33-.1.32.3 0 2-.72 7.17-1.34 11.13-.06.37-.05 1 .6 1.07a14 14 0 0 0 2.23 0c.72 0 1.1-.23 1.2-1a72 72 0 0 0-.05-14.38c-.1-.6-.2-.9-.9-1.05-.94-.2-1.2-.28-1.7.16a29.59 29.59 0 0 1-5.99 4.25z" class="B"/><g class="C"><path d="M188.56-8.4c-4.35.1-6 3.82-6.2 8.16-.2 4 1.13 8.62 6.2 8.64 4.86 0 6.18-3.53 6.1-9.1-.05-4-2.5-7.78-6.1-7.7zm3 8.93c-.1 3.36-1.13 5-2.76 5.05-2 0-3.25-2.58-3.33-4.92s1.1-6 3-5.93c2.33.06 3.2 2.18 3.1 5.8z"/><use xlink:href="#I"/><path d="M208.5 33c-4.36.1-6 3.82-6.2 8.16-.2 4 1.12 8.62 6.2 8.64 4.86 0 6.17-3.53 6.1-9.1-.05-4.04-2.5-7.82-6.1-7.7zm3 8.93c-.12 3.36-1.13 5-2.77 5-2 .05-3.24-2.58-3.33-4.92s1.1-6 3-5.93c2.34.08 3.22 2.2 3.1 5.8zm-9.15-25.43c-.57.3-.53.53-.32.9a5 5 0 0 0 1.16 1.45.73.73 0 0 0 .9.15 12 12 0 0 0 3.91-3c.2-.24.32-.1.32.3 0 2-.72 7.17-1.34 11.13-.06.37-.05 1 .6 1.07a14 14 0 0 0 2.23 0c.7 0 1.1-.22 1.2-1a71.22 71.22 0 0 0-.05-14.38c-.08-.6-.2-.88-.9-1-.94-.2-1.2-.28-1.7.16a29.32 29.32 0 0 1-6.01 4.22zm6.35 36.26c-4.36.1-6 3.82-6.2 8.16-.2 4 1.12 8.62 6.2 8.64 4.86 0 6.17-3.53 6.1-9.1-.05-4-2.5-7.78-6.1-7.7zm3 8.93c-.1 3.36-1.13 5-2.77 5-2 .06-3.24-2.57-3.32-4.9s1.1-6 3-5.93c2.33.15 3.2 2.22 3.1 5.84zm-7.7 15c-.57.3-.53.54-.33.9a5.46 5.46 0 0 0 1.16 1.46.77.77 0 0 0 .9.15 12.34 12.34 0 0 0 3.9-3c.18-.23.32-.08.3.3 0 2-.7 7.18-1.34 11.14-.06.36 0 1 .62 1.06a14 14 0 0 0 2.23.05c.7 0 1.1-.23 1.2-1a72.11 72.11 0 0 0-.05-14.39c-.1-.6-.2-.88-.9-1-.94-.22-1.2-.3-1.7.15a29.32 29.32 0 0 1-5.99 4.16zm5.5 15.3c-4.36.1-6 3.83-6.2 8.16-.2 4 1.12 8.62 6.2 8.64 4.86 0 6.17-3.53 6.1-9.1-.05-4.05-2.5-7.83-6.1-7.7zm3 8.93c-.12 3.36-1.13 5-2.77 5.05-2 0-3.24-2.58-3.33-4.9s1.1-6 3-5.94c2.34.02 3.22 2.13 3.1 5.75zm-3 11.07c-4.36.1-6 3.83-6.2 8.16-.2 4 1.12 8.62 6.2 8.64 4.86 0 6.17-3.53 6.1-9.1-.05-4.05-2.5-7.82-6.1-7.7zm3 8.93c-.12 3.36-1.13 5-2.77 5.05-2 0-3.24-2.58-3.33-4.9s1.1-6 3-5.94c2.34.02 3.22 2.13 3.1 5.75zm-2.8 10.82c-4.36.1-6 3.83-6.2 8.16-.2 4 1.12 8.62 6.2 8.64 4.86 0 6.17-3.53 6.1-9.1-.05-4-2.5-7.78-6.1-7.7zm3 8.93c-.1 3.36-1.13 5-2.77 5-2 .05-3.24-2.58-3.32-4.9s1.1-6 3-5.94c2.33.17 3.2 2.23 3.1 5.85zM205 155.7c-.57.3-.53.53-.33.9a5.3 5.3 0 0 0 1.16 1.46.74.74 0 0 0 .9.15 12.46 12.46 0 0 0 3.9-3c.18-.24.32-.1.3.3 0 2-.7 7.17-1.34 11.13-.06.36-.05 1 .62 1.07a14 14 0 0 0 2.23 0c.7 0 1.1-.23 1.2-1a72 72 0 0 0-.05-14.38c-.1-.6-.2-.9-.9-1.05-.94-.2-1.2-.28-1.7.16a29.32 29.32 0 0 1-5.99 4.25zm5.5 15.3c-4.36.1-6 3.82-6.2 8.15-.2 4 1.12 8.62 6.2 8.65 4.86 0 6.17-3.54 6.1-9.1-.05-4.05-2.5-7.83-6.1-7.7zm3 8.93c-.12 3.35-1.13 5-2.77 5-2 .06-3.24-2.58-3.33-4.9s1.1-6 3-5.93c2.34.05 3.22 2.16 3.1 5.8zm-7.7 14.97c-.57.3-.54.53-.33.9a5 5 0 0 0 1.16 1.45.75.75 0 0 0 .9.16 12.18 12.18 0 0 0 3.89-3c.2-.23.33-.08.32.3 0 2-.72 7.17-1.34 11.13-.06.37 0 1 .6 1.07a14 14 0 0 0 2.23 0c.72 0 1.1-.22 1.2-1a72.11 72.11 0 0 0-.05-14.39c-.1-.6-.2-.88-.9-1.05-.94-.2-1.2-.28-1.7.16a29.59 29.59 0 0 1-5.99 4.25z"/></g><path d="M205.64 214.14c-.58.3-.54.54-.33.9a5.09 5.09 0 0 0 1.16 1.46.76.76 0 0 0 .9.15 12.18 12.18 0 0 0 3.89-3c.2-.23.33-.08.32.3 0 2-.72 7.18-1.34 11.14-.06.36-.05 1 .6 1.07a14 14 0 0 0 2.23 0c.72 0 1.1-.23 1.2-1a71.09 71.09 0 0 0-.06-14.39c-.08-.6-.2-.88-.9-1-.94-.22-1.2-.3-1.7.15a29.59 29.59 0 0 1-5.99 4.2zm-.16 19.26c-.57.3-.53.53-.32.9a5 5 0 0 0 1.16 1.46.73.73 0 0 0 .9.15 12.3 12.3 0 0 0 3.89-3c.2-.24.32-.1.32.3 0 2-.72 7.17-1.34 11.13-.06.37-.05 1 .6 1.07a14 14 0 0 0 2.23 0c.72 0 1.1-.23 1.2-1a71.22 71.22 0 0 0-.05-14.38c-.08-.6-.2-.9-.9-1.05-.94-.2-1.2-.28-1.7.16a29.37 29.37 0 0 1-6 4.25zm1.6-240.84c-4.35.1-6 3.82-6.2 8.15-.2 4 1.12 8.62 6.2 8.64 4.86 0 6.18-3.53 6.1-9.1-.05-4-2.5-7.77-6.1-7.68zm3 8.92c-.1 3.36-1.13 5-2.76 5.05-2 .06-3.25-2.58-3.33-4.9s1.1-6 3-5.94c2.33.07 3.2 2.18 3.1 5.8z" class="B"/><path d="M266.22 73c-4.35.1-6 3.83-6.2 8.16-.2 4 1.12 8.62 6.2 8.64 4.86 0 6.17-3.53 6.1-9.1-.04-3.98-2.5-7.76-6.1-7.7zm3 8.93c-.1 3.36-1.13 5-2.77 5-2 0-3.24-2.58-3.32-4.9s1.1-6 3-5.94c2.33.14 3.2 2.25 3.1 5.92zm-9.14-25.36c-.57.3-.53.53-.32.9a5 5 0 0 0 1.16 1.45.75.75 0 0 0 .9.16 12.18 12.18 0 0 0 3.89-3c.2-.23.33-.08.32.3 0 2-.72 7.18-1.34 11.13-.06.37-.05 1 .6 1.07a14 14 0 0 0 2.23 0c.72 0 1.1-.22 1.2-1a71.87 71.87 0 0 0-.06-14.39c-.08-.6-.2-.88-.9-1-.94-.22-1.2-.3-1.7.15a29.37 29.37 0 0 1-6 4.21zm6.34 36.25c-4.35.1-6 3.82-6.2 8.16-.2 4 1.13 8.62 6.2 8.64 4.86 0 6.18-3.53 6.1-9.1-.05-4-2.53-7.78-6.1-7.7zm3 8.93c-.1 3.36-1.13 5-2.76 5-2 0-3.25-2.58-3.33-4.92s1.1-6 3-5.93c2.33.1 3.2 2.23 3.1 5.85zm-7.72 15.03c-.57.3-.53.53-.32.9a5 5 0 0 0 1.16 1.46.72.72 0 0 0 .89.15 12.34 12.34 0 0 0 3.9-3c.2-.23.32-.08.3.3 0 2-.7 7.18-1.34 11.14-.05.36 0 1 .62 1.07a14 14 0 0 0 2.23 0c.7 0 1.1-.23 1.2-1a71.2 71.2 0 0 0 0-14.38c-.08-.6-.2-.9-.9-1-.93-.2-1.2-.3-1.7.16a29.32 29.32 0 0 1-6.04 4.19zm5.53 15.22c-4.35.1-6 3.82-6.2 8.15-.2 4 1.12 8.62 6.2 8.65 4.86 0 6.17-3.54 6.1-9.12-.04-3.98-2.5-7.75-6.1-7.68zm3 8.93c-.1 3.35-1.13 5-2.76 5-2 .06-3.25-2.58-3.33-4.9s1.1-6 3-5.94c2.33.13 3.2 2.24 3.1 5.92zm-3 11.07c-4.35.1-6 3.82-6.2 8.15-.2 4 1.12 8.62 6.2 8.65 4.86 0 6.17-3.54 6.1-9.1-.04-3.98-2.5-7.76-6.1-7.7zm3 8.93c-.1 3.35-1.13 5-2.76 5-2 .06-3.25-2.58-3.33-4.9s1.1-6 3-5.94c2.33.13 3.2 2.24 3.1 5.92zm-2.8 10.9c-4.35.1-6 3.82-6.2 8.15-.2 4 1.13 8.62 6.2 8.65 4.86 0 6.18-3.54 6.1-9.12-.05-4-2.54-7.77-6.1-7.68zm3 8.92c-.1 3.36-1.13 5-2.76 5-2 .06-3.25-2.58-3.33-4.9s1.1-6 3-5.94c2.33.1 3.2 2.23 3.1 5.85zm-7.73 15.03c-.57.3-.53.53-.32.9a5 5 0 0 0 1.16 1.45.72.72 0 0 0 .89.15 12.06 12.06 0 0 0 3.9-3c.2-.23.32-.1.3.3 0 2-.7 7.17-1.34 11.13-.05.37 0 1 .62 1.07a14 14 0 0 0 2.23 0c.7 0 1.1-.22 1.2-1a71.25 71.25 0 0 0-.05-14.38c-.08-.6-.2-.88-.9-1.05-.93-.2-1.2-.28-1.7.16a29.32 29.32 0 0 1-5.99 4.25zm5.54 15.22c-4.35.1-6 3.82-6.2 8.15-.2 4 1.12 8.63 6.2 8.65 4.86 0 6.17-3.53 6.1-9.1-.04-4-2.5-7.77-6.1-7.7zm3 8.93c-.1 3.35-1.13 5-2.76 5-2 .06-3.25-2.57-3.33-4.9s1.1-6 3-5.93c2.33.1 3.2 2.23 3.1 5.85zM263.52 235c-.57.3-.53.54-.32.9a5.26 5.26 0 0 0 1.15 1.46.77.77 0 0 0 .9.15 12.34 12.34 0 0 0 3.9-3c.18-.23.32-.08.3.3 0 2-.7 7.18-1.34 11.13-.06.37-.05 1 .62 1.07a14 14 0 0 0 2.23 0c.7 0 1.1-.23 1.2-1a72.11 72.11 0 0 0-.05-14.39c-.08-.6-.2-.88-.9-1-.93-.22-1.2-.3-1.7.15a29.32 29.32 0 0 1-5.99 4.21z" class="C"/><path d="M264.6 12.82c-4.35.1-6 3.82-6.2 8.15-.2 4 1.12 8.63 6.2 8.65 4.86 0 6.18-3.53 6.1-9.1-.05-4-2.5-7.78-6.1-7.7zm3 8.93c-.1 3.35-1.13 5-2.76 5-2 .06-3.25-2.57-3.33-4.9s1.1-6 3-5.93c2.33.1 3.2 2.22 3.1 5.84zm-9.13-25.38c-.57.3-.53.53-.33.9a5.3 5.3 0 0 0 1.16 1.46.74.74 0 0 0 .9.15 12.46 12.46 0 0 0 3.9-3c.18-.24.32-.1.3.3 0 2-.7 7.17-1.34 11.13-.06.36-.05 1 .62 1.07a14 14 0 0 0 2.23 0c.7 0 1.1-.23 1.2-1A72 72 0 0 0 267.06-7c-.1-.6-.2-.9-.9-1-.94-.2-1.2-.3-1.7.16a29.32 29.32 0 0 1-5.99 4.2z" class="B"/><path d="M264.8 32.62c-4.36.1-6 3.82-6.2 8.15-.2 4 1.12 8.62 6.2 8.65 4.86 0 6.17-3.54 6.1-9.1-.05-4-2.5-7.78-6.1-7.7zm3 8.93c-.12 3.35-1.13 5-2.77 5-2 .06-3.24-2.58-3.33-4.9s1.1-6 3-5.93c2.3.1 3.22 2.2 3.1 5.84z" class="C"/><path d="M286.15 12.42c-4.35.1-6 3.82-6.2 8.15-.2 4 1.13 8.62 6.2 8.65 4.86 0 6.18-3.54 6.1-9.1-.05-4-2.5-7.78-6.1-7.7zm3 8.93c-.1 3.35-1.13 5-2.76 5-2 .06-3.25-2.58-3.33-4.9s1.1-6 3-5.93c2.33.1 3.2 2.22 3.1 5.84zM280-4c-.57.3-.54.53-.33.9a5 5 0 0 0 1.16 1.46.74.74 0 0 0 .9.15 12.18 12.18 0 0 0 3.89-3c.2-.23.33-.08.32.3 0 2-.72 7.18-1.34 11.14-.06.36-.05 1 .6 1.07a14 14 0 0 0 2.23 0c.72 0 1.1-.23 1.2-1a72 72 0 0 0-.05-14.38c-.1-.6-.2-.9-.9-1.05-.94-.2-1.2-.3-1.7.15A29.38 29.38 0 0 1 280-4z" class="D"/><path d="M286.35 32.22c-4.35.1-6 3.82-6.2 8.15-.2 4 1.12 8.62 6.2 8.65 4.86 0 6.18-3.54 6.1-9.1-.05-4-2.46-7.78-6.1-7.7zm3 8.93c-.1 3.35-1.12 5-2.76 5-2 .06-3.24-2.58-3.33-4.9s1.1-6 3-5.94c2.33.1 3.22 2.22 3.1 5.85z" class="B"/><g class="C"><path d="M281.63 56.17c-.57.3-.53.53-.32.9a5 5 0 0 0 1.16 1.45.73.73 0 0 0 .9.15 12 12 0 0 0 3.89-3c.2-.23.32-.08.32.3 0 2-.72 7.17-1.34 11.13-.06.37-.05 1 .6 1.07a14 14 0 0 0 2.23 0c.7 0 1.1-.22 1.2-1a71.33 71.33 0 0 0 0-14.39c-.08-.6-.2-.88-.9-1-.94-.2-1.2-.28-1.7.16a29.37 29.37 0 0 1-6.05 4.21zm5.53 15.23c-4.35.1-6 3.82-6.2 8.16-.2 4 1.13 8.62 6.2 8.64 4.86 0 6.18-3.53 6.1-9.1-.05-4-2.5-7.78-6.1-7.7zm3 8.93c-.1 3.36-1.13 5-2.76 5-2 0-3.25-2.58-3.33-4.92s1.1-6 3-5.93c2.33.1 3.2 2.23 3.1 5.85zm-3 11.07c-4.35.1-6 3.82-6.2 8.16-.2 4 1.13 8.62 6.2 8.64 4.86 0 6.18-3.53 6.1-9.1-.05-4-2.5-7.78-6.1-7.7zm3 8.93c-.1 3.36-1.13 5-2.76 5-2 0-3.25-2.58-3.33-4.92s1.1-6 3-5.93c2.33.12 3.2 2.23 3.1 5.85zm-2.8 10.87c-4.35.1-6 3.82-6.2 8.16-.2 4 1.12 8.62 6.2 8.64 4.87 0 6.18-3.53 6.1-9.1-.05-4-2.47-7.78-6.1-7.7zm3 8.93c-.1 3.36-1.12 5-2.76 5-2 .06-3.24-2.57-3.33-4.9s1.1-6 3-5.93c2.33.1 3.22 2.22 3.1 5.84zm-7.72 15.03c-.57.3-.53.54-.32.9a5.09 5.09 0 0 0 1.16 1.46.76.76 0 0 0 .9.15 12.18 12.18 0 0 0 3.89-3c.2-.23.32-.08.32.3 0 2-.72 7.18-1.34 11.14-.06.36-.05 1 .6 1.06a14 14 0 0 0 2.23.05c.7 0 1.1-.23 1.2-1a71.33 71.33 0 0 0 0-14.39c-.08-.6-.2-.88-.9-1-.94-.22-1.2-.3-1.7.15a29.37 29.37 0 0 1-6.05 4.16zm5.53 15.24c-4.35.1-6 3.83-6.2 8.16-.2 4 1.13 8.62 6.2 8.64 4.86 0 6.18-3.53 6.1-9.1-.05-4-2.5-7.77-6.1-7.7zm3 8.93c-.1 3.36-1.13 5-2.76 5-2 .05-3.25-2.58-3.33-4.9s1.1-6 3-5.94c2.33.12 3.2 2.23 3.1 5.85zm-7.72 15.03c-.57.3-.53.53-.32.9a5 5 0 0 0 1.16 1.46.72.72 0 0 0 .89.15 12.34 12.34 0 0 0 3.9-3c.2-.24.32-.1.32.3 0 2-.72 7.17-1.35 11.13-.05.37 0 1 .62 1.07a14 14 0 0 0 2.23 0c.7 0 1.1-.23 1.2-1a71.22 71.22 0 0 0 0-14.38c-.08-.6-.2-.9-.9-1.05-.93-.2-1.2-.28-1.7.16a29.32 29.32 0 0 1-6.04 4.25zm-.15 19.24c-.57.3-.53.53-.32.9a5.19 5.19 0 0 0 1.15 1.45.75.75 0 0 0 .9.16 12.34 12.34 0 0 0 3.9-3c.2-.23.32-.08.3.3 0 2-.7 7.17-1.34 11.13 0 .37 0 1 .62 1.07a14 14 0 0 0 2.23 0c.7 0 1.1-.22 1.2-1a71.33 71.33 0 0 0-.05-14.39c-.08-.6-.2-.88-.9-1-.93-.2-1.2-.28-1.7.16a29.32 29.32 0 0 1-5.99 4.2zm-.15 19.24c-.57.3-.53.54-.33.9a5.46 5.46 0 0 0 1.16 1.46.77.77 0 0 0 .9.15 12.34 12.34 0 0 0 3.9-3c.18-.23.32-.08.3.3 0 2-.7 7.18-1.34 11.14-.06.36-.05 1 .62 1.06a13 13 0 0 0 2.23 0c.7 0 1.1-.23 1.2-1a72.11 72.11 0 0 0-.05-14.39c-.1-.6-.2-.88-.9-1-.94-.22-1.2-.3-1.7.15a29.32 29.32 0 0 1-5.99 4.21zm5.53 15.24c-4.36.1-6 3.83-6.2 8.16-.2 4 1.12 8.62 6.2 8.64 4.86 0 6.17-3.53 6.1-9.1-.05-4-2.5-7.77-6.1-7.7zm3 8.93c-.12 3.36-1.13 5-2.77 5.05-2 .05-3.24-2.58-3.33-4.9s1.1-6 3-5.94c2.34.07 3.22 2.18 3.1 5.8zm31.2-160.35c-.57.3-.53.53-.32.9a5 5 0 0 0 1.16 1.44.73.73 0 0 0 .9.15 12.16 12.16 0 0 0 3.89-3c.2-.24.33-.1.32.3 0 2-.72 7.17-1.34 11.13-.06.37-.05 1 .6 1.07a14 14 0 0 0 2.23 0c.72 0 1.1-.23 1.2-1a71.22 71.22 0 0 0 0-14.38c-.08-.6-.2-.88-.9-1-.94-.2-1.2-.28-1.7.16a29.37 29.37 0 0 1-6.05 4.22zm1.62 60.2c-.57.3-.53.54-.32.9a5.26 5.26 0 0 0 1.15 1.46.77.77 0 0 0 .9.15 12.34 12.34 0 0 0 3.9-3c.2-.23.32-.08.3.3 0 2-.7 7.18-1.34 11.13-.05.37-.05 1 .62 1.07a14 14 0 0 0 2.23 0c.7 0 1.1-.23 1.2-1a71.33 71.33 0 0 0-.05-14.39c-.08-.6-.2-.88-.9-1-.93-.22-1.2-.3-1.7.15a29.32 29.32 0 0 1-5.99 4.21z"/><use xlink:href="#J"/><use y="20" xlink:href="#J"/></g><path d="M330.23 191.9c-4.35.1-6 3.83-6.2 8.16-.2 4 1.13 8.62 6.2 8.64 4.86 0 6.18-3.53 6.1-9.1-.05-4-2.52-7.78-6.1-7.7zm3 8.93c-.1 3.36-1.13 5-2.76 5-2 .05-3.25-2.58-3.33-4.9s1.1-6 3-5.94c2.33.12 3.2 2.23 3.1 5.85z" class="B"/><path d="M325.5 215.86c-.57.3-.53.53-.32.9a5.11 5.11 0 0 0 1.15 1.46.74.74 0 0 0 .9.15 12.34 12.34 0 0 0 3.9-3c.2-.23.32-.08.3.3 0 2-.7 7.18-1.34 11.14-.05.36-.05 1 .62 1.07a14 14 0 0 0 2.23 0c.7 0 1.1-.23 1.2-1a71.2 71.2 0 0 0 0-14.38c-.08-.6-.2-.9-.9-1.05-.93-.2-1.2-.3-1.7.16a29.32 29.32 0 0 1-6.04 4.24zm5.5 15.24c-4.36.1-6 3.82-6.2 8.15-.2 4 1.12 8.62 6.2 8.65 4.86 0 6.17-3.54 6.1-9.1-.01-4-2.47-7.8-6.1-7.7zm3 8.93c-.1 3.35-1.13 5-2.77 5-2 .06-3.24-2.58-3.32-4.9s1.1-6 3-5.94c2.37.1 3.25 2.22 3.1 5.82z" class="D"/><g class="C"><use xlink:href="#K"/><path d="M321.27 16.45c-.57.3-.53.54-.33.9a5.46 5.46 0 0 0 1.16 1.46.77.77 0 0 0 .9.15 12.18 12.18 0 0 0 3.89-3c.2-.23.33-.08.32.3 0 2-.7 7.18-1.34 11.14-.06.36-.05 1 .6 1.06a14.07 14.07 0 0 0 2.23.05c.72 0 1.1-.23 1.2-1a72.11 72.11 0 0 0-.05-14.39c-.1-.6-.2-.88-.9-1-.94-.22-1.2-.3-1.7.15a29.32 29.32 0 0 1-5.99 4.16zm6.33 36.25c-4.35.1-6 3.83-6.2 8.16-.2 4 1.12 8.62 6.2 8.64 4.87 0 6.18-3.53 6.1-9.1-.05-4-2.5-7.77-6.1-7.7zm3 8.93c-.1 3.36-1.12 5-2.76 5.05-2 0-3.24-2.58-3.33-4.9s1.1-6 3-5.94c2.33.07 3.22 2.17 3.1 5.8zm-22.25 51.97c-4.35.1-6 3.82-6.2 8.15-.2 4 1.12 8.62 6.2 8.65 4.86 0 6.18-3.54 6.1-9.1-.05-4-2.52-7.78-6.1-7.7zm3 8.93c-.1 3.35-1.13 5-2.76 5-2 .06-3.25-2.58-3.33-4.9s1.1-6 3-5.93c2.33.1 3.2 2.2 3.1 5.84zm-9.13-25.4c-.58.3-.54.54-.33.9a5 5 0 0 0 1.16 1.46.75.75 0 0 0 .9.15 12.18 12.18 0 0 0 3.89-3c.2-.23.33-.08.32.3 0 2-.72 7.18-1.34 11.14-.06.36-.05 1 .6 1.07a14 14 0 0 0 2.23 0c.72 0 1.1-.23 1.2-1a72.11 72.11 0 0 0-.05-14.39c-.1-.6-.2-.88-.9-1-.94-.2-1.2-.3-1.7.15a29.2 29.2 0 0 1-5.99 4.2z"/><use x="-18.85" y="100.5" xlink:href="#K"/><path d="M303.83 157.34c-.57.3-.53.53-.32.9a5 5 0 0 0 1.16 1.45.73.73 0 0 0 .9.15 12 12 0 0 0 3.89-3c.2-.23.32-.1.32.3 0 2-.72 7.17-1.34 11.13-.06.37-.05 1 .6 1.07a14 14 0 0 0 2.23 0c.7 0 1.1-.22 1.2-1a71.33 71.33 0 0 0-.05-14.39c-.08-.6-.2-.88-.9-1.05-.94-.2-1.2-.28-1.7.16a29.32 29.32 0 0 1-5.99 4.26z"/></g><path d="M309.36 172.58c-4.35.1-6 3.82-6.2 8.16-.2 4 1.13 8.62 6.2 8.64 4.86 0 6.18-3.53 6.1-9.1-.05-4-2.47-7.78-6.1-7.7zm3 8.93c-.1 3.36-1.13 5-2.76 5-2 .06-3.25-2.57-3.33-4.9s1.1-6 3-5.93c2.33.1 3.2 2.22 3.1 5.84z" class="D"/><path d="M306.73 53.38c-4.35.1-6 3.82-6.2 8.16-.2 4 1.12 8.62 6.2 8.64 4.87 0 6.18-3.53 6.1-9.1-.05-4-2.5-7.78-6.1-7.7zm3 8.93c-.1 3.36-1.12 5-2.76 5-2 0-3.24-2.58-3.33-4.9s1.1-6 3-5.94c2.36.12 3.22 2.23 3.1 5.85z" class="B"/><path d="M300.6 36.93c-.57.3-.53.53-.32.9a5.19 5.19 0 0 0 1.15 1.45.75.75 0 0 0 .9.16 12.34 12.34 0 0 0 3.9-3c.18-.23.32-.08.3.3 0 2-.7 7.17-1.34 11.13-.06.37-.05 1 .62 1.07a14 14 0 0 0 2.23 0c.7 0 1.1-.22 1.2-1a72.11 72.11 0 0 0-.05-14.39c-.08-.6-.2-.88-.9-1-.93-.2-1.2-.28-1.7.16a29.32 29.32 0 0 1-5.99 4.2z" class="D"/><path d="M306.94 73.18c-4.36.1-6 3.82-6.2 8.16-.2 4 1.12 8.62 6.2 8.64 4.86 0 6.17-3.53 6.1-9.1-.04-4-2.5-7.78-6.1-7.7zm3 8.93c-.12 3.36-1.13 5-2.77 5-2 0-3.24-2.58-3.33-4.92s1.1-6 3-5.93c2.33.12 3.22 2.23 3.1 5.85z" class="C"/><path d="M245.86 14.63c-4.35.1-6 3.82-6.2 8.15-.2 4 1.12 8.62 6.2 8.65 4.87 0 6.18-3.54 6.1-9.12-.05-4-2.5-7.77-6.1-7.68zm3 8.93c-.1 3.35-1.12 5-2.76 5-2 .06-3.24-2.58-3.33-4.9s1.1-6 3-5.94c2.33.1 3.23 2.22 3.1 5.85z" class="D"/><path d="M241.14 38.58c-.57.3-.53.53-.32.9a5 5 0 0 0 1.18 1.45.73.73 0 0 0 .9.15 12 12 0 0 0 3.89-3c.2-.23.33-.1.32.3 0 2-.72 7.17-1.34 11.13-.06.37-.05 1 .6 1.07a14 14 0 0 0 2.23 0c.72 0 1.1-.22 1.2-1a71.33 71.33 0 0 0-.05-14.39c-.08-.6-.2-.88-.9-1.05-.94-.2-1.2-.28-1.7.16a29.37 29.37 0 0 1-6.02 4.26z" class="B"/><g class="C"><path d="M246.67 53.82c-4.35.1-6 3.82-6.2 8.16-.2 4 1.12 8.62 6.2 8.64 4.86 0 6.18-3.53 6.1-9.1-.05-4-2.5-7.78-6.1-7.7zm3 8.93c-.1 3.36-1.13 5-2.76 5-2 .06-3.25-2.57-3.33-4.9s1.1-6 3-5.93c2.33.1 3.2 2.22 3.1 5.84zm-3 11.07c-4.35.1-6 3.82-6.2 8.16-.2 4 1.12 8.62 6.2 8.64 4.86 0 6.18-3.53 6.1-9.1-.05-4-2.5-7.78-6.1-7.7zm3 8.93c-.1 3.36-1.13 5-2.76 5-2 0-3.25-2.58-3.33-4.92s1.1-6 3-5.93c2.33.1 3.2 2.23 3.1 5.85z"/><use x="58.11" y="82.22" xlink:href="#I"/><path d="M242.15 117.57c-.57.3-.53.54-.32.9a5.09 5.09 0 0 0 1.16 1.46.76.76 0 0 0 .9.15 12.18 12.18 0 0 0 3.89-3c.2-.23.33-.08.32.3 0 2-.72 7.18-1.34 11.13-.06.37 0 1 .6 1.07a14 14 0 0 0 2.23.05c.72 0 1.1-.23 1.2-1a71.33 71.33 0 0 0 0-14.39c-.08-.6-.2-.88-.9-1-.94-.22-1.2-.3-1.7.15a29.37 29.37 0 0 1-6.05 4.16zm5.53 15.23c-4.35.1-6 3.83-6.2 8.16-.2 4 1.12 8.62 6.2 8.64 4.86 0 6.18-3.53 6.1-9.1-.05-4-2.5-7.78-6.1-7.7zm3 8.93c-.1 3.36-1.13 5-2.76 5-2 .05-3.25-2.58-3.33-4.9s1.1-6 3-5.94c2.33.1 3.2 2.23 3.1 5.85zM243 156.77c-.57.3-.53.53-.32.9a5 5 0 0 0 1.16 1.46.73.73 0 0 0 .9.15 12.3 12.3 0 0 0 3.89-3c.2-.24.32-.1.32.3 0 2-.72 7.17-1.34 11.13-.06.36 0 1 .6 1.07a14 14 0 0 0 2.23 0c.7 0 1.1-.23 1.2-1a71.2 71.2 0 0 0 0-14.38c-.08-.6-.2-.9-.9-1.05-.94-.2-1.2-.3-1.7.16a29.32 29.32 0 0 1-6.04 4.25zm-.2 19.23c-.57.3-.53.53-.32.9a5 5 0 0 0 1.16 1.45.72.72 0 0 0 .89.15 12.17 12.17 0 0 0 3.9-3c.2-.23.32-.1.3.3 0 2-.7 7.17-1.34 11.13 0 .37 0 1 .62 1.07a14 14 0 0 0 2.23 0c.7 0 1.1-.22 1.2-1a71.33 71.33 0 0 0 0-14.39c-.08-.6-.2-.88-.9-1-.93-.2-1.2-.28-1.7.16a29.32 29.32 0 0 1-6.04 4.21z"/></g><path d="M249.38 230.44c-4.36.1-6 3.83-6.2 8.16-.2 4 1.12 8.62 6.2 8.64 4.86 0 6.17-3.53 6.1-9.1-.05-4-2.48-7.77-6.1-7.7zm3 8.93c-.1 3.36-1.13 5-2.77 5-2 .05-3.24-2.58-3.32-4.9s1.1-6 3-5.94c2.33.12 3.2 2.23 3.1 5.85z" class="D"/><g class="C"><path d="M228.35 73.1c-4.35.1-6 3.82-6.2 8.16-.2 4 1.13 8.62 6.2 8.64 4.86 0 6.18-3.53 6.1-9.1-.05-4-2.46-7.8-6.1-7.7zm3 8.93c-.1 3.36-1.13 5-2.76 5-2 0-3.25-2.58-3.33-4.92s1.1-6 3-5.93c2.33.12 3.2 2.23 3.1 5.8zm-9.13-25.37c-.57.3-.54.53-.33.9a5 5 0 0 0 1.16 1.44.74.74 0 0 0 .9.15 12.16 12.16 0 0 0 3.89-3c.2-.24.33-.1.32.3 0 2-.72 7.17-1.34 11.13-.06.37 0 1 .6 1.07a14 14 0 0 0 2.23 0c.72 0 1.1-.23 1.2-1a72 72 0 0 0-.05-14.38c-.1-.6-.2-.88-.9-1.05-.94-.2-1.2-.28-1.7.16a29.32 29.32 0 0 1-5.99 4.27z"/><use x="39.79" y="81.5" xlink:href="#I"/><use x="39.83" y="81.5" xlink:href="#H"/><use xlink:href="#L"/><use y="20" xlink:href="#L"/><path d="M229.56 171.9c-4.35.1-6 3.83-6.2 8.16-.2 4 1.12 8.62 6.2 8.64 4.87 0 6.18-3.53 6.1-9.1-.05-4-2.5-7.78-6.1-7.7zm3 8.93c-.1 3.36-1.12 5-2.76 5-2 .05-3.24-2.58-3.33-4.9s1.1-6 3-5.94c2.33.12 3.22 2.23 3.1 5.85zm-7.72 15.03c-.57.3-.53.53-.32.9a5 5 0 0 0 1.16 1.46.73.73 0 0 0 .9.15 12.18 12.18 0 0 0 3.89-3c.2-.23.32-.08.32.3 0 2-.72 7.18-1.34 11.14-.06.36 0 1 .6 1.07a14 14 0 0 0 2.23 0c.72 0 1.1-.23 1.2-1a71.2 71.2 0 0 0 0-14.38c-.08-.6-.2-.9-.9-1.05-.94-.2-1.2-.3-1.7.16a29.37 29.37 0 0 1-6.05 4.24zm5.53 15.24c-4.35.1-6 3.82-6.2 8.15-.2 4 1.12 8.62 6.2 8.65 4.86 0 6.18-3.54 6.1-9.1-.05-4-2.48-7.8-6.1-7.7zm3 8.93c-.1 3.35-1.13 5-2.76 5-2 .06-3.25-2.58-3.33-4.9s1.1-6 3-5.94c2.33.1 3.2 2.22 3.1 5.82zm-7.72 15.02c-.57.3-.53.53-.32.9a5 5 0 0 0 1.16 1.45.73.73 0 0 0 .9.15 12.13 12.13 0 0 0 3.89-3c.2-.23.32-.1.32.3 0 2-.72 7.17-1.35 11.13-.05.37 0 1 .62 1.07a14 14 0 0 0 2.23 0c.7 0 1.1-.22 1.2-1a71.33 71.33 0 0 0 0-14.39c-.08-.6-.2-.88-.9-1.05-.94-.2-1.2-.28-1.7.16a29.32 29.32 0 0 1-6.04 4.26zm1.3-202.35c-4.36.1-6 3.83-6.2 8.16-.2 4 1.12 8.62 6.2 8.64 4.86 0 6.17-3.53 6.1-9.1-.04-4-2.5-7.77-6.1-7.7zm3 8.93c-.12 3.36-1.13 5-2.77 5-2 0-3.24-2.58-3.33-4.9s1.1-6 3-5.94c2.34.12 3.22 2.22 3.1 5.85zM368.77-5.45c-4.35.1-6 3.83-6.2 8.16-.2 4 1.12 8.62 6.2 8.64 4.86 0 6.18-3.53 6.1-9.1-.05-4-2.5-7.77-6.1-7.7zm3 8.93c-.1 3.36-1.13 5-2.76 5-2 .05-3.25-2.58-3.33-4.9s1.1-6 3-5.94c2.32.12 3.2 2.23 3.1 5.85zm-3 11.08c-4.35.1-6 3.82-6.2 8.15-.2 4 1.12 8.62 6.2 8.64 4.86 0 6.18-3.53 6.1-9.1-.05-4-2.5-7.77-6.1-7.68zm3 8.92c-.1 3.36-1.13 5-2.76 5.05-2 .06-3.25-2.58-3.33-4.9s1.1-6 3-5.94c2.32.07 3.2 2.18 3.1 5.8zM369 34.35c-4.36.1-6 3.83-6.2 8.16-.2 4 1.12 8.62 6.2 8.64 4.86 0 6.17-3.53 6.1-9.1-.1-4.04-2.53-7.77-6.1-7.7zm3 8.93c-.1 3.36-1.12 5-2.76 5-2 .05-3.24-2.58-3.33-4.9s1.1-6 3-5.94c2.3.12 3.2 2.23 3.1 5.85zm-7.75 15.02c-.57.3-.53.53-.32.9a5 5 0 0 0 1.16 1.46.73.73 0 0 0 .9.15 12.3 12.3 0 0 0 3.89-3c.2-.24.33-.1.32.3 0 2-.72 7.17-1.34 11.13-.06.37-.05 1 .6 1.07a14 14 0 0 0 2.23 0c.72 0 1.1-.23 1.2-1a71.76 71.76 0 0 0-.06-14.33c-.08-.6-.2-.9-.9-1-.94-.2-1.2-.28-1.7.16a29.37 29.37 0 0 1-6 4.15zm5.53 15.25c-4.35.1-6 3.82-6.2 8.15-.2 4 1.12 8.62 6.2 8.65 4.86 0 6.18-3.54 6.1-9.1-.05-4-2.5-7.78-6.1-7.7zm3 8.93c-.1 3.35-1.13 5-2.76 5-2 .06-3.25-2.58-3.33-4.9s1.1-6 3-5.93c2.3.1 3.2 2.2 3.1 5.84z"/></g><use x="199.24" y="41.65" class="B" xlink:href="#G"/><path d="M364.9 116.74c-.57.3-.53.54-.32.9a5.09 5.09 0 0 0 1.16 1.46.74.74 0 0 0 .89.15 12.23 12.23 0 0 0 3.9-3c.2-.23.32-.08.3.3 0 2-.7 7.18-1.34 11.14-.05.36 0 1 .62 1.07a14 14 0 0 0 2.23 0c.7 0 1.1-.23 1.2-1a71.33 71.33 0 0 0-.05-14.39c-.08-.6-.2-.88-.9-1-.93-.22-1.2-.3-1.7.15a29.32 29.32 0 0 1-5.99 4.2z" class="D"/><path d="M367.36 196c-.57.3-.53.54-.32.9a5.09 5.09 0 0 0 1.16 1.46.76.76 0 0 0 .9.15 12.18 12.18 0 0 0 3.89-3c.2-.23.32-.08.32.3 0 2-.72 7.18-1.34 11.13-.06.37-.05 1 .6 1.07a14 14 0 0 0 2.23.05c.7 0 1.1-.23 1.2-1a71.33 71.33 0 0 0-.05-14.39c-.08-.6-.2-.88-.9-1-.94-.22-1.2-.3-1.7.15a29.32 29.32 0 0 1-5.99 4.16z" class="B"/><path d="M367.2 215.28c-.57.3-.53.53-.32.9a5 5 0 0 0 1.16 1.46.72.72 0 0 0 .89.15 12.34 12.34 0 0 0 3.9-3c.2-.23.32-.08.3.3 0 2-.7 7.18-1.34 11.14-.05.36 0 1 .62 1.07a14 14 0 0 0 2.23 0c.7 0 1.1-.23 1.2-1a71.2 71.2 0 0 0-.05-14.31c-.08-.6-.2-.9-.9-1.05-.93-.2-1.2-.3-1.7.16a29.32 29.32 0 0 1-5.99 4.17z" class="D"/><path d="M373.26 170.86c-4.35.1-6 3.82-6.2 8.15-.2 4 1.12 8.62 6.2 8.65 4.86 0 6.17-3.54 6.1-9.1-.04-4-2.5-7.78-6.1-7.7zm3 8.93c-.1 3.35-1.13 5-2.76 5-2 .06-3.25-2.58-3.33-4.9s1.1-6 3-5.94c2.33.1 3.2 2.22 3.1 5.85z" class="C"/><path d="M347.76 53.56c-4.35.1-6 3.82-6.2 8.16-.2 4 1.12 8.62 6.2 8.64 4.86 0 6.18-3.53 6.1-9.1-.05-4-2.5-7.78-6.1-7.7zm3 8.93c-.1 3.36-1.13 5-2.76 5.05-2 0-3.25-2.58-3.33-4.9s1.1-6 3-5.94c2.33.07 3.2 2.18 3.1 5.8z" class="D"/><path d="M341.63 37.1c-.57.3-.53.53-.33.9a5.39 5.39 0 0 0 1.16 1.45.74.74 0 0 0 .9.15 12.17 12.17 0 0 0 3.9-3c.18-.23.32-.1.3.3 0 2-.7 7.17-1.34 11.13-.06.37-.05 1 .62 1.07a14 14 0 0 0 2.23 0c.7 0 1.1-.22 1.2-1a72.11 72.11 0 0 0 0-14.39c-.1-.6-.2-.88-.9-1-.94-.2-1.2-.28-1.7.16a29.32 29.32 0 0 1-6.04 4.21zM348 73.36c-4.36.1-6 3.82-6.2 8.16-.2 4 1.12 8.62 6.2 8.64 4.86 0 6.17-3.53 6.1-9.1-.1-4-2.54-7.78-6.1-7.7zm3 8.93c-.1 3.36-1.12 5-2.76 5-2 0-3.24-2.58-3.33-4.92s1.1-6 3-5.93c2.3.12 3.18 2.23 3.1 5.85z" class="B"/><path d="M343.24 97.3c-.57.3-.53.54-.32.9a5 5 0 0 0 1.16 1.46.75.75 0 0 0 .9.15 12.18 12.18 0 0 0 3.89-3c.2-.23.33-.08.32.3 0 2-.72 7.18-1.34 11.14-.06.36-.05 1 .6 1.07a14 14 0 0 0 2.23 0c.72 0 1.1-.23 1.2-1a71.87 71.87 0 0 0-.06-14.35c-.08-.6-.2-.88-.9-1-.94-.2-1.2-.3-1.7.15a29 29 0 0 1-6 4.16zm5.53 15.26c-4.35.1-6 3.82-6.2 8.15-.2 4 1.12 8.62 6.2 8.64 4.86 0 6.18-3.53 6.1-9.1-.05-4-2.5-7.77-6.1-7.68zm3 8.92c-.1 3.36-1.13 5-2.76 5-2 .06-3.25-2.58-3.33-4.9s1.1-6 3-5.94c2.32.12 3.2 2.23 3.1 5.85z" class="D"/><path d="M348.77 132.56c-4.35.1-6 3.82-6.2 8.15-.2 4 1.12 8.62 6.2 8.65 4.86 0 6.18-3.54 6.1-9.12-.05-4-2.5-7.77-6.1-7.68zm3 8.93c-.1 3.35-1.13 5-2.76 5-2 .06-3.25-2.58-3.33-4.9s1.1-6 3-5.94c2.32.1 3.2 2.22 3.1 5.85z" class="B"/><g class="C"><path d="M349 152.35c-4.36.1-6 3.83-6.2 8.16-.2 4 1.12 8.62 6.2 8.64 4.86 0 6.17-3.53 6.1-9.1-.1-4.04-2.53-7.77-6.1-7.7zm3 8.93c-.1 3.36-1.12 5-2.76 5.05-2 0-3.24-2.58-3.33-4.9s1.1-6 3-5.94c2.3.07 3.2 2.18 3.1 5.8z"/><use xlink:href="#M"/><path d="M349.78 191.55c-4.35.1-6 3.82-6.2 8.15-.2 4 1.12 8.62 6.2 8.65 4.86 0 6.18-3.54 6.1-9.1-.05-4-2.5-7.78-6.1-7.7zm3 8.93c-.1 3.35-1.13 5-2.76 5-2 .06-3.25-2.58-3.33-4.9s1.1-6 3-5.93c2.3.1 3.2 2.22 3.1 5.84zm-7.72 15.02c-.57.3-.53.53-.32.9a4.9 4.9 0 0 0 1.16 1.45.75.75 0 0 0 .9.16 12.18 12.18 0 0 0 3.89-3c.2-.23.32-.08.32.3 0 2-.72 7.18-1.34 11.13-.06.37-.05 1 .6 1.07a15.34 15.34 0 0 0 2.23.05c.7 0 1.1-.23 1.2-1a71.33 71.33 0 0 0-.05-14.39c-.08-.6-.2-.88-.9-1-.94-.22-1.2-.3-1.7.15a29.32 29.32 0 0 1-5.99 4.16zm-.16 19.24c-.57.3-.53.54-.32.9a5 5 0 0 0 1.16 1.46.72.72 0 0 0 .89.15 12.23 12.23 0 0 0 3.9-3c.2-.23.32-.08.3.3 0 2-.7 7.18-1.34 11.14-.05.36 0 1 .62 1.07a14 14 0 0 0 2.23 0c.7 0 1.1-.23 1.2-1a71.33 71.33 0 0 0-.05-14.39c-.08-.6-.2-.88-.9-1-.93-.2-1.2-.3-1.7.15a28.93 28.93 0 0 1-5.99 4.2z"/><use xlink:href="#N"/><path d="M346.35 13.16c-4.36.1-6 3.82-6.2 8.15-.2 4 1.12 8.62 6.2 8.65 4.86 0 6.17-3.54 6.1-9.1-.05-4-2.5-7.78-6.1-7.7zm3 8.93c-.1 3.35-1.13 5-2.77 5-2 .06-3.24-2.58-3.32-4.9s1.1-6 3-5.94c2.33.1 3.2 2.22 3.1 5.85zm42.9 91.97c-4.35.1-6 3.82-6.2 8.16-.2 4 1.12 8.62 6.2 8.64 4.86 0 6.18-3.53 6.1-9.1-.05-4-2.5-7.75-6.1-7.7zm3 8.93c-.1 3.36-1.13 5-2.76 5-2 .05-3.25-2.58-3.33-4.9s1.1-6 3-5.94c2.33.12 3.2 2.23 3.1 5.86zm-9.12-25.4c-.57.3-.53.53-.33.9a5.39 5.39 0 0 0 1.2 1.5.74.74 0 0 0 .9.15 12.17 12.17 0 0 0 3.9-3c.18-.23.32-.1.3.3 0 2-.7 7.17-1.34 11.13-.06.37-.05 1 .62 1.07a14 14 0 0 0 2.23 0c.7 0 1.1-.22 1.2-1a72.11 72.11 0 0 0 0-14.39c-.1-.6-.2-.88-.9-1-.94-.2-1.2-.28-1.7.16a29.32 29.32 0 0 1-6.08 4.18zm6.34 36.26c-4.36.1-6 3.82-6.2 8.16-.2 4 1.12 8.62 6.2 8.64 4.86 0 6.17-3.53 6.1-9.1-.05-4-2.5-7.78-6.1-7.7zm3 8.93c-.1 3.36-1.12 5-2.76 5.05-2 0-3.24-2.58-3.33-4.92s1.1-6 3-5.93c2.32.07 3.2 2.18 3.08 5.8zm-7.73 15.02c-.57.3-.53.54-.32.9a5 5 0 0 0 1.16 1.46.75.75 0 0 0 .9.15 12.18 12.18 0 0 0 3.89-3c.2-.23.33-.08.32.3 0 2-.72 7.18-1.34 11.14-.06.36-.05 1 .6 1.07a14 14 0 0 0 2.23 0c.72 0 1.1-.23 1.2-1a71.87 71.87 0 0 0-.06-14.39c-.08-.6-.2-.88-.9-1-.94-.2-1.2-.3-1.7.15a29 29 0 0 1-6 4.2zm5.53 15.26c-4.35.1-6 3.82-6.2 8.15-.2 4 1.12 8.62 6.2 8.64 4.86 0 6.18-3.53 6.1-9.1-.05-4-2.5-7.74-6.1-7.68zm3 8.92c-.1 3.36-1.13 5-2.76 5.05-2 .06-3.25-2.58-3.33-4.9s1.1-6 3-5.94c2.33.07 3.2 2.18 3.1 5.82zm-2.8 30.87c-4.36.1-6 3.83-6.2 8.16-.2 4 1.12 8.62 6.2 8.64 4.86 0 6.17-3.53 6.1-9.1-.05-4-2.5-7.77-6.1-7.7zm3 8.93c-.1 3.36-1.12 5-2.76 5.05-2 0-3.24-2.58-3.33-4.9s1.1-6 3-5.94c2.32.07 3.2 2.18 3.08 5.8z"/><use x="44.5" y="60.5" xlink:href="#M"/></g><use x="44.5" y="60.5" class="B" xlink:href="#N"/><path d="M384.5 37.4c-.57.3-.53.53-.32.9a5 5 0 0 0 1.16 1.46.73.73 0 0 0 .9.15 12.29 12.29 0 0 0 3.89-3c.2-.23.32-.08.32.3 0 2-.72 7.18-1.35 11.14-.05.36 0 1 .62 1.07a14 14 0 0 0 2.23 0c.7 0 1.1-.23 1.2-1a71.2 71.2 0 0 0 0-14.38c-.08-.6-.2-.9-.9-1.05-.94-.2-1.2-.3-1.7.15a29.38 29.38 0 0 1-6.04 4.25z" class="D"/><path d="M390.85 73.66c-4.36.1-6 3.82-6.2 8.15-.2 4 1.12 8.62 6.2 8.65 4.86 0 6.17-3.54 6.1-9.1-.05-4-2.5-7.78-6.1-7.7zm3 8.93c-.1 3.35-1.13 5-2.77 5-2 .06-3.24-2.58-3.32-4.9s1.1-6 3-5.94c2.33.1 3.24 2.26 3.1 5.85z" class="B"/><path d="M-16 198.33c42.67-80.66 139-102.82 176.63-60.5 24.78 27.87 9.85 64.14 43.7 73.16 13.3 3.54 27.92-1.58 32.3-13.08 2.68-7-.12-15.13-10.36-18.2-12-3.6-19.88 2.16-23.56 7.5L161.4 91C123.9 55.65 39.18 66.1-16 113z" class="G"/><path fill="#bfdaf9" d="M33.62 108.8c5 6.67 9.14 3.78 15.88.88 17.12-7.4 35.25-11.25 50.9-11.4 6.67-.06 13.22-.36 14.72-9 1-5.57 3.88-13.5 9-16.7-26.8-5.8-59.68-1.94-90.6 10.6-5.9 7.6-4.03 20.1.1 25.6z"/><path d="M124.15 72.6c-24.7-5.35-54.6-2.46-83.33 7.85 6.4-2 10 3.87 11 5.88 1.42 2.9 4.75 3.84 9 2.34a123.63 123.63 0 0 1 55.77-5c1.53-4.42 4-8.87 7.56-11.07z" class="H"/><path fill="#3e416d" d="M57.67 121.33C22.18 136.67-1.56 158.1-16 178.05v20.28c42.67-80.66 139-102.82 176.63-60.5a58 58 0 0 1 7.21 10.09c-13.7-26.93-54.77-50.54-110.17-26.6z"/><path fill="#bfdaf9" d="M311.58 182.2c-4.17 11.4-17.6 17-27.55 13.33-25.4-9.36-75.92-24.6-122.26-39.27-6.63-2.1-10.2-2.88-9.43-14.66 2.45-36.65 7.86-63.88 14.93-86.92 2.62-8.56 4.2-10 8.37-12.83s11.56-7.54 11.56-7.54z"/><path fill="#96bcef" d="M204 160.14s-7.17 3.7-9.67 4.75c-2.2.92-2.27 2.44-2.8 5.06s-.53 5.24 1.92 9.25 2.44 7.2 9.25 8l12.8-3.06z"/><path d="M341.63 92.9c-7.25 20.7-19.38 49.48-28 83-2.4 9.35-4.45 13.6-16.5 9.42l-127.26-42.94c-6.54-2.1-7.43-4.72-6.8-13.1C166 91.06 177 53.36 180.88 43.4s10-13.48 23-11.5c43.46 6.54 100 28.53 132.2 47.64 8.6 5.1 7.37 8.12 5.54 13.36zM202.3 163c.5-2.1.88-3.84 4.9-2.8s46.08 14.3 48.7 15 1.74 1.92 1.22 3.67-1.4 6.8-5.6 7.5S237 190.9 237 190.9l-27.7-9.55a69 69 0 0 1-6.81-7.85c-1.92-2.97-1.4-5.42-.18-10.52z" class="H"/><path d="M204.33 211c13.3 3.54 27.92-1.58 32.3-13.08 2.68-7-.12-15.13-10.36-18.2-12-3.6-19.88 2.16-23.56 7.5m136-70.88S342 103 352.1 93.22c1.77-1.7 3.78-1.4 5.5.48s2.67 3.87.5 5.7c-3.63 3.08-9.54 9.28-15.6 19.9a2.06 2.06 0 0 1-2.83.37c-1.2-.8-1.25-2.1-.95-3.35zm7.23 5.8c2.13-3.57 9.82-10.26 16.2-12.36 2-.68 3.4 1.74 4 2.94s1.55 3.15-.27 3.66c-7.44 2.1-14.07 6-17.15 9-1.46 1.45-4.03-1.13-2.77-3.24z" class="G"/><path fill="#3e416d" d="M204.33 211c13.3 3.54 27.92-1.58 32.3-13.08a13.91 13.91 0 0 0 .84-6.71c-2.72 22.58-48.35 24.2-59.9-15.78 4 16.32 7.44 30.4 26.77 35.57z"/><g clip-path="url(#B)"><path d="M75.84 93.2c.22 1.34 0 3 1.5 3.7a6.42 6.42 0 0 0 2.85.87 2.37 2.37 0 0 0 2.07-1.34l2.1-3.32c.22-.43.56-.43.77.08s4.66 11.65 5.26 13.37 1.64 2.9 3 2.33a19.83 19.83 0 0 0 3.86-2.24c.65-.52 1-2 1.12-4.4l-14-17.1z" class="F"/><path d="M76.2 92.4c-.64.82-.33 1.17.26 1.53a12.52 12.52 0 0 0 3.43 1.42 1.2 1.2 0 0 0 1.39-.5 21.2 21.2 0 0 0 3.1-5.75c.17-.45.4-.37.7.2a163 163 0 0 1 6.51 15.64c.2.56.74 1.47 1.72 1a21.51 21.51 0 0 0 4.13-2.41c1.18-.86 1.12-1.47.66-2.58a104.66 104.66 0 0 0-11.49-19.73 1.58 1.58 0 0 0-2.1-.76C83 80.9 82.7 81 82.25 82a55.28 55.28 0 0 1-6.05 10.41z" class="E"/><path d="M128.57 84.33c.58 2.25.56 7.1-2.6 9.1-3.6 2.3-9.7 1.1-13.78-4s-1.9-11.6-1.9-11.6l4 8.5 6 4.47 4.55-1.35zm-13.74-3.93c.46-1.34 2.42-1.37 3.92-.25a11.93 11.93 0 0 1 4.92 7.34l.93.2v-5.8l-6.14-5.74-3.93.6-1.43 2.1z" class="F"/><path d="M112.5 74.4c-4.65 4.08-1.77 10.4 1.1 13.33s7.64 6.53 12.42 2.9 2.13-9.9-.85-13.38-9.27-5.82-12.66-2.85zm11.16 13.1c-1.17 1-3.78-.12-6.25-2.7-1.82-1.9-3.7-5.56-2.24-6.85 1.67-1.47 4.45-.13 6.63 2.2s3.6 5.77 1.86 7.35z" class="E"/><path d="M94.1 80.63c-.4.8-1.14 1.63-.6 2.6a4.34 4.34 0 0 0 1.24 1.56 1.57 1.57 0 0 0 1.64 0l2.42-1c.28-.14.47 0 .4.34L97 93.5c-.34 1.18-.2 2.2.77 2.42a13.62 13.62 0 0 0 3 .24c.55 0 1.34-.72 2.28-2l-1.17-14.7z" class="F"/><path d="M94.6 80.32c-.66.2-.62.52-.44.94a8.48 8.48 0 0 0 1.35 2.09.8.8 0 0 0 1 .25 14.72 14.72 0 0 0 3.89-2c.26-.2.35-.06.3.36a110 110 0 0 1-2.37 11.06c-.1.4-.16 1.08.55 1.2a14 14 0 0 0 3.19.25c1 0 1.17-.38 1.34-1.17a70.56 70.56 0 0 0 1.2-15.2c0-.65-.12-1-.87-1.2-1-.33-1.2-.38-1.83 0a36.22 36.22 0 0 1-7.32 3.42z" class="E"/><path d="M111.3 92.3c-1 .46-2.23.68-2.43 2a5.06 5.06 0 0 0 0 2.33 1.81 1.81 0 0 0 1.47 1.25l3 .82c.4.06.45.32.12.6s-7.66 6.16-8.82 7-1.78 1.9-1.05 2.8a15.85 15.85 0 0 0 2.56 2.37c.54.37 1.76.32 3.55-.17l9.62-14.4z" class="F"/><path d="M110.1 91.9c-.76-.3-1 0-1.1.55a10.07 10.07 0 0 0-.28 2.9.93.93 0 0 0 .69.92 17 17 0 0 0 5 1c.38 0 .37.2 0 .56a126.81 126.81 0 0 1-10.23 8.46c-.37.3-.93.9-.37 1.52a17.06 17.06 0 0 0 2.75 2.55c.92.68 1.36.5 2.1-.1a82.36 82.36 0 0 0 12.16-13.13 1.24 1.24 0 0 0 .17-1.74c-.67-1-.85-1.23-1.68-1.34a42.72 42.72 0 0 1-9.21-2.15z" class="E"/><path d="M69.45 93c-1.9 1-6.28 2.12-8.82-.27-2.9-2.74-3.2-8.5.5-13.35s10-4.35 10-4.35l-6.76 5.56-2.63 6.4L64 90.8zm.42-13.3c1.3.1 1.78 1.87 1.12 3.48a11.17 11.17 0 0 1-5.51 6.11v.9l5.25-1.3 3.8-6.87-1.43-3.4-2.22-.82z" class="F"/><path d="M74.77 76.22C70 73 65 77 63 80.24s-4.16 8.4.2 11.88 9.42-.33 11.88-3.8 3.14-9.7-.32-12.1zm-9.3 13.06c-1.2-.8-.76-3.44 1-6.25 1.3-2.08 4.18-4.6 5.68-3.58 1.7 1.17 1.12 4-.48 6.5-1.5 2.35-4.38 4.57-6.2 3.34z" class="E"/><path d="M52.74 103.18c.52.8.86 1.9 2 1.93a4.6 4.6 0 0 0 2.07-.27 1.66 1.66 0 0 0 .94-1.46l.38-2.73c.01-.34.24-.44.52-.17l7.24 7c.9.9 1.88 1.38 2.6.62a13.68 13.68 0 0 0 1.81-2.55c.27-.52.08-1.6-.56-3.13L55.9 95.55z" class="F"/><path d="M52.73 102.56c-.16.7.13.85.6.9a8.73 8.73 0 0 0 2.61-.09.84.84 0 0 0 .74-.72 15.09 15.09 0 0 0 .31-4.57c0-.34.14-.35.5-.08a115.2 115.2 0 0 1 8.7 8.1c.3.3.9.73 1.4.16a14.76 14.76 0 0 0 1.94-2.74c.5-.9.3-1.26-.33-1.84a73.72 73.72 0 0 0-13.04-9.29 1.11 1.11 0 0 0-1.57.13c-.82.7-1 .9-1 1.65a38.07 38.07 0 0 1-.85 8.38z" class="E"/><path d="M33.57 89.43c.4-2.3 2.45-6.72 6.18-7.25 4.27-.6 9.35 3 10.92 9.43s-3.1 11.4-3.1 11.4l-.14-9.45L43.8 87l-4.72-.66zm10.95 9.33c-1 1-2.8.24-3.7-1.4a12 12 0 0 1-1.43-8.77l-.77-.58-2.44 5.3 3.22 7.8 3.84 1.1 2.2-1.32z" class="F"/><path d="M44.13 105.23c5.95-1.8 5.95-8.77 4.56-12.65s-4.27-9.16-10.16-7.84-6.08 8.17-4.8 12.6 6.05 9.2 10.4 7.9zM39.4 88.58c1.5-.47 3.4 1.68 4.6 5.08.87 2.5 1.06 6.63-.8 7.2-2.14.65-4.12-1.73-5.15-4.77-.97-2.86-.9-6.8 1.37-7.5z" class="E"/><path d="M32.94 121.67c.94-.12 2.1.06 2.63-1a4.6 4.6 0 0 0 .66-2 1.66 1.66 0 0 0-.9-1.48l-2.3-1.54c-.3-.16-.3-.4.08-.54l9.47-3.44c1.22-.4 2.06-1.1 1.7-2.07a13.69 13.69 0 0 0-1.49-2.74c-.36-.47-1.4-.78-3.07-.87l-12.26 9.5z" class="F"/><path d="M32.4 121.4c.56.46.82.25 1.08-.15a8.92 8.92 0 0 0 1.06-2.39.84.84 0 0 0-.32-1 15.32 15.32 0 0 0-4-2.28c-.32-.13-.26-.28.14-.48a112.88 112.88 0 0 1 11.09-4.27c.4-.14 1-.5.75-1.18a14.91 14.91 0 0 0-1.61-3c-.58-.84-1-.8-1.8-.5a73.67 73.67 0 0 0-14.06 7.67c-.56.4-.8.66-.58 1.46.28 1.06.37 1.3 1 1.62a38.34 38.34 0 0 1 7.25 4.51z" class="E"/></g><path fill="#f8f9fe" d="M174.6 123.26c-1.2 10.23 2.93 13.13 7.6 14.4a1032 1032 0 0 1 106.55 35.08c10.22 3.9 13.62 5 16.23-3.14s22.52-64.92 25.92-73 .87-10.88-6.28-14.92c-19.9-11.26-73.16-31.5-117.3-39-12.32-2.15-15.6-.68-18.6 8.32C184 65.14 178 93.94 174.6 123.26z"/><path fill="#f0f5fd" d="M188.66 89.4c-3.26 10.6-5.28 24.6-6.16 37.1-.1 1.62 2 3.35 3.53 3.78 29.1 8 81 24.72 109.66 35.7a3.37 3.37 0 0 0 4.22-2.06c4.4-10.63 9-23.52 13-35.87a3 3 0 0 0-1.89-3.8c-40.7-15.5-74.95-26-119.24-36.6a2.61 2.61 0 0 0-3.12 1.72z"/><path fill="#ffab00" d="M189.75 104.62c8.63 1.44 9.9 17.4 29.47 23s29-11.54 36.77-9.42 5 23.82 21.35 29.74 19.76-9.88 26.5-8.77c1.56.26.62 2.2-.1 4.37s-4.66 13.38-4.66 13.38l-62.16-16.47S185.2 128 185.44 124c.4-6.6 2.2-19.72 4.3-19.38z"/><path fill="#ffd011" d="M187.27 120.17c11 2.45 21.45-13.6 36.1-9.13 14.44 4.4 4.9 25.3 21.58 30.93s20.7-7.45 33.52-4.48c9.1 2.1 12.64 11.43 19.15 16.3 1.48 1.1 1.86 1.93 1.45 3.1-1.42 4-2 6.3-7.24 4.25-24.26-9.47-77.1-26.8-105-34.1-2.08-.55-1.52-1.8-1.33-3.7.15-1.6.33-3.48 1.76-3.16z"/><path fill="#f0f5fd" d="M311.2 120.47a4.46 4.46 0 0 0 5.81-2.67l8.15-21.88c1.3-3.54 2.42-6.28-3.06-9.35S300.82 76.75 296.25 75c-2.9-1.13-6.3-2.1-7.74 1.77s-7.58 23.05-8.7 25.63-1.93 5.48 2.42 7.26c3.3 1.34 20.78 7.8 28.97 10.8zM191.07 79.6a219.15 219.15 0 0 1 6.86-27.6 4.75 4.75 0 0 1 5.42-3.23c7.48 1.42 23.44 4.56 32.9 7.3a3.66 3.66 0 0 1 2.53 4.41l-7.07 29.18a3.68 3.68 0 0 1-4.53 2.78c-6.22-1.6-19.28-4.9-32.5-7.58a4.57 4.57 0 0 1-3.61-5.26zm52.46-16.82l-6.66 27.62a3.82 3.82 0 0 0 2.69 4.6c6.18 1.74 19.27 5.5 29.8 9.18a3.51 3.51 0 0 0 4.45-2.17l9.4-27.42a4.06 4.06 0 0 0-2.4-5.11 308.37 308.37 0 0 0-31.56-10.13 4.72 4.72 0 0 0-5.74 3.43z"/><path d="M298.72 106.45c-5.4-2.5-5.8-7.8-4.87-11.27s4.67-8.37 12.3-5.68l1.42-4.24c-11.3-4-16.84 3.3-18.2 8.37s-.8 12.94 7.2 16.6c5.2 2.4 11 2.05 15-.83l-2.84-3.4a10.36 10.36 0 0 1-10.02.45z" class="H"/><path fill="#f05a6e" d="M316.68 92.75c-1.38-3.6-4.27-6.28-8.6-7.84a.78.78 0 0 0-1 .39 36.47 36.47 0 0 0-1.27 3.78.78.78 0 0 0 .46 1 8.34 8.34 0 0 1 5.35 4.84 10.22 10.22 0 0 1-.63 8 7.44 7.44 0 0 1-2.49 2.74.57.57 0 0 0 0 .82c.6.82 2 2.32 2.62 3.1.4.48.76.37.86.3a12.2 12.2 0 0 0 3.77-4.31c1.5-3.04 2.72-8.18.94-12.82z"/><path d="M259.4 86.5l.52-2.45c.14-.6 0-1.1-1-1.28l-2-.4.37-1.25c.2-.8.07-.92-1.35-1.43s-1.6.1-1.9.67c-.1.2-.32.66-.58 1.27l-2.27-.6c-.9-.22-.22-.75.2-1.15 1.82-1.8 6.8-5 9.36-6.57 1.38-.86.9-1.54-1.34-2.43-1.68-.67-2-.48-2.68.07-3.5 2.8-7.7 6.1-9.13 7.72a10.33 10.33 0 0 0-1.7 3.51c-.32 1.1.4 1.3 1.08 1.57 1.5.56 3.2 1.16 4.9 1.7l-1.27 3.2c-.2.56 0 .86.52 1.06l2.22.83c.37.13 1 .35 1.15-.18.06-.23.57-1.86 1.13-3.7l2.67.8c1.06.3 1-.45 1.12-.96z" class="E"/><g class="G"><path d="M212 75.45c.57 2.14 3.78 2.45 5.07.06s.24-4.15-2.1-4.28c-2.8-.16-3.54 2.32-2.98 4.22z"/><path d="M213.26 74.37l-1.34-8.78c-.22-1.64.44-2.3 1.15-.63s3.22 8.76 3.22 8.76z"/></g><path fill="#ffd011" d="M198.87 77.55a1.71 1.71 0 0 0 1.27-2 9.29 9.29 0 0 1 .83-6.13c3.68-7.6 13.44-10.76 19.25-7.5s9.94 8.78 6.27 16a18.63 18.63 0 0 1-2.24 3.43 1.63 1.63 0 0 0 .09 2.18 1.64 1.64 0 0 0 2.43-.1 22.75 22.75 0 0 0 2.84-4.32c4.64-9.1-.47-16.27-7.92-20.18-9.4-4.94-21.05.3-24.25 10.45a15.42 15.42 0 0 0-.7 6.75 1.73 1.73 0 0 0 2.13 1.45z"/><path fill="#f05a6e" d="M229.23 71.73a1.73 1.73 0 0 1 2.08 1.86 15.64 15.64 0 0 1-1.7 5.49 22.75 22.75 0 0 1-2.84 4.32 1.64 1.64 0 0 1-2.43.1 1.63 1.63 0 0 1-.09-2.18 18.63 18.63 0 0 0 2.24-3.43 12.1 12.1 0 0 0 1.37-4.61 1.71 1.71 0 0 1 1.37-1.55z"/><path d="M262.66 77.55c-.78.12-.83.4-.74.94a6.2 6.2 0 0 0 .78 2.16.9.9 0 0 0 1 .54 15.11 15.11 0 0 0 5.77-2c.32-.2.42 0 .25.5-.84 2.3-3.7 8.13-6 12.52-.2.4-.45 1.16.3 1.5a18.63 18.63 0 0 0 2.6.94c.85.24 1.38.17 1.78-.66a89.43 89.43 0 0 0 5.69-16.89 1.22 1.22 0 0 0-.65-1.59c-1-.62-1.28-.8-2-.5a36.55 36.55 0 0 1-8.78 2.54z" class="E"/></g></svg>