<svg xmlns="http://www.w3.org/2000/svg" xmlns:xlink="http://www.w3.org/1999/xlink" id="Layer_1" x="0" y="0" version="1.1" viewBox="0 0 400 240" xml:space="preserve" style="enable-background:new 0 0 400 240"><g><rect style="fill:#1e96ff" width="400" height="240"/><circle style="fill:#bfdaf9" cx="226.312" cy="158.812" r="5.562"/><g><defs><rect id="SVGID_1_" width="400" height="240"/></defs><clipPath id="SVGID_2_"><use xlink:href="#SVGID_1_" style="overflow:visible"/></clipPath><path style="clip-path:url(#SVGID_2_);fill:#4babff" d="M-19.027,35.032c8.416,4.119,26.575,13.002,29.185,14.253 c1.868,0.895,4.569,0.393,5.308-1.347c1.782-4.198-5.289-7.384-2.259-14.869c2.24-5.534,9.391-10.359,17.157-6.544 c7.19,3.532,8.388,11.411,5.174,17.241c-2.915,5.287-9.706,4.811-10.951,7.716c-0.747,1.744,0.84,3.202,2.634,3.853 c0.772,0.28,10.745,4.734,22.164,8.915c2.982,1.092,3.152,3.897,2.727,5.081c-3.39,9.46-7.309,20.197-8.995,24.088 c-1.154,2.662-2.571,3.368-4.126,2.686c-2.985-1.31-3.929-6.526-9.93-9.269c-4.613-2.108-10.587-1.094-13.756,5.905 c-3.169,6.999,0.582,13.586,7.656,16.273c6.44,2.446,10.173-3.307,13.072-2.279c1.724,0.612,1.935,1.51,1.56,3.006 c-1.248,4.982-6.227,18.183-8.993,25.378c-1.12,2.913-3.741,4.018-6.575,2.768c-7.442-3.284-21.575-9.52-26.229-11.562 c-1.492-0.655-2.798-0.457-3.53,1.304c-0.996,2.397,1.907,8.071-0.019,13.262c-1.989,5.362-7.203,9.498-14.849,6.361 c-8.602-3.529-9.444-10.709-5.828-16.289c3.132-4.832,8.305-4.873,9.79-7.456c0.997-1.735-0.173-2.801-1.782-3.431 c-2.564-1.004-16.055-7.245-26.484-11.556c-2.676-1.106-4.318-4.184-3.2-7.202c2.302-6.216,6.301-16.853,9.214-23.74 c0.544-1.287,3.214-2.3,4.714-1.664c3.235,1.373,3.714,7.509,11.566,10.85c5.579,2.374,11.382-0.088,14.245-5.715 c3.93-7.727-0.223-13.651-6.586-16.197c-6.173-2.47-10.366,4.952-15.913,2.203c-1.684-0.834-3.08-1.928-1.932-5.14 c0.544-1.523,4.214-13.987,9.608-24.222C-23.731,34.921-21.623,33.762-19.027,35.032z"/><path style="clip-path:url(#SVGID_2_);fill:#0f87f3" d="M53.564,269.738c-4.793-8.051-15.138-25.419-16.64-27.894 c-1.074-1.771-3.61-2.828-5.18-1.775c-3.788,2.54,0.39,9.075-6.241,13.684c-4.902,3.408-13.528,3.537-17.943-3.904 c-4.088-6.889-0.782-14.141,5.097-17.264c5.332-2.832,10.757,1.28,13.388-0.471c1.58-1.051,1.048-3.14-0.098-4.666 c-0.493-0.657-6.407-9.839-13.68-19.584c-1.899-2.545-0.507-4.986,0.496-5.745c8.012-6.066,17.165-12.912,20.704-15.247 c2.422-1.598,3.995-1.414,4.923,0.008c1.782,2.729-0.279,7.612,3.245,13.19c2.709,4.288,8.265,6.705,14.746,2.579 c6.481-4.126,6.942-11.693,2.49-17.81c-4.054-5.57-10.326-2.794-12.191-5.241c-1.109-1.455-0.794-2.322,0.338-3.369 c3.769-3.489,15.157-11.818,21.408-16.329c2.53-1.826,5.329-1.319,7.018,1.278c4.434,6.819,12.857,19.769,15.636,24.025 c0.891,1.365,2.093,1.913,3.668,0.839c2.145-1.462,2.818-7.8,7.268-11.093c4.597-3.402,11.224-4.013,15.911,2.796 c5.271,7.659,2.05,14.131-4.029,16.825c-5.265,2.333-9.618-0.462-12.273,0.888c-1.783,0.907-1.387,2.44-0.385,3.847 c1.598,2.243,9.479,14.846,15.853,24.158c1.636,2.39,1.327,5.864-1.259,7.78c-5.327,3.945-14.492,10.664-20.697,14.836 c-1.16,0.78-3.948,0.168-4.856-1.185c-1.958-2.918,0.997-8.318-3.749-15.409c-3.373-5.039-9.577-6.152-15.051-3.006 c-7.516,4.32-7.279,11.55-3.344,17.162c3.817,5.444,11.387,1.523,14.527,6.858c0.953,1.619,1.525,3.298-1.194,5.36 c-1.288,0.977-11.177,9.406-21.291,15.024C57.441,272.403,55.042,272.221,53.564,269.738z"/><path style="clip-path:url(#SVGID_2_);fill:#0078e6" d="M356.299,221.083c3.826-5.788,13.74-19.196,14.551-20.662 c1.066-1.928,0.831-4.054-0.633-4.935c-1.861-1.12-6.951,2.636-11.594-0.065c-5.55-3.229-7.202-9.587-4.075-15.004 c3.127-5.418,9.773-8.54,16.58-4.128c4.379,2.838,2.796,8.644,6.144,10.887c0.847,0.567,2.868,0.946,4.242-1.38 c1.059-1.793,9.605-16.21,13.464-22.72c1.146-1.934,3.663-2.088,6.244-0.576c4.53,2.655,11.516,6.639,15.612,8.433 c1.374,0.602,2.27,0.546,3.136-1.009c1.456-2.614-3.457-7.128-0.067-12.908c3.724-6.349,10.651-8.88,16.85-4.705 c6.199,4.175,6.204,10.069,3.434,14.152c-3.604,5.312-8.76,5.372-10.501,8.022c-0.907,1.381-0.459,2.855,1.907,4.393 c1.876,1.219,9.373,5.831,17.658,10.853c1.344,0.815,3.279,3.075,1.852,5.907c-9.074,18.013-27.035,45.134-36.412,56.702 c-1.651,2.037-3.225,2.78-5.034,1.821c-8.316-4.406-16.549-9.349-19.709-11.048c-2.725-1.465-3.99-0.497-4.888,0.95 c-2.344,3.776,1.996,9.865-1.804,15.524c-3.464,5.16-9.616,7.43-16.24,3.195c-5.37-3.433-5.367-10.619-2.401-15.249 c4.174-6.516,9.734-6.017,11.45-8.702c0.796-1.245,0.658-3.495-0.775-4.467c-4.95-3.356-10.889-6.143-15.925-8.185 C356.571,225.047,355.093,222.906,356.299,221.083z"/><path style="clip-path:url(#SVGID_2_);fill:#4babff" d="M284.016,75.553c1.375-0.958,2.76-0.578,3.964,0.699 c2.116,2.244-1.917,9.785,4.382,16.097c3.977,3.986,12.019,5.614,16.98,1.03c4.961-4.585,4.449-12.364,1.04-16.32 c-4.246-4.928-9.775-2.616-13.655-6.868c-1.185-1.299-0.879-2.182,0.657-3.593c2.042-1.876,13.544-11.485,19.767-16.67 c2.388-1.99,5.609-1.456,7.965,1.29c6.151,7.169,17.387,20.289,18.321,21.57c1.292,1.771,1.324,3.898-0.012,4.95 c-1.697,1.337-7.188-1.738-11.435,1.505c-5.077,3.877-5.917,10.357-2.157,15.316c3.76,4.959,10.708,7.214,16.877,2.014 c3.969-3.345,1.686-8.879,4.712-11.509c0.765-0.665,2.714-1.29,4.359,0.835c1.263,1.631,14.192,18.279,20.131,25.927 c1.798,2.314,1.227,5.041-1.329,6.874c-5.813,4.168-15.91,11.42-19.723,14.235c-1.707,1.26-1.66,2.408-0.759,3.401 c3.321,3.661,9.19,1.053,14.04,5.867c5.194,5.156,5.538,12.741-1.103,17.94c-7.13,5.582-13.747,2.652-17.76-2.517 c-3.91-5.036-0.335-11.613-2.588-14.649c-1.204-1.623-2.942-1.952-5.155-0.218c-8.233,6.445-38.642,28.186-40.861,29.772 l-58.289-64.181C251.321,101.103,276.314,80.919,284.016,75.553z"/><path style="clip-path:url(#SVGID_2_);fill:#0078e6" d="M166.694-32.113c-5.951,7.294-12.762,15.972-14.843,18.505 c-2.099,2.554-3.741,2.11-5.217,1.044c-3.849-2.781-2.03-10.56-8.082-14.611c-5.518-3.694-12.518-3.441-17.347,3.431 c-3.915,5.571-0.996,12.672,3.814,16.045c6.769,4.746,12.061,1.997,14.847,3.954c1.292,0.908,1.826,3.622,1.046,4.729 c-2.78,3.947-9.292,12.617-13.717,18.454c-1.606,2.118-2.901,5.426,0.247,7.761c10.862,8.053,22.252,16.22,22.962,16.776 c1.391,1.091,3.314,1.626,4.32,0.184c1.674-2.401-2.026-7.509,0.704-12.39c3.01-5.383,9.793-8.299,16.092-4.376 c6.803,4.238,6.511,12.225,3.257,16.697c-4.402,6.049-10.371,2.049-12.799,5.506c-1.007,1.434-0.078,3.803,1.54,4.834 c2.235,1.422,17.755,11.127,25.228,15.799c2.426,1.517,5.196,0.983,7.031-1.383c4.022-5.188,11.129-14.447,15.522-20.684 c0.805-1.143,0.254-3.944-1.08-4.881c-2.875-2.02-8.337,0.817-15.324-4.081c-4.965-3.481-5.943-9.708-2.679-15.113 c4.481-7.421,11.705-7.028,17.23-2.973c5.36,3.934,1.277,11.417,6.542,14.672c1.598,0.988,3.265,1.595,5.385-1.078 c1.024-1.291,9.061-11.935,15.87-21.491c1.503-2.11,0.143-5.104-1.758-6.321c-7.662-4.909-21.073-13.92-24.082-16.165 c-1.259-0.94-1.672-1.785-0.704-3.379c1.627-2.68,8.282-0.541,11.792-6.621c3.855-6.679,2.574-14.298-4.438-17.783 c-7.012-3.485-12.383-0.438-14.668,4.199c-2.972,6.032-0.358,10.76-1.871,13.717c-0.788,1.54-2.363,1.896-4.989,0.537 c-1.754-0.908-13.338-8.925-22.272-14.339C170.724-35.08,167.703-33.35,166.694-32.113z"/><path style="clip-path:url(#SVGID_2_);fill:#0f87f3" d="M189.924,76.375c-4.498,8.27-9.95,17.86-11.506,20.745 c-1.569,2.91-0.537,4.262,1.009,5.224c4.031,2.509,10.542-2.12,16.584,1.947c5.509,3.708,7.925,10.283,3.393,17.355 c-3.674,5.733-11.351,5.72-16.294,2.545c-6.956-4.468-6.416-10.407-9.282-12.244c-1.329-0.852-4.043-0.318-4.773,0.822 c-2.601,4.068-8.159,13.378-11.885,19.683c-1.352,2.289-3.924,4.74-7.276,2.71c-11.566-7.004-23.438-14.453-24.222-14.899 c-1.537-0.874-2.76-2.452-1.806-3.928c1.588-2.459,7.716-0.968,11.201-5.344c3.842-4.824,3.973-12.207-2.044-16.55 c-6.499-4.692-13.78-1.397-16.687,3.309c-3.932,6.365,2.031,10.374-0.249,13.931c-0.946,1.475-3.491,1.513-5.057,0.405 c-2.163-1.53-17.022-12.219-24.175-17.367c-2.322-1.671-2.878-4.437-1.382-7.031c3.279-5.687,9.157-15.771,13.266-22.198 c0.753-1.177,3.554-1.728,4.926-0.849c2.958,1.896,2.401,8.026,9.58,12.637c5.102,3.277,11.236,1.824,15.002-3.243 c5.172-6.958,2.072-13.495-3.773-17.073c-5.671-3.472-11.05,3.142-16.057-0.499c-1.52-1.105-2.713-2.417-1.042-5.392 c0.807-1.437,7.615-12.905,13.881-22.826c1.383-2.19,4.67-2.065,6.516-0.767c7.445,5.233,20.863,14.233,24.08,16.167 c1.346,0.809,1.711,0.947,2.82-0.552c1.864-2.521-2.751-7.787,1.547-13.339c4.721-6.097,12.948-7.954,18.829-2.784 c5.881,5.17,5.255,13.671,1.829,17.541c-4.458,5.035-10.133,3.072-12.297,5.593c-1.127,1.313-0.711,1.862,1.542,3.778 c1.505,1.28,13.311,8.965,21.705,15.183C191.143,71.522,190.686,74.972,189.924,76.375z"/><path style="clip-path:url(#SVGID_2_);fill:#0f87f3" d="M351.415,21.294c8.933,2.971,19.465,6.253,22.571,7.299 c3.133,1.055,3.302,2.747,2.83,4.505c-1.231,4.586-9.149,5.65-10.786,12.746c-1.493,6.47,1.232,12.924,9.372,14.996 c6.599,1.679,12.199-3.572,13.642-9.267c2.031-8.014-2.419-11.984-1.58-15.283c0.389-1.53,2.737-2.994,4.048-2.658 c4.678,1.196,15.095,4.202,22.123,6.264c2.551,0.749,6.103,0.784,7.166-2.989c3.667-13.015,7.254-26.564,7.522-27.424 c0.526-1.688,0.342-3.676-1.363-4.103c-2.84-0.712-6.299,4.562-11.832,3.744c-6.101-0.901-11.238-6.205-9.808-13.487 c1.544-7.865,9.113-10.43,14.45-8.977c7.218,1.965,5.6,8.966,9.695,10.007c1.698,0.432,3.583-1.278,3.971-3.157 c0.536-2.594,4.092-20.55,5.803-29.196c0.555-2.807-0.928-5.207-3.791-6.08c-6.279-1.916-17.459-5.269-24.849-7.159 c-1.354-0.346-3.777,1.164-4.179,2.744c-0.867,3.405,3.726,7.503,1.63,15.774c-1.489,5.878-6.963,9.005-13.174,7.875 c-8.529-1.552-10.728-8.444-8.901-15.05c1.772-6.408,10.218-5.25,11.39-11.329c0.356-1.845,0.331-3.618-2.921-4.65 c-1.571-0.498-14.375-4.228-25.728-7.197c-2.506-0.655-4.821,1.68-5.284,3.889c-1.866,8.906-5.523,24.644-6.553,28.254 c-0.431,1.511-1.074,2.197-2.908,1.859c-3.083-0.569-3.448-7.549-10.379-8.669c-7.613-1.23-14.279,2.674-15.045,10.467 c-0.766,7.793,3.99,11.731,9.137,12.219c6.695,0.635,10.185-3.489,13.487-3.125c1.72,0.189,2.612,1.535,2.275,4.472 c-0.225,1.962-3.603,15.639-5.489,25.914C347.21,18.581,349.9,20.79,351.415,21.294z"/></g><g><defs><rect id="SVGID_3_" width="400" height="240"/></defs><clipPath id="SVGID_4_"><use xlink:href="#SVGID_3_" style="overflow:visible"/></clipPath><g style="clip-path:url(#SVGID_4_)"><path style="fill:#f9fafe" d="M172,259.164c0,0-6.463-39.347-7.75-50.125c-0.333-2.792-1.792-3.792-3.792-3.5 c-3.741,0.546-5.88,7.719-12.208,8.5c-6.494,0.802-13.239-1.821-14.313-10.812c-1-8.375,4.619-13.482,11.938-13.438 c6.833,0.042,9.125,6.042,14.062,5.812c1.34-0.062,2.186-0.838,1.875-2.938c-1-6.75-4.671-29.223-4.671-29.223 s34.692-4.277,37.358-4.611c2.667-0.333,3.598,1.489,3.667,2.5c0.271,4-5.262,6.285-4.833,11.458 c0.667,8.042,7.167,11.375,13.333,10.542c6.167-0.833,10.167-6,9.333-12.333c-0.697-5.298-6.75-7.021-7-9.167 c-0.197-1.688,1.333-3.167,3.5-3.5c2.167-0.333,34.284-2.678,34.284-2.678s2.438,27.119,2.591,30.952 c0.083,2.083-0.327,2.924-2.083,3c-5.75,0.25-8.012-5.3-14.5-4.833c-5.208,0.375-11.083,5.5-10.833,12.25 s7.078,11.301,12.708,11.309c8.917,0.011,11.417-8.167,14.5-8.25c1.754-0.047,3.001,0.667,3.292,2.316 c1.998,11.329,6.542,56.767,6.542,56.767H172"/><path style="fill:#f0f5fd" d="M244.661,76.766c19.534-1.846,38.902-3.746,57.006-5.602c13-1.333,22.667,3,24,18.333 c1.333,15.333,9.333,112,17.667,161.667L81,263.164c0,0-18-131.333-20-148.333s2.927-23.997,19-24.667 c10.091-0.42,27.718-1.63,49.691-3.352l-13.358,37.019l9.333,29.667l31.475,9.944l44.814,26.056L225,178.83l21.784-23.178 L282,117.497L267,88.83L244.661,76.766z"/><path style="fill:#bfdaf9" d="M109.375,170.289c-0.093,2.978-4.638,5.45-5.125,11.188c-0.562,6.625,3.562,12.562,12.812,11.625 c8.223-0.833,10.875-6.938,10.104-12.604c-0.746-5.486-5.979-9.125-6.229-11.708c-0.184-1.898,0.875-2.688,2.5-2.812 c6.997-0.538,33.704-2.535,33.704-2.535s-2.892-24.777-4.642-31.777c-0.374-1.495-0.982-2.189-2.792-1.917 c-3.042,0.458-3.625,7.292-10.458,8.167c-7.505,0.961-13.917-3.083-14.417-10.75c-0.5-7.667,4.292-11.375,9.354-11.688 c6.586-0.406,9.875,3.75,13.125,3.5c1.693-0.13,2.611-1.421,2.375-4.312c-0.388-4.755-2.365-18.489-3.949-29.138 c-29.386,2.401-53.293,4.12-65.738,4.638c-16.073,0.67-21,7.667-19,24.667c0.769,6.537,3.905,29.985,7.472,56.367 c11.194-0.877,34.503-2.718,37.715-3.096C107.903,167.899,109.438,168.289,109.375,170.289z"/><path style="fill:#bfdaf9" d="M245.125,112.039c6.188-0.188,6.391-8.71,13-9.438c6.812-0.75,13.266,2.52,13.438,11.188 c0.125,6.312-3.835,11.217-9.875,11.75c-8.5,0.75-11.812-4.438-15.312-4.125c-1.623,0.145-3.501,2.296-3.375,3.688 c1,11.062,3.784,30.552,3.784,30.552s30.961-1.087,34.466-1.239c1.917-0.083,3.906-1.672,3.75-3.417 c-0.375-4.208-7.544-3.727-8.333-11.167c-0.583-5.5,3.156-12.563,11.167-12.833c7.417-0.25,11.833,5.667,11.75,11.833 c-0.076,5.593-5.833,8.167-5.583,11.083c0.15,1.751,2.083,2.25,3.833,2c1.001-0.143,18.422-2.004,33.148-3.571 c-2.745-28.337-4.711-51.91-5.315-58.845c-1.333-15.333-11-19.667-24-18.333c-20.311,2.083-42.214,4.22-64.157,6.275 c1.37,12.46,3.217,29.133,3.49,30.975C241.5,111.789,243.247,112.096,245.125,112.039z"/><path style="fill:#bfdaf9" d="M252.458,202.397c-0.291-1.65-1.538-2.364-3.292-2.317c-3.083,0.083-5.583,8.261-14.5,8.25 c-5.631-0.007-12.458-4.558-12.708-11.308s5.625-11.875,10.833-12.25c6.488-0.467,8.75,5.083,14.5,4.833 c1.756-0.076,2.167-0.917,2.083-3c-0.153-3.834-2.591-30.952-2.591-30.952s-32.117,2.344-34.284,2.678s-3.697,1.812-3.5,3.5 c0.25,2.146,6.303,3.869,7,9.167c0.833,6.333-3.167,11.5-9.333,12.333c-6.167,0.833-12.667-2.5-13.333-10.542 c-0.429-5.173,5.104-7.458,4.833-11.458c-0.068-1.011-1-2.833-3.667-2.5s-37.358,4.611-37.358,4.611s3.671,22.473,4.671,29.223 c0.311,2.099-0.535,2.875-1.875,2.938c-4.938,0.229-7.229-5.771-14.062-5.812c-7.318-0.045-12.938,5.062-11.938,13.438 c1.074,8.991,7.819,11.614,14.312,10.812c6.328-0.781,8.467-7.955,12.208-8.5c2-0.292,3.458,0.708,3.792,3.5 c1.24,10.382,7.282,47.272,7.724,49.964l86.609-3.962C257.414,243.594,254.089,211.642,252.458,202.397z"/><path style="fill:#bfdaf9" d="M339.432,224.595c-9.206,0.79-33.193,2.843-34.807,2.944c-2,0.125-3.191-0.88-3.375-2.875 c-0.375-4.062,7.37-4.509,6.75-11.875c-0.562-6.688-6.438-10.25-12.625-9.812c-4.797,0.339-10.412,4.55-9.938,11.25 c0.5,7.062,7.812,8.812,8.062,11.375c0.182,1.866-1.625,3.312-4,3.562s-36.75,3-36.75,3l2.54,23.027l88.044-4.027 C342.016,243.313,340.707,234.287,339.432,224.595z"/><path style="fill:#f0f5fd" d="M170.445,250.554l87.419-4.946L256,232c0,0-26.379,2.276-29.075,2.821 c-2.583,0.522-4.145,2.287-3.561,5.287C223.862,242.67,170.445,250.554,170.445,250.554z"/></g></g><g><path style="fill:#ffab00" d="M236.867,41.852c0,0,4.133,0.961,6.851,1.971c2.449,0.91,7.247,2.705,8.47,5.803 c3.75,9.5,9.776,22.944,11.941,24.514c1.708,1.238,1.879-0.085,3.928-3.928s14.519-13.766,21.342-12.713 c6.841,1.056,14.508,6.129,17.089,12.969c2.562,6.789,1.025,17.294-10.376,22.93c-7.756,3.835-18.062-0.256-20.496,0.769 c-2.062,0.868-1.497,2.867,0,6.277c2.306,5.252,7.944,14.178,12.684,20.411c3.534,4.646,1.7,9.521-2.175,10.896 c-2.592,0.92-34.869,13.49-35.874,14.041c-2.312,1.267-2.14,3.469,2.434,4.74c6.917,1.922,10.504,9.351,10.889,14.988 c0.52,7.626-4.74,18.19-20.231,18.891l-5.133-34.648L236.867,41.852z"/><path style="fill:#ffab00" d="M182.101,172.06c0,0,6.149,0.051,8.711,0.043c2.562-0.009,3.459,0.119,6.277-1.29 s30.317-14.774,30.317-14.774l0.939-5.508l-4.227-2.05l-41.633,20.368L182.101,172.06z"/><path style="fill:#ffab00" d="M125.378,156.145c2.859,2.554,13.305,11.014,23.956,7.105c13.167-4.833,6.462-16.515,14.917-19.333 l-2.133-4.787L125.378,156.145z"/><path style="fill:#ffd011" d="M280.25,129.375c-9.554,4.235-33.023,13.19-35.242,14.392c-2.919,1.58-4.347,4.468-3.206,6.775 c1.451,2.932,10.959,2.302,14.655,9.5c4.418,8.605,1.349,18.011-7.018,22.344c-8.367,4.333-19.335,2.894-24.386-8.231 c-3.249-7.157,3.474-13.237,1.049-18.802c-0.613-1.407-2.871-3.53-6.503-1.695c-2.8,1.415-25.352,12.762-35.535,17.885 c-3.025,1.522-6.344-0.326-8.389-4.341c-3.591-7.048-9.216-17.776-12.955-23.38c-1.254-1.879-2.436-2.536-4.798-1.267 c-3.971,2.133-1.404,11.85-10.401,16.43c-9.881,5.029-20.724,2.613-25.197-7.719c-4.473-10.332,0.309-17.813,7.14-20.743 c8.887-3.811,15.476,0.301,19.837-1.647c2.272-1.015,2.902-3.249,1.149-7.122c-1.39-3.071-7.154-15.01-13.586-28.111 c-1.043-2.125-1.662-6.564,2.448-8.998c26.142-15.481,70.957-35.297,92.249-42.354c3.75-1.243,6.349-0.908,7.866,1.779 c6.971,12.345,13.399,25.302,16.029,30.025c2.267,4.072,4.657,3.872,6.973,2.765c6.041-2.886,5.481-14.136,14.898-18.229 c8.586-3.732,18.234-1.614,23.198,9.138c4.024,8.716-1.817,17.83-9.341,21.294c-10.588,4.875-17.235-0.274-21.594,1.738 c-2.021,0.933-3.674,3.898-2.645,6.296c3.554,8.278,8.824,16.638,13.554,23.319C283.125,124.125,283.26,128.041,280.25,129.375z"/><g><path style="fill:#ffab00" d="M182.053,106.55c0.786-3.001-0.225-4.252-4.386-3.711c-4.161,0.541-4.236,1.194-4.605,3.749 c-0.369,2.554-1.59,15.856-1.857,18.855c-0.268,2.999,0.327,3.143,2.715,3.85s17.757,4.99,19.808,5.53s3.872,0.648,4.803-2.148 s0.915-3.765-1.81-4.637c-2.726-0.873-18.223-5.145-18.223-5.145S180.876,111.048,182.053,106.55z"/><path style="fill:#ffab00" d="M205.325,90.762c-0.035-2.335,0.209-4.482,2.276-4.525s3.54-0.23,4.439-0.305 c0.9-0.075,1.981,0.482,1.735,2.185c-0.246,1.703-0.951,36.702-1.112,37.881c-0.161,1.178-0.707,2.388-3.24,2.276 c-2.533-0.112-3.545-0.61-3.476-3.657C206.017,121.569,205.465,100.198,205.325,90.762z"/><path style="fill:#ffab00" d="M221.298,82.895c0.266-2.022,0.766-4.011,1.172-5.339c0.407-1.328,1.167-1.521,2.785-0.75 s19.798,10.061,21.693,11.067c1.896,1.007,2.72,3.138,1.709,5.746c-1.012,2.608-7.18,17.099-8.331,19.589 c-1.151,2.49-1.922,4.107-4.278,3.786c-2.356-0.321-5.815,0.097-4.445-3.641c1.371-3.738,6.543-16.204,6.923-17.077 c0.38-0.873,1.44-2.126-0.653-3.181c-2.094-1.055-13.447-6.837-14.866-7.56S221.1,84.4,221.298,82.895z"/></g></g><path style="fill:#3e416d" d="M185.281,178.68c2.225,5.37,3.216,12.828,3.719,17.32c0.168,1.497-0.894,3.098-5.584,3.21 c-1.633,0.039-2.8-0.575-2.72-1.602c0.579-7.459,0.469-13.926,0.35-18.515c-0.023-0.902,0.481-1.554,1.72-1.748 C184.161,177.128,185.031,178.076,185.281,178.68z"/><path style="fill:#3e416d" d="M171.574,172.228c-0.859-1.919-2.723-1.818-3.313-1.65c-5.149,1.463-11.225,3.826-17.323,6.997 c-0.67,0.348-0.935,1.025-0.785,1.764c0.455,2.25,1.192,4.004,2.35,5.792c0.456,0.704,1.275,1.176,1.957,0.687 c6.976-4.999,11.641-7.961,16.322-10.958C171.465,174.423,172.233,173.703,171.574,172.228z"/></g></svg>