<svg height="512" viewBox="0 0 64 64" width="512" xmlns="http://www.w3.org/2000/svg"><path d="m55 45h-22v-7a1 1 0 0 0 -2 0v7h-22a1 1 0 0 0 -1 1v7a1 1 0 0 0 2 0v-6h21v6a1 1 0 0 0 2 0v-6h21v6a1 1 0 0 0 2 0v-7a1 1 0 0 0 -1-1z" fill="#ff6243"/><path d="m44.37 25a13.361 13.361 0 0 1 -.79 1.92l3.98 3.98-5.66 5.66-3.98-3.98a13.361 13.361 0 0 1 -1.92.79v5.63h-8v-5.63a13.361 13.361 0 0 1 -1.92-.79l-3.98 3.98-5.66-5.66 3.98-3.98a13.361 13.361 0 0 1 -.79-1.92h-5.63v-8h5.63a13.361 13.361 0 0 1 .79-1.92l-3.98-3.98 5.66-5.66 3.98 3.98a13.361 13.361 0 0 1 1.92-.79v-5.63h8v5.63a13.361 13.361 0 0 1 1.92.79l3.98-3.98 5.66 5.66-3.98 3.98a13.361 13.361 0 0 1 .79 1.92h5.63v8z" fill="#ffa733"/><circle cx="32" cy="21" fill="#df2a47" r="7"/><circle cx="32" cy="21" fill="#ff3051" r="5"/><path d="m32 52h-6v9h12v-9z" fill="#7ed63e"/><path d="m55 52h-6v9h12v-9z" fill="#ffcd00"/><path d="m9 52h-6v9h12v-9z" fill="#57a4ff"/><path d="m30 59h-1a1 1 0 0 1 0-2h1a1 1 0 0 1 0 2z" fill="#f1f2f2"/><path d="m35 59h-2a1 1 0 0 1 0-2h2a1 1 0 0 1 0 2z" fill="#f1f2f2"/><path d="m53 59h-1a1 1 0 0 1 0-2h1a1 1 0 0 1 0 2z" fill="#f1f2f2"/><path d="m58 59h-1a1 1 0 0 1 0-2h1a1 1 0 0 1 0 2z" fill="#f1f2f2"/><path d="m12 59h-6a1 1 0 0 1 0-2h6a1 1 0 0 1 0 2z" fill="#f1f2f2"/><path d="m12 41h-5a5.006 5.006 0 0 1 -5-5v-27a5.006 5.006 0 0 1 5-5h5a1 1 0 0 1 0 2h-5a3 3 0 0 0 -3 3v27a3 3 0 0 0 3 3h5a1 1 0 0 1 0 2z" fill="#57a4ff"/><path d="m57 41h-5a1 1 0 0 1 0-2h5a3 3 0 0 0 3-3v-27a3 3 0 0 0 -3-3h-4a1 1 0 0 1 0-2h4a5.006 5.006 0 0 1 5 5v27a5.006 5.006 0 0 1 -5 5z" fill="#57a4ff"/><g fill="#ee8700"><path d="m31 6h2v2h-2z"/><path d="m21.101 10.101h2v2h-2z" transform="matrix(.707 -.707 .707 .707 -1.376 18.879)"/><path d="m17 20h2v2h-2z"/><path d="m21.101 29.9h2v2h-2z" transform="matrix(.707 -.707 .707 .707 -15.376 24.678)"/><path d="m31 34h2v2h-2z"/><path d="m40.9 29.9h2v2h-2z" transform="matrix(.707 -.707 .707 .707 -9.577 38.678)"/><path d="m45 20h2v2h-2z"/><path d="m40.9 10.101h2v2h-2z" transform="matrix(.707 -.707 .707 .707 4.423 32.879)"/></g><path d="m30 54h-1a1 1 0 0 0 0 2h1a1 1 0 0 0 0-2z" fill="#f1f2f2"/><path d="m33 56h2a1 1 0 0 0 0-2h-2a1 1 0 0 0 0 2z" fill="#f1f2f2"/><path d="m53 54h-1a1 1 0 0 0 0 2h1a1 1 0 0 0 0-2z" fill="#f1f2f2"/><path d="m57 56h1a1 1 0 0 0 0-2h-1a1 1 0 0 0 0 2z" fill="#f1f2f2"/><path d="m5 55a1 1 0 0 0 1 1h6a1 1 0 0 0 0-2h-6a1 1 0 0 0 -1 1z" fill="#f1f2f2"/><circle cx="12" cy="40" fill="#006df0" r="2"/><circle cx="12" cy="5" fill="#006df0" r="2"/><circle cx="52" cy="5" fill="#006df0" r="2"/><circle cx="51" cy="40" fill="#006df0" r="2"/></svg>